G04 #@! TF.GenerationSoftware,KiCad,Pcbnew,5.1.5*
G04 #@! TF.CreationDate,2019-12-21T09:41:56+01:00*
G04 #@! TF.ProjectId,leg_sensor_board,6c65675f-7365-46e7-936f-725f626f6172,rev?*
G04 #@! TF.SameCoordinates,Original*
G04 #@! TF.FileFunction,Copper,L1,Top*
G04 #@! TF.FilePolarity,Positive*
%FSLAX46Y46*%
G04 Gerber Fmt 4.6, Leading zero omitted, Abs format (unit mm)*
G04 Created by KiCad (PCBNEW 5.1.5) date 2019-12-21 09:41:56*
%MOMM*%
%LPD*%
G04 APERTURE LIST*
%ADD10C,0.100000*%
%ADD11R,1.500000X1.000000*%
%ADD12R,0.400000X0.650000*%
%ADD13R,1.700000X1.700000*%
%ADD14O,1.700000X1.700000*%
%ADD15C,0.800000*%
%ADD16C,0.250000*%
%ADD17C,0.254000*%
G04 APERTURE END LIST*
G04 #@! TA.AperFunction,SMDPad,CuDef*
D10*
G36*
X121027691Y-103026053D02*
G01*
X121048926Y-103029203D01*
X121069750Y-103034419D01*
X121089962Y-103041651D01*
X121109368Y-103050830D01*
X121127781Y-103061866D01*
X121145024Y-103074654D01*
X121160930Y-103089070D01*
X121175346Y-103104976D01*
X121188134Y-103122219D01*
X121199170Y-103140632D01*
X121208349Y-103160038D01*
X121215581Y-103180250D01*
X121220797Y-103201074D01*
X121223947Y-103222309D01*
X121225000Y-103243750D01*
X121225000Y-103756250D01*
X121223947Y-103777691D01*
X121220797Y-103798926D01*
X121215581Y-103819750D01*
X121208349Y-103839962D01*
X121199170Y-103859368D01*
X121188134Y-103877781D01*
X121175346Y-103895024D01*
X121160930Y-103910930D01*
X121145024Y-103925346D01*
X121127781Y-103938134D01*
X121109368Y-103949170D01*
X121089962Y-103958349D01*
X121069750Y-103965581D01*
X121048926Y-103970797D01*
X121027691Y-103973947D01*
X121006250Y-103975000D01*
X120568750Y-103975000D01*
X120547309Y-103973947D01*
X120526074Y-103970797D01*
X120505250Y-103965581D01*
X120485038Y-103958349D01*
X120465632Y-103949170D01*
X120447219Y-103938134D01*
X120429976Y-103925346D01*
X120414070Y-103910930D01*
X120399654Y-103895024D01*
X120386866Y-103877781D01*
X120375830Y-103859368D01*
X120366651Y-103839962D01*
X120359419Y-103819750D01*
X120354203Y-103798926D01*
X120351053Y-103777691D01*
X120350000Y-103756250D01*
X120350000Y-103243750D01*
X120351053Y-103222309D01*
X120354203Y-103201074D01*
X120359419Y-103180250D01*
X120366651Y-103160038D01*
X120375830Y-103140632D01*
X120386866Y-103122219D01*
X120399654Y-103104976D01*
X120414070Y-103089070D01*
X120429976Y-103074654D01*
X120447219Y-103061866D01*
X120465632Y-103050830D01*
X120485038Y-103041651D01*
X120505250Y-103034419D01*
X120526074Y-103029203D01*
X120547309Y-103026053D01*
X120568750Y-103025000D01*
X121006250Y-103025000D01*
X121027691Y-103026053D01*
G37*
G04 #@! TD.AperFunction*
G04 #@! TA.AperFunction,SMDPad,CuDef*
G36*
X119452691Y-103026053D02*
G01*
X119473926Y-103029203D01*
X119494750Y-103034419D01*
X119514962Y-103041651D01*
X119534368Y-103050830D01*
X119552781Y-103061866D01*
X119570024Y-103074654D01*
X119585930Y-103089070D01*
X119600346Y-103104976D01*
X119613134Y-103122219D01*
X119624170Y-103140632D01*
X119633349Y-103160038D01*
X119640581Y-103180250D01*
X119645797Y-103201074D01*
X119648947Y-103222309D01*
X119650000Y-103243750D01*
X119650000Y-103756250D01*
X119648947Y-103777691D01*
X119645797Y-103798926D01*
X119640581Y-103819750D01*
X119633349Y-103839962D01*
X119624170Y-103859368D01*
X119613134Y-103877781D01*
X119600346Y-103895024D01*
X119585930Y-103910930D01*
X119570024Y-103925346D01*
X119552781Y-103938134D01*
X119534368Y-103949170D01*
X119514962Y-103958349D01*
X119494750Y-103965581D01*
X119473926Y-103970797D01*
X119452691Y-103973947D01*
X119431250Y-103975000D01*
X118993750Y-103975000D01*
X118972309Y-103973947D01*
X118951074Y-103970797D01*
X118930250Y-103965581D01*
X118910038Y-103958349D01*
X118890632Y-103949170D01*
X118872219Y-103938134D01*
X118854976Y-103925346D01*
X118839070Y-103910930D01*
X118824654Y-103895024D01*
X118811866Y-103877781D01*
X118800830Y-103859368D01*
X118791651Y-103839962D01*
X118784419Y-103819750D01*
X118779203Y-103798926D01*
X118776053Y-103777691D01*
X118775000Y-103756250D01*
X118775000Y-103243750D01*
X118776053Y-103222309D01*
X118779203Y-103201074D01*
X118784419Y-103180250D01*
X118791651Y-103160038D01*
X118800830Y-103140632D01*
X118811866Y-103122219D01*
X118824654Y-103104976D01*
X118839070Y-103089070D01*
X118854976Y-103074654D01*
X118872219Y-103061866D01*
X118890632Y-103050830D01*
X118910038Y-103041651D01*
X118930250Y-103034419D01*
X118951074Y-103029203D01*
X118972309Y-103026053D01*
X118993750Y-103025000D01*
X119431250Y-103025000D01*
X119452691Y-103026053D01*
G37*
G04 #@! TD.AperFunction*
D11*
X107950000Y-114600000D03*
X107950000Y-111400000D03*
X103050000Y-114600000D03*
X103050000Y-111400000D03*
G04 #@! TA.AperFunction,SMDPad,CuDef*
D10*
G36*
X100452691Y-106526053D02*
G01*
X100473926Y-106529203D01*
X100494750Y-106534419D01*
X100514962Y-106541651D01*
X100534368Y-106550830D01*
X100552781Y-106561866D01*
X100570024Y-106574654D01*
X100585930Y-106589070D01*
X100600346Y-106604976D01*
X100613134Y-106622219D01*
X100624170Y-106640632D01*
X100633349Y-106660038D01*
X100640581Y-106680250D01*
X100645797Y-106701074D01*
X100648947Y-106722309D01*
X100650000Y-106743750D01*
X100650000Y-107256250D01*
X100648947Y-107277691D01*
X100645797Y-107298926D01*
X100640581Y-107319750D01*
X100633349Y-107339962D01*
X100624170Y-107359368D01*
X100613134Y-107377781D01*
X100600346Y-107395024D01*
X100585930Y-107410930D01*
X100570024Y-107425346D01*
X100552781Y-107438134D01*
X100534368Y-107449170D01*
X100514962Y-107458349D01*
X100494750Y-107465581D01*
X100473926Y-107470797D01*
X100452691Y-107473947D01*
X100431250Y-107475000D01*
X99993750Y-107475000D01*
X99972309Y-107473947D01*
X99951074Y-107470797D01*
X99930250Y-107465581D01*
X99910038Y-107458349D01*
X99890632Y-107449170D01*
X99872219Y-107438134D01*
X99854976Y-107425346D01*
X99839070Y-107410930D01*
X99824654Y-107395024D01*
X99811866Y-107377781D01*
X99800830Y-107359368D01*
X99791651Y-107339962D01*
X99784419Y-107319750D01*
X99779203Y-107298926D01*
X99776053Y-107277691D01*
X99775000Y-107256250D01*
X99775000Y-106743750D01*
X99776053Y-106722309D01*
X99779203Y-106701074D01*
X99784419Y-106680250D01*
X99791651Y-106660038D01*
X99800830Y-106640632D01*
X99811866Y-106622219D01*
X99824654Y-106604976D01*
X99839070Y-106589070D01*
X99854976Y-106574654D01*
X99872219Y-106561866D01*
X99890632Y-106550830D01*
X99910038Y-106541651D01*
X99930250Y-106534419D01*
X99951074Y-106529203D01*
X99972309Y-106526053D01*
X99993750Y-106525000D01*
X100431250Y-106525000D01*
X100452691Y-106526053D01*
G37*
G04 #@! TD.AperFunction*
G04 #@! TA.AperFunction,SMDPad,CuDef*
G36*
X102027691Y-106526053D02*
G01*
X102048926Y-106529203D01*
X102069750Y-106534419D01*
X102089962Y-106541651D01*
X102109368Y-106550830D01*
X102127781Y-106561866D01*
X102145024Y-106574654D01*
X102160930Y-106589070D01*
X102175346Y-106604976D01*
X102188134Y-106622219D01*
X102199170Y-106640632D01*
X102208349Y-106660038D01*
X102215581Y-106680250D01*
X102220797Y-106701074D01*
X102223947Y-106722309D01*
X102225000Y-106743750D01*
X102225000Y-107256250D01*
X102223947Y-107277691D01*
X102220797Y-107298926D01*
X102215581Y-107319750D01*
X102208349Y-107339962D01*
X102199170Y-107359368D01*
X102188134Y-107377781D01*
X102175346Y-107395024D01*
X102160930Y-107410930D01*
X102145024Y-107425346D01*
X102127781Y-107438134D01*
X102109368Y-107449170D01*
X102089962Y-107458349D01*
X102069750Y-107465581D01*
X102048926Y-107470797D01*
X102027691Y-107473947D01*
X102006250Y-107475000D01*
X101568750Y-107475000D01*
X101547309Y-107473947D01*
X101526074Y-107470797D01*
X101505250Y-107465581D01*
X101485038Y-107458349D01*
X101465632Y-107449170D01*
X101447219Y-107438134D01*
X101429976Y-107425346D01*
X101414070Y-107410930D01*
X101399654Y-107395024D01*
X101386866Y-107377781D01*
X101375830Y-107359368D01*
X101366651Y-107339962D01*
X101359419Y-107319750D01*
X101354203Y-107298926D01*
X101351053Y-107277691D01*
X101350000Y-107256250D01*
X101350000Y-106743750D01*
X101351053Y-106722309D01*
X101354203Y-106701074D01*
X101359419Y-106680250D01*
X101366651Y-106660038D01*
X101375830Y-106640632D01*
X101386866Y-106622219D01*
X101399654Y-106604976D01*
X101414070Y-106589070D01*
X101429976Y-106574654D01*
X101447219Y-106561866D01*
X101465632Y-106550830D01*
X101485038Y-106541651D01*
X101505250Y-106534419D01*
X101526074Y-106529203D01*
X101547309Y-106526053D01*
X101568750Y-106525000D01*
X102006250Y-106525000D01*
X102027691Y-106526053D01*
G37*
G04 #@! TD.AperFunction*
D12*
X120650000Y-108550000D03*
X119350000Y-108550000D03*
X120000000Y-110450000D03*
X120000000Y-108550000D03*
X119350000Y-110450000D03*
X120650000Y-110450000D03*
G04 #@! TA.AperFunction,SMDPad,CuDef*
D10*
G36*
X100259703Y-103500722D02*
G01*
X100274264Y-103502882D01*
X100288543Y-103506459D01*
X100302403Y-103511418D01*
X100315710Y-103517712D01*
X100328336Y-103525280D01*
X100340159Y-103534048D01*
X100351066Y-103543934D01*
X100360952Y-103554841D01*
X100369720Y-103566664D01*
X100377288Y-103579290D01*
X100383582Y-103592597D01*
X100388541Y-103606457D01*
X100392118Y-103620736D01*
X100394278Y-103635297D01*
X100395000Y-103650000D01*
X100395000Y-105300000D01*
X100394278Y-105314703D01*
X100392118Y-105329264D01*
X100388541Y-105343543D01*
X100383582Y-105357403D01*
X100377288Y-105370710D01*
X100369720Y-105383336D01*
X100360952Y-105395159D01*
X100351066Y-105406066D01*
X100340159Y-105415952D01*
X100328336Y-105424720D01*
X100315710Y-105432288D01*
X100302403Y-105438582D01*
X100288543Y-105443541D01*
X100274264Y-105447118D01*
X100259703Y-105449278D01*
X100245000Y-105450000D01*
X99945000Y-105450000D01*
X99930297Y-105449278D01*
X99915736Y-105447118D01*
X99901457Y-105443541D01*
X99887597Y-105438582D01*
X99874290Y-105432288D01*
X99861664Y-105424720D01*
X99849841Y-105415952D01*
X99838934Y-105406066D01*
X99829048Y-105395159D01*
X99820280Y-105383336D01*
X99812712Y-105370710D01*
X99806418Y-105357403D01*
X99801459Y-105343543D01*
X99797882Y-105329264D01*
X99795722Y-105314703D01*
X99795000Y-105300000D01*
X99795000Y-103650000D01*
X99795722Y-103635297D01*
X99797882Y-103620736D01*
X99801459Y-103606457D01*
X99806418Y-103592597D01*
X99812712Y-103579290D01*
X99820280Y-103566664D01*
X99829048Y-103554841D01*
X99838934Y-103543934D01*
X99849841Y-103534048D01*
X99861664Y-103525280D01*
X99874290Y-103517712D01*
X99887597Y-103511418D01*
X99901457Y-103506459D01*
X99915736Y-103502882D01*
X99930297Y-103500722D01*
X99945000Y-103500000D01*
X100245000Y-103500000D01*
X100259703Y-103500722D01*
G37*
G04 #@! TD.AperFunction*
G04 #@! TA.AperFunction,SMDPad,CuDef*
G36*
X101529703Y-103500722D02*
G01*
X101544264Y-103502882D01*
X101558543Y-103506459D01*
X101572403Y-103511418D01*
X101585710Y-103517712D01*
X101598336Y-103525280D01*
X101610159Y-103534048D01*
X101621066Y-103543934D01*
X101630952Y-103554841D01*
X101639720Y-103566664D01*
X101647288Y-103579290D01*
X101653582Y-103592597D01*
X101658541Y-103606457D01*
X101662118Y-103620736D01*
X101664278Y-103635297D01*
X101665000Y-103650000D01*
X101665000Y-105300000D01*
X101664278Y-105314703D01*
X101662118Y-105329264D01*
X101658541Y-105343543D01*
X101653582Y-105357403D01*
X101647288Y-105370710D01*
X101639720Y-105383336D01*
X101630952Y-105395159D01*
X101621066Y-105406066D01*
X101610159Y-105415952D01*
X101598336Y-105424720D01*
X101585710Y-105432288D01*
X101572403Y-105438582D01*
X101558543Y-105443541D01*
X101544264Y-105447118D01*
X101529703Y-105449278D01*
X101515000Y-105450000D01*
X101215000Y-105450000D01*
X101200297Y-105449278D01*
X101185736Y-105447118D01*
X101171457Y-105443541D01*
X101157597Y-105438582D01*
X101144290Y-105432288D01*
X101131664Y-105424720D01*
X101119841Y-105415952D01*
X101108934Y-105406066D01*
X101099048Y-105395159D01*
X101090280Y-105383336D01*
X101082712Y-105370710D01*
X101076418Y-105357403D01*
X101071459Y-105343543D01*
X101067882Y-105329264D01*
X101065722Y-105314703D01*
X101065000Y-105300000D01*
X101065000Y-103650000D01*
X101065722Y-103635297D01*
X101067882Y-103620736D01*
X101071459Y-103606457D01*
X101076418Y-103592597D01*
X101082712Y-103579290D01*
X101090280Y-103566664D01*
X101099048Y-103554841D01*
X101108934Y-103543934D01*
X101119841Y-103534048D01*
X101131664Y-103525280D01*
X101144290Y-103517712D01*
X101157597Y-103511418D01*
X101171457Y-103506459D01*
X101185736Y-103502882D01*
X101200297Y-103500722D01*
X101215000Y-103500000D01*
X101515000Y-103500000D01*
X101529703Y-103500722D01*
G37*
G04 #@! TD.AperFunction*
G04 #@! TA.AperFunction,SMDPad,CuDef*
G36*
X102799703Y-103500722D02*
G01*
X102814264Y-103502882D01*
X102828543Y-103506459D01*
X102842403Y-103511418D01*
X102855710Y-103517712D01*
X102868336Y-103525280D01*
X102880159Y-103534048D01*
X102891066Y-103543934D01*
X102900952Y-103554841D01*
X102909720Y-103566664D01*
X102917288Y-103579290D01*
X102923582Y-103592597D01*
X102928541Y-103606457D01*
X102932118Y-103620736D01*
X102934278Y-103635297D01*
X102935000Y-103650000D01*
X102935000Y-105300000D01*
X102934278Y-105314703D01*
X102932118Y-105329264D01*
X102928541Y-105343543D01*
X102923582Y-105357403D01*
X102917288Y-105370710D01*
X102909720Y-105383336D01*
X102900952Y-105395159D01*
X102891066Y-105406066D01*
X102880159Y-105415952D01*
X102868336Y-105424720D01*
X102855710Y-105432288D01*
X102842403Y-105438582D01*
X102828543Y-105443541D01*
X102814264Y-105447118D01*
X102799703Y-105449278D01*
X102785000Y-105450000D01*
X102485000Y-105450000D01*
X102470297Y-105449278D01*
X102455736Y-105447118D01*
X102441457Y-105443541D01*
X102427597Y-105438582D01*
X102414290Y-105432288D01*
X102401664Y-105424720D01*
X102389841Y-105415952D01*
X102378934Y-105406066D01*
X102369048Y-105395159D01*
X102360280Y-105383336D01*
X102352712Y-105370710D01*
X102346418Y-105357403D01*
X102341459Y-105343543D01*
X102337882Y-105329264D01*
X102335722Y-105314703D01*
X102335000Y-105300000D01*
X102335000Y-103650000D01*
X102335722Y-103635297D01*
X102337882Y-103620736D01*
X102341459Y-103606457D01*
X102346418Y-103592597D01*
X102352712Y-103579290D01*
X102360280Y-103566664D01*
X102369048Y-103554841D01*
X102378934Y-103543934D01*
X102389841Y-103534048D01*
X102401664Y-103525280D01*
X102414290Y-103517712D01*
X102427597Y-103511418D01*
X102441457Y-103506459D01*
X102455736Y-103502882D01*
X102470297Y-103500722D01*
X102485000Y-103500000D01*
X102785000Y-103500000D01*
X102799703Y-103500722D01*
G37*
G04 #@! TD.AperFunction*
G04 #@! TA.AperFunction,SMDPad,CuDef*
G36*
X104069703Y-103500722D02*
G01*
X104084264Y-103502882D01*
X104098543Y-103506459D01*
X104112403Y-103511418D01*
X104125710Y-103517712D01*
X104138336Y-103525280D01*
X104150159Y-103534048D01*
X104161066Y-103543934D01*
X104170952Y-103554841D01*
X104179720Y-103566664D01*
X104187288Y-103579290D01*
X104193582Y-103592597D01*
X104198541Y-103606457D01*
X104202118Y-103620736D01*
X104204278Y-103635297D01*
X104205000Y-103650000D01*
X104205000Y-105300000D01*
X104204278Y-105314703D01*
X104202118Y-105329264D01*
X104198541Y-105343543D01*
X104193582Y-105357403D01*
X104187288Y-105370710D01*
X104179720Y-105383336D01*
X104170952Y-105395159D01*
X104161066Y-105406066D01*
X104150159Y-105415952D01*
X104138336Y-105424720D01*
X104125710Y-105432288D01*
X104112403Y-105438582D01*
X104098543Y-105443541D01*
X104084264Y-105447118D01*
X104069703Y-105449278D01*
X104055000Y-105450000D01*
X103755000Y-105450000D01*
X103740297Y-105449278D01*
X103725736Y-105447118D01*
X103711457Y-105443541D01*
X103697597Y-105438582D01*
X103684290Y-105432288D01*
X103671664Y-105424720D01*
X103659841Y-105415952D01*
X103648934Y-105406066D01*
X103639048Y-105395159D01*
X103630280Y-105383336D01*
X103622712Y-105370710D01*
X103616418Y-105357403D01*
X103611459Y-105343543D01*
X103607882Y-105329264D01*
X103605722Y-105314703D01*
X103605000Y-105300000D01*
X103605000Y-103650000D01*
X103605722Y-103635297D01*
X103607882Y-103620736D01*
X103611459Y-103606457D01*
X103616418Y-103592597D01*
X103622712Y-103579290D01*
X103630280Y-103566664D01*
X103639048Y-103554841D01*
X103648934Y-103543934D01*
X103659841Y-103534048D01*
X103671664Y-103525280D01*
X103684290Y-103517712D01*
X103697597Y-103511418D01*
X103711457Y-103506459D01*
X103725736Y-103502882D01*
X103740297Y-103500722D01*
X103755000Y-103500000D01*
X104055000Y-103500000D01*
X104069703Y-103500722D01*
G37*
G04 #@! TD.AperFunction*
G04 #@! TA.AperFunction,SMDPad,CuDef*
G36*
X104069703Y-98550722D02*
G01*
X104084264Y-98552882D01*
X104098543Y-98556459D01*
X104112403Y-98561418D01*
X104125710Y-98567712D01*
X104138336Y-98575280D01*
X104150159Y-98584048D01*
X104161066Y-98593934D01*
X104170952Y-98604841D01*
X104179720Y-98616664D01*
X104187288Y-98629290D01*
X104193582Y-98642597D01*
X104198541Y-98656457D01*
X104202118Y-98670736D01*
X104204278Y-98685297D01*
X104205000Y-98700000D01*
X104205000Y-100350000D01*
X104204278Y-100364703D01*
X104202118Y-100379264D01*
X104198541Y-100393543D01*
X104193582Y-100407403D01*
X104187288Y-100420710D01*
X104179720Y-100433336D01*
X104170952Y-100445159D01*
X104161066Y-100456066D01*
X104150159Y-100465952D01*
X104138336Y-100474720D01*
X104125710Y-100482288D01*
X104112403Y-100488582D01*
X104098543Y-100493541D01*
X104084264Y-100497118D01*
X104069703Y-100499278D01*
X104055000Y-100500000D01*
X103755000Y-100500000D01*
X103740297Y-100499278D01*
X103725736Y-100497118D01*
X103711457Y-100493541D01*
X103697597Y-100488582D01*
X103684290Y-100482288D01*
X103671664Y-100474720D01*
X103659841Y-100465952D01*
X103648934Y-100456066D01*
X103639048Y-100445159D01*
X103630280Y-100433336D01*
X103622712Y-100420710D01*
X103616418Y-100407403D01*
X103611459Y-100393543D01*
X103607882Y-100379264D01*
X103605722Y-100364703D01*
X103605000Y-100350000D01*
X103605000Y-98700000D01*
X103605722Y-98685297D01*
X103607882Y-98670736D01*
X103611459Y-98656457D01*
X103616418Y-98642597D01*
X103622712Y-98629290D01*
X103630280Y-98616664D01*
X103639048Y-98604841D01*
X103648934Y-98593934D01*
X103659841Y-98584048D01*
X103671664Y-98575280D01*
X103684290Y-98567712D01*
X103697597Y-98561418D01*
X103711457Y-98556459D01*
X103725736Y-98552882D01*
X103740297Y-98550722D01*
X103755000Y-98550000D01*
X104055000Y-98550000D01*
X104069703Y-98550722D01*
G37*
G04 #@! TD.AperFunction*
G04 #@! TA.AperFunction,SMDPad,CuDef*
G36*
X102799703Y-98550722D02*
G01*
X102814264Y-98552882D01*
X102828543Y-98556459D01*
X102842403Y-98561418D01*
X102855710Y-98567712D01*
X102868336Y-98575280D01*
X102880159Y-98584048D01*
X102891066Y-98593934D01*
X102900952Y-98604841D01*
X102909720Y-98616664D01*
X102917288Y-98629290D01*
X102923582Y-98642597D01*
X102928541Y-98656457D01*
X102932118Y-98670736D01*
X102934278Y-98685297D01*
X102935000Y-98700000D01*
X102935000Y-100350000D01*
X102934278Y-100364703D01*
X102932118Y-100379264D01*
X102928541Y-100393543D01*
X102923582Y-100407403D01*
X102917288Y-100420710D01*
X102909720Y-100433336D01*
X102900952Y-100445159D01*
X102891066Y-100456066D01*
X102880159Y-100465952D01*
X102868336Y-100474720D01*
X102855710Y-100482288D01*
X102842403Y-100488582D01*
X102828543Y-100493541D01*
X102814264Y-100497118D01*
X102799703Y-100499278D01*
X102785000Y-100500000D01*
X102485000Y-100500000D01*
X102470297Y-100499278D01*
X102455736Y-100497118D01*
X102441457Y-100493541D01*
X102427597Y-100488582D01*
X102414290Y-100482288D01*
X102401664Y-100474720D01*
X102389841Y-100465952D01*
X102378934Y-100456066D01*
X102369048Y-100445159D01*
X102360280Y-100433336D01*
X102352712Y-100420710D01*
X102346418Y-100407403D01*
X102341459Y-100393543D01*
X102337882Y-100379264D01*
X102335722Y-100364703D01*
X102335000Y-100350000D01*
X102335000Y-98700000D01*
X102335722Y-98685297D01*
X102337882Y-98670736D01*
X102341459Y-98656457D01*
X102346418Y-98642597D01*
X102352712Y-98629290D01*
X102360280Y-98616664D01*
X102369048Y-98604841D01*
X102378934Y-98593934D01*
X102389841Y-98584048D01*
X102401664Y-98575280D01*
X102414290Y-98567712D01*
X102427597Y-98561418D01*
X102441457Y-98556459D01*
X102455736Y-98552882D01*
X102470297Y-98550722D01*
X102485000Y-98550000D01*
X102785000Y-98550000D01*
X102799703Y-98550722D01*
G37*
G04 #@! TD.AperFunction*
G04 #@! TA.AperFunction,SMDPad,CuDef*
G36*
X101529703Y-98550722D02*
G01*
X101544264Y-98552882D01*
X101558543Y-98556459D01*
X101572403Y-98561418D01*
X101585710Y-98567712D01*
X101598336Y-98575280D01*
X101610159Y-98584048D01*
X101621066Y-98593934D01*
X101630952Y-98604841D01*
X101639720Y-98616664D01*
X101647288Y-98629290D01*
X101653582Y-98642597D01*
X101658541Y-98656457D01*
X101662118Y-98670736D01*
X101664278Y-98685297D01*
X101665000Y-98700000D01*
X101665000Y-100350000D01*
X101664278Y-100364703D01*
X101662118Y-100379264D01*
X101658541Y-100393543D01*
X101653582Y-100407403D01*
X101647288Y-100420710D01*
X101639720Y-100433336D01*
X101630952Y-100445159D01*
X101621066Y-100456066D01*
X101610159Y-100465952D01*
X101598336Y-100474720D01*
X101585710Y-100482288D01*
X101572403Y-100488582D01*
X101558543Y-100493541D01*
X101544264Y-100497118D01*
X101529703Y-100499278D01*
X101515000Y-100500000D01*
X101215000Y-100500000D01*
X101200297Y-100499278D01*
X101185736Y-100497118D01*
X101171457Y-100493541D01*
X101157597Y-100488582D01*
X101144290Y-100482288D01*
X101131664Y-100474720D01*
X101119841Y-100465952D01*
X101108934Y-100456066D01*
X101099048Y-100445159D01*
X101090280Y-100433336D01*
X101082712Y-100420710D01*
X101076418Y-100407403D01*
X101071459Y-100393543D01*
X101067882Y-100379264D01*
X101065722Y-100364703D01*
X101065000Y-100350000D01*
X101065000Y-98700000D01*
X101065722Y-98685297D01*
X101067882Y-98670736D01*
X101071459Y-98656457D01*
X101076418Y-98642597D01*
X101082712Y-98629290D01*
X101090280Y-98616664D01*
X101099048Y-98604841D01*
X101108934Y-98593934D01*
X101119841Y-98584048D01*
X101131664Y-98575280D01*
X101144290Y-98567712D01*
X101157597Y-98561418D01*
X101171457Y-98556459D01*
X101185736Y-98552882D01*
X101200297Y-98550722D01*
X101215000Y-98550000D01*
X101515000Y-98550000D01*
X101529703Y-98550722D01*
G37*
G04 #@! TD.AperFunction*
G04 #@! TA.AperFunction,SMDPad,CuDef*
G36*
X100259703Y-98550722D02*
G01*
X100274264Y-98552882D01*
X100288543Y-98556459D01*
X100302403Y-98561418D01*
X100315710Y-98567712D01*
X100328336Y-98575280D01*
X100340159Y-98584048D01*
X100351066Y-98593934D01*
X100360952Y-98604841D01*
X100369720Y-98616664D01*
X100377288Y-98629290D01*
X100383582Y-98642597D01*
X100388541Y-98656457D01*
X100392118Y-98670736D01*
X100394278Y-98685297D01*
X100395000Y-98700000D01*
X100395000Y-100350000D01*
X100394278Y-100364703D01*
X100392118Y-100379264D01*
X100388541Y-100393543D01*
X100383582Y-100407403D01*
X100377288Y-100420710D01*
X100369720Y-100433336D01*
X100360952Y-100445159D01*
X100351066Y-100456066D01*
X100340159Y-100465952D01*
X100328336Y-100474720D01*
X100315710Y-100482288D01*
X100302403Y-100488582D01*
X100288543Y-100493541D01*
X100274264Y-100497118D01*
X100259703Y-100499278D01*
X100245000Y-100500000D01*
X99945000Y-100500000D01*
X99930297Y-100499278D01*
X99915736Y-100497118D01*
X99901457Y-100493541D01*
X99887597Y-100488582D01*
X99874290Y-100482288D01*
X99861664Y-100474720D01*
X99849841Y-100465952D01*
X99838934Y-100456066D01*
X99829048Y-100445159D01*
X99820280Y-100433336D01*
X99812712Y-100420710D01*
X99806418Y-100407403D01*
X99801459Y-100393543D01*
X99797882Y-100379264D01*
X99795722Y-100364703D01*
X99795000Y-100350000D01*
X99795000Y-98700000D01*
X99795722Y-98685297D01*
X99797882Y-98670736D01*
X99801459Y-98656457D01*
X99806418Y-98642597D01*
X99812712Y-98629290D01*
X99820280Y-98616664D01*
X99829048Y-98604841D01*
X99838934Y-98593934D01*
X99849841Y-98584048D01*
X99861664Y-98575280D01*
X99874290Y-98567712D01*
X99887597Y-98561418D01*
X99901457Y-98556459D01*
X99915736Y-98552882D01*
X99930297Y-98550722D01*
X99945000Y-98550000D01*
X100245000Y-98550000D01*
X100259703Y-98550722D01*
G37*
G04 #@! TD.AperFunction*
G04 #@! TA.AperFunction,SMDPad,CuDef*
G36*
X119452691Y-105026053D02*
G01*
X119473926Y-105029203D01*
X119494750Y-105034419D01*
X119514962Y-105041651D01*
X119534368Y-105050830D01*
X119552781Y-105061866D01*
X119570024Y-105074654D01*
X119585930Y-105089070D01*
X119600346Y-105104976D01*
X119613134Y-105122219D01*
X119624170Y-105140632D01*
X119633349Y-105160038D01*
X119640581Y-105180250D01*
X119645797Y-105201074D01*
X119648947Y-105222309D01*
X119650000Y-105243750D01*
X119650000Y-105756250D01*
X119648947Y-105777691D01*
X119645797Y-105798926D01*
X119640581Y-105819750D01*
X119633349Y-105839962D01*
X119624170Y-105859368D01*
X119613134Y-105877781D01*
X119600346Y-105895024D01*
X119585930Y-105910930D01*
X119570024Y-105925346D01*
X119552781Y-105938134D01*
X119534368Y-105949170D01*
X119514962Y-105958349D01*
X119494750Y-105965581D01*
X119473926Y-105970797D01*
X119452691Y-105973947D01*
X119431250Y-105975000D01*
X118993750Y-105975000D01*
X118972309Y-105973947D01*
X118951074Y-105970797D01*
X118930250Y-105965581D01*
X118910038Y-105958349D01*
X118890632Y-105949170D01*
X118872219Y-105938134D01*
X118854976Y-105925346D01*
X118839070Y-105910930D01*
X118824654Y-105895024D01*
X118811866Y-105877781D01*
X118800830Y-105859368D01*
X118791651Y-105839962D01*
X118784419Y-105819750D01*
X118779203Y-105798926D01*
X118776053Y-105777691D01*
X118775000Y-105756250D01*
X118775000Y-105243750D01*
X118776053Y-105222309D01*
X118779203Y-105201074D01*
X118784419Y-105180250D01*
X118791651Y-105160038D01*
X118800830Y-105140632D01*
X118811866Y-105122219D01*
X118824654Y-105104976D01*
X118839070Y-105089070D01*
X118854976Y-105074654D01*
X118872219Y-105061866D01*
X118890632Y-105050830D01*
X118910038Y-105041651D01*
X118930250Y-105034419D01*
X118951074Y-105029203D01*
X118972309Y-105026053D01*
X118993750Y-105025000D01*
X119431250Y-105025000D01*
X119452691Y-105026053D01*
G37*
G04 #@! TD.AperFunction*
G04 #@! TA.AperFunction,SMDPad,CuDef*
G36*
X121027691Y-105026053D02*
G01*
X121048926Y-105029203D01*
X121069750Y-105034419D01*
X121089962Y-105041651D01*
X121109368Y-105050830D01*
X121127781Y-105061866D01*
X121145024Y-105074654D01*
X121160930Y-105089070D01*
X121175346Y-105104976D01*
X121188134Y-105122219D01*
X121199170Y-105140632D01*
X121208349Y-105160038D01*
X121215581Y-105180250D01*
X121220797Y-105201074D01*
X121223947Y-105222309D01*
X121225000Y-105243750D01*
X121225000Y-105756250D01*
X121223947Y-105777691D01*
X121220797Y-105798926D01*
X121215581Y-105819750D01*
X121208349Y-105839962D01*
X121199170Y-105859368D01*
X121188134Y-105877781D01*
X121175346Y-105895024D01*
X121160930Y-105910930D01*
X121145024Y-105925346D01*
X121127781Y-105938134D01*
X121109368Y-105949170D01*
X121089962Y-105958349D01*
X121069750Y-105965581D01*
X121048926Y-105970797D01*
X121027691Y-105973947D01*
X121006250Y-105975000D01*
X120568750Y-105975000D01*
X120547309Y-105973947D01*
X120526074Y-105970797D01*
X120505250Y-105965581D01*
X120485038Y-105958349D01*
X120465632Y-105949170D01*
X120447219Y-105938134D01*
X120429976Y-105925346D01*
X120414070Y-105910930D01*
X120399654Y-105895024D01*
X120386866Y-105877781D01*
X120375830Y-105859368D01*
X120366651Y-105839962D01*
X120359419Y-105819750D01*
X120354203Y-105798926D01*
X120351053Y-105777691D01*
X120350000Y-105756250D01*
X120350000Y-105243750D01*
X120351053Y-105222309D01*
X120354203Y-105201074D01*
X120359419Y-105180250D01*
X120366651Y-105160038D01*
X120375830Y-105140632D01*
X120386866Y-105122219D01*
X120399654Y-105104976D01*
X120414070Y-105089070D01*
X120429976Y-105074654D01*
X120447219Y-105061866D01*
X120465632Y-105050830D01*
X120485038Y-105041651D01*
X120505250Y-105034419D01*
X120526074Y-105029203D01*
X120547309Y-105026053D01*
X120568750Y-105025000D01*
X121006250Y-105025000D01*
X121027691Y-105026053D01*
G37*
G04 #@! TD.AperFunction*
G04 #@! TA.AperFunction,SMDPad,CuDef*
G36*
X102027691Y-108526053D02*
G01*
X102048926Y-108529203D01*
X102069750Y-108534419D01*
X102089962Y-108541651D01*
X102109368Y-108550830D01*
X102127781Y-108561866D01*
X102145024Y-108574654D01*
X102160930Y-108589070D01*
X102175346Y-108604976D01*
X102188134Y-108622219D01*
X102199170Y-108640632D01*
X102208349Y-108660038D01*
X102215581Y-108680250D01*
X102220797Y-108701074D01*
X102223947Y-108722309D01*
X102225000Y-108743750D01*
X102225000Y-109256250D01*
X102223947Y-109277691D01*
X102220797Y-109298926D01*
X102215581Y-109319750D01*
X102208349Y-109339962D01*
X102199170Y-109359368D01*
X102188134Y-109377781D01*
X102175346Y-109395024D01*
X102160930Y-109410930D01*
X102145024Y-109425346D01*
X102127781Y-109438134D01*
X102109368Y-109449170D01*
X102089962Y-109458349D01*
X102069750Y-109465581D01*
X102048926Y-109470797D01*
X102027691Y-109473947D01*
X102006250Y-109475000D01*
X101568750Y-109475000D01*
X101547309Y-109473947D01*
X101526074Y-109470797D01*
X101505250Y-109465581D01*
X101485038Y-109458349D01*
X101465632Y-109449170D01*
X101447219Y-109438134D01*
X101429976Y-109425346D01*
X101414070Y-109410930D01*
X101399654Y-109395024D01*
X101386866Y-109377781D01*
X101375830Y-109359368D01*
X101366651Y-109339962D01*
X101359419Y-109319750D01*
X101354203Y-109298926D01*
X101351053Y-109277691D01*
X101350000Y-109256250D01*
X101350000Y-108743750D01*
X101351053Y-108722309D01*
X101354203Y-108701074D01*
X101359419Y-108680250D01*
X101366651Y-108660038D01*
X101375830Y-108640632D01*
X101386866Y-108622219D01*
X101399654Y-108604976D01*
X101414070Y-108589070D01*
X101429976Y-108574654D01*
X101447219Y-108561866D01*
X101465632Y-108550830D01*
X101485038Y-108541651D01*
X101505250Y-108534419D01*
X101526074Y-108529203D01*
X101547309Y-108526053D01*
X101568750Y-108525000D01*
X102006250Y-108525000D01*
X102027691Y-108526053D01*
G37*
G04 #@! TD.AperFunction*
G04 #@! TA.AperFunction,SMDPad,CuDef*
G36*
X100452691Y-108526053D02*
G01*
X100473926Y-108529203D01*
X100494750Y-108534419D01*
X100514962Y-108541651D01*
X100534368Y-108550830D01*
X100552781Y-108561866D01*
X100570024Y-108574654D01*
X100585930Y-108589070D01*
X100600346Y-108604976D01*
X100613134Y-108622219D01*
X100624170Y-108640632D01*
X100633349Y-108660038D01*
X100640581Y-108680250D01*
X100645797Y-108701074D01*
X100648947Y-108722309D01*
X100650000Y-108743750D01*
X100650000Y-109256250D01*
X100648947Y-109277691D01*
X100645797Y-109298926D01*
X100640581Y-109319750D01*
X100633349Y-109339962D01*
X100624170Y-109359368D01*
X100613134Y-109377781D01*
X100600346Y-109395024D01*
X100585930Y-109410930D01*
X100570024Y-109425346D01*
X100552781Y-109438134D01*
X100534368Y-109449170D01*
X100514962Y-109458349D01*
X100494750Y-109465581D01*
X100473926Y-109470797D01*
X100452691Y-109473947D01*
X100431250Y-109475000D01*
X99993750Y-109475000D01*
X99972309Y-109473947D01*
X99951074Y-109470797D01*
X99930250Y-109465581D01*
X99910038Y-109458349D01*
X99890632Y-109449170D01*
X99872219Y-109438134D01*
X99854976Y-109425346D01*
X99839070Y-109410930D01*
X99824654Y-109395024D01*
X99811866Y-109377781D01*
X99800830Y-109359368D01*
X99791651Y-109339962D01*
X99784419Y-109319750D01*
X99779203Y-109298926D01*
X99776053Y-109277691D01*
X99775000Y-109256250D01*
X99775000Y-108743750D01*
X99776053Y-108722309D01*
X99779203Y-108701074D01*
X99784419Y-108680250D01*
X99791651Y-108660038D01*
X99800830Y-108640632D01*
X99811866Y-108622219D01*
X99824654Y-108604976D01*
X99839070Y-108589070D01*
X99854976Y-108574654D01*
X99872219Y-108561866D01*
X99890632Y-108550830D01*
X99910038Y-108541651D01*
X99930250Y-108534419D01*
X99951074Y-108529203D01*
X99972309Y-108526053D01*
X99993750Y-108525000D01*
X100431250Y-108525000D01*
X100452691Y-108526053D01*
G37*
G04 #@! TD.AperFunction*
D13*
X110000000Y-99000000D03*
D14*
X112540000Y-99000000D03*
D13*
X115000000Y-114000000D03*
D14*
X117540000Y-114000000D03*
X120080000Y-114000000D03*
D15*
X109474000Y-113030000D03*
X110490000Y-113030000D03*
X122428000Y-112522000D03*
X122428000Y-111506000D03*
X117348000Y-101600000D03*
X117348000Y-102616000D03*
X116332000Y-101600000D03*
X104902000Y-114046000D03*
X101092000Y-114046000D03*
X117094000Y-106680000D03*
X114554000Y-109982000D03*
D16*
X100212500Y-109000000D02*
X100212500Y-107000000D01*
X100212500Y-104592500D02*
X100095000Y-104475000D01*
X100212500Y-107000000D02*
X100212500Y-104592500D01*
X117540000Y-114000000D02*
X117540000Y-110298000D01*
X117540000Y-110298000D02*
X118364000Y-109474000D01*
X118364000Y-109474000D02*
X119634000Y-109474000D01*
X120000000Y-109840000D02*
X120000000Y-110450000D01*
X119634000Y-109474000D02*
X120000000Y-109840000D01*
X121175001Y-109135001D02*
X121175001Y-107459001D01*
X119634000Y-109474000D02*
X120836002Y-109474000D01*
X120836002Y-109474000D02*
X121175001Y-109135001D01*
X120787500Y-107071500D02*
X120787500Y-105500000D01*
X121175001Y-107459001D02*
X120787500Y-107071500D01*
X120787500Y-105500000D02*
X120787500Y-103500000D01*
X117540000Y-114000000D02*
X116224000Y-115316000D01*
X116224000Y-115316000D02*
X109666000Y-115316000D01*
X108950000Y-114600000D02*
X107950000Y-114600000D01*
X109666000Y-115316000D02*
X108950000Y-114600000D01*
X100212500Y-109000000D02*
X100212500Y-111642500D01*
X100212500Y-111642500D02*
X101600000Y-113030000D01*
X101600000Y-113030000D02*
X105410000Y-113030000D01*
X105410000Y-113030000D02*
X105918000Y-113538000D01*
X105918000Y-113538000D02*
X105918000Y-114300000D01*
X106218000Y-114600000D02*
X107950000Y-114600000D01*
X105918000Y-114300000D02*
X106218000Y-114600000D01*
X119350000Y-110450000D02*
X119350000Y-111476000D01*
X120080000Y-112206000D02*
X120080000Y-114000000D01*
X119350000Y-111476000D02*
X120080000Y-112206000D01*
X118775000Y-105500000D02*
X119212500Y-105500000D01*
X117837919Y-105500000D02*
X118775000Y-105500000D01*
X112540000Y-100202081D02*
X117837919Y-105500000D01*
X112540000Y-99000000D02*
X112540000Y-100202081D01*
X104555001Y-100175001D02*
X111364999Y-100175001D01*
X111364999Y-100175001D02*
X111690001Y-99849999D01*
X103905000Y-99525000D02*
X104555001Y-100175001D01*
X111690001Y-99849999D02*
X112540000Y-99000000D01*
X100720010Y-102351580D02*
X102175599Y-100895991D01*
X100720010Y-106054010D02*
X100720010Y-102351580D01*
X100975010Y-106309010D02*
X100720010Y-106054010D01*
X101787500Y-108137500D02*
X101600000Y-107950000D01*
X102635000Y-100622990D02*
X102635000Y-99525000D01*
X101787500Y-109000000D02*
X101787500Y-108137500D01*
X102175599Y-100895991D02*
X102362000Y-100895990D01*
X101600000Y-107950000D02*
X101092000Y-107950000D01*
X100975010Y-107833010D02*
X100975010Y-106309010D01*
X102362000Y-100895990D02*
X102635000Y-100622990D01*
X101092000Y-107950000D02*
X100975010Y-107833010D01*
X121100000Y-110450000D02*
X120650000Y-110450000D01*
X121625011Y-109924989D02*
X121100000Y-110450000D01*
X121625011Y-103093517D02*
X121625011Y-109924989D01*
X116356493Y-97824999D02*
X121625011Y-103093517D01*
X102688233Y-97824999D02*
X116356493Y-97824999D01*
X102009990Y-98503242D02*
X102688233Y-97824999D01*
X102009990Y-98880010D02*
X102009990Y-98503242D01*
X101365000Y-99525000D02*
X102009990Y-98880010D01*
X102960010Y-103174990D02*
X102635000Y-103500000D01*
X114554000Y-111252000D02*
X109728000Y-111252000D01*
X119126000Y-107751000D02*
X118055000Y-107751000D01*
X119350000Y-107975000D02*
X119126000Y-107751000D01*
X104251758Y-103174990D02*
X102960010Y-103174990D01*
X118055000Y-107751000D02*
X114554000Y-111252000D01*
X119350000Y-108550000D02*
X119350000Y-107975000D01*
X102635000Y-103500000D02*
X102635000Y-104475000D01*
X109728000Y-111252000D02*
X108712000Y-110236000D01*
X106934000Y-110236000D02*
X104902000Y-108204000D01*
X104902000Y-108204000D02*
X104902000Y-103825232D01*
X108712000Y-110236000D02*
X106934000Y-110236000D01*
X104902000Y-103825232D02*
X104251758Y-103174990D01*
X101365000Y-102343000D02*
X101365000Y-103500000D01*
X101365000Y-103500000D02*
X101365000Y-104475000D01*
X102362000Y-101346000D02*
X101365000Y-102343000D01*
X113003030Y-101346000D02*
X102362000Y-101346000D01*
X120142000Y-106426000D02*
X118110000Y-106426000D01*
X120337490Y-106621490D02*
X120142000Y-106426000D01*
X118110000Y-106426000D02*
X113003030Y-101346000D01*
X120650000Y-107570410D02*
X120337490Y-107257900D01*
X120650000Y-108550000D02*
X120650000Y-107570410D01*
X120337490Y-107257900D02*
X120337490Y-106621490D01*
X107950000Y-111400000D02*
X105558000Y-111400000D01*
X103905000Y-109747000D02*
X103905000Y-104475000D01*
X105558000Y-111400000D02*
X103905000Y-109747000D01*
D17*
G36*
X122329529Y-96335759D02*
G01*
X122646504Y-96431459D01*
X122938858Y-96586907D01*
X123195448Y-96796177D01*
X123406505Y-97051301D01*
X123563988Y-97342559D01*
X123661899Y-97658859D01*
X123698000Y-98002335D01*
X123698001Y-113985216D01*
X123664241Y-114329529D01*
X123568539Y-114646509D01*
X123413093Y-114938858D01*
X123203825Y-115195446D01*
X122948699Y-115406506D01*
X122657441Y-115563988D01*
X122341141Y-115661899D01*
X121997665Y-115698000D01*
X116468182Y-115698000D01*
X116476333Y-115693643D01*
X116545159Y-115637159D01*
X116559323Y-115619900D01*
X117091162Y-115088061D01*
X117196682Y-115131769D01*
X117424076Y-115177000D01*
X117655924Y-115177000D01*
X117883318Y-115131769D01*
X118097519Y-115043044D01*
X118290294Y-114914236D01*
X118454236Y-114750294D01*
X118583044Y-114557519D01*
X118671769Y-114343318D01*
X118717000Y-114115924D01*
X118717000Y-113884076D01*
X118671769Y-113656682D01*
X118583044Y-113442481D01*
X118454236Y-113249706D01*
X118290294Y-113085764D01*
X118097519Y-112956956D01*
X117992000Y-112913249D01*
X117992000Y-110485223D01*
X118551224Y-109926000D01*
X118890294Y-109926000D01*
X118876794Y-109942450D01*
X118846430Y-109999257D01*
X118827732Y-110060897D01*
X118821418Y-110125000D01*
X118821418Y-110775000D01*
X118827732Y-110839103D01*
X118846430Y-110900743D01*
X118876794Y-110957550D01*
X118898001Y-110983391D01*
X118898001Y-111453785D01*
X118895813Y-111476000D01*
X118904540Y-111564607D01*
X118930386Y-111649809D01*
X118938348Y-111664705D01*
X118972358Y-111728333D01*
X119028842Y-111797159D01*
X119046096Y-111811319D01*
X119628000Y-112393224D01*
X119628000Y-112913248D01*
X119522481Y-112956956D01*
X119329706Y-113085764D01*
X119165764Y-113249706D01*
X119036956Y-113442481D01*
X118948231Y-113656682D01*
X118903000Y-113884076D01*
X118903000Y-114115924D01*
X118948231Y-114343318D01*
X119036956Y-114557519D01*
X119165764Y-114750294D01*
X119329706Y-114914236D01*
X119522481Y-115043044D01*
X119736682Y-115131769D01*
X119964076Y-115177000D01*
X120195924Y-115177000D01*
X120423318Y-115131769D01*
X120637519Y-115043044D01*
X120830294Y-114914236D01*
X120994236Y-114750294D01*
X121123044Y-114557519D01*
X121211769Y-114343318D01*
X121257000Y-114115924D01*
X121257000Y-113884076D01*
X121211769Y-113656682D01*
X121123044Y-113442481D01*
X120994236Y-113249706D01*
X120830294Y-113085764D01*
X120637519Y-112956956D01*
X120532000Y-112913249D01*
X120532000Y-112228205D01*
X120534187Y-112206000D01*
X120525460Y-112117392D01*
X120499614Y-112032190D01*
X120463221Y-111964103D01*
X120457643Y-111953667D01*
X120401159Y-111884841D01*
X120383906Y-111870682D01*
X119802000Y-111288777D01*
X119802000Y-111103582D01*
X120200000Y-111103582D01*
X120264103Y-111097268D01*
X120325000Y-111078795D01*
X120385897Y-111097268D01*
X120450000Y-111103582D01*
X120850000Y-111103582D01*
X120914103Y-111097268D01*
X120975743Y-111078570D01*
X121032550Y-111048206D01*
X121082343Y-111007343D01*
X121123206Y-110957550D01*
X121153570Y-110900743D01*
X121154143Y-110898854D01*
X121188607Y-110895460D01*
X121273810Y-110869614D01*
X121352333Y-110827643D01*
X121421159Y-110771159D01*
X121435323Y-110753900D01*
X121928916Y-110260308D01*
X121946170Y-110246148D01*
X122002654Y-110177322D01*
X122044625Y-110098799D01*
X122055730Y-110062190D01*
X122070471Y-110013597D01*
X122079198Y-109924989D01*
X122077011Y-109902784D01*
X122077011Y-103115722D01*
X122079198Y-103093517D01*
X122070471Y-103004909D01*
X122044625Y-102919707D01*
X122009414Y-102853832D01*
X122002654Y-102841184D01*
X121946170Y-102772358D01*
X121928917Y-102758199D01*
X116691816Y-97521099D01*
X116677652Y-97503840D01*
X116608826Y-97447356D01*
X116530303Y-97405385D01*
X116445100Y-97379539D01*
X116378698Y-97372999D01*
X116356493Y-97370812D01*
X116334288Y-97372999D01*
X102710435Y-97372999D01*
X102688232Y-97370812D01*
X102666029Y-97372999D01*
X102666028Y-97372999D01*
X102599626Y-97379539D01*
X102514423Y-97405385D01*
X102435900Y-97447356D01*
X102367074Y-97503840D01*
X102352918Y-97521089D01*
X101706085Y-98167924D01*
X101688832Y-98182083D01*
X101661795Y-98215028D01*
X101640904Y-98240484D01*
X101608367Y-98230614D01*
X101515000Y-98221418D01*
X101215000Y-98221418D01*
X101121633Y-98230614D01*
X101031855Y-98257848D01*
X100975081Y-98288194D01*
X100925537Y-98195506D01*
X100846185Y-98098815D01*
X100749494Y-98019463D01*
X100639180Y-97960498D01*
X100519482Y-97924188D01*
X100395000Y-97911928D01*
X100380750Y-97915000D01*
X100222000Y-98073750D01*
X100222000Y-99398000D01*
X100242000Y-99398000D01*
X100242000Y-99652000D01*
X100222000Y-99652000D01*
X100222000Y-100976250D01*
X100380750Y-101135000D01*
X100395000Y-101138072D01*
X100519482Y-101125812D01*
X100639180Y-101089502D01*
X100749494Y-101030537D01*
X100846185Y-100951185D01*
X100925537Y-100854494D01*
X100975081Y-100761806D01*
X101031855Y-100792152D01*
X101121633Y-100819386D01*
X101215000Y-100828582D01*
X101515000Y-100828582D01*
X101608367Y-100819386D01*
X101614989Y-100817377D01*
X100416106Y-102016261D01*
X100398852Y-102030421D01*
X100349409Y-102090668D01*
X100342368Y-102099247D01*
X100300396Y-102177771D01*
X100274550Y-102262973D01*
X100265823Y-102351580D01*
X100268011Y-102373795D01*
X100268011Y-103173684D01*
X100245000Y-103171418D01*
X99945000Y-103171418D01*
X99851633Y-103180614D01*
X99761855Y-103207848D01*
X99679114Y-103252074D01*
X99606591Y-103311591D01*
X99547074Y-103384114D01*
X99502848Y-103466855D01*
X99475614Y-103556633D01*
X99466418Y-103650000D01*
X99466418Y-105300000D01*
X99475614Y-105393367D01*
X99502848Y-105483145D01*
X99547074Y-105565886D01*
X99606591Y-105638409D01*
X99679114Y-105697926D01*
X99760501Y-105741428D01*
X99760500Y-106250800D01*
X99689669Y-106288660D01*
X99606728Y-106356728D01*
X99538660Y-106439669D01*
X99488081Y-106534295D01*
X99456935Y-106636971D01*
X99446418Y-106743750D01*
X99446418Y-107256250D01*
X99456935Y-107363029D01*
X99488081Y-107465705D01*
X99538660Y-107560331D01*
X99606728Y-107643272D01*
X99689669Y-107711340D01*
X99760501Y-107749201D01*
X99760500Y-108250800D01*
X99689669Y-108288660D01*
X99606728Y-108356728D01*
X99538660Y-108439669D01*
X99488081Y-108534295D01*
X99456935Y-108636971D01*
X99446418Y-108743750D01*
X99446418Y-109256250D01*
X99456935Y-109363029D01*
X99488081Y-109465705D01*
X99538660Y-109560331D01*
X99606728Y-109643272D01*
X99689669Y-109711340D01*
X99760500Y-109749200D01*
X99760501Y-111620285D01*
X99758313Y-111642500D01*
X99767040Y-111731107D01*
X99792886Y-111816309D01*
X99813132Y-111854187D01*
X99834858Y-111894833D01*
X99891342Y-111963659D01*
X99908596Y-111977819D01*
X101264685Y-113333910D01*
X101278841Y-113351159D01*
X101347667Y-113407643D01*
X101426190Y-113449614D01*
X101491562Y-113469444D01*
X101511392Y-113475460D01*
X101599999Y-113484187D01*
X101622204Y-113482000D01*
X102149765Y-113482000D01*
X102055820Y-113510498D01*
X101945506Y-113569463D01*
X101848815Y-113648815D01*
X101769463Y-113745506D01*
X101710498Y-113855820D01*
X101674188Y-113975518D01*
X101661928Y-114100000D01*
X101665000Y-114314250D01*
X101823750Y-114473000D01*
X102923000Y-114473000D01*
X102923000Y-114453000D01*
X103177000Y-114453000D01*
X103177000Y-114473000D01*
X104276250Y-114473000D01*
X104435000Y-114314250D01*
X104438072Y-114100000D01*
X104425812Y-113975518D01*
X104389502Y-113855820D01*
X104330537Y-113745506D01*
X104251185Y-113648815D01*
X104154494Y-113569463D01*
X104044180Y-113510498D01*
X103950235Y-113482000D01*
X105222776Y-113482000D01*
X105466000Y-113725225D01*
X105466001Y-114277785D01*
X105463813Y-114300000D01*
X105472540Y-114388607D01*
X105498386Y-114473809D01*
X105505663Y-114487423D01*
X105540358Y-114552333D01*
X105596842Y-114621159D01*
X105614095Y-114635318D01*
X105882681Y-114903905D01*
X105896841Y-114921159D01*
X105965667Y-114977643D01*
X106043967Y-115019495D01*
X106044190Y-115019614D01*
X106129392Y-115045460D01*
X106217999Y-115054187D01*
X106240204Y-115052000D01*
X106871418Y-115052000D01*
X106871418Y-115100000D01*
X106877732Y-115164103D01*
X106896430Y-115225743D01*
X106926794Y-115282550D01*
X106967657Y-115332343D01*
X107017450Y-115373206D01*
X107074257Y-115403570D01*
X107135897Y-115422268D01*
X107200000Y-115428582D01*
X108700000Y-115428582D01*
X108764103Y-115422268D01*
X108825743Y-115403570D01*
X108882550Y-115373206D01*
X108932343Y-115332343D01*
X108973206Y-115282550D01*
X108980215Y-115269438D01*
X109330681Y-115619905D01*
X109344841Y-115637159D01*
X109413667Y-115693643D01*
X109421818Y-115698000D01*
X104016166Y-115698000D01*
X104044180Y-115689502D01*
X104154494Y-115630537D01*
X104251185Y-115551185D01*
X104330537Y-115454494D01*
X104389502Y-115344180D01*
X104425812Y-115224482D01*
X104438072Y-115100000D01*
X104435000Y-114885750D01*
X104276250Y-114727000D01*
X103177000Y-114727000D01*
X103177000Y-114747000D01*
X102923000Y-114747000D01*
X102923000Y-114727000D01*
X101823750Y-114727000D01*
X101665000Y-114885750D01*
X101661928Y-115100000D01*
X101674188Y-115224482D01*
X101710498Y-115344180D01*
X101769463Y-115454494D01*
X101848815Y-115551185D01*
X101945506Y-115630537D01*
X102055820Y-115689502D01*
X102083834Y-115698000D01*
X101014774Y-115698000D01*
X100670471Y-115664241D01*
X100353491Y-115568539D01*
X100061142Y-115413093D01*
X99804554Y-115203825D01*
X99593494Y-114948699D01*
X99436012Y-114657441D01*
X99338101Y-114341141D01*
X99302000Y-113997665D01*
X99302000Y-100900233D01*
X99343815Y-100951185D01*
X99440506Y-101030537D01*
X99550820Y-101089502D01*
X99670518Y-101125812D01*
X99795000Y-101138072D01*
X99809250Y-101135000D01*
X99968000Y-100976250D01*
X99968000Y-99652000D01*
X99948000Y-99652000D01*
X99948000Y-99398000D01*
X99968000Y-99398000D01*
X99968000Y-98073750D01*
X99809250Y-97915000D01*
X99795000Y-97911928D01*
X99670518Y-97924188D01*
X99550820Y-97960498D01*
X99440506Y-98019463D01*
X99343815Y-98098815D01*
X99302000Y-98149767D01*
X99302000Y-98014774D01*
X99335759Y-97670471D01*
X99431459Y-97353496D01*
X99586907Y-97061142D01*
X99796177Y-96804552D01*
X100051301Y-96593495D01*
X100342559Y-96436012D01*
X100658859Y-96338101D01*
X101002335Y-96302000D01*
X121985226Y-96302000D01*
X122329529Y-96335759D01*
G37*
X122329529Y-96335759D02*
X122646504Y-96431459D01*
X122938858Y-96586907D01*
X123195448Y-96796177D01*
X123406505Y-97051301D01*
X123563988Y-97342559D01*
X123661899Y-97658859D01*
X123698000Y-98002335D01*
X123698001Y-113985216D01*
X123664241Y-114329529D01*
X123568539Y-114646509D01*
X123413093Y-114938858D01*
X123203825Y-115195446D01*
X122948699Y-115406506D01*
X122657441Y-115563988D01*
X122341141Y-115661899D01*
X121997665Y-115698000D01*
X116468182Y-115698000D01*
X116476333Y-115693643D01*
X116545159Y-115637159D01*
X116559323Y-115619900D01*
X117091162Y-115088061D01*
X117196682Y-115131769D01*
X117424076Y-115177000D01*
X117655924Y-115177000D01*
X117883318Y-115131769D01*
X118097519Y-115043044D01*
X118290294Y-114914236D01*
X118454236Y-114750294D01*
X118583044Y-114557519D01*
X118671769Y-114343318D01*
X118717000Y-114115924D01*
X118717000Y-113884076D01*
X118671769Y-113656682D01*
X118583044Y-113442481D01*
X118454236Y-113249706D01*
X118290294Y-113085764D01*
X118097519Y-112956956D01*
X117992000Y-112913249D01*
X117992000Y-110485223D01*
X118551224Y-109926000D01*
X118890294Y-109926000D01*
X118876794Y-109942450D01*
X118846430Y-109999257D01*
X118827732Y-110060897D01*
X118821418Y-110125000D01*
X118821418Y-110775000D01*
X118827732Y-110839103D01*
X118846430Y-110900743D01*
X118876794Y-110957550D01*
X118898001Y-110983391D01*
X118898001Y-111453785D01*
X118895813Y-111476000D01*
X118904540Y-111564607D01*
X118930386Y-111649809D01*
X118938348Y-111664705D01*
X118972358Y-111728333D01*
X119028842Y-111797159D01*
X119046096Y-111811319D01*
X119628000Y-112393224D01*
X119628000Y-112913248D01*
X119522481Y-112956956D01*
X119329706Y-113085764D01*
X119165764Y-113249706D01*
X119036956Y-113442481D01*
X118948231Y-113656682D01*
X118903000Y-113884076D01*
X118903000Y-114115924D01*
X118948231Y-114343318D01*
X119036956Y-114557519D01*
X119165764Y-114750294D01*
X119329706Y-114914236D01*
X119522481Y-115043044D01*
X119736682Y-115131769D01*
X119964076Y-115177000D01*
X120195924Y-115177000D01*
X120423318Y-115131769D01*
X120637519Y-115043044D01*
X120830294Y-114914236D01*
X120994236Y-114750294D01*
X121123044Y-114557519D01*
X121211769Y-114343318D01*
X121257000Y-114115924D01*
X121257000Y-113884076D01*
X121211769Y-113656682D01*
X121123044Y-113442481D01*
X120994236Y-113249706D01*
X120830294Y-113085764D01*
X120637519Y-112956956D01*
X120532000Y-112913249D01*
X120532000Y-112228205D01*
X120534187Y-112206000D01*
X120525460Y-112117392D01*
X120499614Y-112032190D01*
X120463221Y-111964103D01*
X120457643Y-111953667D01*
X120401159Y-111884841D01*
X120383906Y-111870682D01*
X119802000Y-111288777D01*
X119802000Y-111103582D01*
X120200000Y-111103582D01*
X120264103Y-111097268D01*
X120325000Y-111078795D01*
X120385897Y-111097268D01*
X120450000Y-111103582D01*
X120850000Y-111103582D01*
X120914103Y-111097268D01*
X120975743Y-111078570D01*
X121032550Y-111048206D01*
X121082343Y-111007343D01*
X121123206Y-110957550D01*
X121153570Y-110900743D01*
X121154143Y-110898854D01*
X121188607Y-110895460D01*
X121273810Y-110869614D01*
X121352333Y-110827643D01*
X121421159Y-110771159D01*
X121435323Y-110753900D01*
X121928916Y-110260308D01*
X121946170Y-110246148D01*
X122002654Y-110177322D01*
X122044625Y-110098799D01*
X122055730Y-110062190D01*
X122070471Y-110013597D01*
X122079198Y-109924989D01*
X122077011Y-109902784D01*
X122077011Y-103115722D01*
X122079198Y-103093517D01*
X122070471Y-103004909D01*
X122044625Y-102919707D01*
X122009414Y-102853832D01*
X122002654Y-102841184D01*
X121946170Y-102772358D01*
X121928917Y-102758199D01*
X116691816Y-97521099D01*
X116677652Y-97503840D01*
X116608826Y-97447356D01*
X116530303Y-97405385D01*
X116445100Y-97379539D01*
X116378698Y-97372999D01*
X116356493Y-97370812D01*
X116334288Y-97372999D01*
X102710435Y-97372999D01*
X102688232Y-97370812D01*
X102666029Y-97372999D01*
X102666028Y-97372999D01*
X102599626Y-97379539D01*
X102514423Y-97405385D01*
X102435900Y-97447356D01*
X102367074Y-97503840D01*
X102352918Y-97521089D01*
X101706085Y-98167924D01*
X101688832Y-98182083D01*
X101661795Y-98215028D01*
X101640904Y-98240484D01*
X101608367Y-98230614D01*
X101515000Y-98221418D01*
X101215000Y-98221418D01*
X101121633Y-98230614D01*
X101031855Y-98257848D01*
X100975081Y-98288194D01*
X100925537Y-98195506D01*
X100846185Y-98098815D01*
X100749494Y-98019463D01*
X100639180Y-97960498D01*
X100519482Y-97924188D01*
X100395000Y-97911928D01*
X100380750Y-97915000D01*
X100222000Y-98073750D01*
X100222000Y-99398000D01*
X100242000Y-99398000D01*
X100242000Y-99652000D01*
X100222000Y-99652000D01*
X100222000Y-100976250D01*
X100380750Y-101135000D01*
X100395000Y-101138072D01*
X100519482Y-101125812D01*
X100639180Y-101089502D01*
X100749494Y-101030537D01*
X100846185Y-100951185D01*
X100925537Y-100854494D01*
X100975081Y-100761806D01*
X101031855Y-100792152D01*
X101121633Y-100819386D01*
X101215000Y-100828582D01*
X101515000Y-100828582D01*
X101608367Y-100819386D01*
X101614989Y-100817377D01*
X100416106Y-102016261D01*
X100398852Y-102030421D01*
X100349409Y-102090668D01*
X100342368Y-102099247D01*
X100300396Y-102177771D01*
X100274550Y-102262973D01*
X100265823Y-102351580D01*
X100268011Y-102373795D01*
X100268011Y-103173684D01*
X100245000Y-103171418D01*
X99945000Y-103171418D01*
X99851633Y-103180614D01*
X99761855Y-103207848D01*
X99679114Y-103252074D01*
X99606591Y-103311591D01*
X99547074Y-103384114D01*
X99502848Y-103466855D01*
X99475614Y-103556633D01*
X99466418Y-103650000D01*
X99466418Y-105300000D01*
X99475614Y-105393367D01*
X99502848Y-105483145D01*
X99547074Y-105565886D01*
X99606591Y-105638409D01*
X99679114Y-105697926D01*
X99760501Y-105741428D01*
X99760500Y-106250800D01*
X99689669Y-106288660D01*
X99606728Y-106356728D01*
X99538660Y-106439669D01*
X99488081Y-106534295D01*
X99456935Y-106636971D01*
X99446418Y-106743750D01*
X99446418Y-107256250D01*
X99456935Y-107363029D01*
X99488081Y-107465705D01*
X99538660Y-107560331D01*
X99606728Y-107643272D01*
X99689669Y-107711340D01*
X99760501Y-107749201D01*
X99760500Y-108250800D01*
X99689669Y-108288660D01*
X99606728Y-108356728D01*
X99538660Y-108439669D01*
X99488081Y-108534295D01*
X99456935Y-108636971D01*
X99446418Y-108743750D01*
X99446418Y-109256250D01*
X99456935Y-109363029D01*
X99488081Y-109465705D01*
X99538660Y-109560331D01*
X99606728Y-109643272D01*
X99689669Y-109711340D01*
X99760500Y-109749200D01*
X99760501Y-111620285D01*
X99758313Y-111642500D01*
X99767040Y-111731107D01*
X99792886Y-111816309D01*
X99813132Y-111854187D01*
X99834858Y-111894833D01*
X99891342Y-111963659D01*
X99908596Y-111977819D01*
X101264685Y-113333910D01*
X101278841Y-113351159D01*
X101347667Y-113407643D01*
X101426190Y-113449614D01*
X101491562Y-113469444D01*
X101511392Y-113475460D01*
X101599999Y-113484187D01*
X101622204Y-113482000D01*
X102149765Y-113482000D01*
X102055820Y-113510498D01*
X101945506Y-113569463D01*
X101848815Y-113648815D01*
X101769463Y-113745506D01*
X101710498Y-113855820D01*
X101674188Y-113975518D01*
X101661928Y-114100000D01*
X101665000Y-114314250D01*
X101823750Y-114473000D01*
X102923000Y-114473000D01*
X102923000Y-114453000D01*
X103177000Y-114453000D01*
X103177000Y-114473000D01*
X104276250Y-114473000D01*
X104435000Y-114314250D01*
X104438072Y-114100000D01*
X104425812Y-113975518D01*
X104389502Y-113855820D01*
X104330537Y-113745506D01*
X104251185Y-113648815D01*
X104154494Y-113569463D01*
X104044180Y-113510498D01*
X103950235Y-113482000D01*
X105222776Y-113482000D01*
X105466000Y-113725225D01*
X105466001Y-114277785D01*
X105463813Y-114300000D01*
X105472540Y-114388607D01*
X105498386Y-114473809D01*
X105505663Y-114487423D01*
X105540358Y-114552333D01*
X105596842Y-114621159D01*
X105614095Y-114635318D01*
X105882681Y-114903905D01*
X105896841Y-114921159D01*
X105965667Y-114977643D01*
X106043967Y-115019495D01*
X106044190Y-115019614D01*
X106129392Y-115045460D01*
X106217999Y-115054187D01*
X106240204Y-115052000D01*
X106871418Y-115052000D01*
X106871418Y-115100000D01*
X106877732Y-115164103D01*
X106896430Y-115225743D01*
X106926794Y-115282550D01*
X106967657Y-115332343D01*
X107017450Y-115373206D01*
X107074257Y-115403570D01*
X107135897Y-115422268D01*
X107200000Y-115428582D01*
X108700000Y-115428582D01*
X108764103Y-115422268D01*
X108825743Y-115403570D01*
X108882550Y-115373206D01*
X108932343Y-115332343D01*
X108973206Y-115282550D01*
X108980215Y-115269438D01*
X109330681Y-115619905D01*
X109344841Y-115637159D01*
X109413667Y-115693643D01*
X109421818Y-115698000D01*
X104016166Y-115698000D01*
X104044180Y-115689502D01*
X104154494Y-115630537D01*
X104251185Y-115551185D01*
X104330537Y-115454494D01*
X104389502Y-115344180D01*
X104425812Y-115224482D01*
X104438072Y-115100000D01*
X104435000Y-114885750D01*
X104276250Y-114727000D01*
X103177000Y-114727000D01*
X103177000Y-114747000D01*
X102923000Y-114747000D01*
X102923000Y-114727000D01*
X101823750Y-114727000D01*
X101665000Y-114885750D01*
X101661928Y-115100000D01*
X101674188Y-115224482D01*
X101710498Y-115344180D01*
X101769463Y-115454494D01*
X101848815Y-115551185D01*
X101945506Y-115630537D01*
X102055820Y-115689502D01*
X102083834Y-115698000D01*
X101014774Y-115698000D01*
X100670471Y-115664241D01*
X100353491Y-115568539D01*
X100061142Y-115413093D01*
X99804554Y-115203825D01*
X99593494Y-114948699D01*
X99436012Y-114657441D01*
X99338101Y-114341141D01*
X99302000Y-113997665D01*
X99302000Y-100900233D01*
X99343815Y-100951185D01*
X99440506Y-101030537D01*
X99550820Y-101089502D01*
X99670518Y-101125812D01*
X99795000Y-101138072D01*
X99809250Y-101135000D01*
X99968000Y-100976250D01*
X99968000Y-99652000D01*
X99948000Y-99652000D01*
X99948000Y-99398000D01*
X99968000Y-99398000D01*
X99968000Y-98073750D01*
X99809250Y-97915000D01*
X99795000Y-97911928D01*
X99670518Y-97924188D01*
X99550820Y-97960498D01*
X99440506Y-98019463D01*
X99343815Y-98098815D01*
X99302000Y-98149767D01*
X99302000Y-98014774D01*
X99335759Y-97670471D01*
X99431459Y-97353496D01*
X99586907Y-97061142D01*
X99796177Y-96804552D01*
X100051301Y-96593495D01*
X100342559Y-96436012D01*
X100658859Y-96338101D01*
X101002335Y-96302000D01*
X121985226Y-96302000D01*
X122329529Y-96335759D01*
G36*
X110245390Y-101864104D02*
G01*
X109462623Y-102188336D01*
X108758152Y-102659049D01*
X108159049Y-103258152D01*
X107688336Y-103962623D01*
X107364104Y-104745390D01*
X107198812Y-105576370D01*
X107198812Y-106423630D01*
X107364104Y-107254610D01*
X107688336Y-108037377D01*
X108159049Y-108741848D01*
X108758152Y-109340951D01*
X109462623Y-109811664D01*
X110245390Y-110135896D01*
X111076370Y-110301188D01*
X111923630Y-110301188D01*
X112754610Y-110135896D01*
X113537377Y-109811664D01*
X114241848Y-109340951D01*
X114840951Y-108741848D01*
X115311664Y-108037377D01*
X115635896Y-107254610D01*
X115801188Y-106423630D01*
X115801188Y-105576370D01*
X115635896Y-104745390D01*
X115535234Y-104502370D01*
X117775068Y-106730376D01*
X117788841Y-106747159D01*
X117806551Y-106761693D01*
X117806977Y-106762117D01*
X117823731Y-106775793D01*
X117857667Y-106803643D01*
X117858200Y-106803928D01*
X117858667Y-106804309D01*
X117897345Y-106824851D01*
X117936190Y-106845614D01*
X117936770Y-106845790D01*
X117937301Y-106846072D01*
X117979301Y-106858691D01*
X118021393Y-106871460D01*
X118021993Y-106871519D01*
X118022572Y-106871693D01*
X118066233Y-106875876D01*
X118087795Y-106878000D01*
X118088397Y-106878000D01*
X118111202Y-106880185D01*
X118132802Y-106878000D01*
X119885491Y-106878000D01*
X119885490Y-107235694D01*
X119883303Y-107257900D01*
X119892030Y-107346507D01*
X119906030Y-107392659D01*
X119917876Y-107431709D01*
X119959847Y-107510232D01*
X120016331Y-107579059D01*
X120033590Y-107593223D01*
X120131058Y-107690692D01*
X120073000Y-107748750D01*
X120073000Y-108423000D01*
X120121418Y-108423000D01*
X120121418Y-108677000D01*
X120073000Y-108677000D01*
X120073000Y-108697000D01*
X119927000Y-108697000D01*
X119927000Y-108677000D01*
X119878582Y-108677000D01*
X119878582Y-108423000D01*
X119927000Y-108423000D01*
X119927000Y-107748750D01*
X119768250Y-107590000D01*
X119660098Y-107602454D01*
X119627464Y-107613241D01*
X119461323Y-107447100D01*
X119447159Y-107429841D01*
X119378333Y-107373357D01*
X119299810Y-107331386D01*
X119214607Y-107305540D01*
X119148205Y-107299000D01*
X119126000Y-107296813D01*
X119103795Y-107299000D01*
X118077205Y-107299000D01*
X118055000Y-107296813D01*
X117966392Y-107305540D01*
X117914904Y-107321159D01*
X117881190Y-107331386D01*
X117802667Y-107373357D01*
X117733841Y-107429841D01*
X117719681Y-107447095D01*
X114366777Y-110800000D01*
X109915224Y-110800000D01*
X109047323Y-109932100D01*
X109033159Y-109914841D01*
X108964333Y-109858357D01*
X108885810Y-109816386D01*
X108800607Y-109790540D01*
X108734205Y-109784000D01*
X108712000Y-109781813D01*
X108689795Y-109784000D01*
X107121224Y-109784000D01*
X105354000Y-108016777D01*
X105354000Y-103847436D01*
X105356187Y-103825231D01*
X105347460Y-103736624D01*
X105321614Y-103651422D01*
X105279642Y-103572898D01*
X105223159Y-103504073D01*
X105205905Y-103489913D01*
X104587081Y-102871090D01*
X104572917Y-102853831D01*
X104504091Y-102797347D01*
X104425568Y-102755376D01*
X104340365Y-102729530D01*
X104273963Y-102722990D01*
X104251758Y-102720803D01*
X104229553Y-102722990D01*
X102982215Y-102722990D01*
X102960010Y-102720803D01*
X102871402Y-102729530D01*
X102786200Y-102755376D01*
X102707677Y-102797347D01*
X102638851Y-102853831D01*
X102624691Y-102871085D01*
X102331100Y-103164677D01*
X102313841Y-103178841D01*
X102280800Y-103219102D01*
X102219114Y-103252074D01*
X102146591Y-103311591D01*
X102087074Y-103384114D01*
X102042848Y-103466855D01*
X102015614Y-103556633D01*
X102006418Y-103650000D01*
X102006418Y-105300000D01*
X102015614Y-105393367D01*
X102042848Y-105483145D01*
X102087074Y-105565886D01*
X102146591Y-105638409D01*
X102219114Y-105697926D01*
X102301855Y-105742152D01*
X102391633Y-105769386D01*
X102485000Y-105778582D01*
X102785000Y-105778582D01*
X102878367Y-105769386D01*
X102968145Y-105742152D01*
X103050886Y-105697926D01*
X103123409Y-105638409D01*
X103182926Y-105565886D01*
X103227152Y-105483145D01*
X103254386Y-105393367D01*
X103263582Y-105300000D01*
X103263582Y-103650000D01*
X103261316Y-103626990D01*
X103278684Y-103626990D01*
X103276418Y-103650000D01*
X103276418Y-105300000D01*
X103285614Y-105393367D01*
X103312848Y-105483145D01*
X103357074Y-105565886D01*
X103416591Y-105638409D01*
X103453001Y-105668289D01*
X103453000Y-109724795D01*
X103450813Y-109747000D01*
X103459540Y-109835607D01*
X103479282Y-109900687D01*
X103485386Y-109920809D01*
X103527357Y-109999332D01*
X103583841Y-110068159D01*
X103601100Y-110082323D01*
X105222681Y-111703905D01*
X105236841Y-111721159D01*
X105305667Y-111777643D01*
X105378007Y-111816309D01*
X105384190Y-111819614D01*
X105469392Y-111845460D01*
X105557999Y-111854187D01*
X105580204Y-111852000D01*
X106871418Y-111852000D01*
X106871418Y-111900000D01*
X106877732Y-111964103D01*
X106896430Y-112025743D01*
X106926794Y-112082550D01*
X106967657Y-112132343D01*
X107017450Y-112173206D01*
X107074257Y-112203570D01*
X107135897Y-112222268D01*
X107200000Y-112228582D01*
X108700000Y-112228582D01*
X108764103Y-112222268D01*
X108825743Y-112203570D01*
X108882550Y-112173206D01*
X108932343Y-112132343D01*
X108973206Y-112082550D01*
X109003570Y-112025743D01*
X109022268Y-111964103D01*
X109028582Y-111900000D01*
X109028582Y-111191806D01*
X109392681Y-111555905D01*
X109406841Y-111573159D01*
X109475667Y-111629643D01*
X109541264Y-111664705D01*
X109554190Y-111671614D01*
X109639392Y-111697460D01*
X109728000Y-111706187D01*
X109750205Y-111704000D01*
X114531795Y-111704000D01*
X114554000Y-111706187D01*
X114576205Y-111704000D01*
X114642607Y-111697460D01*
X114727810Y-111671614D01*
X114806333Y-111629643D01*
X114875159Y-111573159D01*
X114889323Y-111555900D01*
X118242224Y-108203000D01*
X118823585Y-108203000D01*
X118821418Y-108225000D01*
X118821418Y-108875000D01*
X118827732Y-108939103D01*
X118846430Y-109000743D01*
X118857792Y-109022000D01*
X118386205Y-109022000D01*
X118364000Y-109019813D01*
X118275392Y-109028540D01*
X118216536Y-109046394D01*
X118190190Y-109054386D01*
X118111667Y-109096357D01*
X118042841Y-109152841D01*
X118028681Y-109170095D01*
X117236096Y-109962681D01*
X117218842Y-109976841D01*
X117174899Y-110030386D01*
X117162358Y-110045667D01*
X117120386Y-110124191D01*
X117094540Y-110209393D01*
X117085813Y-110298000D01*
X117088001Y-110320215D01*
X117088000Y-112913248D01*
X116982481Y-112956956D01*
X116789706Y-113085764D01*
X116625764Y-113249706D01*
X116496956Y-113442481D01*
X116486340Y-113468110D01*
X116488072Y-113150000D01*
X116475812Y-113025518D01*
X116439502Y-112905820D01*
X116380537Y-112795506D01*
X116301185Y-112698815D01*
X116204494Y-112619463D01*
X116094180Y-112560498D01*
X115974482Y-112524188D01*
X115850000Y-112511928D01*
X115285750Y-112515000D01*
X115127000Y-112673750D01*
X115127000Y-113873000D01*
X115147000Y-113873000D01*
X115147000Y-114127000D01*
X115127000Y-114127000D01*
X115127000Y-114147000D01*
X114873000Y-114147000D01*
X114873000Y-114127000D01*
X113673750Y-114127000D01*
X113515000Y-114285750D01*
X113511928Y-114850000D01*
X113513307Y-114864000D01*
X109853224Y-114864000D01*
X109285323Y-114296100D01*
X109271159Y-114278841D01*
X109202333Y-114222357D01*
X109123810Y-114180386D01*
X109038607Y-114154540D01*
X109028582Y-114153553D01*
X109028582Y-114100000D01*
X109022268Y-114035897D01*
X109003570Y-113974257D01*
X108973206Y-113917450D01*
X108932343Y-113867657D01*
X108882550Y-113826794D01*
X108825743Y-113796430D01*
X108764103Y-113777732D01*
X108700000Y-113771418D01*
X107200000Y-113771418D01*
X107135897Y-113777732D01*
X107074257Y-113796430D01*
X107017450Y-113826794D01*
X106967657Y-113867657D01*
X106926794Y-113917450D01*
X106896430Y-113974257D01*
X106877732Y-114035897D01*
X106871418Y-114100000D01*
X106871418Y-114148000D01*
X106405224Y-114148000D01*
X106370000Y-114112777D01*
X106370000Y-113560202D01*
X106372187Y-113537999D01*
X106369478Y-113510498D01*
X106363460Y-113449393D01*
X106337614Y-113364190D01*
X106295643Y-113285667D01*
X106239159Y-113216841D01*
X106221911Y-113202686D01*
X106169225Y-113150000D01*
X113511928Y-113150000D01*
X113515000Y-113714250D01*
X113673750Y-113873000D01*
X114873000Y-113873000D01*
X114873000Y-112673750D01*
X114714250Y-112515000D01*
X114150000Y-112511928D01*
X114025518Y-112524188D01*
X113905820Y-112560498D01*
X113795506Y-112619463D01*
X113698815Y-112698815D01*
X113619463Y-112795506D01*
X113560498Y-112905820D01*
X113524188Y-113025518D01*
X113511928Y-113150000D01*
X106169225Y-113150000D01*
X105745323Y-112726100D01*
X105731159Y-112708841D01*
X105662333Y-112652357D01*
X105583810Y-112610386D01*
X105498607Y-112584540D01*
X105432205Y-112578000D01*
X105410000Y-112575813D01*
X105387795Y-112578000D01*
X101787225Y-112578000D01*
X100664500Y-111455277D01*
X100664500Y-110900000D01*
X101971418Y-110900000D01*
X101971418Y-111900000D01*
X101977732Y-111964103D01*
X101996430Y-112025743D01*
X102026794Y-112082550D01*
X102067657Y-112132343D01*
X102117450Y-112173206D01*
X102174257Y-112203570D01*
X102235897Y-112222268D01*
X102300000Y-112228582D01*
X103800000Y-112228582D01*
X103864103Y-112222268D01*
X103925743Y-112203570D01*
X103982550Y-112173206D01*
X104032343Y-112132343D01*
X104073206Y-112082550D01*
X104103570Y-112025743D01*
X104122268Y-111964103D01*
X104128582Y-111900000D01*
X104128582Y-110900000D01*
X104122268Y-110835897D01*
X104103570Y-110774257D01*
X104073206Y-110717450D01*
X104032343Y-110667657D01*
X103982550Y-110626794D01*
X103925743Y-110596430D01*
X103864103Y-110577732D01*
X103800000Y-110571418D01*
X102300000Y-110571418D01*
X102235897Y-110577732D01*
X102174257Y-110596430D01*
X102117450Y-110626794D01*
X102067657Y-110667657D01*
X102026794Y-110717450D01*
X101996430Y-110774257D01*
X101977732Y-110835897D01*
X101971418Y-110900000D01*
X100664500Y-110900000D01*
X100664500Y-109749200D01*
X100735331Y-109711340D01*
X100818272Y-109643272D01*
X100886340Y-109560331D01*
X100936919Y-109465705D01*
X100968065Y-109363029D01*
X100978582Y-109256250D01*
X100978582Y-108743750D01*
X100968065Y-108636971D01*
X100936919Y-108534295D01*
X100886340Y-108439669D01*
X100818272Y-108356728D01*
X100735331Y-108288660D01*
X100664500Y-108250800D01*
X100664500Y-108162908D01*
X100671110Y-108168333D01*
X100756677Y-108253900D01*
X100770841Y-108271159D01*
X100839667Y-108327643D01*
X100918190Y-108369614D01*
X100945209Y-108377810D01*
X101003392Y-108395460D01*
X101092000Y-108404187D01*
X101114205Y-108402000D01*
X101144574Y-108402000D01*
X101113660Y-108439669D01*
X101063081Y-108534295D01*
X101031935Y-108636971D01*
X101021418Y-108743750D01*
X101021418Y-109256250D01*
X101031935Y-109363029D01*
X101063081Y-109465705D01*
X101113660Y-109560331D01*
X101181728Y-109643272D01*
X101264669Y-109711340D01*
X101359295Y-109761919D01*
X101461971Y-109793065D01*
X101568750Y-109803582D01*
X102006250Y-109803582D01*
X102113029Y-109793065D01*
X102215705Y-109761919D01*
X102310331Y-109711340D01*
X102393272Y-109643272D01*
X102461340Y-109560331D01*
X102511919Y-109465705D01*
X102543065Y-109363029D01*
X102553582Y-109256250D01*
X102553582Y-108743750D01*
X102543065Y-108636971D01*
X102511919Y-108534295D01*
X102461340Y-108439669D01*
X102393272Y-108356728D01*
X102310331Y-108288660D01*
X102239500Y-108250800D01*
X102239500Y-108159704D01*
X102241687Y-108137499D01*
X102239144Y-108111679D01*
X102349482Y-108100812D01*
X102469180Y-108064502D01*
X102579494Y-108005537D01*
X102676185Y-107926185D01*
X102755537Y-107829494D01*
X102814502Y-107719180D01*
X102850812Y-107599482D01*
X102863072Y-107475000D01*
X102860000Y-107285750D01*
X102701250Y-107127000D01*
X101914500Y-107127000D01*
X101914500Y-107147000D01*
X101660500Y-107147000D01*
X101660500Y-107127000D01*
X101640500Y-107127000D01*
X101640500Y-106873000D01*
X101660500Y-106873000D01*
X101660500Y-106048750D01*
X101914500Y-106048750D01*
X101914500Y-106873000D01*
X102701250Y-106873000D01*
X102860000Y-106714250D01*
X102863072Y-106525000D01*
X102850812Y-106400518D01*
X102814502Y-106280820D01*
X102755537Y-106170506D01*
X102676185Y-106073815D01*
X102579494Y-105994463D01*
X102469180Y-105935498D01*
X102349482Y-105899188D01*
X102225000Y-105886928D01*
X102073250Y-105890000D01*
X101914500Y-106048750D01*
X101660500Y-106048750D01*
X101501750Y-105890000D01*
X101350000Y-105886928D01*
X101225518Y-105899188D01*
X101209324Y-105904100D01*
X101172010Y-105866786D01*
X101172010Y-105774348D01*
X101215000Y-105778582D01*
X101515000Y-105778582D01*
X101608367Y-105769386D01*
X101698145Y-105742152D01*
X101780886Y-105697926D01*
X101853409Y-105638409D01*
X101912926Y-105565886D01*
X101957152Y-105483145D01*
X101984386Y-105393367D01*
X101993582Y-105300000D01*
X101993582Y-103650000D01*
X101984386Y-103556633D01*
X101957152Y-103466855D01*
X101912926Y-103384114D01*
X101853409Y-103311591D01*
X101817000Y-103281711D01*
X101817000Y-102530223D01*
X102549224Y-101798000D01*
X110577718Y-101798000D01*
X110245390Y-101864104D01*
G37*
X110245390Y-101864104D02*
X109462623Y-102188336D01*
X108758152Y-102659049D01*
X108159049Y-103258152D01*
X107688336Y-103962623D01*
X107364104Y-104745390D01*
X107198812Y-105576370D01*
X107198812Y-106423630D01*
X107364104Y-107254610D01*
X107688336Y-108037377D01*
X108159049Y-108741848D01*
X108758152Y-109340951D01*
X109462623Y-109811664D01*
X110245390Y-110135896D01*
X111076370Y-110301188D01*
X111923630Y-110301188D01*
X112754610Y-110135896D01*
X113537377Y-109811664D01*
X114241848Y-109340951D01*
X114840951Y-108741848D01*
X115311664Y-108037377D01*
X115635896Y-107254610D01*
X115801188Y-106423630D01*
X115801188Y-105576370D01*
X115635896Y-104745390D01*
X115535234Y-104502370D01*
X117775068Y-106730376D01*
X117788841Y-106747159D01*
X117806551Y-106761693D01*
X117806977Y-106762117D01*
X117823731Y-106775793D01*
X117857667Y-106803643D01*
X117858200Y-106803928D01*
X117858667Y-106804309D01*
X117897345Y-106824851D01*
X117936190Y-106845614D01*
X117936770Y-106845790D01*
X117937301Y-106846072D01*
X117979301Y-106858691D01*
X118021393Y-106871460D01*
X118021993Y-106871519D01*
X118022572Y-106871693D01*
X118066233Y-106875876D01*
X118087795Y-106878000D01*
X118088397Y-106878000D01*
X118111202Y-106880185D01*
X118132802Y-106878000D01*
X119885491Y-106878000D01*
X119885490Y-107235694D01*
X119883303Y-107257900D01*
X119892030Y-107346507D01*
X119906030Y-107392659D01*
X119917876Y-107431709D01*
X119959847Y-107510232D01*
X120016331Y-107579059D01*
X120033590Y-107593223D01*
X120131058Y-107690692D01*
X120073000Y-107748750D01*
X120073000Y-108423000D01*
X120121418Y-108423000D01*
X120121418Y-108677000D01*
X120073000Y-108677000D01*
X120073000Y-108697000D01*
X119927000Y-108697000D01*
X119927000Y-108677000D01*
X119878582Y-108677000D01*
X119878582Y-108423000D01*
X119927000Y-108423000D01*
X119927000Y-107748750D01*
X119768250Y-107590000D01*
X119660098Y-107602454D01*
X119627464Y-107613241D01*
X119461323Y-107447100D01*
X119447159Y-107429841D01*
X119378333Y-107373357D01*
X119299810Y-107331386D01*
X119214607Y-107305540D01*
X119148205Y-107299000D01*
X119126000Y-107296813D01*
X119103795Y-107299000D01*
X118077205Y-107299000D01*
X118055000Y-107296813D01*
X117966392Y-107305540D01*
X117914904Y-107321159D01*
X117881190Y-107331386D01*
X117802667Y-107373357D01*
X117733841Y-107429841D01*
X117719681Y-107447095D01*
X114366777Y-110800000D01*
X109915224Y-110800000D01*
X109047323Y-109932100D01*
X109033159Y-109914841D01*
X108964333Y-109858357D01*
X108885810Y-109816386D01*
X108800607Y-109790540D01*
X108734205Y-109784000D01*
X108712000Y-109781813D01*
X108689795Y-109784000D01*
X107121224Y-109784000D01*
X105354000Y-108016777D01*
X105354000Y-103847436D01*
X105356187Y-103825231D01*
X105347460Y-103736624D01*
X105321614Y-103651422D01*
X105279642Y-103572898D01*
X105223159Y-103504073D01*
X105205905Y-103489913D01*
X104587081Y-102871090D01*
X104572917Y-102853831D01*
X104504091Y-102797347D01*
X104425568Y-102755376D01*
X104340365Y-102729530D01*
X104273963Y-102722990D01*
X104251758Y-102720803D01*
X104229553Y-102722990D01*
X102982215Y-102722990D01*
X102960010Y-102720803D01*
X102871402Y-102729530D01*
X102786200Y-102755376D01*
X102707677Y-102797347D01*
X102638851Y-102853831D01*
X102624691Y-102871085D01*
X102331100Y-103164677D01*
X102313841Y-103178841D01*
X102280800Y-103219102D01*
X102219114Y-103252074D01*
X102146591Y-103311591D01*
X102087074Y-103384114D01*
X102042848Y-103466855D01*
X102015614Y-103556633D01*
X102006418Y-103650000D01*
X102006418Y-105300000D01*
X102015614Y-105393367D01*
X102042848Y-105483145D01*
X102087074Y-105565886D01*
X102146591Y-105638409D01*
X102219114Y-105697926D01*
X102301855Y-105742152D01*
X102391633Y-105769386D01*
X102485000Y-105778582D01*
X102785000Y-105778582D01*
X102878367Y-105769386D01*
X102968145Y-105742152D01*
X103050886Y-105697926D01*
X103123409Y-105638409D01*
X103182926Y-105565886D01*
X103227152Y-105483145D01*
X103254386Y-105393367D01*
X103263582Y-105300000D01*
X103263582Y-103650000D01*
X103261316Y-103626990D01*
X103278684Y-103626990D01*
X103276418Y-103650000D01*
X103276418Y-105300000D01*
X103285614Y-105393367D01*
X103312848Y-105483145D01*
X103357074Y-105565886D01*
X103416591Y-105638409D01*
X103453001Y-105668289D01*
X103453000Y-109724795D01*
X103450813Y-109747000D01*
X103459540Y-109835607D01*
X103479282Y-109900687D01*
X103485386Y-109920809D01*
X103527357Y-109999332D01*
X103583841Y-110068159D01*
X103601100Y-110082323D01*
X105222681Y-111703905D01*
X105236841Y-111721159D01*
X105305667Y-111777643D01*
X105378007Y-111816309D01*
X105384190Y-111819614D01*
X105469392Y-111845460D01*
X105557999Y-111854187D01*
X105580204Y-111852000D01*
X106871418Y-111852000D01*
X106871418Y-111900000D01*
X106877732Y-111964103D01*
X106896430Y-112025743D01*
X106926794Y-112082550D01*
X106967657Y-112132343D01*
X107017450Y-112173206D01*
X107074257Y-112203570D01*
X107135897Y-112222268D01*
X107200000Y-112228582D01*
X108700000Y-112228582D01*
X108764103Y-112222268D01*
X108825743Y-112203570D01*
X108882550Y-112173206D01*
X108932343Y-112132343D01*
X108973206Y-112082550D01*
X109003570Y-112025743D01*
X109022268Y-111964103D01*
X109028582Y-111900000D01*
X109028582Y-111191806D01*
X109392681Y-111555905D01*
X109406841Y-111573159D01*
X109475667Y-111629643D01*
X109541264Y-111664705D01*
X109554190Y-111671614D01*
X109639392Y-111697460D01*
X109728000Y-111706187D01*
X109750205Y-111704000D01*
X114531795Y-111704000D01*
X114554000Y-111706187D01*
X114576205Y-111704000D01*
X114642607Y-111697460D01*
X114727810Y-111671614D01*
X114806333Y-111629643D01*
X114875159Y-111573159D01*
X114889323Y-111555900D01*
X118242224Y-108203000D01*
X118823585Y-108203000D01*
X118821418Y-108225000D01*
X118821418Y-108875000D01*
X118827732Y-108939103D01*
X118846430Y-109000743D01*
X118857792Y-109022000D01*
X118386205Y-109022000D01*
X118364000Y-109019813D01*
X118275392Y-109028540D01*
X118216536Y-109046394D01*
X118190190Y-109054386D01*
X118111667Y-109096357D01*
X118042841Y-109152841D01*
X118028681Y-109170095D01*
X117236096Y-109962681D01*
X117218842Y-109976841D01*
X117174899Y-110030386D01*
X117162358Y-110045667D01*
X117120386Y-110124191D01*
X117094540Y-110209393D01*
X117085813Y-110298000D01*
X117088001Y-110320215D01*
X117088000Y-112913248D01*
X116982481Y-112956956D01*
X116789706Y-113085764D01*
X116625764Y-113249706D01*
X116496956Y-113442481D01*
X116486340Y-113468110D01*
X116488072Y-113150000D01*
X116475812Y-113025518D01*
X116439502Y-112905820D01*
X116380537Y-112795506D01*
X116301185Y-112698815D01*
X116204494Y-112619463D01*
X116094180Y-112560498D01*
X115974482Y-112524188D01*
X115850000Y-112511928D01*
X115285750Y-112515000D01*
X115127000Y-112673750D01*
X115127000Y-113873000D01*
X115147000Y-113873000D01*
X115147000Y-114127000D01*
X115127000Y-114127000D01*
X115127000Y-114147000D01*
X114873000Y-114147000D01*
X114873000Y-114127000D01*
X113673750Y-114127000D01*
X113515000Y-114285750D01*
X113511928Y-114850000D01*
X113513307Y-114864000D01*
X109853224Y-114864000D01*
X109285323Y-114296100D01*
X109271159Y-114278841D01*
X109202333Y-114222357D01*
X109123810Y-114180386D01*
X109038607Y-114154540D01*
X109028582Y-114153553D01*
X109028582Y-114100000D01*
X109022268Y-114035897D01*
X109003570Y-113974257D01*
X108973206Y-113917450D01*
X108932343Y-113867657D01*
X108882550Y-113826794D01*
X108825743Y-113796430D01*
X108764103Y-113777732D01*
X108700000Y-113771418D01*
X107200000Y-113771418D01*
X107135897Y-113777732D01*
X107074257Y-113796430D01*
X107017450Y-113826794D01*
X106967657Y-113867657D01*
X106926794Y-113917450D01*
X106896430Y-113974257D01*
X106877732Y-114035897D01*
X106871418Y-114100000D01*
X106871418Y-114148000D01*
X106405224Y-114148000D01*
X106370000Y-114112777D01*
X106370000Y-113560202D01*
X106372187Y-113537999D01*
X106369478Y-113510498D01*
X106363460Y-113449393D01*
X106337614Y-113364190D01*
X106295643Y-113285667D01*
X106239159Y-113216841D01*
X106221911Y-113202686D01*
X106169225Y-113150000D01*
X113511928Y-113150000D01*
X113515000Y-113714250D01*
X113673750Y-113873000D01*
X114873000Y-113873000D01*
X114873000Y-112673750D01*
X114714250Y-112515000D01*
X114150000Y-112511928D01*
X114025518Y-112524188D01*
X113905820Y-112560498D01*
X113795506Y-112619463D01*
X113698815Y-112698815D01*
X113619463Y-112795506D01*
X113560498Y-112905820D01*
X113524188Y-113025518D01*
X113511928Y-113150000D01*
X106169225Y-113150000D01*
X105745323Y-112726100D01*
X105731159Y-112708841D01*
X105662333Y-112652357D01*
X105583810Y-112610386D01*
X105498607Y-112584540D01*
X105432205Y-112578000D01*
X105410000Y-112575813D01*
X105387795Y-112578000D01*
X101787225Y-112578000D01*
X100664500Y-111455277D01*
X100664500Y-110900000D01*
X101971418Y-110900000D01*
X101971418Y-111900000D01*
X101977732Y-111964103D01*
X101996430Y-112025743D01*
X102026794Y-112082550D01*
X102067657Y-112132343D01*
X102117450Y-112173206D01*
X102174257Y-112203570D01*
X102235897Y-112222268D01*
X102300000Y-112228582D01*
X103800000Y-112228582D01*
X103864103Y-112222268D01*
X103925743Y-112203570D01*
X103982550Y-112173206D01*
X104032343Y-112132343D01*
X104073206Y-112082550D01*
X104103570Y-112025743D01*
X104122268Y-111964103D01*
X104128582Y-111900000D01*
X104128582Y-110900000D01*
X104122268Y-110835897D01*
X104103570Y-110774257D01*
X104073206Y-110717450D01*
X104032343Y-110667657D01*
X103982550Y-110626794D01*
X103925743Y-110596430D01*
X103864103Y-110577732D01*
X103800000Y-110571418D01*
X102300000Y-110571418D01*
X102235897Y-110577732D01*
X102174257Y-110596430D01*
X102117450Y-110626794D01*
X102067657Y-110667657D01*
X102026794Y-110717450D01*
X101996430Y-110774257D01*
X101977732Y-110835897D01*
X101971418Y-110900000D01*
X100664500Y-110900000D01*
X100664500Y-109749200D01*
X100735331Y-109711340D01*
X100818272Y-109643272D01*
X100886340Y-109560331D01*
X100936919Y-109465705D01*
X100968065Y-109363029D01*
X100978582Y-109256250D01*
X100978582Y-108743750D01*
X100968065Y-108636971D01*
X100936919Y-108534295D01*
X100886340Y-108439669D01*
X100818272Y-108356728D01*
X100735331Y-108288660D01*
X100664500Y-108250800D01*
X100664500Y-108162908D01*
X100671110Y-108168333D01*
X100756677Y-108253900D01*
X100770841Y-108271159D01*
X100839667Y-108327643D01*
X100918190Y-108369614D01*
X100945209Y-108377810D01*
X101003392Y-108395460D01*
X101092000Y-108404187D01*
X101114205Y-108402000D01*
X101144574Y-108402000D01*
X101113660Y-108439669D01*
X101063081Y-108534295D01*
X101031935Y-108636971D01*
X101021418Y-108743750D01*
X101021418Y-109256250D01*
X101031935Y-109363029D01*
X101063081Y-109465705D01*
X101113660Y-109560331D01*
X101181728Y-109643272D01*
X101264669Y-109711340D01*
X101359295Y-109761919D01*
X101461971Y-109793065D01*
X101568750Y-109803582D01*
X102006250Y-109803582D01*
X102113029Y-109793065D01*
X102215705Y-109761919D01*
X102310331Y-109711340D01*
X102393272Y-109643272D01*
X102461340Y-109560331D01*
X102511919Y-109465705D01*
X102543065Y-109363029D01*
X102553582Y-109256250D01*
X102553582Y-108743750D01*
X102543065Y-108636971D01*
X102511919Y-108534295D01*
X102461340Y-108439669D01*
X102393272Y-108356728D01*
X102310331Y-108288660D01*
X102239500Y-108250800D01*
X102239500Y-108159704D01*
X102241687Y-108137499D01*
X102239144Y-108111679D01*
X102349482Y-108100812D01*
X102469180Y-108064502D01*
X102579494Y-108005537D01*
X102676185Y-107926185D01*
X102755537Y-107829494D01*
X102814502Y-107719180D01*
X102850812Y-107599482D01*
X102863072Y-107475000D01*
X102860000Y-107285750D01*
X102701250Y-107127000D01*
X101914500Y-107127000D01*
X101914500Y-107147000D01*
X101660500Y-107147000D01*
X101660500Y-107127000D01*
X101640500Y-107127000D01*
X101640500Y-106873000D01*
X101660500Y-106873000D01*
X101660500Y-106048750D01*
X101914500Y-106048750D01*
X101914500Y-106873000D01*
X102701250Y-106873000D01*
X102860000Y-106714250D01*
X102863072Y-106525000D01*
X102850812Y-106400518D01*
X102814502Y-106280820D01*
X102755537Y-106170506D01*
X102676185Y-106073815D01*
X102579494Y-105994463D01*
X102469180Y-105935498D01*
X102349482Y-105899188D01*
X102225000Y-105886928D01*
X102073250Y-105890000D01*
X101914500Y-106048750D01*
X101660500Y-106048750D01*
X101501750Y-105890000D01*
X101350000Y-105886928D01*
X101225518Y-105899188D01*
X101209324Y-105904100D01*
X101172010Y-105866786D01*
X101172010Y-105774348D01*
X101215000Y-105778582D01*
X101515000Y-105778582D01*
X101608367Y-105769386D01*
X101698145Y-105742152D01*
X101780886Y-105697926D01*
X101853409Y-105638409D01*
X101912926Y-105565886D01*
X101957152Y-105483145D01*
X101984386Y-105393367D01*
X101993582Y-105300000D01*
X101993582Y-103650000D01*
X101984386Y-103556633D01*
X101957152Y-103466855D01*
X101912926Y-103384114D01*
X101853409Y-103311591D01*
X101817000Y-103281711D01*
X101817000Y-102530223D01*
X102549224Y-101798000D01*
X110577718Y-101798000D01*
X110245390Y-101864104D01*
G36*
X120588688Y-102696418D02*
G01*
X120568750Y-102696418D01*
X120461971Y-102706935D01*
X120359295Y-102738081D01*
X120264669Y-102788660D01*
X120246423Y-102803634D01*
X120239502Y-102780820D01*
X120180537Y-102670506D01*
X120101185Y-102573815D01*
X120004494Y-102494463D01*
X119894180Y-102435498D01*
X119774482Y-102399188D01*
X119650000Y-102386928D01*
X119498250Y-102390000D01*
X119339500Y-102548750D01*
X119339500Y-103373000D01*
X119359500Y-103373000D01*
X119359500Y-103627000D01*
X119339500Y-103627000D01*
X119339500Y-104451250D01*
X119498250Y-104610000D01*
X119650000Y-104613072D01*
X119774482Y-104600812D01*
X119894180Y-104564502D01*
X120004494Y-104505537D01*
X120101185Y-104426185D01*
X120180537Y-104329494D01*
X120239502Y-104219180D01*
X120246423Y-104196366D01*
X120264669Y-104211340D01*
X120335501Y-104249201D01*
X120335500Y-104750800D01*
X120264669Y-104788660D01*
X120181728Y-104856728D01*
X120113660Y-104939669D01*
X120063081Y-105034295D01*
X120031935Y-105136971D01*
X120021418Y-105243750D01*
X120021418Y-105756250D01*
X120031935Y-105863029D01*
X120063081Y-105965705D01*
X120067515Y-105974000D01*
X119932485Y-105974000D01*
X119936919Y-105965705D01*
X119968065Y-105863029D01*
X119978582Y-105756250D01*
X119978582Y-105243750D01*
X119968065Y-105136971D01*
X119936919Y-105034295D01*
X119886340Y-104939669D01*
X119818272Y-104856728D01*
X119735331Y-104788660D01*
X119640705Y-104738081D01*
X119538029Y-104706935D01*
X119431250Y-104696418D01*
X118993750Y-104696418D01*
X118886971Y-104706935D01*
X118784295Y-104738081D01*
X118689669Y-104788660D01*
X118606728Y-104856728D01*
X118538660Y-104939669D01*
X118488081Y-105034295D01*
X118483924Y-105048000D01*
X118025143Y-105048000D01*
X116952143Y-103975000D01*
X118136928Y-103975000D01*
X118149188Y-104099482D01*
X118185498Y-104219180D01*
X118244463Y-104329494D01*
X118323815Y-104426185D01*
X118420506Y-104505537D01*
X118530820Y-104564502D01*
X118650518Y-104600812D01*
X118775000Y-104613072D01*
X118926750Y-104610000D01*
X119085500Y-104451250D01*
X119085500Y-103627000D01*
X118298750Y-103627000D01*
X118140000Y-103785750D01*
X118136928Y-103975000D01*
X116952143Y-103975000D01*
X116002143Y-103025000D01*
X118136928Y-103025000D01*
X118140000Y-103214250D01*
X118298750Y-103373000D01*
X119085500Y-103373000D01*
X119085500Y-102548750D01*
X118926750Y-102390000D01*
X118775000Y-102386928D01*
X118650518Y-102399188D01*
X118530820Y-102435498D01*
X118420506Y-102494463D01*
X118323815Y-102573815D01*
X118244463Y-102670506D01*
X118185498Y-102780820D01*
X118149188Y-102900518D01*
X118136928Y-103025000D01*
X116002143Y-103025000D01*
X113042836Y-100065694D01*
X113097519Y-100043044D01*
X113290294Y-99914236D01*
X113454236Y-99750294D01*
X113583044Y-99557519D01*
X113671769Y-99343318D01*
X113717000Y-99115924D01*
X113717000Y-98884076D01*
X113671769Y-98656682D01*
X113583044Y-98442481D01*
X113472473Y-98276999D01*
X116169270Y-98276999D01*
X120588688Y-102696418D01*
G37*
X120588688Y-102696418D02*
X120568750Y-102696418D01*
X120461971Y-102706935D01*
X120359295Y-102738081D01*
X120264669Y-102788660D01*
X120246423Y-102803634D01*
X120239502Y-102780820D01*
X120180537Y-102670506D01*
X120101185Y-102573815D01*
X120004494Y-102494463D01*
X119894180Y-102435498D01*
X119774482Y-102399188D01*
X119650000Y-102386928D01*
X119498250Y-102390000D01*
X119339500Y-102548750D01*
X119339500Y-103373000D01*
X119359500Y-103373000D01*
X119359500Y-103627000D01*
X119339500Y-103627000D01*
X119339500Y-104451250D01*
X119498250Y-104610000D01*
X119650000Y-104613072D01*
X119774482Y-104600812D01*
X119894180Y-104564502D01*
X120004494Y-104505537D01*
X120101185Y-104426185D01*
X120180537Y-104329494D01*
X120239502Y-104219180D01*
X120246423Y-104196366D01*
X120264669Y-104211340D01*
X120335501Y-104249201D01*
X120335500Y-104750800D01*
X120264669Y-104788660D01*
X120181728Y-104856728D01*
X120113660Y-104939669D01*
X120063081Y-105034295D01*
X120031935Y-105136971D01*
X120021418Y-105243750D01*
X120021418Y-105756250D01*
X120031935Y-105863029D01*
X120063081Y-105965705D01*
X120067515Y-105974000D01*
X119932485Y-105974000D01*
X119936919Y-105965705D01*
X119968065Y-105863029D01*
X119978582Y-105756250D01*
X119978582Y-105243750D01*
X119968065Y-105136971D01*
X119936919Y-105034295D01*
X119886340Y-104939669D01*
X119818272Y-104856728D01*
X119735331Y-104788660D01*
X119640705Y-104738081D01*
X119538029Y-104706935D01*
X119431250Y-104696418D01*
X118993750Y-104696418D01*
X118886971Y-104706935D01*
X118784295Y-104738081D01*
X118689669Y-104788660D01*
X118606728Y-104856728D01*
X118538660Y-104939669D01*
X118488081Y-105034295D01*
X118483924Y-105048000D01*
X118025143Y-105048000D01*
X116952143Y-103975000D01*
X118136928Y-103975000D01*
X118149188Y-104099482D01*
X118185498Y-104219180D01*
X118244463Y-104329494D01*
X118323815Y-104426185D01*
X118420506Y-104505537D01*
X118530820Y-104564502D01*
X118650518Y-104600812D01*
X118775000Y-104613072D01*
X118926750Y-104610000D01*
X119085500Y-104451250D01*
X119085500Y-103627000D01*
X118298750Y-103627000D01*
X118140000Y-103785750D01*
X118136928Y-103975000D01*
X116952143Y-103975000D01*
X116002143Y-103025000D01*
X118136928Y-103025000D01*
X118140000Y-103214250D01*
X118298750Y-103373000D01*
X119085500Y-103373000D01*
X119085500Y-102548750D01*
X118926750Y-102390000D01*
X118775000Y-102386928D01*
X118650518Y-102399188D01*
X118530820Y-102435498D01*
X118420506Y-102494463D01*
X118323815Y-102573815D01*
X118244463Y-102670506D01*
X118185498Y-102780820D01*
X118149188Y-102900518D01*
X118136928Y-103025000D01*
X116002143Y-103025000D01*
X113042836Y-100065694D01*
X113097519Y-100043044D01*
X113290294Y-99914236D01*
X113454236Y-99750294D01*
X113583044Y-99557519D01*
X113671769Y-99343318D01*
X113717000Y-99115924D01*
X113717000Y-98884076D01*
X113671769Y-98656682D01*
X113583044Y-98442481D01*
X113472473Y-98276999D01*
X116169270Y-98276999D01*
X120588688Y-102696418D01*
G36*
X108515000Y-98714250D02*
G01*
X108673750Y-98873000D01*
X109873000Y-98873000D01*
X109873000Y-98853000D01*
X110127000Y-98853000D01*
X110127000Y-98873000D01*
X110147000Y-98873000D01*
X110147000Y-99127000D01*
X110127000Y-99127000D01*
X110127000Y-99147000D01*
X109873000Y-99147000D01*
X109873000Y-99127000D01*
X108673750Y-99127000D01*
X108515000Y-99285750D01*
X108512619Y-99723001D01*
X104742226Y-99723001D01*
X104533582Y-99514358D01*
X104533582Y-98700000D01*
X104524386Y-98606633D01*
X104497152Y-98516855D01*
X104452926Y-98434114D01*
X104393409Y-98361591D01*
X104320886Y-98302074D01*
X104273974Y-98276999D01*
X108512619Y-98276999D01*
X108515000Y-98714250D01*
G37*
X108515000Y-98714250D02*
X108673750Y-98873000D01*
X109873000Y-98873000D01*
X109873000Y-98853000D01*
X110127000Y-98853000D01*
X110127000Y-98873000D01*
X110147000Y-98873000D01*
X110147000Y-99127000D01*
X110127000Y-99127000D01*
X110127000Y-99147000D01*
X109873000Y-99147000D01*
X109873000Y-99127000D01*
X108673750Y-99127000D01*
X108515000Y-99285750D01*
X108512619Y-99723001D01*
X104742226Y-99723001D01*
X104533582Y-99514358D01*
X104533582Y-98700000D01*
X104524386Y-98606633D01*
X104497152Y-98516855D01*
X104452926Y-98434114D01*
X104393409Y-98361591D01*
X104320886Y-98302074D01*
X104273974Y-98276999D01*
X108512619Y-98276999D01*
X108515000Y-98714250D01*
M02*
