G04 #@! TF.GenerationSoftware,KiCad,Pcbnew,5.1.5*
G04 #@! TF.CreationDate,2019-12-21T09:41:56+01:00*
G04 #@! TF.ProjectId,leg_sensor_board,6c65675f-7365-46e7-936f-725f626f6172,rev?*
G04 #@! TF.SameCoordinates,Original*
G04 #@! TF.FileFunction,Copper,L2,Bot*
G04 #@! TF.FilePolarity,Positive*
%FSLAX46Y46*%
G04 Gerber Fmt 4.6, Leading zero omitted, Abs format (unit mm)*
G04 Created by KiCad (PCBNEW 5.1.5) date 2019-12-21 09:41:56*
%MOMM*%
%LPD*%
G04 APERTURE LIST*
%ADD10R,1.700000X1.700000*%
%ADD11O,1.700000X1.700000*%
%ADD12C,0.800000*%
%ADD13C,0.254000*%
G04 APERTURE END LIST*
D10*
X110000000Y-99000000D03*
D11*
X112540000Y-99000000D03*
D10*
X115000000Y-114000000D03*
D11*
X117540000Y-114000000D03*
X120080000Y-114000000D03*
D12*
X109474000Y-113030000D03*
X110490000Y-113030000D03*
X122428000Y-112522000D03*
X122428000Y-111506000D03*
X117348000Y-101600000D03*
X117348000Y-102616000D03*
X116332000Y-101600000D03*
X104902000Y-114046000D03*
X101092000Y-114046000D03*
X117094000Y-106680000D03*
X114554000Y-109982000D03*
D13*
G36*
X122309229Y-96438267D02*
G01*
X122606688Y-96528075D01*
X122881028Y-96673945D01*
X123121813Y-96870325D01*
X123319873Y-97109736D01*
X123467654Y-97383053D01*
X123559535Y-97679872D01*
X123594000Y-98007782D01*
X123594001Y-113980136D01*
X123561733Y-114309230D01*
X123471926Y-114606684D01*
X123326056Y-114881025D01*
X123129675Y-115121813D01*
X122890265Y-115319871D01*
X122616948Y-115467654D01*
X122320128Y-115559535D01*
X121992218Y-115594000D01*
X101019854Y-115594000D01*
X100690770Y-115561733D01*
X100393316Y-115471926D01*
X100118975Y-115326056D01*
X99878187Y-115129675D01*
X99680129Y-114890265D01*
X99658358Y-114850000D01*
X113511928Y-114850000D01*
X113524188Y-114974482D01*
X113560498Y-115094180D01*
X113619463Y-115204494D01*
X113698815Y-115301185D01*
X113795506Y-115380537D01*
X113905820Y-115439502D01*
X114025518Y-115475812D01*
X114150000Y-115488072D01*
X114714250Y-115485000D01*
X114873000Y-115326250D01*
X114873000Y-114127000D01*
X113673750Y-114127000D01*
X113515000Y-114285750D01*
X113511928Y-114850000D01*
X99658358Y-114850000D01*
X99532346Y-114616948D01*
X99440465Y-114320128D01*
X99406000Y-113992218D01*
X99406000Y-113150000D01*
X113511928Y-113150000D01*
X113515000Y-113714250D01*
X113673750Y-113873000D01*
X114873000Y-113873000D01*
X114873000Y-112673750D01*
X115127000Y-112673750D01*
X115127000Y-113873000D01*
X115147000Y-113873000D01*
X115147000Y-114127000D01*
X115127000Y-114127000D01*
X115127000Y-115326250D01*
X115285750Y-115485000D01*
X115850000Y-115488072D01*
X115974482Y-115475812D01*
X116094180Y-115439502D01*
X116204494Y-115380537D01*
X116301185Y-115301185D01*
X116380537Y-115204494D01*
X116439502Y-115094180D01*
X116475812Y-114974482D01*
X116488072Y-114850000D01*
X116486927Y-114639706D01*
X116583820Y-114784717D01*
X116755283Y-114956180D01*
X116956903Y-115090898D01*
X117180931Y-115183693D01*
X117418757Y-115231000D01*
X117661243Y-115231000D01*
X117899069Y-115183693D01*
X118123097Y-115090898D01*
X118324717Y-114956180D01*
X118496180Y-114784717D01*
X118630898Y-114583097D01*
X118723693Y-114359069D01*
X118771000Y-114121243D01*
X118771000Y-113878757D01*
X118849000Y-113878757D01*
X118849000Y-114121243D01*
X118896307Y-114359069D01*
X118989102Y-114583097D01*
X119123820Y-114784717D01*
X119295283Y-114956180D01*
X119496903Y-115090898D01*
X119720931Y-115183693D01*
X119958757Y-115231000D01*
X120201243Y-115231000D01*
X120439069Y-115183693D01*
X120663097Y-115090898D01*
X120864717Y-114956180D01*
X121036180Y-114784717D01*
X121170898Y-114583097D01*
X121263693Y-114359069D01*
X121311000Y-114121243D01*
X121311000Y-113878757D01*
X121263693Y-113640931D01*
X121170898Y-113416903D01*
X121036180Y-113215283D01*
X120864717Y-113043820D01*
X120663097Y-112909102D01*
X120439069Y-112816307D01*
X120201243Y-112769000D01*
X119958757Y-112769000D01*
X119720931Y-112816307D01*
X119496903Y-112909102D01*
X119295283Y-113043820D01*
X119123820Y-113215283D01*
X118989102Y-113416903D01*
X118896307Y-113640931D01*
X118849000Y-113878757D01*
X118771000Y-113878757D01*
X118723693Y-113640931D01*
X118630898Y-113416903D01*
X118496180Y-113215283D01*
X118324717Y-113043820D01*
X118123097Y-112909102D01*
X117899069Y-112816307D01*
X117661243Y-112769000D01*
X117418757Y-112769000D01*
X117180931Y-112816307D01*
X116956903Y-112909102D01*
X116755283Y-113043820D01*
X116583820Y-113215283D01*
X116486927Y-113360294D01*
X116488072Y-113150000D01*
X116475812Y-113025518D01*
X116439502Y-112905820D01*
X116380537Y-112795506D01*
X116301185Y-112698815D01*
X116204494Y-112619463D01*
X116094180Y-112560498D01*
X115974482Y-112524188D01*
X115850000Y-112511928D01*
X115285750Y-112515000D01*
X115127000Y-112673750D01*
X114873000Y-112673750D01*
X114714250Y-112515000D01*
X114150000Y-112511928D01*
X114025518Y-112524188D01*
X113905820Y-112560498D01*
X113795506Y-112619463D01*
X113698815Y-112698815D01*
X113619463Y-112795506D01*
X113560498Y-112905820D01*
X113524188Y-113025518D01*
X113511928Y-113150000D01*
X99406000Y-113150000D01*
X99406000Y-105566176D01*
X107095312Y-105566176D01*
X107095312Y-106433824D01*
X107264582Y-107284800D01*
X107596616Y-108086402D01*
X108078656Y-108807825D01*
X108692175Y-109421344D01*
X109413598Y-109903384D01*
X110215200Y-110235418D01*
X111066176Y-110404688D01*
X111933824Y-110404688D01*
X112784800Y-110235418D01*
X113586402Y-109903384D01*
X114307825Y-109421344D01*
X114921344Y-108807825D01*
X115403384Y-108086402D01*
X115735418Y-107284800D01*
X115904688Y-106433824D01*
X115904688Y-105566176D01*
X115735418Y-104715200D01*
X115403384Y-103913598D01*
X114921344Y-103192175D01*
X114307825Y-102578656D01*
X113586402Y-102096616D01*
X112784800Y-101764582D01*
X111933824Y-101595312D01*
X111066176Y-101595312D01*
X110215200Y-101764582D01*
X109413598Y-102096616D01*
X108692175Y-102578656D01*
X108078656Y-103192175D01*
X107596616Y-103913598D01*
X107264582Y-104715200D01*
X107095312Y-105566176D01*
X99406000Y-105566176D01*
X99406000Y-99850000D01*
X108511928Y-99850000D01*
X108524188Y-99974482D01*
X108560498Y-100094180D01*
X108619463Y-100204494D01*
X108698815Y-100301185D01*
X108795506Y-100380537D01*
X108905820Y-100439502D01*
X109025518Y-100475812D01*
X109150000Y-100488072D01*
X109714250Y-100485000D01*
X109873000Y-100326250D01*
X109873000Y-99127000D01*
X108673750Y-99127000D01*
X108515000Y-99285750D01*
X108511928Y-99850000D01*
X99406000Y-99850000D01*
X99406000Y-98150000D01*
X108511928Y-98150000D01*
X108515000Y-98714250D01*
X108673750Y-98873000D01*
X109873000Y-98873000D01*
X109873000Y-97673750D01*
X110127000Y-97673750D01*
X110127000Y-98873000D01*
X110147000Y-98873000D01*
X110147000Y-99127000D01*
X110127000Y-99127000D01*
X110127000Y-100326250D01*
X110285750Y-100485000D01*
X110850000Y-100488072D01*
X110974482Y-100475812D01*
X111094180Y-100439502D01*
X111204494Y-100380537D01*
X111301185Y-100301185D01*
X111380537Y-100204494D01*
X111439502Y-100094180D01*
X111475812Y-99974482D01*
X111488072Y-99850000D01*
X111486927Y-99639706D01*
X111583820Y-99784717D01*
X111755283Y-99956180D01*
X111956903Y-100090898D01*
X112180931Y-100183693D01*
X112418757Y-100231000D01*
X112661243Y-100231000D01*
X112899069Y-100183693D01*
X113123097Y-100090898D01*
X113324717Y-99956180D01*
X113496180Y-99784717D01*
X113630898Y-99583097D01*
X113723693Y-99359069D01*
X113771000Y-99121243D01*
X113771000Y-98878757D01*
X113723693Y-98640931D01*
X113630898Y-98416903D01*
X113496180Y-98215283D01*
X113324717Y-98043820D01*
X113123097Y-97909102D01*
X112899069Y-97816307D01*
X112661243Y-97769000D01*
X112418757Y-97769000D01*
X112180931Y-97816307D01*
X111956903Y-97909102D01*
X111755283Y-98043820D01*
X111583820Y-98215283D01*
X111486927Y-98360294D01*
X111488072Y-98150000D01*
X111475812Y-98025518D01*
X111439502Y-97905820D01*
X111380537Y-97795506D01*
X111301185Y-97698815D01*
X111204494Y-97619463D01*
X111094180Y-97560498D01*
X110974482Y-97524188D01*
X110850000Y-97511928D01*
X110285750Y-97515000D01*
X110127000Y-97673750D01*
X109873000Y-97673750D01*
X109714250Y-97515000D01*
X109150000Y-97511928D01*
X109025518Y-97524188D01*
X108905820Y-97560498D01*
X108795506Y-97619463D01*
X108698815Y-97698815D01*
X108619463Y-97795506D01*
X108560498Y-97905820D01*
X108524188Y-98025518D01*
X108511928Y-98150000D01*
X99406000Y-98150000D01*
X99406000Y-98019854D01*
X99438267Y-97690771D01*
X99528075Y-97393312D01*
X99673945Y-97118972D01*
X99870325Y-96878187D01*
X100109736Y-96680127D01*
X100383053Y-96532346D01*
X100679872Y-96440465D01*
X101007782Y-96406000D01*
X121980146Y-96406000D01*
X122309229Y-96438267D01*
G37*
X122309229Y-96438267D02*
X122606688Y-96528075D01*
X122881028Y-96673945D01*
X123121813Y-96870325D01*
X123319873Y-97109736D01*
X123467654Y-97383053D01*
X123559535Y-97679872D01*
X123594000Y-98007782D01*
X123594001Y-113980136D01*
X123561733Y-114309230D01*
X123471926Y-114606684D01*
X123326056Y-114881025D01*
X123129675Y-115121813D01*
X122890265Y-115319871D01*
X122616948Y-115467654D01*
X122320128Y-115559535D01*
X121992218Y-115594000D01*
X101019854Y-115594000D01*
X100690770Y-115561733D01*
X100393316Y-115471926D01*
X100118975Y-115326056D01*
X99878187Y-115129675D01*
X99680129Y-114890265D01*
X99658358Y-114850000D01*
X113511928Y-114850000D01*
X113524188Y-114974482D01*
X113560498Y-115094180D01*
X113619463Y-115204494D01*
X113698815Y-115301185D01*
X113795506Y-115380537D01*
X113905820Y-115439502D01*
X114025518Y-115475812D01*
X114150000Y-115488072D01*
X114714250Y-115485000D01*
X114873000Y-115326250D01*
X114873000Y-114127000D01*
X113673750Y-114127000D01*
X113515000Y-114285750D01*
X113511928Y-114850000D01*
X99658358Y-114850000D01*
X99532346Y-114616948D01*
X99440465Y-114320128D01*
X99406000Y-113992218D01*
X99406000Y-113150000D01*
X113511928Y-113150000D01*
X113515000Y-113714250D01*
X113673750Y-113873000D01*
X114873000Y-113873000D01*
X114873000Y-112673750D01*
X115127000Y-112673750D01*
X115127000Y-113873000D01*
X115147000Y-113873000D01*
X115147000Y-114127000D01*
X115127000Y-114127000D01*
X115127000Y-115326250D01*
X115285750Y-115485000D01*
X115850000Y-115488072D01*
X115974482Y-115475812D01*
X116094180Y-115439502D01*
X116204494Y-115380537D01*
X116301185Y-115301185D01*
X116380537Y-115204494D01*
X116439502Y-115094180D01*
X116475812Y-114974482D01*
X116488072Y-114850000D01*
X116486927Y-114639706D01*
X116583820Y-114784717D01*
X116755283Y-114956180D01*
X116956903Y-115090898D01*
X117180931Y-115183693D01*
X117418757Y-115231000D01*
X117661243Y-115231000D01*
X117899069Y-115183693D01*
X118123097Y-115090898D01*
X118324717Y-114956180D01*
X118496180Y-114784717D01*
X118630898Y-114583097D01*
X118723693Y-114359069D01*
X118771000Y-114121243D01*
X118771000Y-113878757D01*
X118849000Y-113878757D01*
X118849000Y-114121243D01*
X118896307Y-114359069D01*
X118989102Y-114583097D01*
X119123820Y-114784717D01*
X119295283Y-114956180D01*
X119496903Y-115090898D01*
X119720931Y-115183693D01*
X119958757Y-115231000D01*
X120201243Y-115231000D01*
X120439069Y-115183693D01*
X120663097Y-115090898D01*
X120864717Y-114956180D01*
X121036180Y-114784717D01*
X121170898Y-114583097D01*
X121263693Y-114359069D01*
X121311000Y-114121243D01*
X121311000Y-113878757D01*
X121263693Y-113640931D01*
X121170898Y-113416903D01*
X121036180Y-113215283D01*
X120864717Y-113043820D01*
X120663097Y-112909102D01*
X120439069Y-112816307D01*
X120201243Y-112769000D01*
X119958757Y-112769000D01*
X119720931Y-112816307D01*
X119496903Y-112909102D01*
X119295283Y-113043820D01*
X119123820Y-113215283D01*
X118989102Y-113416903D01*
X118896307Y-113640931D01*
X118849000Y-113878757D01*
X118771000Y-113878757D01*
X118723693Y-113640931D01*
X118630898Y-113416903D01*
X118496180Y-113215283D01*
X118324717Y-113043820D01*
X118123097Y-112909102D01*
X117899069Y-112816307D01*
X117661243Y-112769000D01*
X117418757Y-112769000D01*
X117180931Y-112816307D01*
X116956903Y-112909102D01*
X116755283Y-113043820D01*
X116583820Y-113215283D01*
X116486927Y-113360294D01*
X116488072Y-113150000D01*
X116475812Y-113025518D01*
X116439502Y-112905820D01*
X116380537Y-112795506D01*
X116301185Y-112698815D01*
X116204494Y-112619463D01*
X116094180Y-112560498D01*
X115974482Y-112524188D01*
X115850000Y-112511928D01*
X115285750Y-112515000D01*
X115127000Y-112673750D01*
X114873000Y-112673750D01*
X114714250Y-112515000D01*
X114150000Y-112511928D01*
X114025518Y-112524188D01*
X113905820Y-112560498D01*
X113795506Y-112619463D01*
X113698815Y-112698815D01*
X113619463Y-112795506D01*
X113560498Y-112905820D01*
X113524188Y-113025518D01*
X113511928Y-113150000D01*
X99406000Y-113150000D01*
X99406000Y-105566176D01*
X107095312Y-105566176D01*
X107095312Y-106433824D01*
X107264582Y-107284800D01*
X107596616Y-108086402D01*
X108078656Y-108807825D01*
X108692175Y-109421344D01*
X109413598Y-109903384D01*
X110215200Y-110235418D01*
X111066176Y-110404688D01*
X111933824Y-110404688D01*
X112784800Y-110235418D01*
X113586402Y-109903384D01*
X114307825Y-109421344D01*
X114921344Y-108807825D01*
X115403384Y-108086402D01*
X115735418Y-107284800D01*
X115904688Y-106433824D01*
X115904688Y-105566176D01*
X115735418Y-104715200D01*
X115403384Y-103913598D01*
X114921344Y-103192175D01*
X114307825Y-102578656D01*
X113586402Y-102096616D01*
X112784800Y-101764582D01*
X111933824Y-101595312D01*
X111066176Y-101595312D01*
X110215200Y-101764582D01*
X109413598Y-102096616D01*
X108692175Y-102578656D01*
X108078656Y-103192175D01*
X107596616Y-103913598D01*
X107264582Y-104715200D01*
X107095312Y-105566176D01*
X99406000Y-105566176D01*
X99406000Y-99850000D01*
X108511928Y-99850000D01*
X108524188Y-99974482D01*
X108560498Y-100094180D01*
X108619463Y-100204494D01*
X108698815Y-100301185D01*
X108795506Y-100380537D01*
X108905820Y-100439502D01*
X109025518Y-100475812D01*
X109150000Y-100488072D01*
X109714250Y-100485000D01*
X109873000Y-100326250D01*
X109873000Y-99127000D01*
X108673750Y-99127000D01*
X108515000Y-99285750D01*
X108511928Y-99850000D01*
X99406000Y-99850000D01*
X99406000Y-98150000D01*
X108511928Y-98150000D01*
X108515000Y-98714250D01*
X108673750Y-98873000D01*
X109873000Y-98873000D01*
X109873000Y-97673750D01*
X110127000Y-97673750D01*
X110127000Y-98873000D01*
X110147000Y-98873000D01*
X110147000Y-99127000D01*
X110127000Y-99127000D01*
X110127000Y-100326250D01*
X110285750Y-100485000D01*
X110850000Y-100488072D01*
X110974482Y-100475812D01*
X111094180Y-100439502D01*
X111204494Y-100380537D01*
X111301185Y-100301185D01*
X111380537Y-100204494D01*
X111439502Y-100094180D01*
X111475812Y-99974482D01*
X111488072Y-99850000D01*
X111486927Y-99639706D01*
X111583820Y-99784717D01*
X111755283Y-99956180D01*
X111956903Y-100090898D01*
X112180931Y-100183693D01*
X112418757Y-100231000D01*
X112661243Y-100231000D01*
X112899069Y-100183693D01*
X113123097Y-100090898D01*
X113324717Y-99956180D01*
X113496180Y-99784717D01*
X113630898Y-99583097D01*
X113723693Y-99359069D01*
X113771000Y-99121243D01*
X113771000Y-98878757D01*
X113723693Y-98640931D01*
X113630898Y-98416903D01*
X113496180Y-98215283D01*
X113324717Y-98043820D01*
X113123097Y-97909102D01*
X112899069Y-97816307D01*
X112661243Y-97769000D01*
X112418757Y-97769000D01*
X112180931Y-97816307D01*
X111956903Y-97909102D01*
X111755283Y-98043820D01*
X111583820Y-98215283D01*
X111486927Y-98360294D01*
X111488072Y-98150000D01*
X111475812Y-98025518D01*
X111439502Y-97905820D01*
X111380537Y-97795506D01*
X111301185Y-97698815D01*
X111204494Y-97619463D01*
X111094180Y-97560498D01*
X110974482Y-97524188D01*
X110850000Y-97511928D01*
X110285750Y-97515000D01*
X110127000Y-97673750D01*
X109873000Y-97673750D01*
X109714250Y-97515000D01*
X109150000Y-97511928D01*
X109025518Y-97524188D01*
X108905820Y-97560498D01*
X108795506Y-97619463D01*
X108698815Y-97698815D01*
X108619463Y-97795506D01*
X108560498Y-97905820D01*
X108524188Y-98025518D01*
X108511928Y-98150000D01*
X99406000Y-98150000D01*
X99406000Y-98019854D01*
X99438267Y-97690771D01*
X99528075Y-97393312D01*
X99673945Y-97118972D01*
X99870325Y-96878187D01*
X100109736Y-96680127D01*
X100383053Y-96532346D01*
X100679872Y-96440465D01*
X101007782Y-96406000D01*
X121980146Y-96406000D01*
X122309229Y-96438267D01*
M02*
