G04 #@! TF.GenerationSoftware,KiCad,Pcbnew,5.1.5*
G04 #@! TF.CreationDate,2019-12-21T09:41:56+01:00*
G04 #@! TF.ProjectId,leg_sensor_board,6c65675f-7365-46e7-936f-725f626f6172,rev?*
G04 #@! TF.SameCoordinates,Original*
G04 #@! TF.FileFunction,Soldermask,Top*
G04 #@! TF.FilePolarity,Negative*
%FSLAX46Y46*%
G04 Gerber Fmt 4.6, Leading zero omitted, Abs format (unit mm)*
G04 Created by KiCad (PCBNEW 5.1.5) date 2019-12-21 09:41:56*
%MOMM*%
%LPD*%
G04 APERTURE LIST*
%ADD10C,0.100000*%
G04 APERTURE END LIST*
D10*
G36*
X108751000Y-115151000D02*
G01*
X107149000Y-115151000D01*
X107149000Y-114049000D01*
X108751000Y-114049000D01*
X108751000Y-115151000D01*
G37*
G36*
X103851000Y-115151000D02*
G01*
X102249000Y-115151000D01*
X102249000Y-114049000D01*
X103851000Y-114049000D01*
X103851000Y-115151000D01*
G37*
G36*
X115901000Y-114901000D02*
G01*
X114099000Y-114901000D01*
X114099000Y-113099000D01*
X115901000Y-113099000D01*
X115901000Y-114901000D01*
G37*
G36*
X120193512Y-113103927D02*
G01*
X120342812Y-113133624D01*
X120506784Y-113201544D01*
X120654354Y-113300147D01*
X120779853Y-113425646D01*
X120878456Y-113573216D01*
X120946376Y-113737188D01*
X120981000Y-113911259D01*
X120981000Y-114088741D01*
X120946376Y-114262812D01*
X120878456Y-114426784D01*
X120779853Y-114574354D01*
X120654354Y-114699853D01*
X120506784Y-114798456D01*
X120342812Y-114866376D01*
X120193512Y-114896073D01*
X120168742Y-114901000D01*
X119991258Y-114901000D01*
X119966488Y-114896073D01*
X119817188Y-114866376D01*
X119653216Y-114798456D01*
X119505646Y-114699853D01*
X119380147Y-114574354D01*
X119281544Y-114426784D01*
X119213624Y-114262812D01*
X119179000Y-114088741D01*
X119179000Y-113911259D01*
X119213624Y-113737188D01*
X119281544Y-113573216D01*
X119380147Y-113425646D01*
X119505646Y-113300147D01*
X119653216Y-113201544D01*
X119817188Y-113133624D01*
X119966488Y-113103927D01*
X119991258Y-113099000D01*
X120168742Y-113099000D01*
X120193512Y-113103927D01*
G37*
G36*
X117653512Y-113103927D02*
G01*
X117802812Y-113133624D01*
X117966784Y-113201544D01*
X118114354Y-113300147D01*
X118239853Y-113425646D01*
X118338456Y-113573216D01*
X118406376Y-113737188D01*
X118441000Y-113911259D01*
X118441000Y-114088741D01*
X118406376Y-114262812D01*
X118338456Y-114426784D01*
X118239853Y-114574354D01*
X118114354Y-114699853D01*
X117966784Y-114798456D01*
X117802812Y-114866376D01*
X117653512Y-114896073D01*
X117628742Y-114901000D01*
X117451258Y-114901000D01*
X117426488Y-114896073D01*
X117277188Y-114866376D01*
X117113216Y-114798456D01*
X116965646Y-114699853D01*
X116840147Y-114574354D01*
X116741544Y-114426784D01*
X116673624Y-114262812D01*
X116639000Y-114088741D01*
X116639000Y-113911259D01*
X116673624Y-113737188D01*
X116741544Y-113573216D01*
X116840147Y-113425646D01*
X116965646Y-113300147D01*
X117113216Y-113201544D01*
X117277188Y-113133624D01*
X117426488Y-113103927D01*
X117451258Y-113099000D01*
X117628742Y-113099000D01*
X117653512Y-113103927D01*
G37*
G36*
X108751000Y-111951000D02*
G01*
X107149000Y-111951000D01*
X107149000Y-110849000D01*
X108751000Y-110849000D01*
X108751000Y-111951000D01*
G37*
G36*
X103851000Y-111951000D02*
G01*
X102249000Y-111951000D01*
X102249000Y-110849000D01*
X103851000Y-110849000D01*
X103851000Y-111951000D01*
G37*
G36*
X120901000Y-110826000D02*
G01*
X119099000Y-110826000D01*
X119099000Y-110074000D01*
X120901000Y-110074000D01*
X120901000Y-110826000D01*
G37*
G36*
X102129591Y-108478085D02*
G01*
X102163569Y-108488393D01*
X102194890Y-108505134D01*
X102222339Y-108527661D01*
X102244866Y-108555110D01*
X102261607Y-108586431D01*
X102271915Y-108620409D01*
X102276000Y-108661890D01*
X102276000Y-109338110D01*
X102271915Y-109379591D01*
X102261607Y-109413569D01*
X102244866Y-109444890D01*
X102222339Y-109472339D01*
X102194890Y-109494866D01*
X102163569Y-109511607D01*
X102129591Y-109521915D01*
X102088110Y-109526000D01*
X101486890Y-109526000D01*
X101445409Y-109521915D01*
X101411431Y-109511607D01*
X101380110Y-109494866D01*
X101352661Y-109472339D01*
X101330134Y-109444890D01*
X101313393Y-109413569D01*
X101303085Y-109379591D01*
X101299000Y-109338110D01*
X101299000Y-108661890D01*
X101303085Y-108620409D01*
X101313393Y-108586431D01*
X101330134Y-108555110D01*
X101352661Y-108527661D01*
X101380110Y-108505134D01*
X101411431Y-108488393D01*
X101445409Y-108478085D01*
X101486890Y-108474000D01*
X102088110Y-108474000D01*
X102129591Y-108478085D01*
G37*
G36*
X100554591Y-108478085D02*
G01*
X100588569Y-108488393D01*
X100619890Y-108505134D01*
X100647339Y-108527661D01*
X100669866Y-108555110D01*
X100686607Y-108586431D01*
X100696915Y-108620409D01*
X100701000Y-108661890D01*
X100701000Y-109338110D01*
X100696915Y-109379591D01*
X100686607Y-109413569D01*
X100669866Y-109444890D01*
X100647339Y-109472339D01*
X100619890Y-109494866D01*
X100588569Y-109511607D01*
X100554591Y-109521915D01*
X100513110Y-109526000D01*
X99911890Y-109526000D01*
X99870409Y-109521915D01*
X99836431Y-109511607D01*
X99805110Y-109494866D01*
X99777661Y-109472339D01*
X99755134Y-109444890D01*
X99738393Y-109413569D01*
X99728085Y-109379591D01*
X99724000Y-109338110D01*
X99724000Y-108661890D01*
X99728085Y-108620409D01*
X99738393Y-108586431D01*
X99755134Y-108555110D01*
X99777661Y-108527661D01*
X99805110Y-108505134D01*
X99836431Y-108488393D01*
X99870409Y-108478085D01*
X99911890Y-108474000D01*
X100513110Y-108474000D01*
X100554591Y-108478085D01*
G37*
G36*
X120901000Y-108926000D02*
G01*
X119099000Y-108926000D01*
X119099000Y-108174000D01*
X120901000Y-108174000D01*
X120901000Y-108926000D01*
G37*
G36*
X102129591Y-106478085D02*
G01*
X102163569Y-106488393D01*
X102194890Y-106505134D01*
X102222339Y-106527661D01*
X102244866Y-106555110D01*
X102261607Y-106586431D01*
X102271915Y-106620409D01*
X102276000Y-106661890D01*
X102276000Y-107338110D01*
X102271915Y-107379591D01*
X102261607Y-107413569D01*
X102244866Y-107444890D01*
X102222339Y-107472339D01*
X102194890Y-107494866D01*
X102163569Y-107511607D01*
X102129591Y-107521915D01*
X102088110Y-107526000D01*
X101486890Y-107526000D01*
X101445409Y-107521915D01*
X101411431Y-107511607D01*
X101380110Y-107494866D01*
X101352661Y-107472339D01*
X101330134Y-107444890D01*
X101313393Y-107413569D01*
X101303085Y-107379591D01*
X101299000Y-107338110D01*
X101299000Y-106661890D01*
X101303085Y-106620409D01*
X101313393Y-106586431D01*
X101330134Y-106555110D01*
X101352661Y-106527661D01*
X101380110Y-106505134D01*
X101411431Y-106488393D01*
X101445409Y-106478085D01*
X101486890Y-106474000D01*
X102088110Y-106474000D01*
X102129591Y-106478085D01*
G37*
G36*
X100554591Y-106478085D02*
G01*
X100588569Y-106488393D01*
X100619890Y-106505134D01*
X100647339Y-106527661D01*
X100669866Y-106555110D01*
X100686607Y-106586431D01*
X100696915Y-106620409D01*
X100701000Y-106661890D01*
X100701000Y-107338110D01*
X100696915Y-107379591D01*
X100686607Y-107413569D01*
X100669866Y-107444890D01*
X100647339Y-107472339D01*
X100619890Y-107494866D01*
X100588569Y-107511607D01*
X100554591Y-107521915D01*
X100513110Y-107526000D01*
X99911890Y-107526000D01*
X99870409Y-107521915D01*
X99836431Y-107511607D01*
X99805110Y-107494866D01*
X99777661Y-107472339D01*
X99755134Y-107444890D01*
X99738393Y-107413569D01*
X99728085Y-107379591D01*
X99724000Y-107338110D01*
X99724000Y-106661890D01*
X99728085Y-106620409D01*
X99738393Y-106586431D01*
X99755134Y-106555110D01*
X99777661Y-106527661D01*
X99805110Y-106505134D01*
X99836431Y-106488393D01*
X99870409Y-106478085D01*
X99911890Y-106474000D01*
X100513110Y-106474000D01*
X100554591Y-106478085D01*
G37*
G36*
X121129591Y-104978085D02*
G01*
X121163569Y-104988393D01*
X121194890Y-105005134D01*
X121222339Y-105027661D01*
X121244866Y-105055110D01*
X121261607Y-105086431D01*
X121271915Y-105120409D01*
X121276000Y-105161890D01*
X121276000Y-105838110D01*
X121271915Y-105879591D01*
X121261607Y-105913569D01*
X121244866Y-105944890D01*
X121222339Y-105972339D01*
X121194890Y-105994866D01*
X121163569Y-106011607D01*
X121129591Y-106021915D01*
X121088110Y-106026000D01*
X120486890Y-106026000D01*
X120445409Y-106021915D01*
X120411431Y-106011607D01*
X120380110Y-105994866D01*
X120352661Y-105972339D01*
X120330134Y-105944890D01*
X120313393Y-105913569D01*
X120303085Y-105879591D01*
X120299000Y-105838110D01*
X120299000Y-105161890D01*
X120303085Y-105120409D01*
X120313393Y-105086431D01*
X120330134Y-105055110D01*
X120352661Y-105027661D01*
X120380110Y-105005134D01*
X120411431Y-104988393D01*
X120445409Y-104978085D01*
X120486890Y-104974000D01*
X121088110Y-104974000D01*
X121129591Y-104978085D01*
G37*
G36*
X119554591Y-104978085D02*
G01*
X119588569Y-104988393D01*
X119619890Y-105005134D01*
X119647339Y-105027661D01*
X119669866Y-105055110D01*
X119686607Y-105086431D01*
X119696915Y-105120409D01*
X119701000Y-105161890D01*
X119701000Y-105838110D01*
X119696915Y-105879591D01*
X119686607Y-105913569D01*
X119669866Y-105944890D01*
X119647339Y-105972339D01*
X119619890Y-105994866D01*
X119588569Y-106011607D01*
X119554591Y-106021915D01*
X119513110Y-106026000D01*
X118911890Y-106026000D01*
X118870409Y-106021915D01*
X118836431Y-106011607D01*
X118805110Y-105994866D01*
X118777661Y-105972339D01*
X118755134Y-105944890D01*
X118738393Y-105913569D01*
X118728085Y-105879591D01*
X118724000Y-105838110D01*
X118724000Y-105161890D01*
X118728085Y-105120409D01*
X118738393Y-105086431D01*
X118755134Y-105055110D01*
X118777661Y-105027661D01*
X118805110Y-105005134D01*
X118836431Y-104988393D01*
X118870409Y-104978085D01*
X118911890Y-104974000D01*
X119513110Y-104974000D01*
X119554591Y-104978085D01*
G37*
G36*
X101624928Y-103451764D02*
G01*
X101646009Y-103458160D01*
X101665445Y-103468548D01*
X101682476Y-103482524D01*
X101696452Y-103499555D01*
X101706840Y-103518991D01*
X101713236Y-103540072D01*
X101716000Y-103568140D01*
X101716000Y-105381860D01*
X101713236Y-105409928D01*
X101706840Y-105431009D01*
X101696452Y-105450445D01*
X101682476Y-105467476D01*
X101665445Y-105481452D01*
X101646009Y-105491840D01*
X101624928Y-105498236D01*
X101596860Y-105501000D01*
X101133140Y-105501000D01*
X101105072Y-105498236D01*
X101083991Y-105491840D01*
X101064555Y-105481452D01*
X101047524Y-105467476D01*
X101033548Y-105450445D01*
X101023160Y-105431009D01*
X101016764Y-105409928D01*
X101014000Y-105381860D01*
X101014000Y-103568140D01*
X101016764Y-103540072D01*
X101023160Y-103518991D01*
X101033548Y-103499555D01*
X101047524Y-103482524D01*
X101064555Y-103468548D01*
X101083991Y-103458160D01*
X101105072Y-103451764D01*
X101133140Y-103449000D01*
X101596860Y-103449000D01*
X101624928Y-103451764D01*
G37*
G36*
X104164928Y-103451764D02*
G01*
X104186009Y-103458160D01*
X104205445Y-103468548D01*
X104222476Y-103482524D01*
X104236452Y-103499555D01*
X104246840Y-103518991D01*
X104253236Y-103540072D01*
X104256000Y-103568140D01*
X104256000Y-105381860D01*
X104253236Y-105409928D01*
X104246840Y-105431009D01*
X104236452Y-105450445D01*
X104222476Y-105467476D01*
X104205445Y-105481452D01*
X104186009Y-105491840D01*
X104164928Y-105498236D01*
X104136860Y-105501000D01*
X103673140Y-105501000D01*
X103645072Y-105498236D01*
X103623991Y-105491840D01*
X103604555Y-105481452D01*
X103587524Y-105467476D01*
X103573548Y-105450445D01*
X103563160Y-105431009D01*
X103556764Y-105409928D01*
X103554000Y-105381860D01*
X103554000Y-103568140D01*
X103556764Y-103540072D01*
X103563160Y-103518991D01*
X103573548Y-103499555D01*
X103587524Y-103482524D01*
X103604555Y-103468548D01*
X103623991Y-103458160D01*
X103645072Y-103451764D01*
X103673140Y-103449000D01*
X104136860Y-103449000D01*
X104164928Y-103451764D01*
G37*
G36*
X102894928Y-103451764D02*
G01*
X102916009Y-103458160D01*
X102935445Y-103468548D01*
X102952476Y-103482524D01*
X102966452Y-103499555D01*
X102976840Y-103518991D01*
X102983236Y-103540072D01*
X102986000Y-103568140D01*
X102986000Y-105381860D01*
X102983236Y-105409928D01*
X102976840Y-105431009D01*
X102966452Y-105450445D01*
X102952476Y-105467476D01*
X102935445Y-105481452D01*
X102916009Y-105491840D01*
X102894928Y-105498236D01*
X102866860Y-105501000D01*
X102403140Y-105501000D01*
X102375072Y-105498236D01*
X102353991Y-105491840D01*
X102334555Y-105481452D01*
X102317524Y-105467476D01*
X102303548Y-105450445D01*
X102293160Y-105431009D01*
X102286764Y-105409928D01*
X102284000Y-105381860D01*
X102284000Y-103568140D01*
X102286764Y-103540072D01*
X102293160Y-103518991D01*
X102303548Y-103499555D01*
X102317524Y-103482524D01*
X102334555Y-103468548D01*
X102353991Y-103458160D01*
X102375072Y-103451764D01*
X102403140Y-103449000D01*
X102866860Y-103449000D01*
X102894928Y-103451764D01*
G37*
G36*
X100354928Y-103451764D02*
G01*
X100376009Y-103458160D01*
X100395445Y-103468548D01*
X100412476Y-103482524D01*
X100426452Y-103499555D01*
X100436840Y-103518991D01*
X100443236Y-103540072D01*
X100446000Y-103568140D01*
X100446000Y-105381860D01*
X100443236Y-105409928D01*
X100436840Y-105431009D01*
X100426452Y-105450445D01*
X100412476Y-105467476D01*
X100395445Y-105481452D01*
X100376009Y-105491840D01*
X100354928Y-105498236D01*
X100326860Y-105501000D01*
X99863140Y-105501000D01*
X99835072Y-105498236D01*
X99813991Y-105491840D01*
X99794555Y-105481452D01*
X99777524Y-105467476D01*
X99763548Y-105450445D01*
X99753160Y-105431009D01*
X99746764Y-105409928D01*
X99744000Y-105381860D01*
X99744000Y-103568140D01*
X99746764Y-103540072D01*
X99753160Y-103518991D01*
X99763548Y-103499555D01*
X99777524Y-103482524D01*
X99794555Y-103468548D01*
X99813991Y-103458160D01*
X99835072Y-103451764D01*
X99863140Y-103449000D01*
X100326860Y-103449000D01*
X100354928Y-103451764D01*
G37*
G36*
X121129591Y-102978085D02*
G01*
X121163569Y-102988393D01*
X121194890Y-103005134D01*
X121222339Y-103027661D01*
X121244866Y-103055110D01*
X121261607Y-103086431D01*
X121271915Y-103120409D01*
X121276000Y-103161890D01*
X121276000Y-103838110D01*
X121271915Y-103879591D01*
X121261607Y-103913569D01*
X121244866Y-103944890D01*
X121222339Y-103972339D01*
X121194890Y-103994866D01*
X121163569Y-104011607D01*
X121129591Y-104021915D01*
X121088110Y-104026000D01*
X120486890Y-104026000D01*
X120445409Y-104021915D01*
X120411431Y-104011607D01*
X120380110Y-103994866D01*
X120352661Y-103972339D01*
X120330134Y-103944890D01*
X120313393Y-103913569D01*
X120303085Y-103879591D01*
X120299000Y-103838110D01*
X120299000Y-103161890D01*
X120303085Y-103120409D01*
X120313393Y-103086431D01*
X120330134Y-103055110D01*
X120352661Y-103027661D01*
X120380110Y-103005134D01*
X120411431Y-102988393D01*
X120445409Y-102978085D01*
X120486890Y-102974000D01*
X121088110Y-102974000D01*
X121129591Y-102978085D01*
G37*
G36*
X119554591Y-102978085D02*
G01*
X119588569Y-102988393D01*
X119619890Y-103005134D01*
X119647339Y-103027661D01*
X119669866Y-103055110D01*
X119686607Y-103086431D01*
X119696915Y-103120409D01*
X119701000Y-103161890D01*
X119701000Y-103838110D01*
X119696915Y-103879591D01*
X119686607Y-103913569D01*
X119669866Y-103944890D01*
X119647339Y-103972339D01*
X119619890Y-103994866D01*
X119588569Y-104011607D01*
X119554591Y-104021915D01*
X119513110Y-104026000D01*
X118911890Y-104026000D01*
X118870409Y-104021915D01*
X118836431Y-104011607D01*
X118805110Y-103994866D01*
X118777661Y-103972339D01*
X118755134Y-103944890D01*
X118738393Y-103913569D01*
X118728085Y-103879591D01*
X118724000Y-103838110D01*
X118724000Y-103161890D01*
X118728085Y-103120409D01*
X118738393Y-103086431D01*
X118755134Y-103055110D01*
X118777661Y-103027661D01*
X118805110Y-103005134D01*
X118836431Y-102988393D01*
X118870409Y-102978085D01*
X118911890Y-102974000D01*
X119513110Y-102974000D01*
X119554591Y-102978085D01*
G37*
G36*
X104164928Y-98501764D02*
G01*
X104186009Y-98508160D01*
X104205445Y-98518548D01*
X104222476Y-98532524D01*
X104236452Y-98549555D01*
X104246840Y-98568991D01*
X104253236Y-98590072D01*
X104256000Y-98618140D01*
X104256000Y-100431860D01*
X104253236Y-100459928D01*
X104246840Y-100481009D01*
X104236452Y-100500445D01*
X104222476Y-100517476D01*
X104205445Y-100531452D01*
X104186009Y-100541840D01*
X104164928Y-100548236D01*
X104136860Y-100551000D01*
X103673140Y-100551000D01*
X103645072Y-100548236D01*
X103623991Y-100541840D01*
X103604555Y-100531452D01*
X103587524Y-100517476D01*
X103573548Y-100500445D01*
X103563160Y-100481009D01*
X103556764Y-100459928D01*
X103554000Y-100431860D01*
X103554000Y-98618140D01*
X103556764Y-98590072D01*
X103563160Y-98568991D01*
X103573548Y-98549555D01*
X103587524Y-98532524D01*
X103604555Y-98518548D01*
X103623991Y-98508160D01*
X103645072Y-98501764D01*
X103673140Y-98499000D01*
X104136860Y-98499000D01*
X104164928Y-98501764D01*
G37*
G36*
X102894928Y-98501764D02*
G01*
X102916009Y-98508160D01*
X102935445Y-98518548D01*
X102952476Y-98532524D01*
X102966452Y-98549555D01*
X102976840Y-98568991D01*
X102983236Y-98590072D01*
X102986000Y-98618140D01*
X102986000Y-100431860D01*
X102983236Y-100459928D01*
X102976840Y-100481009D01*
X102966452Y-100500445D01*
X102952476Y-100517476D01*
X102935445Y-100531452D01*
X102916009Y-100541840D01*
X102894928Y-100548236D01*
X102866860Y-100551000D01*
X102403140Y-100551000D01*
X102375072Y-100548236D01*
X102353991Y-100541840D01*
X102334555Y-100531452D01*
X102317524Y-100517476D01*
X102303548Y-100500445D01*
X102293160Y-100481009D01*
X102286764Y-100459928D01*
X102284000Y-100431860D01*
X102284000Y-98618140D01*
X102286764Y-98590072D01*
X102293160Y-98568991D01*
X102303548Y-98549555D01*
X102317524Y-98532524D01*
X102334555Y-98518548D01*
X102353991Y-98508160D01*
X102375072Y-98501764D01*
X102403140Y-98499000D01*
X102866860Y-98499000D01*
X102894928Y-98501764D01*
G37*
G36*
X101624928Y-98501764D02*
G01*
X101646009Y-98508160D01*
X101665445Y-98518548D01*
X101682476Y-98532524D01*
X101696452Y-98549555D01*
X101706840Y-98568991D01*
X101713236Y-98590072D01*
X101716000Y-98618140D01*
X101716000Y-100431860D01*
X101713236Y-100459928D01*
X101706840Y-100481009D01*
X101696452Y-100500445D01*
X101682476Y-100517476D01*
X101665445Y-100531452D01*
X101646009Y-100541840D01*
X101624928Y-100548236D01*
X101596860Y-100551000D01*
X101133140Y-100551000D01*
X101105072Y-100548236D01*
X101083991Y-100541840D01*
X101064555Y-100531452D01*
X101047524Y-100517476D01*
X101033548Y-100500445D01*
X101023160Y-100481009D01*
X101016764Y-100459928D01*
X101014000Y-100431860D01*
X101014000Y-98618140D01*
X101016764Y-98590072D01*
X101023160Y-98568991D01*
X101033548Y-98549555D01*
X101047524Y-98532524D01*
X101064555Y-98518548D01*
X101083991Y-98508160D01*
X101105072Y-98501764D01*
X101133140Y-98499000D01*
X101596860Y-98499000D01*
X101624928Y-98501764D01*
G37*
G36*
X100354928Y-98501764D02*
G01*
X100376009Y-98508160D01*
X100395445Y-98518548D01*
X100412476Y-98532524D01*
X100426452Y-98549555D01*
X100436840Y-98568991D01*
X100443236Y-98590072D01*
X100446000Y-98618140D01*
X100446000Y-100431860D01*
X100443236Y-100459928D01*
X100436840Y-100481009D01*
X100426452Y-100500445D01*
X100412476Y-100517476D01*
X100395445Y-100531452D01*
X100376009Y-100541840D01*
X100354928Y-100548236D01*
X100326860Y-100551000D01*
X99863140Y-100551000D01*
X99835072Y-100548236D01*
X99813991Y-100541840D01*
X99794555Y-100531452D01*
X99777524Y-100517476D01*
X99763548Y-100500445D01*
X99753160Y-100481009D01*
X99746764Y-100459928D01*
X99744000Y-100431860D01*
X99744000Y-98618140D01*
X99746764Y-98590072D01*
X99753160Y-98568991D01*
X99763548Y-98549555D01*
X99777524Y-98532524D01*
X99794555Y-98518548D01*
X99813991Y-98508160D01*
X99835072Y-98501764D01*
X99863140Y-98499000D01*
X100326860Y-98499000D01*
X100354928Y-98501764D01*
G37*
G36*
X110901000Y-99901000D02*
G01*
X109099000Y-99901000D01*
X109099000Y-98099000D01*
X110901000Y-98099000D01*
X110901000Y-99901000D01*
G37*
G36*
X112653512Y-98103927D02*
G01*
X112802812Y-98133624D01*
X112966784Y-98201544D01*
X113114354Y-98300147D01*
X113239853Y-98425646D01*
X113338456Y-98573216D01*
X113406376Y-98737188D01*
X113441000Y-98911259D01*
X113441000Y-99088741D01*
X113406376Y-99262812D01*
X113338456Y-99426784D01*
X113239853Y-99574354D01*
X113114354Y-99699853D01*
X112966784Y-99798456D01*
X112802812Y-99866376D01*
X112653512Y-99896073D01*
X112628742Y-99901000D01*
X112451258Y-99901000D01*
X112426488Y-99896073D01*
X112277188Y-99866376D01*
X112113216Y-99798456D01*
X111965646Y-99699853D01*
X111840147Y-99574354D01*
X111741544Y-99426784D01*
X111673624Y-99262812D01*
X111639000Y-99088741D01*
X111639000Y-98911259D01*
X111673624Y-98737188D01*
X111741544Y-98573216D01*
X111840147Y-98425646D01*
X111965646Y-98300147D01*
X112113216Y-98201544D01*
X112277188Y-98133624D01*
X112426488Y-98103927D01*
X112451258Y-98099000D01*
X112628742Y-98099000D01*
X112653512Y-98103927D01*
G37*
M02*
