G04 #@! TF.GenerationSoftware,KiCad,Pcbnew,5.1.5*
G04 #@! TF.CreationDate,2019-12-21T09:41:56+01:00*
G04 #@! TF.ProjectId,leg_sensor_board,6c65675f-7365-46e7-936f-725f626f6172,rev?*
G04 #@! TF.SameCoordinates,Original*
G04 #@! TF.FileFunction,Soldermask,Bot*
G04 #@! TF.FilePolarity,Negative*
%FSLAX46Y46*%
G04 Gerber Fmt 4.6, Leading zero omitted, Abs format (unit mm)*
G04 Created by KiCad (PCBNEW 5.1.5) date 2019-12-21 09:41:56*
%MOMM*%
%LPD*%
G04 APERTURE LIST*
%ADD10C,0.100000*%
G04 APERTURE END LIST*
D10*
G36*
X120193512Y-113103927D02*
G01*
X120342812Y-113133624D01*
X120506784Y-113201544D01*
X120654354Y-113300147D01*
X120779853Y-113425646D01*
X120878456Y-113573216D01*
X120946376Y-113737188D01*
X120981000Y-113911259D01*
X120981000Y-114088741D01*
X120946376Y-114262812D01*
X120878456Y-114426784D01*
X120779853Y-114574354D01*
X120654354Y-114699853D01*
X120506784Y-114798456D01*
X120342812Y-114866376D01*
X120193512Y-114896073D01*
X120168742Y-114901000D01*
X119991258Y-114901000D01*
X119966488Y-114896073D01*
X119817188Y-114866376D01*
X119653216Y-114798456D01*
X119505646Y-114699853D01*
X119380147Y-114574354D01*
X119281544Y-114426784D01*
X119213624Y-114262812D01*
X119179000Y-114088741D01*
X119179000Y-113911259D01*
X119213624Y-113737188D01*
X119281544Y-113573216D01*
X119380147Y-113425646D01*
X119505646Y-113300147D01*
X119653216Y-113201544D01*
X119817188Y-113133624D01*
X119966488Y-113103927D01*
X119991258Y-113099000D01*
X120168742Y-113099000D01*
X120193512Y-113103927D01*
G37*
G36*
X117653512Y-113103927D02*
G01*
X117802812Y-113133624D01*
X117966784Y-113201544D01*
X118114354Y-113300147D01*
X118239853Y-113425646D01*
X118338456Y-113573216D01*
X118406376Y-113737188D01*
X118441000Y-113911259D01*
X118441000Y-114088741D01*
X118406376Y-114262812D01*
X118338456Y-114426784D01*
X118239853Y-114574354D01*
X118114354Y-114699853D01*
X117966784Y-114798456D01*
X117802812Y-114866376D01*
X117653512Y-114896073D01*
X117628742Y-114901000D01*
X117451258Y-114901000D01*
X117426488Y-114896073D01*
X117277188Y-114866376D01*
X117113216Y-114798456D01*
X116965646Y-114699853D01*
X116840147Y-114574354D01*
X116741544Y-114426784D01*
X116673624Y-114262812D01*
X116639000Y-114088741D01*
X116639000Y-113911259D01*
X116673624Y-113737188D01*
X116741544Y-113573216D01*
X116840147Y-113425646D01*
X116965646Y-113300147D01*
X117113216Y-113201544D01*
X117277188Y-113133624D01*
X117426488Y-113103927D01*
X117451258Y-113099000D01*
X117628742Y-113099000D01*
X117653512Y-113103927D01*
G37*
G36*
X115901000Y-114901000D02*
G01*
X114099000Y-114901000D01*
X114099000Y-113099000D01*
X115901000Y-113099000D01*
X115901000Y-114901000D01*
G37*
G36*
X112653512Y-98103927D02*
G01*
X112802812Y-98133624D01*
X112966784Y-98201544D01*
X113114354Y-98300147D01*
X113239853Y-98425646D01*
X113338456Y-98573216D01*
X113406376Y-98737188D01*
X113441000Y-98911259D01*
X113441000Y-99088741D01*
X113406376Y-99262812D01*
X113338456Y-99426784D01*
X113239853Y-99574354D01*
X113114354Y-99699853D01*
X112966784Y-99798456D01*
X112802812Y-99866376D01*
X112653512Y-99896073D01*
X112628742Y-99901000D01*
X112451258Y-99901000D01*
X112426488Y-99896073D01*
X112277188Y-99866376D01*
X112113216Y-99798456D01*
X111965646Y-99699853D01*
X111840147Y-99574354D01*
X111741544Y-99426784D01*
X111673624Y-99262812D01*
X111639000Y-99088741D01*
X111639000Y-98911259D01*
X111673624Y-98737188D01*
X111741544Y-98573216D01*
X111840147Y-98425646D01*
X111965646Y-98300147D01*
X112113216Y-98201544D01*
X112277188Y-98133624D01*
X112426488Y-98103927D01*
X112451258Y-98099000D01*
X112628742Y-98099000D01*
X112653512Y-98103927D01*
G37*
G36*
X110901000Y-99901000D02*
G01*
X109099000Y-99901000D01*
X109099000Y-98099000D01*
X110901000Y-98099000D01*
X110901000Y-99901000D01*
G37*
M02*
