G04 #@! TF.GenerationSoftware,KiCad,Pcbnew,5.1.5*
G04 #@! TF.CreationDate,2019-12-21T09:41:56+01:00*
G04 #@! TF.ProjectId,leg_sensor_board,6c65675f-7365-46e7-936f-725f626f6172,rev?*
G04 #@! TF.SameCoordinates,Original*
G04 #@! TF.FileFunction,Paste,Top*
G04 #@! TF.FilePolarity,Positive*
%FSLAX46Y46*%
G04 Gerber Fmt 4.6, Leading zero omitted, Abs format (unit mm)*
G04 Created by KiCad (PCBNEW 5.1.5) date 2019-12-21 09:41:56*
%MOMM*%
%LPD*%
G04 APERTURE LIST*
%ADD10C,0.100000*%
%ADD11R,1.500000X1.000000*%
%ADD12R,0.400000X0.650000*%
G04 APERTURE END LIST*
D10*
G36*
X121027691Y-103026053D02*
G01*
X121048926Y-103029203D01*
X121069750Y-103034419D01*
X121089962Y-103041651D01*
X121109368Y-103050830D01*
X121127781Y-103061866D01*
X121145024Y-103074654D01*
X121160930Y-103089070D01*
X121175346Y-103104976D01*
X121188134Y-103122219D01*
X121199170Y-103140632D01*
X121208349Y-103160038D01*
X121215581Y-103180250D01*
X121220797Y-103201074D01*
X121223947Y-103222309D01*
X121225000Y-103243750D01*
X121225000Y-103756250D01*
X121223947Y-103777691D01*
X121220797Y-103798926D01*
X121215581Y-103819750D01*
X121208349Y-103839962D01*
X121199170Y-103859368D01*
X121188134Y-103877781D01*
X121175346Y-103895024D01*
X121160930Y-103910930D01*
X121145024Y-103925346D01*
X121127781Y-103938134D01*
X121109368Y-103949170D01*
X121089962Y-103958349D01*
X121069750Y-103965581D01*
X121048926Y-103970797D01*
X121027691Y-103973947D01*
X121006250Y-103975000D01*
X120568750Y-103975000D01*
X120547309Y-103973947D01*
X120526074Y-103970797D01*
X120505250Y-103965581D01*
X120485038Y-103958349D01*
X120465632Y-103949170D01*
X120447219Y-103938134D01*
X120429976Y-103925346D01*
X120414070Y-103910930D01*
X120399654Y-103895024D01*
X120386866Y-103877781D01*
X120375830Y-103859368D01*
X120366651Y-103839962D01*
X120359419Y-103819750D01*
X120354203Y-103798926D01*
X120351053Y-103777691D01*
X120350000Y-103756250D01*
X120350000Y-103243750D01*
X120351053Y-103222309D01*
X120354203Y-103201074D01*
X120359419Y-103180250D01*
X120366651Y-103160038D01*
X120375830Y-103140632D01*
X120386866Y-103122219D01*
X120399654Y-103104976D01*
X120414070Y-103089070D01*
X120429976Y-103074654D01*
X120447219Y-103061866D01*
X120465632Y-103050830D01*
X120485038Y-103041651D01*
X120505250Y-103034419D01*
X120526074Y-103029203D01*
X120547309Y-103026053D01*
X120568750Y-103025000D01*
X121006250Y-103025000D01*
X121027691Y-103026053D01*
G37*
G36*
X119452691Y-103026053D02*
G01*
X119473926Y-103029203D01*
X119494750Y-103034419D01*
X119514962Y-103041651D01*
X119534368Y-103050830D01*
X119552781Y-103061866D01*
X119570024Y-103074654D01*
X119585930Y-103089070D01*
X119600346Y-103104976D01*
X119613134Y-103122219D01*
X119624170Y-103140632D01*
X119633349Y-103160038D01*
X119640581Y-103180250D01*
X119645797Y-103201074D01*
X119648947Y-103222309D01*
X119650000Y-103243750D01*
X119650000Y-103756250D01*
X119648947Y-103777691D01*
X119645797Y-103798926D01*
X119640581Y-103819750D01*
X119633349Y-103839962D01*
X119624170Y-103859368D01*
X119613134Y-103877781D01*
X119600346Y-103895024D01*
X119585930Y-103910930D01*
X119570024Y-103925346D01*
X119552781Y-103938134D01*
X119534368Y-103949170D01*
X119514962Y-103958349D01*
X119494750Y-103965581D01*
X119473926Y-103970797D01*
X119452691Y-103973947D01*
X119431250Y-103975000D01*
X118993750Y-103975000D01*
X118972309Y-103973947D01*
X118951074Y-103970797D01*
X118930250Y-103965581D01*
X118910038Y-103958349D01*
X118890632Y-103949170D01*
X118872219Y-103938134D01*
X118854976Y-103925346D01*
X118839070Y-103910930D01*
X118824654Y-103895024D01*
X118811866Y-103877781D01*
X118800830Y-103859368D01*
X118791651Y-103839962D01*
X118784419Y-103819750D01*
X118779203Y-103798926D01*
X118776053Y-103777691D01*
X118775000Y-103756250D01*
X118775000Y-103243750D01*
X118776053Y-103222309D01*
X118779203Y-103201074D01*
X118784419Y-103180250D01*
X118791651Y-103160038D01*
X118800830Y-103140632D01*
X118811866Y-103122219D01*
X118824654Y-103104976D01*
X118839070Y-103089070D01*
X118854976Y-103074654D01*
X118872219Y-103061866D01*
X118890632Y-103050830D01*
X118910038Y-103041651D01*
X118930250Y-103034419D01*
X118951074Y-103029203D01*
X118972309Y-103026053D01*
X118993750Y-103025000D01*
X119431250Y-103025000D01*
X119452691Y-103026053D01*
G37*
D11*
X107950000Y-114600000D03*
X107950000Y-111400000D03*
X103050000Y-114600000D03*
X103050000Y-111400000D03*
D10*
G36*
X100452691Y-106526053D02*
G01*
X100473926Y-106529203D01*
X100494750Y-106534419D01*
X100514962Y-106541651D01*
X100534368Y-106550830D01*
X100552781Y-106561866D01*
X100570024Y-106574654D01*
X100585930Y-106589070D01*
X100600346Y-106604976D01*
X100613134Y-106622219D01*
X100624170Y-106640632D01*
X100633349Y-106660038D01*
X100640581Y-106680250D01*
X100645797Y-106701074D01*
X100648947Y-106722309D01*
X100650000Y-106743750D01*
X100650000Y-107256250D01*
X100648947Y-107277691D01*
X100645797Y-107298926D01*
X100640581Y-107319750D01*
X100633349Y-107339962D01*
X100624170Y-107359368D01*
X100613134Y-107377781D01*
X100600346Y-107395024D01*
X100585930Y-107410930D01*
X100570024Y-107425346D01*
X100552781Y-107438134D01*
X100534368Y-107449170D01*
X100514962Y-107458349D01*
X100494750Y-107465581D01*
X100473926Y-107470797D01*
X100452691Y-107473947D01*
X100431250Y-107475000D01*
X99993750Y-107475000D01*
X99972309Y-107473947D01*
X99951074Y-107470797D01*
X99930250Y-107465581D01*
X99910038Y-107458349D01*
X99890632Y-107449170D01*
X99872219Y-107438134D01*
X99854976Y-107425346D01*
X99839070Y-107410930D01*
X99824654Y-107395024D01*
X99811866Y-107377781D01*
X99800830Y-107359368D01*
X99791651Y-107339962D01*
X99784419Y-107319750D01*
X99779203Y-107298926D01*
X99776053Y-107277691D01*
X99775000Y-107256250D01*
X99775000Y-106743750D01*
X99776053Y-106722309D01*
X99779203Y-106701074D01*
X99784419Y-106680250D01*
X99791651Y-106660038D01*
X99800830Y-106640632D01*
X99811866Y-106622219D01*
X99824654Y-106604976D01*
X99839070Y-106589070D01*
X99854976Y-106574654D01*
X99872219Y-106561866D01*
X99890632Y-106550830D01*
X99910038Y-106541651D01*
X99930250Y-106534419D01*
X99951074Y-106529203D01*
X99972309Y-106526053D01*
X99993750Y-106525000D01*
X100431250Y-106525000D01*
X100452691Y-106526053D01*
G37*
G36*
X102027691Y-106526053D02*
G01*
X102048926Y-106529203D01*
X102069750Y-106534419D01*
X102089962Y-106541651D01*
X102109368Y-106550830D01*
X102127781Y-106561866D01*
X102145024Y-106574654D01*
X102160930Y-106589070D01*
X102175346Y-106604976D01*
X102188134Y-106622219D01*
X102199170Y-106640632D01*
X102208349Y-106660038D01*
X102215581Y-106680250D01*
X102220797Y-106701074D01*
X102223947Y-106722309D01*
X102225000Y-106743750D01*
X102225000Y-107256250D01*
X102223947Y-107277691D01*
X102220797Y-107298926D01*
X102215581Y-107319750D01*
X102208349Y-107339962D01*
X102199170Y-107359368D01*
X102188134Y-107377781D01*
X102175346Y-107395024D01*
X102160930Y-107410930D01*
X102145024Y-107425346D01*
X102127781Y-107438134D01*
X102109368Y-107449170D01*
X102089962Y-107458349D01*
X102069750Y-107465581D01*
X102048926Y-107470797D01*
X102027691Y-107473947D01*
X102006250Y-107475000D01*
X101568750Y-107475000D01*
X101547309Y-107473947D01*
X101526074Y-107470797D01*
X101505250Y-107465581D01*
X101485038Y-107458349D01*
X101465632Y-107449170D01*
X101447219Y-107438134D01*
X101429976Y-107425346D01*
X101414070Y-107410930D01*
X101399654Y-107395024D01*
X101386866Y-107377781D01*
X101375830Y-107359368D01*
X101366651Y-107339962D01*
X101359419Y-107319750D01*
X101354203Y-107298926D01*
X101351053Y-107277691D01*
X101350000Y-107256250D01*
X101350000Y-106743750D01*
X101351053Y-106722309D01*
X101354203Y-106701074D01*
X101359419Y-106680250D01*
X101366651Y-106660038D01*
X101375830Y-106640632D01*
X101386866Y-106622219D01*
X101399654Y-106604976D01*
X101414070Y-106589070D01*
X101429976Y-106574654D01*
X101447219Y-106561866D01*
X101465632Y-106550830D01*
X101485038Y-106541651D01*
X101505250Y-106534419D01*
X101526074Y-106529203D01*
X101547309Y-106526053D01*
X101568750Y-106525000D01*
X102006250Y-106525000D01*
X102027691Y-106526053D01*
G37*
D12*
X120650000Y-108550000D03*
X119350000Y-108550000D03*
X120000000Y-110450000D03*
X120000000Y-108550000D03*
X119350000Y-110450000D03*
X120650000Y-110450000D03*
D10*
G36*
X100259703Y-103500722D02*
G01*
X100274264Y-103502882D01*
X100288543Y-103506459D01*
X100302403Y-103511418D01*
X100315710Y-103517712D01*
X100328336Y-103525280D01*
X100340159Y-103534048D01*
X100351066Y-103543934D01*
X100360952Y-103554841D01*
X100369720Y-103566664D01*
X100377288Y-103579290D01*
X100383582Y-103592597D01*
X100388541Y-103606457D01*
X100392118Y-103620736D01*
X100394278Y-103635297D01*
X100395000Y-103650000D01*
X100395000Y-105300000D01*
X100394278Y-105314703D01*
X100392118Y-105329264D01*
X100388541Y-105343543D01*
X100383582Y-105357403D01*
X100377288Y-105370710D01*
X100369720Y-105383336D01*
X100360952Y-105395159D01*
X100351066Y-105406066D01*
X100340159Y-105415952D01*
X100328336Y-105424720D01*
X100315710Y-105432288D01*
X100302403Y-105438582D01*
X100288543Y-105443541D01*
X100274264Y-105447118D01*
X100259703Y-105449278D01*
X100245000Y-105450000D01*
X99945000Y-105450000D01*
X99930297Y-105449278D01*
X99915736Y-105447118D01*
X99901457Y-105443541D01*
X99887597Y-105438582D01*
X99874290Y-105432288D01*
X99861664Y-105424720D01*
X99849841Y-105415952D01*
X99838934Y-105406066D01*
X99829048Y-105395159D01*
X99820280Y-105383336D01*
X99812712Y-105370710D01*
X99806418Y-105357403D01*
X99801459Y-105343543D01*
X99797882Y-105329264D01*
X99795722Y-105314703D01*
X99795000Y-105300000D01*
X99795000Y-103650000D01*
X99795722Y-103635297D01*
X99797882Y-103620736D01*
X99801459Y-103606457D01*
X99806418Y-103592597D01*
X99812712Y-103579290D01*
X99820280Y-103566664D01*
X99829048Y-103554841D01*
X99838934Y-103543934D01*
X99849841Y-103534048D01*
X99861664Y-103525280D01*
X99874290Y-103517712D01*
X99887597Y-103511418D01*
X99901457Y-103506459D01*
X99915736Y-103502882D01*
X99930297Y-103500722D01*
X99945000Y-103500000D01*
X100245000Y-103500000D01*
X100259703Y-103500722D01*
G37*
G36*
X101529703Y-103500722D02*
G01*
X101544264Y-103502882D01*
X101558543Y-103506459D01*
X101572403Y-103511418D01*
X101585710Y-103517712D01*
X101598336Y-103525280D01*
X101610159Y-103534048D01*
X101621066Y-103543934D01*
X101630952Y-103554841D01*
X101639720Y-103566664D01*
X101647288Y-103579290D01*
X101653582Y-103592597D01*
X101658541Y-103606457D01*
X101662118Y-103620736D01*
X101664278Y-103635297D01*
X101665000Y-103650000D01*
X101665000Y-105300000D01*
X101664278Y-105314703D01*
X101662118Y-105329264D01*
X101658541Y-105343543D01*
X101653582Y-105357403D01*
X101647288Y-105370710D01*
X101639720Y-105383336D01*
X101630952Y-105395159D01*
X101621066Y-105406066D01*
X101610159Y-105415952D01*
X101598336Y-105424720D01*
X101585710Y-105432288D01*
X101572403Y-105438582D01*
X101558543Y-105443541D01*
X101544264Y-105447118D01*
X101529703Y-105449278D01*
X101515000Y-105450000D01*
X101215000Y-105450000D01*
X101200297Y-105449278D01*
X101185736Y-105447118D01*
X101171457Y-105443541D01*
X101157597Y-105438582D01*
X101144290Y-105432288D01*
X101131664Y-105424720D01*
X101119841Y-105415952D01*
X101108934Y-105406066D01*
X101099048Y-105395159D01*
X101090280Y-105383336D01*
X101082712Y-105370710D01*
X101076418Y-105357403D01*
X101071459Y-105343543D01*
X101067882Y-105329264D01*
X101065722Y-105314703D01*
X101065000Y-105300000D01*
X101065000Y-103650000D01*
X101065722Y-103635297D01*
X101067882Y-103620736D01*
X101071459Y-103606457D01*
X101076418Y-103592597D01*
X101082712Y-103579290D01*
X101090280Y-103566664D01*
X101099048Y-103554841D01*
X101108934Y-103543934D01*
X101119841Y-103534048D01*
X101131664Y-103525280D01*
X101144290Y-103517712D01*
X101157597Y-103511418D01*
X101171457Y-103506459D01*
X101185736Y-103502882D01*
X101200297Y-103500722D01*
X101215000Y-103500000D01*
X101515000Y-103500000D01*
X101529703Y-103500722D01*
G37*
G36*
X102799703Y-103500722D02*
G01*
X102814264Y-103502882D01*
X102828543Y-103506459D01*
X102842403Y-103511418D01*
X102855710Y-103517712D01*
X102868336Y-103525280D01*
X102880159Y-103534048D01*
X102891066Y-103543934D01*
X102900952Y-103554841D01*
X102909720Y-103566664D01*
X102917288Y-103579290D01*
X102923582Y-103592597D01*
X102928541Y-103606457D01*
X102932118Y-103620736D01*
X102934278Y-103635297D01*
X102935000Y-103650000D01*
X102935000Y-105300000D01*
X102934278Y-105314703D01*
X102932118Y-105329264D01*
X102928541Y-105343543D01*
X102923582Y-105357403D01*
X102917288Y-105370710D01*
X102909720Y-105383336D01*
X102900952Y-105395159D01*
X102891066Y-105406066D01*
X102880159Y-105415952D01*
X102868336Y-105424720D01*
X102855710Y-105432288D01*
X102842403Y-105438582D01*
X102828543Y-105443541D01*
X102814264Y-105447118D01*
X102799703Y-105449278D01*
X102785000Y-105450000D01*
X102485000Y-105450000D01*
X102470297Y-105449278D01*
X102455736Y-105447118D01*
X102441457Y-105443541D01*
X102427597Y-105438582D01*
X102414290Y-105432288D01*
X102401664Y-105424720D01*
X102389841Y-105415952D01*
X102378934Y-105406066D01*
X102369048Y-105395159D01*
X102360280Y-105383336D01*
X102352712Y-105370710D01*
X102346418Y-105357403D01*
X102341459Y-105343543D01*
X102337882Y-105329264D01*
X102335722Y-105314703D01*
X102335000Y-105300000D01*
X102335000Y-103650000D01*
X102335722Y-103635297D01*
X102337882Y-103620736D01*
X102341459Y-103606457D01*
X102346418Y-103592597D01*
X102352712Y-103579290D01*
X102360280Y-103566664D01*
X102369048Y-103554841D01*
X102378934Y-103543934D01*
X102389841Y-103534048D01*
X102401664Y-103525280D01*
X102414290Y-103517712D01*
X102427597Y-103511418D01*
X102441457Y-103506459D01*
X102455736Y-103502882D01*
X102470297Y-103500722D01*
X102485000Y-103500000D01*
X102785000Y-103500000D01*
X102799703Y-103500722D01*
G37*
G36*
X104069703Y-103500722D02*
G01*
X104084264Y-103502882D01*
X104098543Y-103506459D01*
X104112403Y-103511418D01*
X104125710Y-103517712D01*
X104138336Y-103525280D01*
X104150159Y-103534048D01*
X104161066Y-103543934D01*
X104170952Y-103554841D01*
X104179720Y-103566664D01*
X104187288Y-103579290D01*
X104193582Y-103592597D01*
X104198541Y-103606457D01*
X104202118Y-103620736D01*
X104204278Y-103635297D01*
X104205000Y-103650000D01*
X104205000Y-105300000D01*
X104204278Y-105314703D01*
X104202118Y-105329264D01*
X104198541Y-105343543D01*
X104193582Y-105357403D01*
X104187288Y-105370710D01*
X104179720Y-105383336D01*
X104170952Y-105395159D01*
X104161066Y-105406066D01*
X104150159Y-105415952D01*
X104138336Y-105424720D01*
X104125710Y-105432288D01*
X104112403Y-105438582D01*
X104098543Y-105443541D01*
X104084264Y-105447118D01*
X104069703Y-105449278D01*
X104055000Y-105450000D01*
X103755000Y-105450000D01*
X103740297Y-105449278D01*
X103725736Y-105447118D01*
X103711457Y-105443541D01*
X103697597Y-105438582D01*
X103684290Y-105432288D01*
X103671664Y-105424720D01*
X103659841Y-105415952D01*
X103648934Y-105406066D01*
X103639048Y-105395159D01*
X103630280Y-105383336D01*
X103622712Y-105370710D01*
X103616418Y-105357403D01*
X103611459Y-105343543D01*
X103607882Y-105329264D01*
X103605722Y-105314703D01*
X103605000Y-105300000D01*
X103605000Y-103650000D01*
X103605722Y-103635297D01*
X103607882Y-103620736D01*
X103611459Y-103606457D01*
X103616418Y-103592597D01*
X103622712Y-103579290D01*
X103630280Y-103566664D01*
X103639048Y-103554841D01*
X103648934Y-103543934D01*
X103659841Y-103534048D01*
X103671664Y-103525280D01*
X103684290Y-103517712D01*
X103697597Y-103511418D01*
X103711457Y-103506459D01*
X103725736Y-103502882D01*
X103740297Y-103500722D01*
X103755000Y-103500000D01*
X104055000Y-103500000D01*
X104069703Y-103500722D01*
G37*
G36*
X104069703Y-98550722D02*
G01*
X104084264Y-98552882D01*
X104098543Y-98556459D01*
X104112403Y-98561418D01*
X104125710Y-98567712D01*
X104138336Y-98575280D01*
X104150159Y-98584048D01*
X104161066Y-98593934D01*
X104170952Y-98604841D01*
X104179720Y-98616664D01*
X104187288Y-98629290D01*
X104193582Y-98642597D01*
X104198541Y-98656457D01*
X104202118Y-98670736D01*
X104204278Y-98685297D01*
X104205000Y-98700000D01*
X104205000Y-100350000D01*
X104204278Y-100364703D01*
X104202118Y-100379264D01*
X104198541Y-100393543D01*
X104193582Y-100407403D01*
X104187288Y-100420710D01*
X104179720Y-100433336D01*
X104170952Y-100445159D01*
X104161066Y-100456066D01*
X104150159Y-100465952D01*
X104138336Y-100474720D01*
X104125710Y-100482288D01*
X104112403Y-100488582D01*
X104098543Y-100493541D01*
X104084264Y-100497118D01*
X104069703Y-100499278D01*
X104055000Y-100500000D01*
X103755000Y-100500000D01*
X103740297Y-100499278D01*
X103725736Y-100497118D01*
X103711457Y-100493541D01*
X103697597Y-100488582D01*
X103684290Y-100482288D01*
X103671664Y-100474720D01*
X103659841Y-100465952D01*
X103648934Y-100456066D01*
X103639048Y-100445159D01*
X103630280Y-100433336D01*
X103622712Y-100420710D01*
X103616418Y-100407403D01*
X103611459Y-100393543D01*
X103607882Y-100379264D01*
X103605722Y-100364703D01*
X103605000Y-100350000D01*
X103605000Y-98700000D01*
X103605722Y-98685297D01*
X103607882Y-98670736D01*
X103611459Y-98656457D01*
X103616418Y-98642597D01*
X103622712Y-98629290D01*
X103630280Y-98616664D01*
X103639048Y-98604841D01*
X103648934Y-98593934D01*
X103659841Y-98584048D01*
X103671664Y-98575280D01*
X103684290Y-98567712D01*
X103697597Y-98561418D01*
X103711457Y-98556459D01*
X103725736Y-98552882D01*
X103740297Y-98550722D01*
X103755000Y-98550000D01*
X104055000Y-98550000D01*
X104069703Y-98550722D01*
G37*
G36*
X102799703Y-98550722D02*
G01*
X102814264Y-98552882D01*
X102828543Y-98556459D01*
X102842403Y-98561418D01*
X102855710Y-98567712D01*
X102868336Y-98575280D01*
X102880159Y-98584048D01*
X102891066Y-98593934D01*
X102900952Y-98604841D01*
X102909720Y-98616664D01*
X102917288Y-98629290D01*
X102923582Y-98642597D01*
X102928541Y-98656457D01*
X102932118Y-98670736D01*
X102934278Y-98685297D01*
X102935000Y-98700000D01*
X102935000Y-100350000D01*
X102934278Y-100364703D01*
X102932118Y-100379264D01*
X102928541Y-100393543D01*
X102923582Y-100407403D01*
X102917288Y-100420710D01*
X102909720Y-100433336D01*
X102900952Y-100445159D01*
X102891066Y-100456066D01*
X102880159Y-100465952D01*
X102868336Y-100474720D01*
X102855710Y-100482288D01*
X102842403Y-100488582D01*
X102828543Y-100493541D01*
X102814264Y-100497118D01*
X102799703Y-100499278D01*
X102785000Y-100500000D01*
X102485000Y-100500000D01*
X102470297Y-100499278D01*
X102455736Y-100497118D01*
X102441457Y-100493541D01*
X102427597Y-100488582D01*
X102414290Y-100482288D01*
X102401664Y-100474720D01*
X102389841Y-100465952D01*
X102378934Y-100456066D01*
X102369048Y-100445159D01*
X102360280Y-100433336D01*
X102352712Y-100420710D01*
X102346418Y-100407403D01*
X102341459Y-100393543D01*
X102337882Y-100379264D01*
X102335722Y-100364703D01*
X102335000Y-100350000D01*
X102335000Y-98700000D01*
X102335722Y-98685297D01*
X102337882Y-98670736D01*
X102341459Y-98656457D01*
X102346418Y-98642597D01*
X102352712Y-98629290D01*
X102360280Y-98616664D01*
X102369048Y-98604841D01*
X102378934Y-98593934D01*
X102389841Y-98584048D01*
X102401664Y-98575280D01*
X102414290Y-98567712D01*
X102427597Y-98561418D01*
X102441457Y-98556459D01*
X102455736Y-98552882D01*
X102470297Y-98550722D01*
X102485000Y-98550000D01*
X102785000Y-98550000D01*
X102799703Y-98550722D01*
G37*
G36*
X101529703Y-98550722D02*
G01*
X101544264Y-98552882D01*
X101558543Y-98556459D01*
X101572403Y-98561418D01*
X101585710Y-98567712D01*
X101598336Y-98575280D01*
X101610159Y-98584048D01*
X101621066Y-98593934D01*
X101630952Y-98604841D01*
X101639720Y-98616664D01*
X101647288Y-98629290D01*
X101653582Y-98642597D01*
X101658541Y-98656457D01*
X101662118Y-98670736D01*
X101664278Y-98685297D01*
X101665000Y-98700000D01*
X101665000Y-100350000D01*
X101664278Y-100364703D01*
X101662118Y-100379264D01*
X101658541Y-100393543D01*
X101653582Y-100407403D01*
X101647288Y-100420710D01*
X101639720Y-100433336D01*
X101630952Y-100445159D01*
X101621066Y-100456066D01*
X101610159Y-100465952D01*
X101598336Y-100474720D01*
X101585710Y-100482288D01*
X101572403Y-100488582D01*
X101558543Y-100493541D01*
X101544264Y-100497118D01*
X101529703Y-100499278D01*
X101515000Y-100500000D01*
X101215000Y-100500000D01*
X101200297Y-100499278D01*
X101185736Y-100497118D01*
X101171457Y-100493541D01*
X101157597Y-100488582D01*
X101144290Y-100482288D01*
X101131664Y-100474720D01*
X101119841Y-100465952D01*
X101108934Y-100456066D01*
X101099048Y-100445159D01*
X101090280Y-100433336D01*
X101082712Y-100420710D01*
X101076418Y-100407403D01*
X101071459Y-100393543D01*
X101067882Y-100379264D01*
X101065722Y-100364703D01*
X101065000Y-100350000D01*
X101065000Y-98700000D01*
X101065722Y-98685297D01*
X101067882Y-98670736D01*
X101071459Y-98656457D01*
X101076418Y-98642597D01*
X101082712Y-98629290D01*
X101090280Y-98616664D01*
X101099048Y-98604841D01*
X101108934Y-98593934D01*
X101119841Y-98584048D01*
X101131664Y-98575280D01*
X101144290Y-98567712D01*
X101157597Y-98561418D01*
X101171457Y-98556459D01*
X101185736Y-98552882D01*
X101200297Y-98550722D01*
X101215000Y-98550000D01*
X101515000Y-98550000D01*
X101529703Y-98550722D01*
G37*
G36*
X100259703Y-98550722D02*
G01*
X100274264Y-98552882D01*
X100288543Y-98556459D01*
X100302403Y-98561418D01*
X100315710Y-98567712D01*
X100328336Y-98575280D01*
X100340159Y-98584048D01*
X100351066Y-98593934D01*
X100360952Y-98604841D01*
X100369720Y-98616664D01*
X100377288Y-98629290D01*
X100383582Y-98642597D01*
X100388541Y-98656457D01*
X100392118Y-98670736D01*
X100394278Y-98685297D01*
X100395000Y-98700000D01*
X100395000Y-100350000D01*
X100394278Y-100364703D01*
X100392118Y-100379264D01*
X100388541Y-100393543D01*
X100383582Y-100407403D01*
X100377288Y-100420710D01*
X100369720Y-100433336D01*
X100360952Y-100445159D01*
X100351066Y-100456066D01*
X100340159Y-100465952D01*
X100328336Y-100474720D01*
X100315710Y-100482288D01*
X100302403Y-100488582D01*
X100288543Y-100493541D01*
X100274264Y-100497118D01*
X100259703Y-100499278D01*
X100245000Y-100500000D01*
X99945000Y-100500000D01*
X99930297Y-100499278D01*
X99915736Y-100497118D01*
X99901457Y-100493541D01*
X99887597Y-100488582D01*
X99874290Y-100482288D01*
X99861664Y-100474720D01*
X99849841Y-100465952D01*
X99838934Y-100456066D01*
X99829048Y-100445159D01*
X99820280Y-100433336D01*
X99812712Y-100420710D01*
X99806418Y-100407403D01*
X99801459Y-100393543D01*
X99797882Y-100379264D01*
X99795722Y-100364703D01*
X99795000Y-100350000D01*
X99795000Y-98700000D01*
X99795722Y-98685297D01*
X99797882Y-98670736D01*
X99801459Y-98656457D01*
X99806418Y-98642597D01*
X99812712Y-98629290D01*
X99820280Y-98616664D01*
X99829048Y-98604841D01*
X99838934Y-98593934D01*
X99849841Y-98584048D01*
X99861664Y-98575280D01*
X99874290Y-98567712D01*
X99887597Y-98561418D01*
X99901457Y-98556459D01*
X99915736Y-98552882D01*
X99930297Y-98550722D01*
X99945000Y-98550000D01*
X100245000Y-98550000D01*
X100259703Y-98550722D01*
G37*
G36*
X119452691Y-105026053D02*
G01*
X119473926Y-105029203D01*
X119494750Y-105034419D01*
X119514962Y-105041651D01*
X119534368Y-105050830D01*
X119552781Y-105061866D01*
X119570024Y-105074654D01*
X119585930Y-105089070D01*
X119600346Y-105104976D01*
X119613134Y-105122219D01*
X119624170Y-105140632D01*
X119633349Y-105160038D01*
X119640581Y-105180250D01*
X119645797Y-105201074D01*
X119648947Y-105222309D01*
X119650000Y-105243750D01*
X119650000Y-105756250D01*
X119648947Y-105777691D01*
X119645797Y-105798926D01*
X119640581Y-105819750D01*
X119633349Y-105839962D01*
X119624170Y-105859368D01*
X119613134Y-105877781D01*
X119600346Y-105895024D01*
X119585930Y-105910930D01*
X119570024Y-105925346D01*
X119552781Y-105938134D01*
X119534368Y-105949170D01*
X119514962Y-105958349D01*
X119494750Y-105965581D01*
X119473926Y-105970797D01*
X119452691Y-105973947D01*
X119431250Y-105975000D01*
X118993750Y-105975000D01*
X118972309Y-105973947D01*
X118951074Y-105970797D01*
X118930250Y-105965581D01*
X118910038Y-105958349D01*
X118890632Y-105949170D01*
X118872219Y-105938134D01*
X118854976Y-105925346D01*
X118839070Y-105910930D01*
X118824654Y-105895024D01*
X118811866Y-105877781D01*
X118800830Y-105859368D01*
X118791651Y-105839962D01*
X118784419Y-105819750D01*
X118779203Y-105798926D01*
X118776053Y-105777691D01*
X118775000Y-105756250D01*
X118775000Y-105243750D01*
X118776053Y-105222309D01*
X118779203Y-105201074D01*
X118784419Y-105180250D01*
X118791651Y-105160038D01*
X118800830Y-105140632D01*
X118811866Y-105122219D01*
X118824654Y-105104976D01*
X118839070Y-105089070D01*
X118854976Y-105074654D01*
X118872219Y-105061866D01*
X118890632Y-105050830D01*
X118910038Y-105041651D01*
X118930250Y-105034419D01*
X118951074Y-105029203D01*
X118972309Y-105026053D01*
X118993750Y-105025000D01*
X119431250Y-105025000D01*
X119452691Y-105026053D01*
G37*
G36*
X121027691Y-105026053D02*
G01*
X121048926Y-105029203D01*
X121069750Y-105034419D01*
X121089962Y-105041651D01*
X121109368Y-105050830D01*
X121127781Y-105061866D01*
X121145024Y-105074654D01*
X121160930Y-105089070D01*
X121175346Y-105104976D01*
X121188134Y-105122219D01*
X121199170Y-105140632D01*
X121208349Y-105160038D01*
X121215581Y-105180250D01*
X121220797Y-105201074D01*
X121223947Y-105222309D01*
X121225000Y-105243750D01*
X121225000Y-105756250D01*
X121223947Y-105777691D01*
X121220797Y-105798926D01*
X121215581Y-105819750D01*
X121208349Y-105839962D01*
X121199170Y-105859368D01*
X121188134Y-105877781D01*
X121175346Y-105895024D01*
X121160930Y-105910930D01*
X121145024Y-105925346D01*
X121127781Y-105938134D01*
X121109368Y-105949170D01*
X121089962Y-105958349D01*
X121069750Y-105965581D01*
X121048926Y-105970797D01*
X121027691Y-105973947D01*
X121006250Y-105975000D01*
X120568750Y-105975000D01*
X120547309Y-105973947D01*
X120526074Y-105970797D01*
X120505250Y-105965581D01*
X120485038Y-105958349D01*
X120465632Y-105949170D01*
X120447219Y-105938134D01*
X120429976Y-105925346D01*
X120414070Y-105910930D01*
X120399654Y-105895024D01*
X120386866Y-105877781D01*
X120375830Y-105859368D01*
X120366651Y-105839962D01*
X120359419Y-105819750D01*
X120354203Y-105798926D01*
X120351053Y-105777691D01*
X120350000Y-105756250D01*
X120350000Y-105243750D01*
X120351053Y-105222309D01*
X120354203Y-105201074D01*
X120359419Y-105180250D01*
X120366651Y-105160038D01*
X120375830Y-105140632D01*
X120386866Y-105122219D01*
X120399654Y-105104976D01*
X120414070Y-105089070D01*
X120429976Y-105074654D01*
X120447219Y-105061866D01*
X120465632Y-105050830D01*
X120485038Y-105041651D01*
X120505250Y-105034419D01*
X120526074Y-105029203D01*
X120547309Y-105026053D01*
X120568750Y-105025000D01*
X121006250Y-105025000D01*
X121027691Y-105026053D01*
G37*
G36*
X102027691Y-108526053D02*
G01*
X102048926Y-108529203D01*
X102069750Y-108534419D01*
X102089962Y-108541651D01*
X102109368Y-108550830D01*
X102127781Y-108561866D01*
X102145024Y-108574654D01*
X102160930Y-108589070D01*
X102175346Y-108604976D01*
X102188134Y-108622219D01*
X102199170Y-108640632D01*
X102208349Y-108660038D01*
X102215581Y-108680250D01*
X102220797Y-108701074D01*
X102223947Y-108722309D01*
X102225000Y-108743750D01*
X102225000Y-109256250D01*
X102223947Y-109277691D01*
X102220797Y-109298926D01*
X102215581Y-109319750D01*
X102208349Y-109339962D01*
X102199170Y-109359368D01*
X102188134Y-109377781D01*
X102175346Y-109395024D01*
X102160930Y-109410930D01*
X102145024Y-109425346D01*
X102127781Y-109438134D01*
X102109368Y-109449170D01*
X102089962Y-109458349D01*
X102069750Y-109465581D01*
X102048926Y-109470797D01*
X102027691Y-109473947D01*
X102006250Y-109475000D01*
X101568750Y-109475000D01*
X101547309Y-109473947D01*
X101526074Y-109470797D01*
X101505250Y-109465581D01*
X101485038Y-109458349D01*
X101465632Y-109449170D01*
X101447219Y-109438134D01*
X101429976Y-109425346D01*
X101414070Y-109410930D01*
X101399654Y-109395024D01*
X101386866Y-109377781D01*
X101375830Y-109359368D01*
X101366651Y-109339962D01*
X101359419Y-109319750D01*
X101354203Y-109298926D01*
X101351053Y-109277691D01*
X101350000Y-109256250D01*
X101350000Y-108743750D01*
X101351053Y-108722309D01*
X101354203Y-108701074D01*
X101359419Y-108680250D01*
X101366651Y-108660038D01*
X101375830Y-108640632D01*
X101386866Y-108622219D01*
X101399654Y-108604976D01*
X101414070Y-108589070D01*
X101429976Y-108574654D01*
X101447219Y-108561866D01*
X101465632Y-108550830D01*
X101485038Y-108541651D01*
X101505250Y-108534419D01*
X101526074Y-108529203D01*
X101547309Y-108526053D01*
X101568750Y-108525000D01*
X102006250Y-108525000D01*
X102027691Y-108526053D01*
G37*
G36*
X100452691Y-108526053D02*
G01*
X100473926Y-108529203D01*
X100494750Y-108534419D01*
X100514962Y-108541651D01*
X100534368Y-108550830D01*
X100552781Y-108561866D01*
X100570024Y-108574654D01*
X100585930Y-108589070D01*
X100600346Y-108604976D01*
X100613134Y-108622219D01*
X100624170Y-108640632D01*
X100633349Y-108660038D01*
X100640581Y-108680250D01*
X100645797Y-108701074D01*
X100648947Y-108722309D01*
X100650000Y-108743750D01*
X100650000Y-109256250D01*
X100648947Y-109277691D01*
X100645797Y-109298926D01*
X100640581Y-109319750D01*
X100633349Y-109339962D01*
X100624170Y-109359368D01*
X100613134Y-109377781D01*
X100600346Y-109395024D01*
X100585930Y-109410930D01*
X100570024Y-109425346D01*
X100552781Y-109438134D01*
X100534368Y-109449170D01*
X100514962Y-109458349D01*
X100494750Y-109465581D01*
X100473926Y-109470797D01*
X100452691Y-109473947D01*
X100431250Y-109475000D01*
X99993750Y-109475000D01*
X99972309Y-109473947D01*
X99951074Y-109470797D01*
X99930250Y-109465581D01*
X99910038Y-109458349D01*
X99890632Y-109449170D01*
X99872219Y-109438134D01*
X99854976Y-109425346D01*
X99839070Y-109410930D01*
X99824654Y-109395024D01*
X99811866Y-109377781D01*
X99800830Y-109359368D01*
X99791651Y-109339962D01*
X99784419Y-109319750D01*
X99779203Y-109298926D01*
X99776053Y-109277691D01*
X99775000Y-109256250D01*
X99775000Y-108743750D01*
X99776053Y-108722309D01*
X99779203Y-108701074D01*
X99784419Y-108680250D01*
X99791651Y-108660038D01*
X99800830Y-108640632D01*
X99811866Y-108622219D01*
X99824654Y-108604976D01*
X99839070Y-108589070D01*
X99854976Y-108574654D01*
X99872219Y-108561866D01*
X99890632Y-108550830D01*
X99910038Y-108541651D01*
X99930250Y-108534419D01*
X99951074Y-108529203D01*
X99972309Y-108526053D01*
X99993750Y-108525000D01*
X100431250Y-108525000D01*
X100452691Y-108526053D01*
G37*
M02*
