G04 #@! TF.GenerationSoftware,KiCad,Pcbnew,(5.0.0)*
G04 #@! TF.CreationDate,2019-05-21T21:20:09+02:00*
G04 #@! TF.ProjectId,Nightmare V2 pcb V6,4E696768746D61726520563220706362,rev?*
G04 #@! TF.SameCoordinates,Original*
G04 #@! TF.FileFunction,Paste,Bot*
G04 #@! TF.FilePolarity,Positive*
%FSLAX46Y46*%
G04 Gerber Fmt 4.6, Leading zero omitted, Abs format (unit mm)*
G04 Created by KiCad (PCBNEW (5.0.0)) date 05/21/19 21:20:09*
%MOMM*%
%LPD*%
G01*
G04 APERTURE LIST*
%ADD10C,0.100000*%
%ADD11C,0.875000*%
%ADD12R,0.800000X0.900000*%
%ADD13R,0.700000X0.600000*%
%ADD14C,1.250000*%
%ADD15R,2.540000X1.524000*%
G04 APERTURE END LIST*
D10*
G04 #@! TO.C,R12*
G36*
X160539691Y-106714053D02*
X160560926Y-106717203D01*
X160581750Y-106722419D01*
X160601962Y-106729651D01*
X160621368Y-106738830D01*
X160639781Y-106749866D01*
X160657024Y-106762654D01*
X160672930Y-106777070D01*
X160687346Y-106792976D01*
X160700134Y-106810219D01*
X160711170Y-106828632D01*
X160720349Y-106848038D01*
X160727581Y-106868250D01*
X160732797Y-106889074D01*
X160735947Y-106910309D01*
X160737000Y-106931750D01*
X160737000Y-107444250D01*
X160735947Y-107465691D01*
X160732797Y-107486926D01*
X160727581Y-107507750D01*
X160720349Y-107527962D01*
X160711170Y-107547368D01*
X160700134Y-107565781D01*
X160687346Y-107583024D01*
X160672930Y-107598930D01*
X160657024Y-107613346D01*
X160639781Y-107626134D01*
X160621368Y-107637170D01*
X160601962Y-107646349D01*
X160581750Y-107653581D01*
X160560926Y-107658797D01*
X160539691Y-107661947D01*
X160518250Y-107663000D01*
X160080750Y-107663000D01*
X160059309Y-107661947D01*
X160038074Y-107658797D01*
X160017250Y-107653581D01*
X159997038Y-107646349D01*
X159977632Y-107637170D01*
X159959219Y-107626134D01*
X159941976Y-107613346D01*
X159926070Y-107598930D01*
X159911654Y-107583024D01*
X159898866Y-107565781D01*
X159887830Y-107547368D01*
X159878651Y-107527962D01*
X159871419Y-107507750D01*
X159866203Y-107486926D01*
X159863053Y-107465691D01*
X159862000Y-107444250D01*
X159862000Y-106931750D01*
X159863053Y-106910309D01*
X159866203Y-106889074D01*
X159871419Y-106868250D01*
X159878651Y-106848038D01*
X159887830Y-106828632D01*
X159898866Y-106810219D01*
X159911654Y-106792976D01*
X159926070Y-106777070D01*
X159941976Y-106762654D01*
X159959219Y-106749866D01*
X159977632Y-106738830D01*
X159997038Y-106729651D01*
X160017250Y-106722419D01*
X160038074Y-106717203D01*
X160059309Y-106714053D01*
X160080750Y-106713000D01*
X160518250Y-106713000D01*
X160539691Y-106714053D01*
X160539691Y-106714053D01*
G37*
D11*
X160299500Y-107188000D03*
D10*
G36*
X158964691Y-106714053D02*
X158985926Y-106717203D01*
X159006750Y-106722419D01*
X159026962Y-106729651D01*
X159046368Y-106738830D01*
X159064781Y-106749866D01*
X159082024Y-106762654D01*
X159097930Y-106777070D01*
X159112346Y-106792976D01*
X159125134Y-106810219D01*
X159136170Y-106828632D01*
X159145349Y-106848038D01*
X159152581Y-106868250D01*
X159157797Y-106889074D01*
X159160947Y-106910309D01*
X159162000Y-106931750D01*
X159162000Y-107444250D01*
X159160947Y-107465691D01*
X159157797Y-107486926D01*
X159152581Y-107507750D01*
X159145349Y-107527962D01*
X159136170Y-107547368D01*
X159125134Y-107565781D01*
X159112346Y-107583024D01*
X159097930Y-107598930D01*
X159082024Y-107613346D01*
X159064781Y-107626134D01*
X159046368Y-107637170D01*
X159026962Y-107646349D01*
X159006750Y-107653581D01*
X158985926Y-107658797D01*
X158964691Y-107661947D01*
X158943250Y-107663000D01*
X158505750Y-107663000D01*
X158484309Y-107661947D01*
X158463074Y-107658797D01*
X158442250Y-107653581D01*
X158422038Y-107646349D01*
X158402632Y-107637170D01*
X158384219Y-107626134D01*
X158366976Y-107613346D01*
X158351070Y-107598930D01*
X158336654Y-107583024D01*
X158323866Y-107565781D01*
X158312830Y-107547368D01*
X158303651Y-107527962D01*
X158296419Y-107507750D01*
X158291203Y-107486926D01*
X158288053Y-107465691D01*
X158287000Y-107444250D01*
X158287000Y-106931750D01*
X158288053Y-106910309D01*
X158291203Y-106889074D01*
X158296419Y-106868250D01*
X158303651Y-106848038D01*
X158312830Y-106828632D01*
X158323866Y-106810219D01*
X158336654Y-106792976D01*
X158351070Y-106777070D01*
X158366976Y-106762654D01*
X158384219Y-106749866D01*
X158402632Y-106738830D01*
X158422038Y-106729651D01*
X158442250Y-106722419D01*
X158463074Y-106717203D01*
X158484309Y-106714053D01*
X158505750Y-106713000D01*
X158943250Y-106713000D01*
X158964691Y-106714053D01*
X158964691Y-106714053D01*
G37*
D11*
X158724500Y-107188000D03*
G04 #@! TD*
D10*
G04 #@! TO.C,R8*
G36*
X157757691Y-109266053D02*
X157778926Y-109269203D01*
X157799750Y-109274419D01*
X157819962Y-109281651D01*
X157839368Y-109290830D01*
X157857781Y-109301866D01*
X157875024Y-109314654D01*
X157890930Y-109329070D01*
X157905346Y-109344976D01*
X157918134Y-109362219D01*
X157929170Y-109380632D01*
X157938349Y-109400038D01*
X157945581Y-109420250D01*
X157950797Y-109441074D01*
X157953947Y-109462309D01*
X157955000Y-109483750D01*
X157955000Y-109921250D01*
X157953947Y-109942691D01*
X157950797Y-109963926D01*
X157945581Y-109984750D01*
X157938349Y-110004962D01*
X157929170Y-110024368D01*
X157918134Y-110042781D01*
X157905346Y-110060024D01*
X157890930Y-110075930D01*
X157875024Y-110090346D01*
X157857781Y-110103134D01*
X157839368Y-110114170D01*
X157819962Y-110123349D01*
X157799750Y-110130581D01*
X157778926Y-110135797D01*
X157757691Y-110138947D01*
X157736250Y-110140000D01*
X157223750Y-110140000D01*
X157202309Y-110138947D01*
X157181074Y-110135797D01*
X157160250Y-110130581D01*
X157140038Y-110123349D01*
X157120632Y-110114170D01*
X157102219Y-110103134D01*
X157084976Y-110090346D01*
X157069070Y-110075930D01*
X157054654Y-110060024D01*
X157041866Y-110042781D01*
X157030830Y-110024368D01*
X157021651Y-110004962D01*
X157014419Y-109984750D01*
X157009203Y-109963926D01*
X157006053Y-109942691D01*
X157005000Y-109921250D01*
X157005000Y-109483750D01*
X157006053Y-109462309D01*
X157009203Y-109441074D01*
X157014419Y-109420250D01*
X157021651Y-109400038D01*
X157030830Y-109380632D01*
X157041866Y-109362219D01*
X157054654Y-109344976D01*
X157069070Y-109329070D01*
X157084976Y-109314654D01*
X157102219Y-109301866D01*
X157120632Y-109290830D01*
X157140038Y-109281651D01*
X157160250Y-109274419D01*
X157181074Y-109269203D01*
X157202309Y-109266053D01*
X157223750Y-109265000D01*
X157736250Y-109265000D01*
X157757691Y-109266053D01*
X157757691Y-109266053D01*
G37*
D11*
X157480000Y-109702500D03*
D10*
G36*
X157757691Y-110841053D02*
X157778926Y-110844203D01*
X157799750Y-110849419D01*
X157819962Y-110856651D01*
X157839368Y-110865830D01*
X157857781Y-110876866D01*
X157875024Y-110889654D01*
X157890930Y-110904070D01*
X157905346Y-110919976D01*
X157918134Y-110937219D01*
X157929170Y-110955632D01*
X157938349Y-110975038D01*
X157945581Y-110995250D01*
X157950797Y-111016074D01*
X157953947Y-111037309D01*
X157955000Y-111058750D01*
X157955000Y-111496250D01*
X157953947Y-111517691D01*
X157950797Y-111538926D01*
X157945581Y-111559750D01*
X157938349Y-111579962D01*
X157929170Y-111599368D01*
X157918134Y-111617781D01*
X157905346Y-111635024D01*
X157890930Y-111650930D01*
X157875024Y-111665346D01*
X157857781Y-111678134D01*
X157839368Y-111689170D01*
X157819962Y-111698349D01*
X157799750Y-111705581D01*
X157778926Y-111710797D01*
X157757691Y-111713947D01*
X157736250Y-111715000D01*
X157223750Y-111715000D01*
X157202309Y-111713947D01*
X157181074Y-111710797D01*
X157160250Y-111705581D01*
X157140038Y-111698349D01*
X157120632Y-111689170D01*
X157102219Y-111678134D01*
X157084976Y-111665346D01*
X157069070Y-111650930D01*
X157054654Y-111635024D01*
X157041866Y-111617781D01*
X157030830Y-111599368D01*
X157021651Y-111579962D01*
X157014419Y-111559750D01*
X157009203Y-111538926D01*
X157006053Y-111517691D01*
X157005000Y-111496250D01*
X157005000Y-111058750D01*
X157006053Y-111037309D01*
X157009203Y-111016074D01*
X157014419Y-110995250D01*
X157021651Y-110975038D01*
X157030830Y-110955632D01*
X157041866Y-110937219D01*
X157054654Y-110919976D01*
X157069070Y-110904070D01*
X157084976Y-110889654D01*
X157102219Y-110876866D01*
X157120632Y-110865830D01*
X157140038Y-110856651D01*
X157160250Y-110849419D01*
X157181074Y-110844203D01*
X157202309Y-110841053D01*
X157223750Y-110840000D01*
X157736250Y-110840000D01*
X157757691Y-110841053D01*
X157757691Y-110841053D01*
G37*
D11*
X157480000Y-111277500D03*
G04 #@! TD*
D12*
G04 #@! TO.C,Q2*
X159324000Y-109744000D03*
X161224000Y-109744000D03*
X160274000Y-111744000D03*
G04 #@! TD*
D13*
G04 #@! TO.C,D3*
X143891000Y-81726000D03*
X143891000Y-80326000D03*
G04 #@! TD*
G04 #@! TO.C,D2*
X136271000Y-80326000D03*
X136271000Y-81726000D03*
G04 #@! TD*
D10*
G04 #@! TO.C,C1*
G36*
X133234691Y-84666853D02*
X133255926Y-84670003D01*
X133276750Y-84675219D01*
X133296962Y-84682451D01*
X133316368Y-84691630D01*
X133334781Y-84702666D01*
X133352024Y-84715454D01*
X133367930Y-84729870D01*
X133382346Y-84745776D01*
X133395134Y-84763019D01*
X133406170Y-84781432D01*
X133415349Y-84800838D01*
X133422581Y-84821050D01*
X133427797Y-84841874D01*
X133430947Y-84863109D01*
X133432000Y-84884550D01*
X133432000Y-85397050D01*
X133430947Y-85418491D01*
X133427797Y-85439726D01*
X133422581Y-85460550D01*
X133415349Y-85480762D01*
X133406170Y-85500168D01*
X133395134Y-85518581D01*
X133382346Y-85535824D01*
X133367930Y-85551730D01*
X133352024Y-85566146D01*
X133334781Y-85578934D01*
X133316368Y-85589970D01*
X133296962Y-85599149D01*
X133276750Y-85606381D01*
X133255926Y-85611597D01*
X133234691Y-85614747D01*
X133213250Y-85615800D01*
X132775750Y-85615800D01*
X132754309Y-85614747D01*
X132733074Y-85611597D01*
X132712250Y-85606381D01*
X132692038Y-85599149D01*
X132672632Y-85589970D01*
X132654219Y-85578934D01*
X132636976Y-85566146D01*
X132621070Y-85551730D01*
X132606654Y-85535824D01*
X132593866Y-85518581D01*
X132582830Y-85500168D01*
X132573651Y-85480762D01*
X132566419Y-85460550D01*
X132561203Y-85439726D01*
X132558053Y-85418491D01*
X132557000Y-85397050D01*
X132557000Y-84884550D01*
X132558053Y-84863109D01*
X132561203Y-84841874D01*
X132566419Y-84821050D01*
X132573651Y-84800838D01*
X132582830Y-84781432D01*
X132593866Y-84763019D01*
X132606654Y-84745776D01*
X132621070Y-84729870D01*
X132636976Y-84715454D01*
X132654219Y-84702666D01*
X132672632Y-84691630D01*
X132692038Y-84682451D01*
X132712250Y-84675219D01*
X132733074Y-84670003D01*
X132754309Y-84666853D01*
X132775750Y-84665800D01*
X133213250Y-84665800D01*
X133234691Y-84666853D01*
X133234691Y-84666853D01*
G37*
D11*
X132994500Y-85140800D03*
D10*
G36*
X131659691Y-84666853D02*
X131680926Y-84670003D01*
X131701750Y-84675219D01*
X131721962Y-84682451D01*
X131741368Y-84691630D01*
X131759781Y-84702666D01*
X131777024Y-84715454D01*
X131792930Y-84729870D01*
X131807346Y-84745776D01*
X131820134Y-84763019D01*
X131831170Y-84781432D01*
X131840349Y-84800838D01*
X131847581Y-84821050D01*
X131852797Y-84841874D01*
X131855947Y-84863109D01*
X131857000Y-84884550D01*
X131857000Y-85397050D01*
X131855947Y-85418491D01*
X131852797Y-85439726D01*
X131847581Y-85460550D01*
X131840349Y-85480762D01*
X131831170Y-85500168D01*
X131820134Y-85518581D01*
X131807346Y-85535824D01*
X131792930Y-85551730D01*
X131777024Y-85566146D01*
X131759781Y-85578934D01*
X131741368Y-85589970D01*
X131721962Y-85599149D01*
X131701750Y-85606381D01*
X131680926Y-85611597D01*
X131659691Y-85614747D01*
X131638250Y-85615800D01*
X131200750Y-85615800D01*
X131179309Y-85614747D01*
X131158074Y-85611597D01*
X131137250Y-85606381D01*
X131117038Y-85599149D01*
X131097632Y-85589970D01*
X131079219Y-85578934D01*
X131061976Y-85566146D01*
X131046070Y-85551730D01*
X131031654Y-85535824D01*
X131018866Y-85518581D01*
X131007830Y-85500168D01*
X130998651Y-85480762D01*
X130991419Y-85460550D01*
X130986203Y-85439726D01*
X130983053Y-85418491D01*
X130982000Y-85397050D01*
X130982000Y-84884550D01*
X130983053Y-84863109D01*
X130986203Y-84841874D01*
X130991419Y-84821050D01*
X130998651Y-84800838D01*
X131007830Y-84781432D01*
X131018866Y-84763019D01*
X131031654Y-84745776D01*
X131046070Y-84729870D01*
X131061976Y-84715454D01*
X131079219Y-84702666D01*
X131097632Y-84691630D01*
X131117038Y-84682451D01*
X131137250Y-84675219D01*
X131158074Y-84670003D01*
X131179309Y-84666853D01*
X131200750Y-84665800D01*
X131638250Y-84665800D01*
X131659691Y-84666853D01*
X131659691Y-84666853D01*
G37*
D11*
X131419500Y-85140800D03*
G04 #@! TD*
D10*
G04 #@! TO.C,C67*
G36*
X157503691Y-133701053D02*
X157524926Y-133704203D01*
X157545750Y-133709419D01*
X157565962Y-133716651D01*
X157585368Y-133725830D01*
X157603781Y-133736866D01*
X157621024Y-133749654D01*
X157636930Y-133764070D01*
X157651346Y-133779976D01*
X157664134Y-133797219D01*
X157675170Y-133815632D01*
X157684349Y-133835038D01*
X157691581Y-133855250D01*
X157696797Y-133876074D01*
X157699947Y-133897309D01*
X157701000Y-133918750D01*
X157701000Y-134356250D01*
X157699947Y-134377691D01*
X157696797Y-134398926D01*
X157691581Y-134419750D01*
X157684349Y-134439962D01*
X157675170Y-134459368D01*
X157664134Y-134477781D01*
X157651346Y-134495024D01*
X157636930Y-134510930D01*
X157621024Y-134525346D01*
X157603781Y-134538134D01*
X157585368Y-134549170D01*
X157565962Y-134558349D01*
X157545750Y-134565581D01*
X157524926Y-134570797D01*
X157503691Y-134573947D01*
X157482250Y-134575000D01*
X156969750Y-134575000D01*
X156948309Y-134573947D01*
X156927074Y-134570797D01*
X156906250Y-134565581D01*
X156886038Y-134558349D01*
X156866632Y-134549170D01*
X156848219Y-134538134D01*
X156830976Y-134525346D01*
X156815070Y-134510930D01*
X156800654Y-134495024D01*
X156787866Y-134477781D01*
X156776830Y-134459368D01*
X156767651Y-134439962D01*
X156760419Y-134419750D01*
X156755203Y-134398926D01*
X156752053Y-134377691D01*
X156751000Y-134356250D01*
X156751000Y-133918750D01*
X156752053Y-133897309D01*
X156755203Y-133876074D01*
X156760419Y-133855250D01*
X156767651Y-133835038D01*
X156776830Y-133815632D01*
X156787866Y-133797219D01*
X156800654Y-133779976D01*
X156815070Y-133764070D01*
X156830976Y-133749654D01*
X156848219Y-133736866D01*
X156866632Y-133725830D01*
X156886038Y-133716651D01*
X156906250Y-133709419D01*
X156927074Y-133704203D01*
X156948309Y-133701053D01*
X156969750Y-133700000D01*
X157482250Y-133700000D01*
X157503691Y-133701053D01*
X157503691Y-133701053D01*
G37*
D11*
X157226000Y-134137500D03*
D10*
G36*
X157503691Y-132126053D02*
X157524926Y-132129203D01*
X157545750Y-132134419D01*
X157565962Y-132141651D01*
X157585368Y-132150830D01*
X157603781Y-132161866D01*
X157621024Y-132174654D01*
X157636930Y-132189070D01*
X157651346Y-132204976D01*
X157664134Y-132222219D01*
X157675170Y-132240632D01*
X157684349Y-132260038D01*
X157691581Y-132280250D01*
X157696797Y-132301074D01*
X157699947Y-132322309D01*
X157701000Y-132343750D01*
X157701000Y-132781250D01*
X157699947Y-132802691D01*
X157696797Y-132823926D01*
X157691581Y-132844750D01*
X157684349Y-132864962D01*
X157675170Y-132884368D01*
X157664134Y-132902781D01*
X157651346Y-132920024D01*
X157636930Y-132935930D01*
X157621024Y-132950346D01*
X157603781Y-132963134D01*
X157585368Y-132974170D01*
X157565962Y-132983349D01*
X157545750Y-132990581D01*
X157524926Y-132995797D01*
X157503691Y-132998947D01*
X157482250Y-133000000D01*
X156969750Y-133000000D01*
X156948309Y-132998947D01*
X156927074Y-132995797D01*
X156906250Y-132990581D01*
X156886038Y-132983349D01*
X156866632Y-132974170D01*
X156848219Y-132963134D01*
X156830976Y-132950346D01*
X156815070Y-132935930D01*
X156800654Y-132920024D01*
X156787866Y-132902781D01*
X156776830Y-132884368D01*
X156767651Y-132864962D01*
X156760419Y-132844750D01*
X156755203Y-132823926D01*
X156752053Y-132802691D01*
X156751000Y-132781250D01*
X156751000Y-132343750D01*
X156752053Y-132322309D01*
X156755203Y-132301074D01*
X156760419Y-132280250D01*
X156767651Y-132260038D01*
X156776830Y-132240632D01*
X156787866Y-132222219D01*
X156800654Y-132204976D01*
X156815070Y-132189070D01*
X156830976Y-132174654D01*
X156848219Y-132161866D01*
X156866632Y-132150830D01*
X156886038Y-132141651D01*
X156906250Y-132134419D01*
X156927074Y-132129203D01*
X156948309Y-132126053D01*
X156969750Y-132125000D01*
X157482250Y-132125000D01*
X157503691Y-132126053D01*
X157503691Y-132126053D01*
G37*
D11*
X157226000Y-132562500D03*
G04 #@! TD*
D10*
G04 #@! TO.C,C66*
G36*
X155471691Y-132126053D02*
X155492926Y-132129203D01*
X155513750Y-132134419D01*
X155533962Y-132141651D01*
X155553368Y-132150830D01*
X155571781Y-132161866D01*
X155589024Y-132174654D01*
X155604930Y-132189070D01*
X155619346Y-132204976D01*
X155632134Y-132222219D01*
X155643170Y-132240632D01*
X155652349Y-132260038D01*
X155659581Y-132280250D01*
X155664797Y-132301074D01*
X155667947Y-132322309D01*
X155669000Y-132343750D01*
X155669000Y-132781250D01*
X155667947Y-132802691D01*
X155664797Y-132823926D01*
X155659581Y-132844750D01*
X155652349Y-132864962D01*
X155643170Y-132884368D01*
X155632134Y-132902781D01*
X155619346Y-132920024D01*
X155604930Y-132935930D01*
X155589024Y-132950346D01*
X155571781Y-132963134D01*
X155553368Y-132974170D01*
X155533962Y-132983349D01*
X155513750Y-132990581D01*
X155492926Y-132995797D01*
X155471691Y-132998947D01*
X155450250Y-133000000D01*
X154937750Y-133000000D01*
X154916309Y-132998947D01*
X154895074Y-132995797D01*
X154874250Y-132990581D01*
X154854038Y-132983349D01*
X154834632Y-132974170D01*
X154816219Y-132963134D01*
X154798976Y-132950346D01*
X154783070Y-132935930D01*
X154768654Y-132920024D01*
X154755866Y-132902781D01*
X154744830Y-132884368D01*
X154735651Y-132864962D01*
X154728419Y-132844750D01*
X154723203Y-132823926D01*
X154720053Y-132802691D01*
X154719000Y-132781250D01*
X154719000Y-132343750D01*
X154720053Y-132322309D01*
X154723203Y-132301074D01*
X154728419Y-132280250D01*
X154735651Y-132260038D01*
X154744830Y-132240632D01*
X154755866Y-132222219D01*
X154768654Y-132204976D01*
X154783070Y-132189070D01*
X154798976Y-132174654D01*
X154816219Y-132161866D01*
X154834632Y-132150830D01*
X154854038Y-132141651D01*
X154874250Y-132134419D01*
X154895074Y-132129203D01*
X154916309Y-132126053D01*
X154937750Y-132125000D01*
X155450250Y-132125000D01*
X155471691Y-132126053D01*
X155471691Y-132126053D01*
G37*
D11*
X155194000Y-132562500D03*
D10*
G36*
X155471691Y-133701053D02*
X155492926Y-133704203D01*
X155513750Y-133709419D01*
X155533962Y-133716651D01*
X155553368Y-133725830D01*
X155571781Y-133736866D01*
X155589024Y-133749654D01*
X155604930Y-133764070D01*
X155619346Y-133779976D01*
X155632134Y-133797219D01*
X155643170Y-133815632D01*
X155652349Y-133835038D01*
X155659581Y-133855250D01*
X155664797Y-133876074D01*
X155667947Y-133897309D01*
X155669000Y-133918750D01*
X155669000Y-134356250D01*
X155667947Y-134377691D01*
X155664797Y-134398926D01*
X155659581Y-134419750D01*
X155652349Y-134439962D01*
X155643170Y-134459368D01*
X155632134Y-134477781D01*
X155619346Y-134495024D01*
X155604930Y-134510930D01*
X155589024Y-134525346D01*
X155571781Y-134538134D01*
X155553368Y-134549170D01*
X155533962Y-134558349D01*
X155513750Y-134565581D01*
X155492926Y-134570797D01*
X155471691Y-134573947D01*
X155450250Y-134575000D01*
X154937750Y-134575000D01*
X154916309Y-134573947D01*
X154895074Y-134570797D01*
X154874250Y-134565581D01*
X154854038Y-134558349D01*
X154834632Y-134549170D01*
X154816219Y-134538134D01*
X154798976Y-134525346D01*
X154783070Y-134510930D01*
X154768654Y-134495024D01*
X154755866Y-134477781D01*
X154744830Y-134459368D01*
X154735651Y-134439962D01*
X154728419Y-134419750D01*
X154723203Y-134398926D01*
X154720053Y-134377691D01*
X154719000Y-134356250D01*
X154719000Y-133918750D01*
X154720053Y-133897309D01*
X154723203Y-133876074D01*
X154728419Y-133855250D01*
X154735651Y-133835038D01*
X154744830Y-133815632D01*
X154755866Y-133797219D01*
X154768654Y-133779976D01*
X154783070Y-133764070D01*
X154798976Y-133749654D01*
X154816219Y-133736866D01*
X154834632Y-133725830D01*
X154854038Y-133716651D01*
X154874250Y-133709419D01*
X154895074Y-133704203D01*
X154916309Y-133701053D01*
X154937750Y-133700000D01*
X155450250Y-133700000D01*
X155471691Y-133701053D01*
X155471691Y-133701053D01*
G37*
D11*
X155194000Y-134137500D03*
G04 #@! TD*
D10*
G04 #@! TO.C,C64*
G36*
X198842691Y-139734053D02*
X198863926Y-139737203D01*
X198884750Y-139742419D01*
X198904962Y-139749651D01*
X198924368Y-139758830D01*
X198942781Y-139769866D01*
X198960024Y-139782654D01*
X198975930Y-139797070D01*
X198990346Y-139812976D01*
X199003134Y-139830219D01*
X199014170Y-139848632D01*
X199023349Y-139868038D01*
X199030581Y-139888250D01*
X199035797Y-139909074D01*
X199038947Y-139930309D01*
X199040000Y-139951750D01*
X199040000Y-140464250D01*
X199038947Y-140485691D01*
X199035797Y-140506926D01*
X199030581Y-140527750D01*
X199023349Y-140547962D01*
X199014170Y-140567368D01*
X199003134Y-140585781D01*
X198990346Y-140603024D01*
X198975930Y-140618930D01*
X198960024Y-140633346D01*
X198942781Y-140646134D01*
X198924368Y-140657170D01*
X198904962Y-140666349D01*
X198884750Y-140673581D01*
X198863926Y-140678797D01*
X198842691Y-140681947D01*
X198821250Y-140683000D01*
X198383750Y-140683000D01*
X198362309Y-140681947D01*
X198341074Y-140678797D01*
X198320250Y-140673581D01*
X198300038Y-140666349D01*
X198280632Y-140657170D01*
X198262219Y-140646134D01*
X198244976Y-140633346D01*
X198229070Y-140618930D01*
X198214654Y-140603024D01*
X198201866Y-140585781D01*
X198190830Y-140567368D01*
X198181651Y-140547962D01*
X198174419Y-140527750D01*
X198169203Y-140506926D01*
X198166053Y-140485691D01*
X198165000Y-140464250D01*
X198165000Y-139951750D01*
X198166053Y-139930309D01*
X198169203Y-139909074D01*
X198174419Y-139888250D01*
X198181651Y-139868038D01*
X198190830Y-139848632D01*
X198201866Y-139830219D01*
X198214654Y-139812976D01*
X198229070Y-139797070D01*
X198244976Y-139782654D01*
X198262219Y-139769866D01*
X198280632Y-139758830D01*
X198300038Y-139749651D01*
X198320250Y-139742419D01*
X198341074Y-139737203D01*
X198362309Y-139734053D01*
X198383750Y-139733000D01*
X198821250Y-139733000D01*
X198842691Y-139734053D01*
X198842691Y-139734053D01*
G37*
D11*
X198602500Y-140208000D03*
D10*
G36*
X200417691Y-139734053D02*
X200438926Y-139737203D01*
X200459750Y-139742419D01*
X200479962Y-139749651D01*
X200499368Y-139758830D01*
X200517781Y-139769866D01*
X200535024Y-139782654D01*
X200550930Y-139797070D01*
X200565346Y-139812976D01*
X200578134Y-139830219D01*
X200589170Y-139848632D01*
X200598349Y-139868038D01*
X200605581Y-139888250D01*
X200610797Y-139909074D01*
X200613947Y-139930309D01*
X200615000Y-139951750D01*
X200615000Y-140464250D01*
X200613947Y-140485691D01*
X200610797Y-140506926D01*
X200605581Y-140527750D01*
X200598349Y-140547962D01*
X200589170Y-140567368D01*
X200578134Y-140585781D01*
X200565346Y-140603024D01*
X200550930Y-140618930D01*
X200535024Y-140633346D01*
X200517781Y-140646134D01*
X200499368Y-140657170D01*
X200479962Y-140666349D01*
X200459750Y-140673581D01*
X200438926Y-140678797D01*
X200417691Y-140681947D01*
X200396250Y-140683000D01*
X199958750Y-140683000D01*
X199937309Y-140681947D01*
X199916074Y-140678797D01*
X199895250Y-140673581D01*
X199875038Y-140666349D01*
X199855632Y-140657170D01*
X199837219Y-140646134D01*
X199819976Y-140633346D01*
X199804070Y-140618930D01*
X199789654Y-140603024D01*
X199776866Y-140585781D01*
X199765830Y-140567368D01*
X199756651Y-140547962D01*
X199749419Y-140527750D01*
X199744203Y-140506926D01*
X199741053Y-140485691D01*
X199740000Y-140464250D01*
X199740000Y-139951750D01*
X199741053Y-139930309D01*
X199744203Y-139909074D01*
X199749419Y-139888250D01*
X199756651Y-139868038D01*
X199765830Y-139848632D01*
X199776866Y-139830219D01*
X199789654Y-139812976D01*
X199804070Y-139797070D01*
X199819976Y-139782654D01*
X199837219Y-139769866D01*
X199855632Y-139758830D01*
X199875038Y-139749651D01*
X199895250Y-139742419D01*
X199916074Y-139737203D01*
X199937309Y-139734053D01*
X199958750Y-139733000D01*
X200396250Y-139733000D01*
X200417691Y-139734053D01*
X200417691Y-139734053D01*
G37*
D11*
X200177500Y-140208000D03*
G04 #@! TD*
D10*
G04 #@! TO.C,C65*
G36*
X200417691Y-137956053D02*
X200438926Y-137959203D01*
X200459750Y-137964419D01*
X200479962Y-137971651D01*
X200499368Y-137980830D01*
X200517781Y-137991866D01*
X200535024Y-138004654D01*
X200550930Y-138019070D01*
X200565346Y-138034976D01*
X200578134Y-138052219D01*
X200589170Y-138070632D01*
X200598349Y-138090038D01*
X200605581Y-138110250D01*
X200610797Y-138131074D01*
X200613947Y-138152309D01*
X200615000Y-138173750D01*
X200615000Y-138686250D01*
X200613947Y-138707691D01*
X200610797Y-138728926D01*
X200605581Y-138749750D01*
X200598349Y-138769962D01*
X200589170Y-138789368D01*
X200578134Y-138807781D01*
X200565346Y-138825024D01*
X200550930Y-138840930D01*
X200535024Y-138855346D01*
X200517781Y-138868134D01*
X200499368Y-138879170D01*
X200479962Y-138888349D01*
X200459750Y-138895581D01*
X200438926Y-138900797D01*
X200417691Y-138903947D01*
X200396250Y-138905000D01*
X199958750Y-138905000D01*
X199937309Y-138903947D01*
X199916074Y-138900797D01*
X199895250Y-138895581D01*
X199875038Y-138888349D01*
X199855632Y-138879170D01*
X199837219Y-138868134D01*
X199819976Y-138855346D01*
X199804070Y-138840930D01*
X199789654Y-138825024D01*
X199776866Y-138807781D01*
X199765830Y-138789368D01*
X199756651Y-138769962D01*
X199749419Y-138749750D01*
X199744203Y-138728926D01*
X199741053Y-138707691D01*
X199740000Y-138686250D01*
X199740000Y-138173750D01*
X199741053Y-138152309D01*
X199744203Y-138131074D01*
X199749419Y-138110250D01*
X199756651Y-138090038D01*
X199765830Y-138070632D01*
X199776866Y-138052219D01*
X199789654Y-138034976D01*
X199804070Y-138019070D01*
X199819976Y-138004654D01*
X199837219Y-137991866D01*
X199855632Y-137980830D01*
X199875038Y-137971651D01*
X199895250Y-137964419D01*
X199916074Y-137959203D01*
X199937309Y-137956053D01*
X199958750Y-137955000D01*
X200396250Y-137955000D01*
X200417691Y-137956053D01*
X200417691Y-137956053D01*
G37*
D11*
X200177500Y-138430000D03*
D10*
G36*
X198842691Y-137956053D02*
X198863926Y-137959203D01*
X198884750Y-137964419D01*
X198904962Y-137971651D01*
X198924368Y-137980830D01*
X198942781Y-137991866D01*
X198960024Y-138004654D01*
X198975930Y-138019070D01*
X198990346Y-138034976D01*
X199003134Y-138052219D01*
X199014170Y-138070632D01*
X199023349Y-138090038D01*
X199030581Y-138110250D01*
X199035797Y-138131074D01*
X199038947Y-138152309D01*
X199040000Y-138173750D01*
X199040000Y-138686250D01*
X199038947Y-138707691D01*
X199035797Y-138728926D01*
X199030581Y-138749750D01*
X199023349Y-138769962D01*
X199014170Y-138789368D01*
X199003134Y-138807781D01*
X198990346Y-138825024D01*
X198975930Y-138840930D01*
X198960024Y-138855346D01*
X198942781Y-138868134D01*
X198924368Y-138879170D01*
X198904962Y-138888349D01*
X198884750Y-138895581D01*
X198863926Y-138900797D01*
X198842691Y-138903947D01*
X198821250Y-138905000D01*
X198383750Y-138905000D01*
X198362309Y-138903947D01*
X198341074Y-138900797D01*
X198320250Y-138895581D01*
X198300038Y-138888349D01*
X198280632Y-138879170D01*
X198262219Y-138868134D01*
X198244976Y-138855346D01*
X198229070Y-138840930D01*
X198214654Y-138825024D01*
X198201866Y-138807781D01*
X198190830Y-138789368D01*
X198181651Y-138769962D01*
X198174419Y-138749750D01*
X198169203Y-138728926D01*
X198166053Y-138707691D01*
X198165000Y-138686250D01*
X198165000Y-138173750D01*
X198166053Y-138152309D01*
X198169203Y-138131074D01*
X198174419Y-138110250D01*
X198181651Y-138090038D01*
X198190830Y-138070632D01*
X198201866Y-138052219D01*
X198214654Y-138034976D01*
X198229070Y-138019070D01*
X198244976Y-138004654D01*
X198262219Y-137991866D01*
X198280632Y-137980830D01*
X198300038Y-137971651D01*
X198320250Y-137964419D01*
X198341074Y-137959203D01*
X198362309Y-137956053D01*
X198383750Y-137955000D01*
X198821250Y-137955000D01*
X198842691Y-137956053D01*
X198842691Y-137956053D01*
G37*
D11*
X198602500Y-138430000D03*
G04 #@! TD*
D10*
G04 #@! TO.C,C62*
G36*
X145683504Y-94629204D02*
X145707773Y-94632804D01*
X145731571Y-94638765D01*
X145754671Y-94647030D01*
X145776849Y-94657520D01*
X145797893Y-94670133D01*
X145817598Y-94684747D01*
X145835777Y-94701223D01*
X145852253Y-94719402D01*
X145866867Y-94739107D01*
X145879480Y-94760151D01*
X145889970Y-94782329D01*
X145898235Y-94805429D01*
X145904196Y-94829227D01*
X145907796Y-94853496D01*
X145909000Y-94878000D01*
X145909000Y-95628000D01*
X145907796Y-95652504D01*
X145904196Y-95676773D01*
X145898235Y-95700571D01*
X145889970Y-95723671D01*
X145879480Y-95745849D01*
X145866867Y-95766893D01*
X145852253Y-95786598D01*
X145835777Y-95804777D01*
X145817598Y-95821253D01*
X145797893Y-95835867D01*
X145776849Y-95848480D01*
X145754671Y-95858970D01*
X145731571Y-95867235D01*
X145707773Y-95873196D01*
X145683504Y-95876796D01*
X145659000Y-95878000D01*
X144409000Y-95878000D01*
X144384496Y-95876796D01*
X144360227Y-95873196D01*
X144336429Y-95867235D01*
X144313329Y-95858970D01*
X144291151Y-95848480D01*
X144270107Y-95835867D01*
X144250402Y-95821253D01*
X144232223Y-95804777D01*
X144215747Y-95786598D01*
X144201133Y-95766893D01*
X144188520Y-95745849D01*
X144178030Y-95723671D01*
X144169765Y-95700571D01*
X144163804Y-95676773D01*
X144160204Y-95652504D01*
X144159000Y-95628000D01*
X144159000Y-94878000D01*
X144160204Y-94853496D01*
X144163804Y-94829227D01*
X144169765Y-94805429D01*
X144178030Y-94782329D01*
X144188520Y-94760151D01*
X144201133Y-94739107D01*
X144215747Y-94719402D01*
X144232223Y-94701223D01*
X144250402Y-94684747D01*
X144270107Y-94670133D01*
X144291151Y-94657520D01*
X144313329Y-94647030D01*
X144336429Y-94638765D01*
X144360227Y-94632804D01*
X144384496Y-94629204D01*
X144409000Y-94628000D01*
X145659000Y-94628000D01*
X145683504Y-94629204D01*
X145683504Y-94629204D01*
G37*
D14*
X145034000Y-95253000D03*
D10*
G36*
X145683504Y-91829204D02*
X145707773Y-91832804D01*
X145731571Y-91838765D01*
X145754671Y-91847030D01*
X145776849Y-91857520D01*
X145797893Y-91870133D01*
X145817598Y-91884747D01*
X145835777Y-91901223D01*
X145852253Y-91919402D01*
X145866867Y-91939107D01*
X145879480Y-91960151D01*
X145889970Y-91982329D01*
X145898235Y-92005429D01*
X145904196Y-92029227D01*
X145907796Y-92053496D01*
X145909000Y-92078000D01*
X145909000Y-92828000D01*
X145907796Y-92852504D01*
X145904196Y-92876773D01*
X145898235Y-92900571D01*
X145889970Y-92923671D01*
X145879480Y-92945849D01*
X145866867Y-92966893D01*
X145852253Y-92986598D01*
X145835777Y-93004777D01*
X145817598Y-93021253D01*
X145797893Y-93035867D01*
X145776849Y-93048480D01*
X145754671Y-93058970D01*
X145731571Y-93067235D01*
X145707773Y-93073196D01*
X145683504Y-93076796D01*
X145659000Y-93078000D01*
X144409000Y-93078000D01*
X144384496Y-93076796D01*
X144360227Y-93073196D01*
X144336429Y-93067235D01*
X144313329Y-93058970D01*
X144291151Y-93048480D01*
X144270107Y-93035867D01*
X144250402Y-93021253D01*
X144232223Y-93004777D01*
X144215747Y-92986598D01*
X144201133Y-92966893D01*
X144188520Y-92945849D01*
X144178030Y-92923671D01*
X144169765Y-92900571D01*
X144163804Y-92876773D01*
X144160204Y-92852504D01*
X144159000Y-92828000D01*
X144159000Y-92078000D01*
X144160204Y-92053496D01*
X144163804Y-92029227D01*
X144169765Y-92005429D01*
X144178030Y-91982329D01*
X144188520Y-91960151D01*
X144201133Y-91939107D01*
X144215747Y-91919402D01*
X144232223Y-91901223D01*
X144250402Y-91884747D01*
X144270107Y-91870133D01*
X144291151Y-91857520D01*
X144313329Y-91847030D01*
X144336429Y-91838765D01*
X144360227Y-91832804D01*
X144384496Y-91829204D01*
X144409000Y-91828000D01*
X145659000Y-91828000D01*
X145683504Y-91829204D01*
X145683504Y-91829204D01*
G37*
D14*
X145034000Y-92453000D03*
G04 #@! TD*
D10*
G04 #@! TO.C,C63*
G36*
X148477504Y-91829204D02*
X148501773Y-91832804D01*
X148525571Y-91838765D01*
X148548671Y-91847030D01*
X148570849Y-91857520D01*
X148591893Y-91870133D01*
X148611598Y-91884747D01*
X148629777Y-91901223D01*
X148646253Y-91919402D01*
X148660867Y-91939107D01*
X148673480Y-91960151D01*
X148683970Y-91982329D01*
X148692235Y-92005429D01*
X148698196Y-92029227D01*
X148701796Y-92053496D01*
X148703000Y-92078000D01*
X148703000Y-92828000D01*
X148701796Y-92852504D01*
X148698196Y-92876773D01*
X148692235Y-92900571D01*
X148683970Y-92923671D01*
X148673480Y-92945849D01*
X148660867Y-92966893D01*
X148646253Y-92986598D01*
X148629777Y-93004777D01*
X148611598Y-93021253D01*
X148591893Y-93035867D01*
X148570849Y-93048480D01*
X148548671Y-93058970D01*
X148525571Y-93067235D01*
X148501773Y-93073196D01*
X148477504Y-93076796D01*
X148453000Y-93078000D01*
X147203000Y-93078000D01*
X147178496Y-93076796D01*
X147154227Y-93073196D01*
X147130429Y-93067235D01*
X147107329Y-93058970D01*
X147085151Y-93048480D01*
X147064107Y-93035867D01*
X147044402Y-93021253D01*
X147026223Y-93004777D01*
X147009747Y-92986598D01*
X146995133Y-92966893D01*
X146982520Y-92945849D01*
X146972030Y-92923671D01*
X146963765Y-92900571D01*
X146957804Y-92876773D01*
X146954204Y-92852504D01*
X146953000Y-92828000D01*
X146953000Y-92078000D01*
X146954204Y-92053496D01*
X146957804Y-92029227D01*
X146963765Y-92005429D01*
X146972030Y-91982329D01*
X146982520Y-91960151D01*
X146995133Y-91939107D01*
X147009747Y-91919402D01*
X147026223Y-91901223D01*
X147044402Y-91884747D01*
X147064107Y-91870133D01*
X147085151Y-91857520D01*
X147107329Y-91847030D01*
X147130429Y-91838765D01*
X147154227Y-91832804D01*
X147178496Y-91829204D01*
X147203000Y-91828000D01*
X148453000Y-91828000D01*
X148477504Y-91829204D01*
X148477504Y-91829204D01*
G37*
D14*
X147828000Y-92453000D03*
D10*
G36*
X148477504Y-94629204D02*
X148501773Y-94632804D01*
X148525571Y-94638765D01*
X148548671Y-94647030D01*
X148570849Y-94657520D01*
X148591893Y-94670133D01*
X148611598Y-94684747D01*
X148629777Y-94701223D01*
X148646253Y-94719402D01*
X148660867Y-94739107D01*
X148673480Y-94760151D01*
X148683970Y-94782329D01*
X148692235Y-94805429D01*
X148698196Y-94829227D01*
X148701796Y-94853496D01*
X148703000Y-94878000D01*
X148703000Y-95628000D01*
X148701796Y-95652504D01*
X148698196Y-95676773D01*
X148692235Y-95700571D01*
X148683970Y-95723671D01*
X148673480Y-95745849D01*
X148660867Y-95766893D01*
X148646253Y-95786598D01*
X148629777Y-95804777D01*
X148611598Y-95821253D01*
X148591893Y-95835867D01*
X148570849Y-95848480D01*
X148548671Y-95858970D01*
X148525571Y-95867235D01*
X148501773Y-95873196D01*
X148477504Y-95876796D01*
X148453000Y-95878000D01*
X147203000Y-95878000D01*
X147178496Y-95876796D01*
X147154227Y-95873196D01*
X147130429Y-95867235D01*
X147107329Y-95858970D01*
X147085151Y-95848480D01*
X147064107Y-95835867D01*
X147044402Y-95821253D01*
X147026223Y-95804777D01*
X147009747Y-95786598D01*
X146995133Y-95766893D01*
X146982520Y-95745849D01*
X146972030Y-95723671D01*
X146963765Y-95700571D01*
X146957804Y-95676773D01*
X146954204Y-95652504D01*
X146953000Y-95628000D01*
X146953000Y-94878000D01*
X146954204Y-94853496D01*
X146957804Y-94829227D01*
X146963765Y-94805429D01*
X146972030Y-94782329D01*
X146982520Y-94760151D01*
X146995133Y-94739107D01*
X147009747Y-94719402D01*
X147026223Y-94701223D01*
X147044402Y-94684747D01*
X147064107Y-94670133D01*
X147085151Y-94657520D01*
X147107329Y-94647030D01*
X147130429Y-94638765D01*
X147154227Y-94632804D01*
X147178496Y-94629204D01*
X147203000Y-94628000D01*
X148453000Y-94628000D01*
X148477504Y-94629204D01*
X148477504Y-94629204D01*
G37*
D14*
X147828000Y-95253000D03*
G04 #@! TD*
D10*
G04 #@! TO.C,C59*
G36*
X137301504Y-94629204D02*
X137325773Y-94632804D01*
X137349571Y-94638765D01*
X137372671Y-94647030D01*
X137394849Y-94657520D01*
X137415893Y-94670133D01*
X137435598Y-94684747D01*
X137453777Y-94701223D01*
X137470253Y-94719402D01*
X137484867Y-94739107D01*
X137497480Y-94760151D01*
X137507970Y-94782329D01*
X137516235Y-94805429D01*
X137522196Y-94829227D01*
X137525796Y-94853496D01*
X137527000Y-94878000D01*
X137527000Y-95628000D01*
X137525796Y-95652504D01*
X137522196Y-95676773D01*
X137516235Y-95700571D01*
X137507970Y-95723671D01*
X137497480Y-95745849D01*
X137484867Y-95766893D01*
X137470253Y-95786598D01*
X137453777Y-95804777D01*
X137435598Y-95821253D01*
X137415893Y-95835867D01*
X137394849Y-95848480D01*
X137372671Y-95858970D01*
X137349571Y-95867235D01*
X137325773Y-95873196D01*
X137301504Y-95876796D01*
X137277000Y-95878000D01*
X136027000Y-95878000D01*
X136002496Y-95876796D01*
X135978227Y-95873196D01*
X135954429Y-95867235D01*
X135931329Y-95858970D01*
X135909151Y-95848480D01*
X135888107Y-95835867D01*
X135868402Y-95821253D01*
X135850223Y-95804777D01*
X135833747Y-95786598D01*
X135819133Y-95766893D01*
X135806520Y-95745849D01*
X135796030Y-95723671D01*
X135787765Y-95700571D01*
X135781804Y-95676773D01*
X135778204Y-95652504D01*
X135777000Y-95628000D01*
X135777000Y-94878000D01*
X135778204Y-94853496D01*
X135781804Y-94829227D01*
X135787765Y-94805429D01*
X135796030Y-94782329D01*
X135806520Y-94760151D01*
X135819133Y-94739107D01*
X135833747Y-94719402D01*
X135850223Y-94701223D01*
X135868402Y-94684747D01*
X135888107Y-94670133D01*
X135909151Y-94657520D01*
X135931329Y-94647030D01*
X135954429Y-94638765D01*
X135978227Y-94632804D01*
X136002496Y-94629204D01*
X136027000Y-94628000D01*
X137277000Y-94628000D01*
X137301504Y-94629204D01*
X137301504Y-94629204D01*
G37*
D14*
X136652000Y-95253000D03*
D10*
G36*
X137301504Y-91829204D02*
X137325773Y-91832804D01*
X137349571Y-91838765D01*
X137372671Y-91847030D01*
X137394849Y-91857520D01*
X137415893Y-91870133D01*
X137435598Y-91884747D01*
X137453777Y-91901223D01*
X137470253Y-91919402D01*
X137484867Y-91939107D01*
X137497480Y-91960151D01*
X137507970Y-91982329D01*
X137516235Y-92005429D01*
X137522196Y-92029227D01*
X137525796Y-92053496D01*
X137527000Y-92078000D01*
X137527000Y-92828000D01*
X137525796Y-92852504D01*
X137522196Y-92876773D01*
X137516235Y-92900571D01*
X137507970Y-92923671D01*
X137497480Y-92945849D01*
X137484867Y-92966893D01*
X137470253Y-92986598D01*
X137453777Y-93004777D01*
X137435598Y-93021253D01*
X137415893Y-93035867D01*
X137394849Y-93048480D01*
X137372671Y-93058970D01*
X137349571Y-93067235D01*
X137325773Y-93073196D01*
X137301504Y-93076796D01*
X137277000Y-93078000D01*
X136027000Y-93078000D01*
X136002496Y-93076796D01*
X135978227Y-93073196D01*
X135954429Y-93067235D01*
X135931329Y-93058970D01*
X135909151Y-93048480D01*
X135888107Y-93035867D01*
X135868402Y-93021253D01*
X135850223Y-93004777D01*
X135833747Y-92986598D01*
X135819133Y-92966893D01*
X135806520Y-92945849D01*
X135796030Y-92923671D01*
X135787765Y-92900571D01*
X135781804Y-92876773D01*
X135778204Y-92852504D01*
X135777000Y-92828000D01*
X135777000Y-92078000D01*
X135778204Y-92053496D01*
X135781804Y-92029227D01*
X135787765Y-92005429D01*
X135796030Y-91982329D01*
X135806520Y-91960151D01*
X135819133Y-91939107D01*
X135833747Y-91919402D01*
X135850223Y-91901223D01*
X135868402Y-91884747D01*
X135888107Y-91870133D01*
X135909151Y-91857520D01*
X135931329Y-91847030D01*
X135954429Y-91838765D01*
X135978227Y-91832804D01*
X136002496Y-91829204D01*
X136027000Y-91828000D01*
X137277000Y-91828000D01*
X137301504Y-91829204D01*
X137301504Y-91829204D01*
G37*
D14*
X136652000Y-92453000D03*
G04 #@! TD*
D10*
G04 #@! TO.C,C58*
G36*
X152541504Y-89041204D02*
X152565773Y-89044804D01*
X152589571Y-89050765D01*
X152612671Y-89059030D01*
X152634849Y-89069520D01*
X152655893Y-89082133D01*
X152675598Y-89096747D01*
X152693777Y-89113223D01*
X152710253Y-89131402D01*
X152724867Y-89151107D01*
X152737480Y-89172151D01*
X152747970Y-89194329D01*
X152756235Y-89217429D01*
X152762196Y-89241227D01*
X152765796Y-89265496D01*
X152767000Y-89290000D01*
X152767000Y-90040000D01*
X152765796Y-90064504D01*
X152762196Y-90088773D01*
X152756235Y-90112571D01*
X152747970Y-90135671D01*
X152737480Y-90157849D01*
X152724867Y-90178893D01*
X152710253Y-90198598D01*
X152693777Y-90216777D01*
X152675598Y-90233253D01*
X152655893Y-90247867D01*
X152634849Y-90260480D01*
X152612671Y-90270970D01*
X152589571Y-90279235D01*
X152565773Y-90285196D01*
X152541504Y-90288796D01*
X152517000Y-90290000D01*
X151267000Y-90290000D01*
X151242496Y-90288796D01*
X151218227Y-90285196D01*
X151194429Y-90279235D01*
X151171329Y-90270970D01*
X151149151Y-90260480D01*
X151128107Y-90247867D01*
X151108402Y-90233253D01*
X151090223Y-90216777D01*
X151073747Y-90198598D01*
X151059133Y-90178893D01*
X151046520Y-90157849D01*
X151036030Y-90135671D01*
X151027765Y-90112571D01*
X151021804Y-90088773D01*
X151018204Y-90064504D01*
X151017000Y-90040000D01*
X151017000Y-89290000D01*
X151018204Y-89265496D01*
X151021804Y-89241227D01*
X151027765Y-89217429D01*
X151036030Y-89194329D01*
X151046520Y-89172151D01*
X151059133Y-89151107D01*
X151073747Y-89131402D01*
X151090223Y-89113223D01*
X151108402Y-89096747D01*
X151128107Y-89082133D01*
X151149151Y-89069520D01*
X151171329Y-89059030D01*
X151194429Y-89050765D01*
X151218227Y-89044804D01*
X151242496Y-89041204D01*
X151267000Y-89040000D01*
X152517000Y-89040000D01*
X152541504Y-89041204D01*
X152541504Y-89041204D01*
G37*
D14*
X151892000Y-89665000D03*
D10*
G36*
X152541504Y-86241204D02*
X152565773Y-86244804D01*
X152589571Y-86250765D01*
X152612671Y-86259030D01*
X152634849Y-86269520D01*
X152655893Y-86282133D01*
X152675598Y-86296747D01*
X152693777Y-86313223D01*
X152710253Y-86331402D01*
X152724867Y-86351107D01*
X152737480Y-86372151D01*
X152747970Y-86394329D01*
X152756235Y-86417429D01*
X152762196Y-86441227D01*
X152765796Y-86465496D01*
X152767000Y-86490000D01*
X152767000Y-87240000D01*
X152765796Y-87264504D01*
X152762196Y-87288773D01*
X152756235Y-87312571D01*
X152747970Y-87335671D01*
X152737480Y-87357849D01*
X152724867Y-87378893D01*
X152710253Y-87398598D01*
X152693777Y-87416777D01*
X152675598Y-87433253D01*
X152655893Y-87447867D01*
X152634849Y-87460480D01*
X152612671Y-87470970D01*
X152589571Y-87479235D01*
X152565773Y-87485196D01*
X152541504Y-87488796D01*
X152517000Y-87490000D01*
X151267000Y-87490000D01*
X151242496Y-87488796D01*
X151218227Y-87485196D01*
X151194429Y-87479235D01*
X151171329Y-87470970D01*
X151149151Y-87460480D01*
X151128107Y-87447867D01*
X151108402Y-87433253D01*
X151090223Y-87416777D01*
X151073747Y-87398598D01*
X151059133Y-87378893D01*
X151046520Y-87357849D01*
X151036030Y-87335671D01*
X151027765Y-87312571D01*
X151021804Y-87288773D01*
X151018204Y-87264504D01*
X151017000Y-87240000D01*
X151017000Y-86490000D01*
X151018204Y-86465496D01*
X151021804Y-86441227D01*
X151027765Y-86417429D01*
X151036030Y-86394329D01*
X151046520Y-86372151D01*
X151059133Y-86351107D01*
X151073747Y-86331402D01*
X151090223Y-86313223D01*
X151108402Y-86296747D01*
X151128107Y-86282133D01*
X151149151Y-86269520D01*
X151171329Y-86259030D01*
X151194429Y-86250765D01*
X151218227Y-86244804D01*
X151242496Y-86241204D01*
X151267000Y-86240000D01*
X152517000Y-86240000D01*
X152541504Y-86241204D01*
X152541504Y-86241204D01*
G37*
D14*
X151892000Y-86865000D03*
G04 #@! TD*
D10*
G04 #@! TO.C,C61*
G36*
X142889504Y-94629204D02*
X142913773Y-94632804D01*
X142937571Y-94638765D01*
X142960671Y-94647030D01*
X142982849Y-94657520D01*
X143003893Y-94670133D01*
X143023598Y-94684747D01*
X143041777Y-94701223D01*
X143058253Y-94719402D01*
X143072867Y-94739107D01*
X143085480Y-94760151D01*
X143095970Y-94782329D01*
X143104235Y-94805429D01*
X143110196Y-94829227D01*
X143113796Y-94853496D01*
X143115000Y-94878000D01*
X143115000Y-95628000D01*
X143113796Y-95652504D01*
X143110196Y-95676773D01*
X143104235Y-95700571D01*
X143095970Y-95723671D01*
X143085480Y-95745849D01*
X143072867Y-95766893D01*
X143058253Y-95786598D01*
X143041777Y-95804777D01*
X143023598Y-95821253D01*
X143003893Y-95835867D01*
X142982849Y-95848480D01*
X142960671Y-95858970D01*
X142937571Y-95867235D01*
X142913773Y-95873196D01*
X142889504Y-95876796D01*
X142865000Y-95878000D01*
X141615000Y-95878000D01*
X141590496Y-95876796D01*
X141566227Y-95873196D01*
X141542429Y-95867235D01*
X141519329Y-95858970D01*
X141497151Y-95848480D01*
X141476107Y-95835867D01*
X141456402Y-95821253D01*
X141438223Y-95804777D01*
X141421747Y-95786598D01*
X141407133Y-95766893D01*
X141394520Y-95745849D01*
X141384030Y-95723671D01*
X141375765Y-95700571D01*
X141369804Y-95676773D01*
X141366204Y-95652504D01*
X141365000Y-95628000D01*
X141365000Y-94878000D01*
X141366204Y-94853496D01*
X141369804Y-94829227D01*
X141375765Y-94805429D01*
X141384030Y-94782329D01*
X141394520Y-94760151D01*
X141407133Y-94739107D01*
X141421747Y-94719402D01*
X141438223Y-94701223D01*
X141456402Y-94684747D01*
X141476107Y-94670133D01*
X141497151Y-94657520D01*
X141519329Y-94647030D01*
X141542429Y-94638765D01*
X141566227Y-94632804D01*
X141590496Y-94629204D01*
X141615000Y-94628000D01*
X142865000Y-94628000D01*
X142889504Y-94629204D01*
X142889504Y-94629204D01*
G37*
D14*
X142240000Y-95253000D03*
D10*
G36*
X142889504Y-91829204D02*
X142913773Y-91832804D01*
X142937571Y-91838765D01*
X142960671Y-91847030D01*
X142982849Y-91857520D01*
X143003893Y-91870133D01*
X143023598Y-91884747D01*
X143041777Y-91901223D01*
X143058253Y-91919402D01*
X143072867Y-91939107D01*
X143085480Y-91960151D01*
X143095970Y-91982329D01*
X143104235Y-92005429D01*
X143110196Y-92029227D01*
X143113796Y-92053496D01*
X143115000Y-92078000D01*
X143115000Y-92828000D01*
X143113796Y-92852504D01*
X143110196Y-92876773D01*
X143104235Y-92900571D01*
X143095970Y-92923671D01*
X143085480Y-92945849D01*
X143072867Y-92966893D01*
X143058253Y-92986598D01*
X143041777Y-93004777D01*
X143023598Y-93021253D01*
X143003893Y-93035867D01*
X142982849Y-93048480D01*
X142960671Y-93058970D01*
X142937571Y-93067235D01*
X142913773Y-93073196D01*
X142889504Y-93076796D01*
X142865000Y-93078000D01*
X141615000Y-93078000D01*
X141590496Y-93076796D01*
X141566227Y-93073196D01*
X141542429Y-93067235D01*
X141519329Y-93058970D01*
X141497151Y-93048480D01*
X141476107Y-93035867D01*
X141456402Y-93021253D01*
X141438223Y-93004777D01*
X141421747Y-92986598D01*
X141407133Y-92966893D01*
X141394520Y-92945849D01*
X141384030Y-92923671D01*
X141375765Y-92900571D01*
X141369804Y-92876773D01*
X141366204Y-92852504D01*
X141365000Y-92828000D01*
X141365000Y-92078000D01*
X141366204Y-92053496D01*
X141369804Y-92029227D01*
X141375765Y-92005429D01*
X141384030Y-91982329D01*
X141394520Y-91960151D01*
X141407133Y-91939107D01*
X141421747Y-91919402D01*
X141438223Y-91901223D01*
X141456402Y-91884747D01*
X141476107Y-91870133D01*
X141497151Y-91857520D01*
X141519329Y-91847030D01*
X141542429Y-91838765D01*
X141566227Y-91832804D01*
X141590496Y-91829204D01*
X141615000Y-91828000D01*
X142865000Y-91828000D01*
X142889504Y-91829204D01*
X142889504Y-91829204D01*
G37*
D14*
X142240000Y-92453000D03*
G04 #@! TD*
D10*
G04 #@! TO.C,C57*
G36*
X144218430Y-106837002D02*
X144242699Y-106840602D01*
X144266497Y-106846563D01*
X144289597Y-106854828D01*
X144311775Y-106865318D01*
X144332819Y-106877931D01*
X144352524Y-106892545D01*
X144370703Y-106909021D01*
X144387179Y-106927200D01*
X144401793Y-106946905D01*
X144414406Y-106967949D01*
X144424896Y-106990127D01*
X144433161Y-107013227D01*
X144439122Y-107037025D01*
X144442722Y-107061294D01*
X144443926Y-107085798D01*
X144443926Y-108335798D01*
X144442722Y-108360302D01*
X144439122Y-108384571D01*
X144433161Y-108408369D01*
X144424896Y-108431469D01*
X144414406Y-108453647D01*
X144401793Y-108474691D01*
X144387179Y-108494396D01*
X144370703Y-108512575D01*
X144352524Y-108529051D01*
X144332819Y-108543665D01*
X144311775Y-108556278D01*
X144289597Y-108566768D01*
X144266497Y-108575033D01*
X144242699Y-108580994D01*
X144218430Y-108584594D01*
X144193926Y-108585798D01*
X143443926Y-108585798D01*
X143419422Y-108584594D01*
X143395153Y-108580994D01*
X143371355Y-108575033D01*
X143348255Y-108566768D01*
X143326077Y-108556278D01*
X143305033Y-108543665D01*
X143285328Y-108529051D01*
X143267149Y-108512575D01*
X143250673Y-108494396D01*
X143236059Y-108474691D01*
X143223446Y-108453647D01*
X143212956Y-108431469D01*
X143204691Y-108408369D01*
X143198730Y-108384571D01*
X143195130Y-108360302D01*
X143193926Y-108335798D01*
X143193926Y-107085798D01*
X143195130Y-107061294D01*
X143198730Y-107037025D01*
X143204691Y-107013227D01*
X143212956Y-106990127D01*
X143223446Y-106967949D01*
X143236059Y-106946905D01*
X143250673Y-106927200D01*
X143267149Y-106909021D01*
X143285328Y-106892545D01*
X143305033Y-106877931D01*
X143326077Y-106865318D01*
X143348255Y-106854828D01*
X143371355Y-106846563D01*
X143395153Y-106840602D01*
X143419422Y-106837002D01*
X143443926Y-106835798D01*
X144193926Y-106835798D01*
X144218430Y-106837002D01*
X144218430Y-106837002D01*
G37*
D14*
X143818926Y-107710798D03*
D10*
G36*
X141418430Y-106837002D02*
X141442699Y-106840602D01*
X141466497Y-106846563D01*
X141489597Y-106854828D01*
X141511775Y-106865318D01*
X141532819Y-106877931D01*
X141552524Y-106892545D01*
X141570703Y-106909021D01*
X141587179Y-106927200D01*
X141601793Y-106946905D01*
X141614406Y-106967949D01*
X141624896Y-106990127D01*
X141633161Y-107013227D01*
X141639122Y-107037025D01*
X141642722Y-107061294D01*
X141643926Y-107085798D01*
X141643926Y-108335798D01*
X141642722Y-108360302D01*
X141639122Y-108384571D01*
X141633161Y-108408369D01*
X141624896Y-108431469D01*
X141614406Y-108453647D01*
X141601793Y-108474691D01*
X141587179Y-108494396D01*
X141570703Y-108512575D01*
X141552524Y-108529051D01*
X141532819Y-108543665D01*
X141511775Y-108556278D01*
X141489597Y-108566768D01*
X141466497Y-108575033D01*
X141442699Y-108580994D01*
X141418430Y-108584594D01*
X141393926Y-108585798D01*
X140643926Y-108585798D01*
X140619422Y-108584594D01*
X140595153Y-108580994D01*
X140571355Y-108575033D01*
X140548255Y-108566768D01*
X140526077Y-108556278D01*
X140505033Y-108543665D01*
X140485328Y-108529051D01*
X140467149Y-108512575D01*
X140450673Y-108494396D01*
X140436059Y-108474691D01*
X140423446Y-108453647D01*
X140412956Y-108431469D01*
X140404691Y-108408369D01*
X140398730Y-108384571D01*
X140395130Y-108360302D01*
X140393926Y-108335798D01*
X140393926Y-107085798D01*
X140395130Y-107061294D01*
X140398730Y-107037025D01*
X140404691Y-107013227D01*
X140412956Y-106990127D01*
X140423446Y-106967949D01*
X140436059Y-106946905D01*
X140450673Y-106927200D01*
X140467149Y-106909021D01*
X140485328Y-106892545D01*
X140505033Y-106877931D01*
X140526077Y-106865318D01*
X140548255Y-106854828D01*
X140571355Y-106846563D01*
X140595153Y-106840602D01*
X140619422Y-106837002D01*
X140643926Y-106835798D01*
X141393926Y-106835798D01*
X141418430Y-106837002D01*
X141418430Y-106837002D01*
G37*
D14*
X141018926Y-107710798D03*
G04 #@! TD*
D10*
G04 #@! TO.C,C55*
G36*
X141418430Y-101503002D02*
X141442699Y-101506602D01*
X141466497Y-101512563D01*
X141489597Y-101520828D01*
X141511775Y-101531318D01*
X141532819Y-101543931D01*
X141552524Y-101558545D01*
X141570703Y-101575021D01*
X141587179Y-101593200D01*
X141601793Y-101612905D01*
X141614406Y-101633949D01*
X141624896Y-101656127D01*
X141633161Y-101679227D01*
X141639122Y-101703025D01*
X141642722Y-101727294D01*
X141643926Y-101751798D01*
X141643926Y-103001798D01*
X141642722Y-103026302D01*
X141639122Y-103050571D01*
X141633161Y-103074369D01*
X141624896Y-103097469D01*
X141614406Y-103119647D01*
X141601793Y-103140691D01*
X141587179Y-103160396D01*
X141570703Y-103178575D01*
X141552524Y-103195051D01*
X141532819Y-103209665D01*
X141511775Y-103222278D01*
X141489597Y-103232768D01*
X141466497Y-103241033D01*
X141442699Y-103246994D01*
X141418430Y-103250594D01*
X141393926Y-103251798D01*
X140643926Y-103251798D01*
X140619422Y-103250594D01*
X140595153Y-103246994D01*
X140571355Y-103241033D01*
X140548255Y-103232768D01*
X140526077Y-103222278D01*
X140505033Y-103209665D01*
X140485328Y-103195051D01*
X140467149Y-103178575D01*
X140450673Y-103160396D01*
X140436059Y-103140691D01*
X140423446Y-103119647D01*
X140412956Y-103097469D01*
X140404691Y-103074369D01*
X140398730Y-103050571D01*
X140395130Y-103026302D01*
X140393926Y-103001798D01*
X140393926Y-101751798D01*
X140395130Y-101727294D01*
X140398730Y-101703025D01*
X140404691Y-101679227D01*
X140412956Y-101656127D01*
X140423446Y-101633949D01*
X140436059Y-101612905D01*
X140450673Y-101593200D01*
X140467149Y-101575021D01*
X140485328Y-101558545D01*
X140505033Y-101543931D01*
X140526077Y-101531318D01*
X140548255Y-101520828D01*
X140571355Y-101512563D01*
X140595153Y-101506602D01*
X140619422Y-101503002D01*
X140643926Y-101501798D01*
X141393926Y-101501798D01*
X141418430Y-101503002D01*
X141418430Y-101503002D01*
G37*
D14*
X141018926Y-102376798D03*
D10*
G36*
X144218430Y-101503002D02*
X144242699Y-101506602D01*
X144266497Y-101512563D01*
X144289597Y-101520828D01*
X144311775Y-101531318D01*
X144332819Y-101543931D01*
X144352524Y-101558545D01*
X144370703Y-101575021D01*
X144387179Y-101593200D01*
X144401793Y-101612905D01*
X144414406Y-101633949D01*
X144424896Y-101656127D01*
X144433161Y-101679227D01*
X144439122Y-101703025D01*
X144442722Y-101727294D01*
X144443926Y-101751798D01*
X144443926Y-103001798D01*
X144442722Y-103026302D01*
X144439122Y-103050571D01*
X144433161Y-103074369D01*
X144424896Y-103097469D01*
X144414406Y-103119647D01*
X144401793Y-103140691D01*
X144387179Y-103160396D01*
X144370703Y-103178575D01*
X144352524Y-103195051D01*
X144332819Y-103209665D01*
X144311775Y-103222278D01*
X144289597Y-103232768D01*
X144266497Y-103241033D01*
X144242699Y-103246994D01*
X144218430Y-103250594D01*
X144193926Y-103251798D01*
X143443926Y-103251798D01*
X143419422Y-103250594D01*
X143395153Y-103246994D01*
X143371355Y-103241033D01*
X143348255Y-103232768D01*
X143326077Y-103222278D01*
X143305033Y-103209665D01*
X143285328Y-103195051D01*
X143267149Y-103178575D01*
X143250673Y-103160396D01*
X143236059Y-103140691D01*
X143223446Y-103119647D01*
X143212956Y-103097469D01*
X143204691Y-103074369D01*
X143198730Y-103050571D01*
X143195130Y-103026302D01*
X143193926Y-103001798D01*
X143193926Y-101751798D01*
X143195130Y-101727294D01*
X143198730Y-101703025D01*
X143204691Y-101679227D01*
X143212956Y-101656127D01*
X143223446Y-101633949D01*
X143236059Y-101612905D01*
X143250673Y-101593200D01*
X143267149Y-101575021D01*
X143285328Y-101558545D01*
X143305033Y-101543931D01*
X143326077Y-101531318D01*
X143348255Y-101520828D01*
X143371355Y-101512563D01*
X143395153Y-101506602D01*
X143419422Y-101503002D01*
X143443926Y-101501798D01*
X144193926Y-101501798D01*
X144218430Y-101503002D01*
X144218430Y-101503002D01*
G37*
D14*
X143818926Y-102376798D03*
G04 #@! TD*
D10*
G04 #@! TO.C,C54*
G36*
X144218430Y-98836002D02*
X144242699Y-98839602D01*
X144266497Y-98845563D01*
X144289597Y-98853828D01*
X144311775Y-98864318D01*
X144332819Y-98876931D01*
X144352524Y-98891545D01*
X144370703Y-98908021D01*
X144387179Y-98926200D01*
X144401793Y-98945905D01*
X144414406Y-98966949D01*
X144424896Y-98989127D01*
X144433161Y-99012227D01*
X144439122Y-99036025D01*
X144442722Y-99060294D01*
X144443926Y-99084798D01*
X144443926Y-100334798D01*
X144442722Y-100359302D01*
X144439122Y-100383571D01*
X144433161Y-100407369D01*
X144424896Y-100430469D01*
X144414406Y-100452647D01*
X144401793Y-100473691D01*
X144387179Y-100493396D01*
X144370703Y-100511575D01*
X144352524Y-100528051D01*
X144332819Y-100542665D01*
X144311775Y-100555278D01*
X144289597Y-100565768D01*
X144266497Y-100574033D01*
X144242699Y-100579994D01*
X144218430Y-100583594D01*
X144193926Y-100584798D01*
X143443926Y-100584798D01*
X143419422Y-100583594D01*
X143395153Y-100579994D01*
X143371355Y-100574033D01*
X143348255Y-100565768D01*
X143326077Y-100555278D01*
X143305033Y-100542665D01*
X143285328Y-100528051D01*
X143267149Y-100511575D01*
X143250673Y-100493396D01*
X143236059Y-100473691D01*
X143223446Y-100452647D01*
X143212956Y-100430469D01*
X143204691Y-100407369D01*
X143198730Y-100383571D01*
X143195130Y-100359302D01*
X143193926Y-100334798D01*
X143193926Y-99084798D01*
X143195130Y-99060294D01*
X143198730Y-99036025D01*
X143204691Y-99012227D01*
X143212956Y-98989127D01*
X143223446Y-98966949D01*
X143236059Y-98945905D01*
X143250673Y-98926200D01*
X143267149Y-98908021D01*
X143285328Y-98891545D01*
X143305033Y-98876931D01*
X143326077Y-98864318D01*
X143348255Y-98853828D01*
X143371355Y-98845563D01*
X143395153Y-98839602D01*
X143419422Y-98836002D01*
X143443926Y-98834798D01*
X144193926Y-98834798D01*
X144218430Y-98836002D01*
X144218430Y-98836002D01*
G37*
D14*
X143818926Y-99709798D03*
D10*
G36*
X141418430Y-98836002D02*
X141442699Y-98839602D01*
X141466497Y-98845563D01*
X141489597Y-98853828D01*
X141511775Y-98864318D01*
X141532819Y-98876931D01*
X141552524Y-98891545D01*
X141570703Y-98908021D01*
X141587179Y-98926200D01*
X141601793Y-98945905D01*
X141614406Y-98966949D01*
X141624896Y-98989127D01*
X141633161Y-99012227D01*
X141639122Y-99036025D01*
X141642722Y-99060294D01*
X141643926Y-99084798D01*
X141643926Y-100334798D01*
X141642722Y-100359302D01*
X141639122Y-100383571D01*
X141633161Y-100407369D01*
X141624896Y-100430469D01*
X141614406Y-100452647D01*
X141601793Y-100473691D01*
X141587179Y-100493396D01*
X141570703Y-100511575D01*
X141552524Y-100528051D01*
X141532819Y-100542665D01*
X141511775Y-100555278D01*
X141489597Y-100565768D01*
X141466497Y-100574033D01*
X141442699Y-100579994D01*
X141418430Y-100583594D01*
X141393926Y-100584798D01*
X140643926Y-100584798D01*
X140619422Y-100583594D01*
X140595153Y-100579994D01*
X140571355Y-100574033D01*
X140548255Y-100565768D01*
X140526077Y-100555278D01*
X140505033Y-100542665D01*
X140485328Y-100528051D01*
X140467149Y-100511575D01*
X140450673Y-100493396D01*
X140436059Y-100473691D01*
X140423446Y-100452647D01*
X140412956Y-100430469D01*
X140404691Y-100407369D01*
X140398730Y-100383571D01*
X140395130Y-100359302D01*
X140393926Y-100334798D01*
X140393926Y-99084798D01*
X140395130Y-99060294D01*
X140398730Y-99036025D01*
X140404691Y-99012227D01*
X140412956Y-98989127D01*
X140423446Y-98966949D01*
X140436059Y-98945905D01*
X140450673Y-98926200D01*
X140467149Y-98908021D01*
X140485328Y-98891545D01*
X140505033Y-98876931D01*
X140526077Y-98864318D01*
X140548255Y-98853828D01*
X140571355Y-98845563D01*
X140595153Y-98839602D01*
X140619422Y-98836002D01*
X140643926Y-98834798D01*
X141393926Y-98834798D01*
X141418430Y-98836002D01*
X141418430Y-98836002D01*
G37*
D14*
X141018926Y-99709798D03*
G04 #@! TD*
D10*
G04 #@! TO.C,C56*
G36*
X144218430Y-104170002D02*
X144242699Y-104173602D01*
X144266497Y-104179563D01*
X144289597Y-104187828D01*
X144311775Y-104198318D01*
X144332819Y-104210931D01*
X144352524Y-104225545D01*
X144370703Y-104242021D01*
X144387179Y-104260200D01*
X144401793Y-104279905D01*
X144414406Y-104300949D01*
X144424896Y-104323127D01*
X144433161Y-104346227D01*
X144439122Y-104370025D01*
X144442722Y-104394294D01*
X144443926Y-104418798D01*
X144443926Y-105668798D01*
X144442722Y-105693302D01*
X144439122Y-105717571D01*
X144433161Y-105741369D01*
X144424896Y-105764469D01*
X144414406Y-105786647D01*
X144401793Y-105807691D01*
X144387179Y-105827396D01*
X144370703Y-105845575D01*
X144352524Y-105862051D01*
X144332819Y-105876665D01*
X144311775Y-105889278D01*
X144289597Y-105899768D01*
X144266497Y-105908033D01*
X144242699Y-105913994D01*
X144218430Y-105917594D01*
X144193926Y-105918798D01*
X143443926Y-105918798D01*
X143419422Y-105917594D01*
X143395153Y-105913994D01*
X143371355Y-105908033D01*
X143348255Y-105899768D01*
X143326077Y-105889278D01*
X143305033Y-105876665D01*
X143285328Y-105862051D01*
X143267149Y-105845575D01*
X143250673Y-105827396D01*
X143236059Y-105807691D01*
X143223446Y-105786647D01*
X143212956Y-105764469D01*
X143204691Y-105741369D01*
X143198730Y-105717571D01*
X143195130Y-105693302D01*
X143193926Y-105668798D01*
X143193926Y-104418798D01*
X143195130Y-104394294D01*
X143198730Y-104370025D01*
X143204691Y-104346227D01*
X143212956Y-104323127D01*
X143223446Y-104300949D01*
X143236059Y-104279905D01*
X143250673Y-104260200D01*
X143267149Y-104242021D01*
X143285328Y-104225545D01*
X143305033Y-104210931D01*
X143326077Y-104198318D01*
X143348255Y-104187828D01*
X143371355Y-104179563D01*
X143395153Y-104173602D01*
X143419422Y-104170002D01*
X143443926Y-104168798D01*
X144193926Y-104168798D01*
X144218430Y-104170002D01*
X144218430Y-104170002D01*
G37*
D14*
X143818926Y-105043798D03*
D10*
G36*
X141418430Y-104170002D02*
X141442699Y-104173602D01*
X141466497Y-104179563D01*
X141489597Y-104187828D01*
X141511775Y-104198318D01*
X141532819Y-104210931D01*
X141552524Y-104225545D01*
X141570703Y-104242021D01*
X141587179Y-104260200D01*
X141601793Y-104279905D01*
X141614406Y-104300949D01*
X141624896Y-104323127D01*
X141633161Y-104346227D01*
X141639122Y-104370025D01*
X141642722Y-104394294D01*
X141643926Y-104418798D01*
X141643926Y-105668798D01*
X141642722Y-105693302D01*
X141639122Y-105717571D01*
X141633161Y-105741369D01*
X141624896Y-105764469D01*
X141614406Y-105786647D01*
X141601793Y-105807691D01*
X141587179Y-105827396D01*
X141570703Y-105845575D01*
X141552524Y-105862051D01*
X141532819Y-105876665D01*
X141511775Y-105889278D01*
X141489597Y-105899768D01*
X141466497Y-105908033D01*
X141442699Y-105913994D01*
X141418430Y-105917594D01*
X141393926Y-105918798D01*
X140643926Y-105918798D01*
X140619422Y-105917594D01*
X140595153Y-105913994D01*
X140571355Y-105908033D01*
X140548255Y-105899768D01*
X140526077Y-105889278D01*
X140505033Y-105876665D01*
X140485328Y-105862051D01*
X140467149Y-105845575D01*
X140450673Y-105827396D01*
X140436059Y-105807691D01*
X140423446Y-105786647D01*
X140412956Y-105764469D01*
X140404691Y-105741369D01*
X140398730Y-105717571D01*
X140395130Y-105693302D01*
X140393926Y-105668798D01*
X140393926Y-104418798D01*
X140395130Y-104394294D01*
X140398730Y-104370025D01*
X140404691Y-104346227D01*
X140412956Y-104323127D01*
X140423446Y-104300949D01*
X140436059Y-104279905D01*
X140450673Y-104260200D01*
X140467149Y-104242021D01*
X140485328Y-104225545D01*
X140505033Y-104210931D01*
X140526077Y-104198318D01*
X140548255Y-104187828D01*
X140571355Y-104179563D01*
X140595153Y-104173602D01*
X140619422Y-104170002D01*
X140643926Y-104168798D01*
X141393926Y-104168798D01*
X141418430Y-104170002D01*
X141418430Y-104170002D01*
G37*
D14*
X141018926Y-105043798D03*
G04 #@! TD*
D10*
G04 #@! TO.C,C60*
G36*
X140095504Y-91829204D02*
X140119773Y-91832804D01*
X140143571Y-91838765D01*
X140166671Y-91847030D01*
X140188849Y-91857520D01*
X140209893Y-91870133D01*
X140229598Y-91884747D01*
X140247777Y-91901223D01*
X140264253Y-91919402D01*
X140278867Y-91939107D01*
X140291480Y-91960151D01*
X140301970Y-91982329D01*
X140310235Y-92005429D01*
X140316196Y-92029227D01*
X140319796Y-92053496D01*
X140321000Y-92078000D01*
X140321000Y-92828000D01*
X140319796Y-92852504D01*
X140316196Y-92876773D01*
X140310235Y-92900571D01*
X140301970Y-92923671D01*
X140291480Y-92945849D01*
X140278867Y-92966893D01*
X140264253Y-92986598D01*
X140247777Y-93004777D01*
X140229598Y-93021253D01*
X140209893Y-93035867D01*
X140188849Y-93048480D01*
X140166671Y-93058970D01*
X140143571Y-93067235D01*
X140119773Y-93073196D01*
X140095504Y-93076796D01*
X140071000Y-93078000D01*
X138821000Y-93078000D01*
X138796496Y-93076796D01*
X138772227Y-93073196D01*
X138748429Y-93067235D01*
X138725329Y-93058970D01*
X138703151Y-93048480D01*
X138682107Y-93035867D01*
X138662402Y-93021253D01*
X138644223Y-93004777D01*
X138627747Y-92986598D01*
X138613133Y-92966893D01*
X138600520Y-92945849D01*
X138590030Y-92923671D01*
X138581765Y-92900571D01*
X138575804Y-92876773D01*
X138572204Y-92852504D01*
X138571000Y-92828000D01*
X138571000Y-92078000D01*
X138572204Y-92053496D01*
X138575804Y-92029227D01*
X138581765Y-92005429D01*
X138590030Y-91982329D01*
X138600520Y-91960151D01*
X138613133Y-91939107D01*
X138627747Y-91919402D01*
X138644223Y-91901223D01*
X138662402Y-91884747D01*
X138682107Y-91870133D01*
X138703151Y-91857520D01*
X138725329Y-91847030D01*
X138748429Y-91838765D01*
X138772227Y-91832804D01*
X138796496Y-91829204D01*
X138821000Y-91828000D01*
X140071000Y-91828000D01*
X140095504Y-91829204D01*
X140095504Y-91829204D01*
G37*
D14*
X139446000Y-92453000D03*
D10*
G36*
X140095504Y-94629204D02*
X140119773Y-94632804D01*
X140143571Y-94638765D01*
X140166671Y-94647030D01*
X140188849Y-94657520D01*
X140209893Y-94670133D01*
X140229598Y-94684747D01*
X140247777Y-94701223D01*
X140264253Y-94719402D01*
X140278867Y-94739107D01*
X140291480Y-94760151D01*
X140301970Y-94782329D01*
X140310235Y-94805429D01*
X140316196Y-94829227D01*
X140319796Y-94853496D01*
X140321000Y-94878000D01*
X140321000Y-95628000D01*
X140319796Y-95652504D01*
X140316196Y-95676773D01*
X140310235Y-95700571D01*
X140301970Y-95723671D01*
X140291480Y-95745849D01*
X140278867Y-95766893D01*
X140264253Y-95786598D01*
X140247777Y-95804777D01*
X140229598Y-95821253D01*
X140209893Y-95835867D01*
X140188849Y-95848480D01*
X140166671Y-95858970D01*
X140143571Y-95867235D01*
X140119773Y-95873196D01*
X140095504Y-95876796D01*
X140071000Y-95878000D01*
X138821000Y-95878000D01*
X138796496Y-95876796D01*
X138772227Y-95873196D01*
X138748429Y-95867235D01*
X138725329Y-95858970D01*
X138703151Y-95848480D01*
X138682107Y-95835867D01*
X138662402Y-95821253D01*
X138644223Y-95804777D01*
X138627747Y-95786598D01*
X138613133Y-95766893D01*
X138600520Y-95745849D01*
X138590030Y-95723671D01*
X138581765Y-95700571D01*
X138575804Y-95676773D01*
X138572204Y-95652504D01*
X138571000Y-95628000D01*
X138571000Y-94878000D01*
X138572204Y-94853496D01*
X138575804Y-94829227D01*
X138581765Y-94805429D01*
X138590030Y-94782329D01*
X138600520Y-94760151D01*
X138613133Y-94739107D01*
X138627747Y-94719402D01*
X138644223Y-94701223D01*
X138662402Y-94684747D01*
X138682107Y-94670133D01*
X138703151Y-94657520D01*
X138725329Y-94647030D01*
X138748429Y-94638765D01*
X138772227Y-94632804D01*
X138796496Y-94629204D01*
X138821000Y-94628000D01*
X140071000Y-94628000D01*
X140095504Y-94629204D01*
X140095504Y-94629204D01*
G37*
D14*
X139446000Y-95253000D03*
G04 #@! TD*
D15*
G04 #@! TO.C,U10*
X125730000Y-138430000D03*
X125730000Y-135890000D03*
X125730000Y-133350000D03*
X152400000Y-142240000D03*
X152400000Y-139700000D03*
X152400000Y-137160000D03*
X152400000Y-134620000D03*
X152400000Y-132080000D03*
G04 #@! TD*
M02*
