M48
;DRILL file {KiCad (5.0.0)} date 05/21/19 21:20:12
;FORMAT={-:-/ absolute / metric / decimal}
FMAT,2
METRIC,TZ
T1C0.400
T2C0.762
T3C0.800
T4C0.950
T5C1.000
T6C2.000
T7C3.200
%
G90
G05
M71
T1
X123.323Y-105.667
X123.698Y-104.648
X124.714Y-104.648
X125.666Y-137.414
X125.73Y-104.648
X125.73Y-107.188
X125.73Y-108.204
X125.73Y-109.22
X126.568Y-145.059
X126.619Y-110.668
X126.619Y-134.556
X126.619Y-137.414
X126.746Y-104.648
X126.746Y-107.188
X126.746Y-108.204
X126.746Y-109.22
X127.483Y-147.955
X127.762Y-104.648
X128.27Y-145.288
X128.27Y-146.177
X128.34Y-119.46
X129.159Y-87.63
X129.159Y-145.288
X129.54Y-83.882
X130.129Y-120.905
X130.556Y-81.788
X130.556Y-82.931
X130.81Y-89.027
X131.45Y-108.349
X131.826Y-119.253
X131.826Y-128.016
X131.919Y-121.76
X131.953Y-124.841
X132.061Y-137.283
X132.14Y-89.498
X132.842Y-91.44
X132.842Y-93.98
X133.1Y-119.376
X133.127Y-143.14
X133.223Y-109.093
X133.223Y-117.816
X133.773Y-129.042
X133.858Y-90.932
X133.858Y-93.98
X134.239Y-86.095
X134.239Y-88.773
X134.366Y-102.616
X134.493Y-109.093
X134.62Y-118.451
X134.874Y-91.186
X134.874Y-92.202
X134.874Y-93.218
X135.128Y-88.773
X135.4Y-145.56
X135.497Y-102.362
X135.509Y-151.765
X135.89Y-90.932
X135.89Y-147.066
X135.89Y-148.59
X136.017Y-88.773
X136.017Y-133.096
X136.02Y-131.962
X136.447Y-102.348
X136.906Y-90.932
X136.906Y-133.821
X137.033Y-139.446
X137.033Y-142.24
X137.381Y-102.522
X137.427Y-143.159
X137.439Y-110.312
X137.541Y-118.237
X137.573Y-120.364
X137.922Y-90.932
X138.43Y-151.765
X138.498Y-140.521
X138.557Y-118.451
X138.557Y-121.285
X138.557Y-128.651
X138.684Y-101.854
X138.811Y-147.32
X138.938Y-90.932
X139.319Y-132.334
X139.349Y-133.447
X139.573Y-121.793
X139.578Y-128.646
X139.827Y-107.569
X139.954Y-89.535
X139.954Y-90.932
X140.437Y-118.669
X140.734Y-120.372
X140.843Y-141.986
X140.843Y-142.875
X140.97Y-90.932
X141.351Y-109.855
X141.41Y-110.922
X141.541Y-132.651
X141.541Y-133.54
X141.605Y-147.32
X141.605Y-149.86
X141.605Y-151.765
X141.656Y-120.142
X141.732Y-141.986
X141.732Y-142.875
X141.986Y-90.932
X142.113Y-139.954
X142.43Y-132.651
X142.43Y-133.54
X142.494Y-128.778
X143.002Y-90.932
X143.51Y-128.778
X144.018Y-90.932
X144.526Y-128.778
X145.034Y-90.932
X146.05Y-90.932
X146.558Y-135.89
X146.812Y-130.429
X146.812Y-131.318
X147.002Y-128.207
X147.066Y-90.932
X147.447Y-132.715
X147.464Y-147.185
X147.701Y-130.429
X147.701Y-131.318
X147.828Y-124.46
X147.828Y-129.032
X147.828Y-133.604
X148.082Y-90.932
X148.717Y-133.604
X148.839Y-139.324
X149.034Y-134.683
X150.114Y-143.637
X150.189Y-129.453
X150.241Y-128.27
X150.241Y-137.35
X150.748Y-135.89
X151.003Y-133.731
X151.003Y-134.747
X152.59Y-147.066
X154.178Y-133.171
X155.194Y-105.918
X155.259Y-143.064
X155.956Y-137.287
X157.477Y-112.779
X157.785Y-148.946
X157.908Y-143.666
X157.926Y-141.159
X158.242Y-118.796
X160.274Y-108.458
X160.655Y-141.986
X164.846Y-105.156
X166.751Y-132.207
X167.513Y-133.096
X167.64Y-138.557
X168.506Y-135.532
X168.529Y-132.969
X174.879Y-136.525
X190.5Y-136.525
X193.548Y-129.603
X194.564Y-105.664
X195.573Y-137.153
X195.794Y-105.918
X196.596Y-103.505
X196.85Y-124.46
X197.51Y-133.731
X197.866Y-140.843
X198.349Y-136.474
X198.552Y-133.731
X198.577Y-128.041
X198.628Y-124.46
X199.517Y-110.568
X199.542Y-120.015
X200.152Y-133.731
X200.406Y-124.46
X201.295Y-122.428
X201.295Y-123.952
X201.524Y-133.731
X201.803Y-106.299
X201.803Y-109.474
X202.184Y-101.346
X202.819Y-106.299
X202.819Y-109.474
X202.875Y-127.893
X203.073Y-101.346
X203.708Y-105.41
X203.83Y-127.893
X203.835Y-109.474
X204.438Y-93.926
X204.724Y-92.964
X204.784Y-127.892
X204.798Y-110.096
X205.738Y-127.891
X206.121Y-106.299
X206.731Y-127.93
X206.883Y-132.639
X207.772Y-113.792
X207.772Y-114.808
X207.772Y-115.824
X207.772Y-116.84
X207.772Y-125.857
X207.772Y-126.873
X207.772Y-127.889
X208.788Y-113.792
X208.788Y-114.808
X208.788Y-115.824
X209.804Y-113.792
X209.804Y-114.808
X209.804Y-115.824
T2
X146.27Y-79.47
X146.27Y-82.01
X146.27Y-147.73
X146.27Y-150.27
X148.81Y-79.47
X148.81Y-82.01
X148.81Y-147.73
X148.81Y-150.27
X151.35Y-79.47
X151.35Y-82.01
X151.35Y-147.73
X151.35Y-150.27
X153.89Y-79.47
X153.89Y-82.01
X153.89Y-147.73
X153.89Y-150.27
X156.43Y-79.47
X156.43Y-82.01
X156.43Y-147.73
X156.43Y-150.27
X158.97Y-79.47
X158.97Y-82.01
X158.97Y-147.73
X158.97Y-150.27
X161.51Y-79.47
X161.51Y-82.01
X161.51Y-147.73
X161.51Y-150.27
X164.05Y-79.47
X164.05Y-82.01
X164.05Y-147.73
X164.05Y-150.27
X166.59Y-79.47
X166.59Y-82.01
X166.59Y-147.73
X166.59Y-150.27
X169.13Y-79.47
X169.13Y-82.01
X169.13Y-147.73
X169.13Y-150.27
X171.67Y-79.47
X171.67Y-82.01
X171.67Y-147.73
X171.67Y-150.27
X174.21Y-79.47
X174.21Y-82.01
X174.21Y-147.73
X174.21Y-150.27
X176.75Y-79.47
X176.75Y-82.01
X176.75Y-147.73
X176.75Y-150.27
X179.29Y-79.47
X179.29Y-82.01
X179.29Y-147.73
X179.29Y-150.27
X181.83Y-79.47
X181.83Y-82.01
X181.83Y-147.73
X181.83Y-150.27
X184.37Y-79.47
X184.37Y-82.01
X184.37Y-147.73
X184.37Y-150.27
X186.91Y-79.47
X186.91Y-82.01
X186.91Y-147.73
X186.91Y-150.27
X189.45Y-79.47
X189.45Y-82.01
X189.45Y-147.73
X189.45Y-150.27
X191.99Y-79.47
X191.99Y-82.01
X191.99Y-147.73
X191.99Y-150.27
X194.53Y-79.47
X194.53Y-82.01
X194.53Y-147.73
X194.53Y-150.27
X197.07Y-79.47
X197.07Y-82.01
X197.07Y-147.73
X197.07Y-150.27
X199.61Y-79.47
X199.61Y-82.01
X199.61Y-147.73
X199.61Y-150.27
X202.15Y-79.47
X202.15Y-82.01
X202.15Y-147.73
X202.15Y-150.27
X204.69Y-79.47
X204.69Y-82.01
X204.69Y-147.73
X204.69Y-150.27
X207.23Y-79.47
X207.23Y-82.01
X207.23Y-147.73
X207.23Y-150.27
T3
X152.654Y-98.552
X152.654Y-100.33
X152.654Y-102.108
X154.432Y-98.552
X154.432Y-100.33
X154.432Y-102.108
X156.21Y-98.552
X156.21Y-100.33
X156.21Y-102.108
X157.988Y-98.552
X157.988Y-100.33
X157.988Y-102.108
T4
X171.831Y-138.176
X171.831Y-140.676
X171.831Y-143.176
X178.689Y-138.176
X178.689Y-140.676
X178.689Y-143.176
X190.246Y-86.574
X190.246Y-89.074
X190.246Y-91.574
X197.231Y-86.614
X197.231Y-89.114
X197.231Y-91.614
X185.547Y-138.176
X185.547Y-140.676
X185.547Y-143.176
X169.672Y-86.574
X169.672Y-89.074
X169.672Y-91.574
X192.405Y-138.176
X192.405Y-140.676
X192.405Y-143.176
X164.973Y-138.176
X164.973Y-140.676
X164.973Y-143.176
X183.388Y-86.574
X183.388Y-89.074
X183.388Y-91.574
X176.53Y-86.574
X176.53Y-89.074
X176.53Y-91.574
T5
X133.731Y-79.502
X133.731Y-82.002
X141.351Y-79.502
X141.351Y-82.002
T6
X124.46Y-97.79
X124.46Y-90.17
T7
X125.Y-79.
X125.Y-151.
X219.Y-79.
X219.Y-151.
T0
M30
