G04 #@! TF.GenerationSoftware,KiCad,Pcbnew,(5.0.0)*
G04 #@! TF.CreationDate,2019-05-21T21:20:09+02:00*
G04 #@! TF.ProjectId,Nightmare V2 pcb V6,4E696768746D61726520563220706362,rev?*
G04 #@! TF.SameCoordinates,Original*
G04 #@! TF.FileFunction,Legend,Bot*
G04 #@! TF.FilePolarity,Positive*
%FSLAX46Y46*%
G04 Gerber Fmt 4.6, Leading zero omitted, Abs format (unit mm)*
G04 Created by KiCad (PCBNEW (5.0.0)) date 05/21/19 21:20:09*
%MOMM*%
%LPD*%
G01*
G04 APERTURE LIST*
%ADD10C,0.120000*%
%ADD11C,0.150000*%
G04 APERTURE END LIST*
D10*
G04 #@! TO.C,R12*
X159674779Y-106678000D02*
X159349221Y-106678000D01*
X159674779Y-107698000D02*
X159349221Y-107698000D01*
G04 #@! TO.C,R8*
X156970000Y-110327221D02*
X156970000Y-110652779D01*
X157990000Y-110327221D02*
X157990000Y-110652779D01*
G04 #@! TO.C,Q2*
X161854000Y-111504000D02*
X160924000Y-111504000D01*
X158694000Y-111504000D02*
X159624000Y-111504000D01*
X158694000Y-111504000D02*
X158694000Y-109344000D01*
X161854000Y-111504000D02*
X161854000Y-110044000D01*
G04 #@! TO.C,D3*
X143291000Y-80326000D02*
X143291000Y-82176000D01*
X144491000Y-80326000D02*
X144491000Y-82176000D01*
X144491000Y-82176000D02*
X143291000Y-82176000D01*
G04 #@! TO.C,D2*
X136871000Y-82176000D02*
X135671000Y-82176000D01*
X136871000Y-80326000D02*
X136871000Y-82176000D01*
X135671000Y-80326000D02*
X135671000Y-82176000D01*
G04 #@! TO.C,C1*
X132044221Y-84630800D02*
X132369779Y-84630800D01*
X132044221Y-85650800D02*
X132369779Y-85650800D01*
G04 #@! TO.C,C67*
X157736000Y-133187221D02*
X157736000Y-133512779D01*
X156716000Y-133187221D02*
X156716000Y-133512779D01*
G04 #@! TO.C,C66*
X154684000Y-133187221D02*
X154684000Y-133512779D01*
X155704000Y-133187221D02*
X155704000Y-133512779D01*
G04 #@! TO.C,C64*
X199227221Y-140718000D02*
X199552779Y-140718000D01*
X199227221Y-139698000D02*
X199552779Y-139698000D01*
G04 #@! TO.C,C65*
X199227221Y-137920000D02*
X199552779Y-137920000D01*
X199227221Y-138940000D02*
X199552779Y-138940000D01*
G04 #@! TO.C,C62*
X145944000Y-93250936D02*
X145944000Y-94455064D01*
X144124000Y-93250936D02*
X144124000Y-94455064D01*
G04 #@! TO.C,C63*
X146918000Y-93250936D02*
X146918000Y-94455064D01*
X148738000Y-93250936D02*
X148738000Y-94455064D01*
G04 #@! TO.C,C59*
X137562000Y-93250936D02*
X137562000Y-94455064D01*
X135742000Y-93250936D02*
X135742000Y-94455064D01*
G04 #@! TO.C,C58*
X152802000Y-88867064D02*
X152802000Y-87662936D01*
X150982000Y-88867064D02*
X150982000Y-87662936D01*
G04 #@! TO.C,C61*
X143150000Y-93250936D02*
X143150000Y-94455064D01*
X141330000Y-93250936D02*
X141330000Y-94455064D01*
G04 #@! TO.C,C57*
X143020990Y-106800798D02*
X141816862Y-106800798D01*
X143020990Y-108620798D02*
X141816862Y-108620798D01*
G04 #@! TO.C,C55*
X143020990Y-103286798D02*
X141816862Y-103286798D01*
X143020990Y-101466798D02*
X141816862Y-101466798D01*
G04 #@! TO.C,C54*
X143020990Y-98799798D02*
X141816862Y-98799798D01*
X143020990Y-100619798D02*
X141816862Y-100619798D01*
G04 #@! TO.C,C56*
X143020990Y-104133798D02*
X141816862Y-104133798D01*
X143020990Y-105953798D02*
X141816862Y-105953798D01*
G04 #@! TO.C,C60*
X138536000Y-93250936D02*
X138536000Y-94455064D01*
X140356000Y-93250936D02*
X140356000Y-94455064D01*
D11*
G04 #@! TO.C,U10*
X125730000Y-143510000D02*
X125730000Y-139700000D01*
X152400000Y-143510000D02*
X125730000Y-143510000D01*
X125730000Y-130810000D02*
X125730000Y-132080000D01*
X152400000Y-130810000D02*
X125730000Y-130810000D01*
G04 #@! TD*
G04 #@! TO.C,R12*
X160154857Y-106210380D02*
X160488190Y-105734190D01*
X160726285Y-106210380D02*
X160726285Y-105210380D01*
X160345333Y-105210380D01*
X160250095Y-105258000D01*
X160202476Y-105305619D01*
X160154857Y-105400857D01*
X160154857Y-105543714D01*
X160202476Y-105638952D01*
X160250095Y-105686571D01*
X160345333Y-105734190D01*
X160726285Y-105734190D01*
X159202476Y-106210380D02*
X159773904Y-106210380D01*
X159488190Y-106210380D02*
X159488190Y-105210380D01*
X159583428Y-105353238D01*
X159678666Y-105448476D01*
X159773904Y-105496095D01*
X158821523Y-105305619D02*
X158773904Y-105258000D01*
X158678666Y-105210380D01*
X158440571Y-105210380D01*
X158345333Y-105258000D01*
X158297714Y-105305619D01*
X158250095Y-105400857D01*
X158250095Y-105496095D01*
X158297714Y-105638952D01*
X158869142Y-106210380D01*
X158250095Y-106210380D01*
G04 #@! TO.C,R8*
X156502380Y-110323333D02*
X156026190Y-109990000D01*
X156502380Y-109751904D02*
X155502380Y-109751904D01*
X155502380Y-110132857D01*
X155550000Y-110228095D01*
X155597619Y-110275714D01*
X155692857Y-110323333D01*
X155835714Y-110323333D01*
X155930952Y-110275714D01*
X155978571Y-110228095D01*
X156026190Y-110132857D01*
X156026190Y-109751904D01*
X155930952Y-110894761D02*
X155883333Y-110799523D01*
X155835714Y-110751904D01*
X155740476Y-110704285D01*
X155692857Y-110704285D01*
X155597619Y-110751904D01*
X155550000Y-110799523D01*
X155502380Y-110894761D01*
X155502380Y-111085238D01*
X155550000Y-111180476D01*
X155597619Y-111228095D01*
X155692857Y-111275714D01*
X155740476Y-111275714D01*
X155835714Y-111228095D01*
X155883333Y-111180476D01*
X155930952Y-111085238D01*
X155930952Y-110894761D01*
X155978571Y-110799523D01*
X156026190Y-110751904D01*
X156121428Y-110704285D01*
X156311904Y-110704285D01*
X156407142Y-110751904D01*
X156454761Y-110799523D01*
X156502380Y-110894761D01*
X156502380Y-111085238D01*
X156454761Y-111180476D01*
X156407142Y-111228095D01*
X156311904Y-111275714D01*
X156121428Y-111275714D01*
X156026190Y-111228095D01*
X155978571Y-111180476D01*
X155930952Y-111085238D01*
G04 #@! TO.C,Q2*
X163163238Y-109767619D02*
X163258476Y-109720000D01*
X163353714Y-109624761D01*
X163496571Y-109481904D01*
X163591809Y-109434285D01*
X163687047Y-109434285D01*
X163639428Y-109672380D02*
X163734666Y-109624761D01*
X163829904Y-109529523D01*
X163877523Y-109339047D01*
X163877523Y-109005714D01*
X163829904Y-108815238D01*
X163734666Y-108720000D01*
X163639428Y-108672380D01*
X163448952Y-108672380D01*
X163353714Y-108720000D01*
X163258476Y-108815238D01*
X163210857Y-109005714D01*
X163210857Y-109339047D01*
X163258476Y-109529523D01*
X163353714Y-109624761D01*
X163448952Y-109672380D01*
X163639428Y-109672380D01*
X162829904Y-108767619D02*
X162782285Y-108720000D01*
X162687047Y-108672380D01*
X162448952Y-108672380D01*
X162353714Y-108720000D01*
X162306095Y-108767619D01*
X162258476Y-108862857D01*
X162258476Y-108958095D01*
X162306095Y-109100952D01*
X162877523Y-109672380D01*
X162258476Y-109672380D01*
G04 #@! TO.C,D3*
X145643380Y-80287904D02*
X144643380Y-80287904D01*
X144643380Y-80526000D01*
X144691000Y-80668857D01*
X144786238Y-80764095D01*
X144881476Y-80811714D01*
X145071952Y-80859333D01*
X145214809Y-80859333D01*
X145405285Y-80811714D01*
X145500523Y-80764095D01*
X145595761Y-80668857D01*
X145643380Y-80526000D01*
X145643380Y-80287904D01*
X144643380Y-81192666D02*
X144643380Y-81811714D01*
X145024333Y-81478380D01*
X145024333Y-81621238D01*
X145071952Y-81716476D01*
X145119571Y-81764095D01*
X145214809Y-81811714D01*
X145452904Y-81811714D01*
X145548142Y-81764095D01*
X145595761Y-81716476D01*
X145643380Y-81621238D01*
X145643380Y-81335523D01*
X145595761Y-81240285D01*
X145548142Y-81192666D01*
G04 #@! TO.C,D2*
X138023380Y-80287904D02*
X137023380Y-80287904D01*
X137023380Y-80526000D01*
X137071000Y-80668857D01*
X137166238Y-80764095D01*
X137261476Y-80811714D01*
X137451952Y-80859333D01*
X137594809Y-80859333D01*
X137785285Y-80811714D01*
X137880523Y-80764095D01*
X137975761Y-80668857D01*
X138023380Y-80526000D01*
X138023380Y-80287904D01*
X137118619Y-81240285D02*
X137071000Y-81287904D01*
X137023380Y-81383142D01*
X137023380Y-81621238D01*
X137071000Y-81716476D01*
X137118619Y-81764095D01*
X137213857Y-81811714D01*
X137309095Y-81811714D01*
X137451952Y-81764095D01*
X138023380Y-81192666D01*
X138023380Y-81811714D01*
G04 #@! TO.C,C1*
X132348266Y-87123542D02*
X132395885Y-87171161D01*
X132538742Y-87218780D01*
X132633980Y-87218780D01*
X132776838Y-87171161D01*
X132872076Y-87075923D01*
X132919695Y-86980685D01*
X132967314Y-86790209D01*
X132967314Y-86647352D01*
X132919695Y-86456876D01*
X132872076Y-86361638D01*
X132776838Y-86266400D01*
X132633980Y-86218780D01*
X132538742Y-86218780D01*
X132395885Y-86266400D01*
X132348266Y-86314019D01*
X131395885Y-87218780D02*
X131967314Y-87218780D01*
X131681600Y-87218780D02*
X131681600Y-86218780D01*
X131776838Y-86361638D01*
X131872076Y-86456876D01*
X131967314Y-86504495D01*
G04 #@! TO.C,C67*
X156852857Y-131421142D02*
X156900476Y-131468761D01*
X157043333Y-131516380D01*
X157138571Y-131516380D01*
X157281428Y-131468761D01*
X157376666Y-131373523D01*
X157424285Y-131278285D01*
X157471904Y-131087809D01*
X157471904Y-130944952D01*
X157424285Y-130754476D01*
X157376666Y-130659238D01*
X157281428Y-130564000D01*
X157138571Y-130516380D01*
X157043333Y-130516380D01*
X156900476Y-130564000D01*
X156852857Y-130611619D01*
X155995714Y-130516380D02*
X156186190Y-130516380D01*
X156281428Y-130564000D01*
X156329047Y-130611619D01*
X156424285Y-130754476D01*
X156471904Y-130944952D01*
X156471904Y-131325904D01*
X156424285Y-131421142D01*
X156376666Y-131468761D01*
X156281428Y-131516380D01*
X156090952Y-131516380D01*
X155995714Y-131468761D01*
X155948095Y-131421142D01*
X155900476Y-131325904D01*
X155900476Y-131087809D01*
X155948095Y-130992571D01*
X155995714Y-130944952D01*
X156090952Y-130897333D01*
X156281428Y-130897333D01*
X156376666Y-130944952D01*
X156424285Y-130992571D01*
X156471904Y-131087809D01*
X155567142Y-130516380D02*
X154900476Y-130516380D01*
X155329047Y-131516380D01*
G04 #@! TO.C,C66*
X156852857Y-129897142D02*
X156900476Y-129944761D01*
X157043333Y-129992380D01*
X157138571Y-129992380D01*
X157281428Y-129944761D01*
X157376666Y-129849523D01*
X157424285Y-129754285D01*
X157471904Y-129563809D01*
X157471904Y-129420952D01*
X157424285Y-129230476D01*
X157376666Y-129135238D01*
X157281428Y-129040000D01*
X157138571Y-128992380D01*
X157043333Y-128992380D01*
X156900476Y-129040000D01*
X156852857Y-129087619D01*
X155995714Y-128992380D02*
X156186190Y-128992380D01*
X156281428Y-129040000D01*
X156329047Y-129087619D01*
X156424285Y-129230476D01*
X156471904Y-129420952D01*
X156471904Y-129801904D01*
X156424285Y-129897142D01*
X156376666Y-129944761D01*
X156281428Y-129992380D01*
X156090952Y-129992380D01*
X155995714Y-129944761D01*
X155948095Y-129897142D01*
X155900476Y-129801904D01*
X155900476Y-129563809D01*
X155948095Y-129468571D01*
X155995714Y-129420952D01*
X156090952Y-129373333D01*
X156281428Y-129373333D01*
X156376666Y-129420952D01*
X156424285Y-129468571D01*
X156471904Y-129563809D01*
X155043333Y-128992380D02*
X155233809Y-128992380D01*
X155329047Y-129040000D01*
X155376666Y-129087619D01*
X155471904Y-129230476D01*
X155519523Y-129420952D01*
X155519523Y-129801904D01*
X155471904Y-129897142D01*
X155424285Y-129944761D01*
X155329047Y-129992380D01*
X155138571Y-129992380D01*
X155043333Y-129944761D01*
X154995714Y-129897142D01*
X154948095Y-129801904D01*
X154948095Y-129563809D01*
X154995714Y-129468571D01*
X155043333Y-129420952D01*
X155138571Y-129373333D01*
X155329047Y-129373333D01*
X155424285Y-129420952D01*
X155471904Y-129468571D01*
X155519523Y-129563809D01*
G04 #@! TO.C,C64*
X203334857Y-140565142D02*
X203382476Y-140612761D01*
X203525333Y-140660380D01*
X203620571Y-140660380D01*
X203763428Y-140612761D01*
X203858666Y-140517523D01*
X203906285Y-140422285D01*
X203953904Y-140231809D01*
X203953904Y-140088952D01*
X203906285Y-139898476D01*
X203858666Y-139803238D01*
X203763428Y-139708000D01*
X203620571Y-139660380D01*
X203525333Y-139660380D01*
X203382476Y-139708000D01*
X203334857Y-139755619D01*
X202477714Y-139660380D02*
X202668190Y-139660380D01*
X202763428Y-139708000D01*
X202811047Y-139755619D01*
X202906285Y-139898476D01*
X202953904Y-140088952D01*
X202953904Y-140469904D01*
X202906285Y-140565142D01*
X202858666Y-140612761D01*
X202763428Y-140660380D01*
X202572952Y-140660380D01*
X202477714Y-140612761D01*
X202430095Y-140565142D01*
X202382476Y-140469904D01*
X202382476Y-140231809D01*
X202430095Y-140136571D01*
X202477714Y-140088952D01*
X202572952Y-140041333D01*
X202763428Y-140041333D01*
X202858666Y-140088952D01*
X202906285Y-140136571D01*
X202953904Y-140231809D01*
X201525333Y-139993714D02*
X201525333Y-140660380D01*
X201763428Y-139612761D02*
X202001523Y-140327047D01*
X201382476Y-140327047D01*
G04 #@! TO.C,C65*
X203334857Y-139041142D02*
X203382476Y-139088761D01*
X203525333Y-139136380D01*
X203620571Y-139136380D01*
X203763428Y-139088761D01*
X203858666Y-138993523D01*
X203906285Y-138898285D01*
X203953904Y-138707809D01*
X203953904Y-138564952D01*
X203906285Y-138374476D01*
X203858666Y-138279238D01*
X203763428Y-138184000D01*
X203620571Y-138136380D01*
X203525333Y-138136380D01*
X203382476Y-138184000D01*
X203334857Y-138231619D01*
X202477714Y-138136380D02*
X202668190Y-138136380D01*
X202763428Y-138184000D01*
X202811047Y-138231619D01*
X202906285Y-138374476D01*
X202953904Y-138564952D01*
X202953904Y-138945904D01*
X202906285Y-139041142D01*
X202858666Y-139088761D01*
X202763428Y-139136380D01*
X202572952Y-139136380D01*
X202477714Y-139088761D01*
X202430095Y-139041142D01*
X202382476Y-138945904D01*
X202382476Y-138707809D01*
X202430095Y-138612571D01*
X202477714Y-138564952D01*
X202572952Y-138517333D01*
X202763428Y-138517333D01*
X202858666Y-138564952D01*
X202906285Y-138612571D01*
X202953904Y-138707809D01*
X201477714Y-138136380D02*
X201953904Y-138136380D01*
X202001523Y-138612571D01*
X201953904Y-138564952D01*
X201858666Y-138517333D01*
X201620571Y-138517333D01*
X201525333Y-138564952D01*
X201477714Y-138612571D01*
X201430095Y-138707809D01*
X201430095Y-138945904D01*
X201477714Y-139041142D01*
X201525333Y-139088761D01*
X201620571Y-139136380D01*
X201858666Y-139136380D01*
X201953904Y-139088761D01*
X202001523Y-139041142D01*
G04 #@! TO.C,C62*
X145803857Y-91035142D02*
X145851476Y-91082761D01*
X145994333Y-91130380D01*
X146089571Y-91130380D01*
X146232428Y-91082761D01*
X146327666Y-90987523D01*
X146375285Y-90892285D01*
X146422904Y-90701809D01*
X146422904Y-90558952D01*
X146375285Y-90368476D01*
X146327666Y-90273238D01*
X146232428Y-90178000D01*
X146089571Y-90130380D01*
X145994333Y-90130380D01*
X145851476Y-90178000D01*
X145803857Y-90225619D01*
X144946714Y-90130380D02*
X145137190Y-90130380D01*
X145232428Y-90178000D01*
X145280047Y-90225619D01*
X145375285Y-90368476D01*
X145422904Y-90558952D01*
X145422904Y-90939904D01*
X145375285Y-91035142D01*
X145327666Y-91082761D01*
X145232428Y-91130380D01*
X145041952Y-91130380D01*
X144946714Y-91082761D01*
X144899095Y-91035142D01*
X144851476Y-90939904D01*
X144851476Y-90701809D01*
X144899095Y-90606571D01*
X144946714Y-90558952D01*
X145041952Y-90511333D01*
X145232428Y-90511333D01*
X145327666Y-90558952D01*
X145375285Y-90606571D01*
X145422904Y-90701809D01*
X144470523Y-90225619D02*
X144422904Y-90178000D01*
X144327666Y-90130380D01*
X144089571Y-90130380D01*
X143994333Y-90178000D01*
X143946714Y-90225619D01*
X143899095Y-90320857D01*
X143899095Y-90416095D01*
X143946714Y-90558952D01*
X144518142Y-91130380D01*
X143899095Y-91130380D01*
G04 #@! TO.C,C63*
X148724857Y-91035142D02*
X148772476Y-91082761D01*
X148915333Y-91130380D01*
X149010571Y-91130380D01*
X149153428Y-91082761D01*
X149248666Y-90987523D01*
X149296285Y-90892285D01*
X149343904Y-90701809D01*
X149343904Y-90558952D01*
X149296285Y-90368476D01*
X149248666Y-90273238D01*
X149153428Y-90178000D01*
X149010571Y-90130380D01*
X148915333Y-90130380D01*
X148772476Y-90178000D01*
X148724857Y-90225619D01*
X147867714Y-90130380D02*
X148058190Y-90130380D01*
X148153428Y-90178000D01*
X148201047Y-90225619D01*
X148296285Y-90368476D01*
X148343904Y-90558952D01*
X148343904Y-90939904D01*
X148296285Y-91035142D01*
X148248666Y-91082761D01*
X148153428Y-91130380D01*
X147962952Y-91130380D01*
X147867714Y-91082761D01*
X147820095Y-91035142D01*
X147772476Y-90939904D01*
X147772476Y-90701809D01*
X147820095Y-90606571D01*
X147867714Y-90558952D01*
X147962952Y-90511333D01*
X148153428Y-90511333D01*
X148248666Y-90558952D01*
X148296285Y-90606571D01*
X148343904Y-90701809D01*
X147439142Y-90130380D02*
X146820095Y-90130380D01*
X147153428Y-90511333D01*
X147010571Y-90511333D01*
X146915333Y-90558952D01*
X146867714Y-90606571D01*
X146820095Y-90701809D01*
X146820095Y-90939904D01*
X146867714Y-91035142D01*
X146915333Y-91082761D01*
X147010571Y-91130380D01*
X147296285Y-91130380D01*
X147391523Y-91082761D01*
X147439142Y-91035142D01*
G04 #@! TO.C,C59*
X137167857Y-91035142D02*
X137215476Y-91082761D01*
X137358333Y-91130380D01*
X137453571Y-91130380D01*
X137596428Y-91082761D01*
X137691666Y-90987523D01*
X137739285Y-90892285D01*
X137786904Y-90701809D01*
X137786904Y-90558952D01*
X137739285Y-90368476D01*
X137691666Y-90273238D01*
X137596428Y-90178000D01*
X137453571Y-90130380D01*
X137358333Y-90130380D01*
X137215476Y-90178000D01*
X137167857Y-90225619D01*
X136263095Y-90130380D02*
X136739285Y-90130380D01*
X136786904Y-90606571D01*
X136739285Y-90558952D01*
X136644047Y-90511333D01*
X136405952Y-90511333D01*
X136310714Y-90558952D01*
X136263095Y-90606571D01*
X136215476Y-90701809D01*
X136215476Y-90939904D01*
X136263095Y-91035142D01*
X136310714Y-91082761D01*
X136405952Y-91130380D01*
X136644047Y-91130380D01*
X136739285Y-91082761D01*
X136786904Y-91035142D01*
X135739285Y-91130380D02*
X135548809Y-91130380D01*
X135453571Y-91082761D01*
X135405952Y-91035142D01*
X135310714Y-90892285D01*
X135263095Y-90701809D01*
X135263095Y-90320857D01*
X135310714Y-90225619D01*
X135358333Y-90178000D01*
X135453571Y-90130380D01*
X135644047Y-90130380D01*
X135739285Y-90178000D01*
X135786904Y-90225619D01*
X135834523Y-90320857D01*
X135834523Y-90558952D01*
X135786904Y-90654190D01*
X135739285Y-90701809D01*
X135644047Y-90749428D01*
X135453571Y-90749428D01*
X135358333Y-90701809D01*
X135310714Y-90654190D01*
X135263095Y-90558952D01*
G04 #@! TO.C,C58*
X152471357Y-85574142D02*
X152518976Y-85621761D01*
X152661833Y-85669380D01*
X152757071Y-85669380D01*
X152899928Y-85621761D01*
X152995166Y-85526523D01*
X153042785Y-85431285D01*
X153090404Y-85240809D01*
X153090404Y-85097952D01*
X153042785Y-84907476D01*
X152995166Y-84812238D01*
X152899928Y-84717000D01*
X152757071Y-84669380D01*
X152661833Y-84669380D01*
X152518976Y-84717000D01*
X152471357Y-84764619D01*
X151566595Y-84669380D02*
X152042785Y-84669380D01*
X152090404Y-85145571D01*
X152042785Y-85097952D01*
X151947547Y-85050333D01*
X151709452Y-85050333D01*
X151614214Y-85097952D01*
X151566595Y-85145571D01*
X151518976Y-85240809D01*
X151518976Y-85478904D01*
X151566595Y-85574142D01*
X151614214Y-85621761D01*
X151709452Y-85669380D01*
X151947547Y-85669380D01*
X152042785Y-85621761D01*
X152090404Y-85574142D01*
X150947547Y-85097952D02*
X151042785Y-85050333D01*
X151090404Y-85002714D01*
X151138023Y-84907476D01*
X151138023Y-84859857D01*
X151090404Y-84764619D01*
X151042785Y-84717000D01*
X150947547Y-84669380D01*
X150757071Y-84669380D01*
X150661833Y-84717000D01*
X150614214Y-84764619D01*
X150566595Y-84859857D01*
X150566595Y-84907476D01*
X150614214Y-85002714D01*
X150661833Y-85050333D01*
X150757071Y-85097952D01*
X150947547Y-85097952D01*
X151042785Y-85145571D01*
X151090404Y-85193190D01*
X151138023Y-85288428D01*
X151138023Y-85478904D01*
X151090404Y-85574142D01*
X151042785Y-85621761D01*
X150947547Y-85669380D01*
X150757071Y-85669380D01*
X150661833Y-85621761D01*
X150614214Y-85574142D01*
X150566595Y-85478904D01*
X150566595Y-85288428D01*
X150614214Y-85193190D01*
X150661833Y-85145571D01*
X150757071Y-85097952D01*
G04 #@! TO.C,C61*
X142882857Y-91035142D02*
X142930476Y-91082761D01*
X143073333Y-91130380D01*
X143168571Y-91130380D01*
X143311428Y-91082761D01*
X143406666Y-90987523D01*
X143454285Y-90892285D01*
X143501904Y-90701809D01*
X143501904Y-90558952D01*
X143454285Y-90368476D01*
X143406666Y-90273238D01*
X143311428Y-90178000D01*
X143168571Y-90130380D01*
X143073333Y-90130380D01*
X142930476Y-90178000D01*
X142882857Y-90225619D01*
X142025714Y-90130380D02*
X142216190Y-90130380D01*
X142311428Y-90178000D01*
X142359047Y-90225619D01*
X142454285Y-90368476D01*
X142501904Y-90558952D01*
X142501904Y-90939904D01*
X142454285Y-91035142D01*
X142406666Y-91082761D01*
X142311428Y-91130380D01*
X142120952Y-91130380D01*
X142025714Y-91082761D01*
X141978095Y-91035142D01*
X141930476Y-90939904D01*
X141930476Y-90701809D01*
X141978095Y-90606571D01*
X142025714Y-90558952D01*
X142120952Y-90511333D01*
X142311428Y-90511333D01*
X142406666Y-90558952D01*
X142454285Y-90606571D01*
X142501904Y-90701809D01*
X140978095Y-91130380D02*
X141549523Y-91130380D01*
X141263809Y-91130380D02*
X141263809Y-90130380D01*
X141359047Y-90273238D01*
X141454285Y-90368476D01*
X141549523Y-90416095D01*
G04 #@! TO.C,C57*
X146946857Y-104497142D02*
X146994476Y-104544761D01*
X147137333Y-104592380D01*
X147232571Y-104592380D01*
X147375428Y-104544761D01*
X147470666Y-104449523D01*
X147518285Y-104354285D01*
X147565904Y-104163809D01*
X147565904Y-104020952D01*
X147518285Y-103830476D01*
X147470666Y-103735238D01*
X147375428Y-103640000D01*
X147232571Y-103592380D01*
X147137333Y-103592380D01*
X146994476Y-103640000D01*
X146946857Y-103687619D01*
X146042095Y-103592380D02*
X146518285Y-103592380D01*
X146565904Y-104068571D01*
X146518285Y-104020952D01*
X146423047Y-103973333D01*
X146184952Y-103973333D01*
X146089714Y-104020952D01*
X146042095Y-104068571D01*
X145994476Y-104163809D01*
X145994476Y-104401904D01*
X146042095Y-104497142D01*
X146089714Y-104544761D01*
X146184952Y-104592380D01*
X146423047Y-104592380D01*
X146518285Y-104544761D01*
X146565904Y-104497142D01*
X145661142Y-103592380D02*
X144994476Y-103592380D01*
X145423047Y-104592380D01*
G04 #@! TO.C,C55*
X146946857Y-101703142D02*
X146994476Y-101750761D01*
X147137333Y-101798380D01*
X147232571Y-101798380D01*
X147375428Y-101750761D01*
X147470666Y-101655523D01*
X147518285Y-101560285D01*
X147565904Y-101369809D01*
X147565904Y-101226952D01*
X147518285Y-101036476D01*
X147470666Y-100941238D01*
X147375428Y-100846000D01*
X147232571Y-100798380D01*
X147137333Y-100798380D01*
X146994476Y-100846000D01*
X146946857Y-100893619D01*
X146042095Y-100798380D02*
X146518285Y-100798380D01*
X146565904Y-101274571D01*
X146518285Y-101226952D01*
X146423047Y-101179333D01*
X146184952Y-101179333D01*
X146089714Y-101226952D01*
X146042095Y-101274571D01*
X145994476Y-101369809D01*
X145994476Y-101607904D01*
X146042095Y-101703142D01*
X146089714Y-101750761D01*
X146184952Y-101798380D01*
X146423047Y-101798380D01*
X146518285Y-101750761D01*
X146565904Y-101703142D01*
X145089714Y-100798380D02*
X145565904Y-100798380D01*
X145613523Y-101274571D01*
X145565904Y-101226952D01*
X145470666Y-101179333D01*
X145232571Y-101179333D01*
X145137333Y-101226952D01*
X145089714Y-101274571D01*
X145042095Y-101369809D01*
X145042095Y-101607904D01*
X145089714Y-101703142D01*
X145137333Y-101750761D01*
X145232571Y-101798380D01*
X145470666Y-101798380D01*
X145565904Y-101750761D01*
X145613523Y-101703142D01*
G04 #@! TO.C,C54*
X146946857Y-100306142D02*
X146994476Y-100353761D01*
X147137333Y-100401380D01*
X147232571Y-100401380D01*
X147375428Y-100353761D01*
X147470666Y-100258523D01*
X147518285Y-100163285D01*
X147565904Y-99972809D01*
X147565904Y-99829952D01*
X147518285Y-99639476D01*
X147470666Y-99544238D01*
X147375428Y-99449000D01*
X147232571Y-99401380D01*
X147137333Y-99401380D01*
X146994476Y-99449000D01*
X146946857Y-99496619D01*
X146042095Y-99401380D02*
X146518285Y-99401380D01*
X146565904Y-99877571D01*
X146518285Y-99829952D01*
X146423047Y-99782333D01*
X146184952Y-99782333D01*
X146089714Y-99829952D01*
X146042095Y-99877571D01*
X145994476Y-99972809D01*
X145994476Y-100210904D01*
X146042095Y-100306142D01*
X146089714Y-100353761D01*
X146184952Y-100401380D01*
X146423047Y-100401380D01*
X146518285Y-100353761D01*
X146565904Y-100306142D01*
X145137333Y-99734714D02*
X145137333Y-100401380D01*
X145375428Y-99353761D02*
X145613523Y-100068047D01*
X144994476Y-100068047D01*
G04 #@! TO.C,C56*
X146946857Y-103100142D02*
X146994476Y-103147761D01*
X147137333Y-103195380D01*
X147232571Y-103195380D01*
X147375428Y-103147761D01*
X147470666Y-103052523D01*
X147518285Y-102957285D01*
X147565904Y-102766809D01*
X147565904Y-102623952D01*
X147518285Y-102433476D01*
X147470666Y-102338238D01*
X147375428Y-102243000D01*
X147232571Y-102195380D01*
X147137333Y-102195380D01*
X146994476Y-102243000D01*
X146946857Y-102290619D01*
X146042095Y-102195380D02*
X146518285Y-102195380D01*
X146565904Y-102671571D01*
X146518285Y-102623952D01*
X146423047Y-102576333D01*
X146184952Y-102576333D01*
X146089714Y-102623952D01*
X146042095Y-102671571D01*
X145994476Y-102766809D01*
X145994476Y-103004904D01*
X146042095Y-103100142D01*
X146089714Y-103147761D01*
X146184952Y-103195380D01*
X146423047Y-103195380D01*
X146518285Y-103147761D01*
X146565904Y-103100142D01*
X145137333Y-102195380D02*
X145327809Y-102195380D01*
X145423047Y-102243000D01*
X145470666Y-102290619D01*
X145565904Y-102433476D01*
X145613523Y-102623952D01*
X145613523Y-103004904D01*
X145565904Y-103100142D01*
X145518285Y-103147761D01*
X145423047Y-103195380D01*
X145232571Y-103195380D01*
X145137333Y-103147761D01*
X145089714Y-103100142D01*
X145042095Y-103004904D01*
X145042095Y-102766809D01*
X145089714Y-102671571D01*
X145137333Y-102623952D01*
X145232571Y-102576333D01*
X145423047Y-102576333D01*
X145518285Y-102623952D01*
X145565904Y-102671571D01*
X145613523Y-102766809D01*
G04 #@! TO.C,C60*
X140088857Y-91035142D02*
X140136476Y-91082761D01*
X140279333Y-91130380D01*
X140374571Y-91130380D01*
X140517428Y-91082761D01*
X140612666Y-90987523D01*
X140660285Y-90892285D01*
X140707904Y-90701809D01*
X140707904Y-90558952D01*
X140660285Y-90368476D01*
X140612666Y-90273238D01*
X140517428Y-90178000D01*
X140374571Y-90130380D01*
X140279333Y-90130380D01*
X140136476Y-90178000D01*
X140088857Y-90225619D01*
X139231714Y-90130380D02*
X139422190Y-90130380D01*
X139517428Y-90178000D01*
X139565047Y-90225619D01*
X139660285Y-90368476D01*
X139707904Y-90558952D01*
X139707904Y-90939904D01*
X139660285Y-91035142D01*
X139612666Y-91082761D01*
X139517428Y-91130380D01*
X139326952Y-91130380D01*
X139231714Y-91082761D01*
X139184095Y-91035142D01*
X139136476Y-90939904D01*
X139136476Y-90701809D01*
X139184095Y-90606571D01*
X139231714Y-90558952D01*
X139326952Y-90511333D01*
X139517428Y-90511333D01*
X139612666Y-90558952D01*
X139660285Y-90606571D01*
X139707904Y-90701809D01*
X138517428Y-90130380D02*
X138422190Y-90130380D01*
X138326952Y-90178000D01*
X138279333Y-90225619D01*
X138231714Y-90320857D01*
X138184095Y-90511333D01*
X138184095Y-90749428D01*
X138231714Y-90939904D01*
X138279333Y-91035142D01*
X138326952Y-91082761D01*
X138422190Y-91130380D01*
X138517428Y-91130380D01*
X138612666Y-91082761D01*
X138660285Y-91035142D01*
X138707904Y-90939904D01*
X138755523Y-90749428D01*
X138755523Y-90511333D01*
X138707904Y-90320857D01*
X138660285Y-90225619D01*
X138612666Y-90178000D01*
X138517428Y-90130380D01*
G04 #@! TO.C,U10*
X140938095Y-137112380D02*
X140938095Y-137921904D01*
X140890476Y-138017142D01*
X140842857Y-138064761D01*
X140747619Y-138112380D01*
X140557142Y-138112380D01*
X140461904Y-138064761D01*
X140414285Y-138017142D01*
X140366666Y-137921904D01*
X140366666Y-137112380D01*
X139366666Y-138112380D02*
X139938095Y-138112380D01*
X139652380Y-138112380D02*
X139652380Y-137112380D01*
X139747619Y-137255238D01*
X139842857Y-137350476D01*
X139938095Y-137398095D01*
X138747619Y-137112380D02*
X138652380Y-137112380D01*
X138557142Y-137160000D01*
X138509523Y-137207619D01*
X138461904Y-137302857D01*
X138414285Y-137493333D01*
X138414285Y-137731428D01*
X138461904Y-137921904D01*
X138509523Y-138017142D01*
X138557142Y-138064761D01*
X138652380Y-138112380D01*
X138747619Y-138112380D01*
X138842857Y-138064761D01*
X138890476Y-138017142D01*
X138938095Y-137921904D01*
X138985714Y-137731428D01*
X138985714Y-137493333D01*
X138938095Y-137302857D01*
X138890476Y-137207619D01*
X138842857Y-137160000D01*
X138747619Y-137112380D01*
X130301904Y-137930000D02*
X130397142Y-137882380D01*
X130540000Y-137882380D01*
X130682857Y-137930000D01*
X130778095Y-138025238D01*
X130825714Y-138120476D01*
X130873333Y-138310952D01*
X130873333Y-138453809D01*
X130825714Y-138644285D01*
X130778095Y-138739523D01*
X130682857Y-138834761D01*
X130540000Y-138882380D01*
X130444761Y-138882380D01*
X130301904Y-138834761D01*
X130254285Y-138787142D01*
X130254285Y-138453809D01*
X130444761Y-138453809D01*
X129825714Y-138882380D02*
X129825714Y-137882380D01*
X129254285Y-138882380D01*
X129254285Y-137882380D01*
X128778095Y-138882380D02*
X128778095Y-137882380D01*
X128540000Y-137882380D01*
X128397142Y-137930000D01*
X128301904Y-138025238D01*
X128254285Y-138120476D01*
X128206666Y-138310952D01*
X128206666Y-138453809D01*
X128254285Y-138644285D01*
X128301904Y-138739523D01*
X128397142Y-138834761D01*
X128540000Y-138882380D01*
X128778095Y-138882380D01*
X130682857Y-136056666D02*
X130206666Y-136056666D01*
X130778095Y-136342380D02*
X130444761Y-135342380D01*
X130111428Y-136342380D01*
X129778095Y-136342380D02*
X129778095Y-135342380D01*
X129206666Y-136342380D01*
X129206666Y-135342380D01*
X128873333Y-135342380D02*
X128301904Y-135342380D01*
X128587619Y-136342380D02*
X128587619Y-135342380D01*
X130301904Y-132850000D02*
X130397142Y-132802380D01*
X130540000Y-132802380D01*
X130682857Y-132850000D01*
X130778095Y-132945238D01*
X130825714Y-133040476D01*
X130873333Y-133230952D01*
X130873333Y-133373809D01*
X130825714Y-133564285D01*
X130778095Y-133659523D01*
X130682857Y-133754761D01*
X130540000Y-133802380D01*
X130444761Y-133802380D01*
X130301904Y-133754761D01*
X130254285Y-133707142D01*
X130254285Y-133373809D01*
X130444761Y-133373809D01*
X129825714Y-133802380D02*
X129825714Y-132802380D01*
X129254285Y-133802380D01*
X129254285Y-132802380D01*
X128778095Y-133802380D02*
X128778095Y-132802380D01*
X128540000Y-132802380D01*
X128397142Y-132850000D01*
X128301904Y-132945238D01*
X128254285Y-133040476D01*
X128206666Y-133230952D01*
X128206666Y-133373809D01*
X128254285Y-133564285D01*
X128301904Y-133659523D01*
X128397142Y-133754761D01*
X128540000Y-133802380D01*
X128778095Y-133802380D01*
X149709047Y-142644761D02*
X149566190Y-142692380D01*
X149328095Y-142692380D01*
X149232857Y-142644761D01*
X149185238Y-142597142D01*
X149137619Y-142501904D01*
X149137619Y-142406666D01*
X149185238Y-142311428D01*
X149232857Y-142263809D01*
X149328095Y-142216190D01*
X149518571Y-142168571D01*
X149613809Y-142120952D01*
X149661428Y-142073333D01*
X149709047Y-141978095D01*
X149709047Y-141882857D01*
X149661428Y-141787619D01*
X149613809Y-141740000D01*
X149518571Y-141692380D01*
X149280476Y-141692380D01*
X149137619Y-141740000D01*
X148709047Y-142168571D02*
X148375714Y-142168571D01*
X148232857Y-142692380D02*
X148709047Y-142692380D01*
X148709047Y-141692380D01*
X148232857Y-141692380D01*
X147947142Y-141692380D02*
X147375714Y-141692380D01*
X147661428Y-142692380D02*
X147661428Y-141692380D01*
X149851904Y-139152380D02*
X149280476Y-139152380D01*
X149566190Y-140152380D02*
X149566190Y-139152380D01*
X149042380Y-139152380D02*
X148375714Y-140152380D01*
X148375714Y-139152380D02*
X149042380Y-140152380D01*
X147994761Y-140152380D02*
X147994761Y-139152380D01*
X147756666Y-139152380D01*
X147613809Y-139200000D01*
X147518571Y-139295238D01*
X147470952Y-139390476D01*
X147423333Y-139580952D01*
X147423333Y-139723809D01*
X147470952Y-139914285D01*
X147518571Y-140009523D01*
X147613809Y-140104761D01*
X147756666Y-140152380D01*
X147994761Y-140152380D01*
X149256666Y-137612380D02*
X149590000Y-137136190D01*
X149828095Y-137612380D02*
X149828095Y-136612380D01*
X149447142Y-136612380D01*
X149351904Y-136660000D01*
X149304285Y-136707619D01*
X149256666Y-136802857D01*
X149256666Y-136945714D01*
X149304285Y-137040952D01*
X149351904Y-137088571D01*
X149447142Y-137136190D01*
X149828095Y-137136190D01*
X148923333Y-136612380D02*
X148256666Y-137612380D01*
X148256666Y-136612380D02*
X148923333Y-137612380D01*
X147875714Y-137612380D02*
X147875714Y-136612380D01*
X147637619Y-136612380D01*
X147494761Y-136660000D01*
X147399523Y-136755238D01*
X147351904Y-136850476D01*
X147304285Y-137040952D01*
X147304285Y-137183809D01*
X147351904Y-137374285D01*
X147399523Y-137469523D01*
X147494761Y-137564761D01*
X147637619Y-137612380D01*
X147875714Y-137612380D01*
X149351904Y-134120000D02*
X149447142Y-134072380D01*
X149590000Y-134072380D01*
X149732857Y-134120000D01*
X149828095Y-134215238D01*
X149875714Y-134310476D01*
X149923333Y-134500952D01*
X149923333Y-134643809D01*
X149875714Y-134834285D01*
X149828095Y-134929523D01*
X149732857Y-135024761D01*
X149590000Y-135072380D01*
X149494761Y-135072380D01*
X149351904Y-135024761D01*
X149304285Y-134977142D01*
X149304285Y-134643809D01*
X149494761Y-134643809D01*
X148875714Y-135072380D02*
X148875714Y-134072380D01*
X148304285Y-135072380D01*
X148304285Y-134072380D01*
X147828095Y-135072380D02*
X147828095Y-134072380D01*
X147590000Y-134072380D01*
X147447142Y-134120000D01*
X147351904Y-134215238D01*
X147304285Y-134310476D01*
X147256666Y-134500952D01*
X147256666Y-134643809D01*
X147304285Y-134834285D01*
X147351904Y-134929523D01*
X147447142Y-135024761D01*
X147590000Y-135072380D01*
X147828095Y-135072380D01*
X149923333Y-131532380D02*
X149590000Y-132532380D01*
X149256666Y-131532380D01*
X148351904Y-132437142D02*
X148399523Y-132484761D01*
X148542380Y-132532380D01*
X148637619Y-132532380D01*
X148780476Y-132484761D01*
X148875714Y-132389523D01*
X148923333Y-132294285D01*
X148970952Y-132103809D01*
X148970952Y-131960952D01*
X148923333Y-131770476D01*
X148875714Y-131675238D01*
X148780476Y-131580000D01*
X148637619Y-131532380D01*
X148542380Y-131532380D01*
X148399523Y-131580000D01*
X148351904Y-131627619D01*
X147351904Y-132437142D02*
X147399523Y-132484761D01*
X147542380Y-132532380D01*
X147637619Y-132532380D01*
X147780476Y-132484761D01*
X147875714Y-132389523D01*
X147923333Y-132294285D01*
X147970952Y-132103809D01*
X147970952Y-131960952D01*
X147923333Y-131770476D01*
X147875714Y-131675238D01*
X147780476Y-131580000D01*
X147637619Y-131532380D01*
X147542380Y-131532380D01*
X147399523Y-131580000D01*
X147351904Y-131627619D01*
G04 #@! TD*
M02*
