0
SECTION
2
HEADER
9
$INSUNITS
70
4
9
$ACADVER
1
AC1014
9
$HANDSEED
5
FFFF
0
ENDSEC
0
SECTION
2
TABLES
0
TABLE
2
VPORT
5
8
100
AcDbSymbolTable
0
ENDTAB
0
TABLE
2
LTYPE
5
5
100
AcDbSymbolTable
0
LTYPE
5
14
100
AcDbSymbolTableRecord
100
AcDbLinetypeTableRecord
2
BYBLOCK
70
0
0
LTYPE
5
15
100
AcDbSymbolTableRecord
100
AcDbLinetypeTableRecord
2
BYLAYER
70
0
0
ENDTAB
0
TABLE
2
LAYER
5
2
100
AcDbSymbolTable
70
2
0
LAYER
5
50
100
AcDbSymbolTableRecord
100
AcDbLayerTableRecord
2
0
70
0
6
CONTINUOUS
0
ENDTAB
0
TABLE
2
STYLE
5
3
100
AcDbSymbolTable
70
1
0
STYLE
5
11
100
AcDbSymbolTableRecord
100
AcDbTextStyleTableRecord
2
STANDARD
70
0
0
ENDTAB
0
TABLE
2
VIEW
5
6
100
AcDbSymbolTable
70
0
0
ENDTAB
0
TABLE
2
UCS
5
7
100
AcDbSymbolTable
70
0
0
ENDTAB
0
TABLE
2
APPID
5
9
100
AcDbSymbolTable
70
2
0
APPID
5
12
100
AcDbSymbolTableRecord
100
AcDbRegAppTableRecord
2
ACAD
70
0
0
ENDTAB
0
TABLE
2
DIMSTYLE
5
A
100
AcDbSymbolTable
70
1
0
ENDTAB
0
TABLE
2
BLOCK_RECORD
5
1
100
AcDbSymbolTable
70
1
0
BLOCK_RECORD
5
1F
100
AcDbSymbolTableRecord
100
AcDbBlockTableRecord
2
*MODEL_SPACE
0
BLOCK_RECORD
5
1B
100
AcDbSymbolTableRecord
100
AcDbBlockTableRecord
2
*PAPER_SPACE
0
ENDTAB
0
ENDSEC
0
SECTION
2
BLOCKS
0
BLOCK
5
20
100
AcDbEntity
100
AcDbBlockBegin
2
*MODEL_SPACE
0
ENDBLK
5
21
100
AcDbEntity
100
AcDbBlockEnd
0
BLOCK
5
1C
100
AcDbEntity
100
AcDbBlockBegin
2
*PAPER_SPACE
0
ENDBLK
5
1D
100
AcDbEntity
100
AcDbBlockEnd
0
ENDSEC
0
SECTION
2
ENTITIES
0
ARC
5
100
100
AcDbEntity
8
0
100
AcDbCircle
10
-32.888543819998318
20
-1.0557280900008514
30
0
40
24.051248379533263
100
AcDbArc
50
-85.758070059972809
51
32.627967705816836
0
ARC
5
101
100
AcDbEntity
8
0
100
AcDbCircle
10
-50
20
-75
30
0
40
25.311288741492753
100
AcDbArc
50
0
51
60.255118703057768
0
ARC
5
102
100
AcDbEntity
8
0
100
AcDbCircle
10
50
20
45
30
0
40
14.999999999999993
100
AcDbArc
50
4.2419299400271715
51
175.75807005997277
0
ARC
5
103
100
AcDbEntity
8
0
100
AcDbCircle
10
0
20
20
30
0
40
14.999999999999993
100
AcDbArc
50
57.372032294183178
51
212.62796770581681
0
ARC
5
104
100
AcDbEntity
8
0
100
AcDbCircle
10
-30
20
-40
30
0
40
15.000000000000002
100
AcDbArc
50
94.241929940027205
51
240.2551187030578
0
ARC
5
105
100
AcDbEntity
8
0
100
AcDbCircle
10
-30
20
-40
30
0
40
15.000000000000002
100
AcDbArc
50
94.241929940027205
51
240.2551187030578
0
CIRCLE
5
106
100
AcDbEntity
8
0
100
AcDbCircle
10
-30
20
-40
30
0
40
3.9999999999999858
0
CIRCLE
5
107
100
AcDbEntity
8
0
100
AcDbCircle
10
-30
20
-40
30
0
40
3.9999999999999858
0
CIRCLE
5
108
100
AcDbEntity
8
0
100
AcDbCircle
10
0
20
20
30
0
40
3.9999999999999858
0
CIRCLE
5
109
100
AcDbEntity
8
0
100
AcDbCircle
10
50
20
45
30
0
40
3.9999999999999858
0
CIRCLE
5
110
100
AcDbEntity
8
0
100
AcDbCircle
10
0
20
20
30
0
40
3.9999999999999858
0
ARC
5
111
100
AcDbEntity
8
0
100
AcDbCircle
10
16.055728090000841
20
50.388543819998297
30
0
40
19.461604212872825
100
AcDbArc
50
245.83150141014335
51
347.29860094401278
0
CIRCLE
5
112
100
AcDbEntity
8
0
100
AcDbCircle
10
130
20
-40
30
0
40
3.9999999999999858
0
ARC
5
113
100
AcDbEntity
8
0
100
AcDbCircle
10
130
20
-40
30
0
40
15.000000000000002
100
AcDbArc
50
-60.255118703057796
51
85.758070059972866
0
ARC
5
114
100
AcDbEntity
8
0
100
AcDbCircle
10
150
20
-75
30
0
40
25.311288741492749
100
AcDbArc
50
119.74488129694224
51
180
0
CIRCLE
5
115
100
AcDbEntity
8
0
100
AcDbCircle
10
130
20
-40
30
0
40
3.9999999999999858
0
ARC
5
116
100
AcDbEntity
8
0
100
AcDbCircle
10
130
20
-40
30
0
40
15.000000000000002
100
AcDbArc
50
-60.255118703057796
51
85.758070059972866
0
ARC
5
117
100
AcDbEntity
8
0
100
AcDbCircle
10
100
20
20
30
0
40
15.00000000000002
100
AcDbArc
50
-32.627967705816822
51
122.62796770581683
0
CIRCLE
5
118
100
AcDbEntity
8
0
100
AcDbCircle
10
100
20
20
30
0
40
3.9999999999999858
0
ARC
5
119
100
AcDbEntity
8
0
100
AcDbCircle
10
83.944271909999173
20
50.388543819998297
30
0
40
19.461604212872846
100
AcDbArc
50
192.70139905598728
51
294.1684985898566
0
CIRCLE
5
120
100
AcDbEntity
8
0
100
AcDbCircle
10
100
20
20
30
0
40
3.9999999999999858
0
ARC
5
121
100
AcDbEntity
8
0
100
AcDbCircle
10
132.88854381999832
20
-1.0557280900008514
30
0
40
24.051248379533256
100
AcDbArc
50
147.37203229418319
51
265.75807005997274
0
CIRCLE
5
122
100
AcDbEntity
8
0
100
AcDbCircle
10
-30
20
-110
30
0
40
3.9999999999999858
0
ARC
5
123
100
AcDbEntity
8
0
100
AcDbCircle
10
16.055728090000841
20
-200.38854381999829
30
0
40
19.461604212872835
100
AcDbArc
50
12.701399055987256
51
114.16849858985667
0
CIRCLE
5
124
100
AcDbEntity
8
0
100
AcDbCircle
10
-30
20
-110
30
0
40
3.9999999999999858
0
ARC
5
125
100
AcDbEntity
8
0
100
AcDbCircle
10
0
20
-170
30
0
40
15.00000000000002
100
AcDbArc
50
147.37203229418316
51
302.62796770581679
0
CIRCLE
5
126
100
AcDbEntity
8
0
100
AcDbCircle
10
0
20
-170
30
0
40
3.9999999999999858
0
CIRCLE
5
127
100
AcDbEntity
8
0
100
AcDbCircle
10
0
20
-170
30
0
40
3.9999999999999858
0
ARC
5
128
100
AcDbEntity
8
0
100
AcDbCircle
10
-30
20
-110
30
0
40
15.000000000000002
100
AcDbArc
50
119.7448812969422
51
265.75807005997279
0
ARC
5
129
100
AcDbEntity
8
0
100
AcDbCircle
10
-30
20
-110
30
0
40
15.000000000000002
100
AcDbArc
50
119.7448812969422
51
265.75807005997279
0
ARC
5
130
100
AcDbEntity
8
0
100
AcDbCircle
10
-50
20
-75
30
0
40
25.311288741492749
100
AcDbArc
50
-60.255118703057796
51
0
0
ARC
5
131
100
AcDbEntity
8
0
100
AcDbCircle
10
-32.888543819998318
20
-148.94427190999915
30
0
40
24.051248379533256
100
AcDbArc
50
-32.627967705816822
51
85.758070059972823
0
ARC
5
132
100
AcDbEntity
8
0
100
AcDbCircle
10
50
20
-195
30
0
40
14.999999999999993
100
AcDbArc
50
184.24192994002726
51
355.75807005997285
0
ARC
5
133
100
AcDbEntity
8
0
100
AcDbCircle
10
132.88854381999832
20
-148.94427190999915
30
0
40
24.051248379533263
100
AcDbArc
50
94.241929940027219
51
212.62796770581681
0
ARC
5
134
100
AcDbEntity
8
0
100
AcDbCircle
10
83.944271909999173
20
-200.38854381999829
30
0
40
19.461604212872821
100
AcDbArc
50
65.831501410143375
51
167.2986009440128
0
CIRCLE
5
135
100
AcDbEntity
8
0
100
AcDbCircle
10
100
20
-170
30
0
40
3.9999999999999858
0
ARC
5
136
100
AcDbEntity
8
0
100
AcDbCircle
10
150
20
-75
30
0
40
25.311288741492746
100
AcDbArc
50
180
51
240.2551187030578
0
ARC
5
137
100
AcDbEntity
8
0
100
AcDbCircle
10
130
20
-110
30
0
40
15.000000000000002
100
AcDbArc
50
-85.758070059972866
51
60.255118703057768
0
CIRCLE
5
138
100
AcDbEntity
8
0
100
AcDbCircle
10
100
20
-170
30
0
40
3.9999999999999858
0
CIRCLE
5
139
100
AcDbEntity
8
0
100
AcDbCircle
10
130
20
-110
30
0
40
3.9999999999999858
0
CIRCLE
5
140
100
AcDbEntity
8
0
100
AcDbCircle
10
50
20
-195
30
0
40
3.9999999999999858
0
CIRCLE
5
141
100
AcDbEntity
8
0
100
AcDbCircle
10
130
20
-110
30
0
40
3.9999999999999858
0
ARC
5
142
100
AcDbEntity
8
0
100
AcDbCircle
10
130
20
-110
30
0
40
15.000000000000002
100
AcDbArc
50
-85.758070059972866
51
60.255118703057768
0
ARC
5
143
100
AcDbEntity
8
0
100
AcDbCircle
10
100
20
-170
30
0
40
14.999999999999993
100
AcDbArc
50
-122.62796770581683
51
32.627967705816857
0
CIRCLE
5
144
100
AcDbEntity
8
0
100
AcDbCircle
10
7.4904837191417286
20
27.005206348853733
30
0
40
0.99999999999999978
0
CIRCLE
5
145
100
AcDbEntity
8
0
100
AcDbCircle
10
10.318910843887913
20
24.176779224107548
30
0
40
0.99999999999999978
0
CIRCLE
5
146
100
AcDbEntity
8
0
100
AcDbCircle
10
-7.0052052951825026
20
12.509517334529502
30
0
40
0.99999999999999978
0
CIRCLE
5
147
100
AcDbEntity
8
0
100
AcDbCircle
10
-4.176778170436318
20
9.6810902097833171
30
0
40
0.99999999999999978
0
CIRCLE
5
148
100
AcDbEntity
8
0
100
AcDbCircle
10
39.75000074505806
20
44.000002831220613
30
0
40
1.0000000000000009
0
CIRCLE
5
149
100
AcDbEntity
8
0
100
AcDbCircle
10
39.75000074505806
20
40.000002831220627
30
0
40
1.0000000000000009
0
CIRCLE
5
150
100
AcDbEntity
8
0
100
AcDbCircle
10
60.24999925494194
20
44.000002831220613
30
0
40
0.99999999999999645
0
CIRCLE
5
151
100
AcDbEntity
8
0
100
AcDbCircle
10
60.24999925494194
20
40.000002831220627
30
0
40
0.99999999999999645
0
CIRCLE
5
152
100
AcDbEntity
8
0
100
AcDbCircle
10
-27.311262319670782
20
-30.447608372251203
30
0
40
1.0000000000000016
0
CIRCLE
5
153
100
AcDbEntity
8
0
100
AcDbCircle
10
-23.372031307621945
20
-31.142201082918916
30
0
40
1.0000000000000009
0
CIRCLE
5
154
100
AcDbEntity
8
0
100
AcDbCircle
10
-26.931818949794035
20
-51.330760019669206
30
0
40
0.99999999999999811
0
CIRCLE
5
155
100
AcDbEntity
8
0
100
AcDbCircle
10
-30.871049961842854
20
-50.636167309001479
30
0
40
0.99999999999999711
0
CIRCLE
5
156
100
AcDbEntity
8
0
100
AcDbCircle
10
60.24999925494194
20
-190.00000283122063
30
0
40
0.99999999999999645
0
CIRCLE
5
157
100
AcDbEntity
8
0
100
AcDbCircle
10
60.24999925494194
20
-194.00000283122063
30
0
40
0.99999999999999645
0
CIRCLE
5
158
100
AcDbEntity
8
0
100
AcDbCircle
10
39.75000074505806
20
-190.00000283122063
30
0
40
1.0000000000000009
0
CIRCLE
5
159
100
AcDbEntity
8
0
100
AcDbCircle
10
39.75000074505806
20
-194.00000283122063
30
0
40
1.0000000000000009
0
CIRCLE
5
160
100
AcDbEntity
8
0
100
AcDbCircle
10
10.318910843887913
20
-174.17677922410752
30
0
40
0.99999999999999978
0
CIRCLE
5
161
100
AcDbEntity
8
0
100
AcDbCircle
10
-7.0052052951825061
20
-162.50951733452951
30
0
40
0.99999999999999978
0
CIRCLE
5
162
100
AcDbEntity
8
0
100
AcDbCircle
10
-30.871049961842854
20
-99.363832690998521
30
0
40
0.99999999999999711
0
CIRCLE
5
163
100
AcDbEntity
8
0
100
AcDbCircle
10
-26.931818949794035
20
-98.669239980330801
30
0
40
0.99999999999999811
0
CIRCLE
5
164
100
AcDbEntity
8
0
100
AcDbCircle
10
-23.372031307621945
20
-118.85779891708108
30
0
40
1.0000000000000009
0
CIRCLE
5
165
100
AcDbEntity
8
0
100
AcDbCircle
10
-27.311262319670782
20
-119.5523916277488
30
0
40
1.0000000000000016
0
CIRCLE
5
166
100
AcDbEntity
8
0
100
AcDbCircle
10
-4.1767781704363172
20
-159.68109020978332
30
0
40
0.99999999999999978
0
CIRCLE
5
167
100
AcDbEntity
8
0
100
AcDbCircle
10
7.4904837191417295
20
-177.00520634885373
30
0
40
0.99999999999999978
0
CIRCLE
5
168
100
AcDbEntity
8
0
100
AcDbCircle
10
126.93181894979404
20
-98.669239980330801
30
0
40
0.99999999999999811
0
CIRCLE
5
169
100
AcDbEntity
8
0
100
AcDbCircle
10
107.00520529518251
20
-162.50951733452951
30
0
40
0.99999999999999978
0
CIRCLE
5
170
100
AcDbEntity
8
0
100
AcDbCircle
10
92.509516280858278
20
-177.00520634885373
30
0
40
0.99999999999999978
0
CIRCLE
5
171
100
AcDbEntity
8
0
100
AcDbCircle
10
130.87104996184286
20
-50.636167309001479
30
0
40
0.99999999999999711
0
CIRCLE
5
172
100
AcDbEntity
8
0
100
AcDbCircle
10
126.93181894979404
20
-51.330760019669206
30
0
40
0.99999999999999811
0
CIRCLE
5
173
100
AcDbEntity
8
0
100
AcDbCircle
10
89.681089156112094
20
-174.17677922410752
30
0
40
0.99999999999999978
0
CIRCLE
5
174
100
AcDbEntity
8
0
100
AcDbCircle
10
123.37203130762194
20
-31.142201082918916
30
0
40
1.0000000000000009
0
CIRCLE
5
175
100
AcDbEntity
8
0
100
AcDbCircle
10
127.31126231967079
20
-30.447608372251203
30
0
40
1.0000000000000016
0
CIRCLE
5
176
100
AcDbEntity
8
0
100
AcDbCircle
10
123.37203130762194
20
-118.85779891708108
30
0
40
1.0000000000000009
0
CIRCLE
5
177
100
AcDbEntity
8
0
100
AcDbCircle
10
104.17677817043632
20
-159.68109020978332
30
0
40
0.99999999999999978
0
CIRCLE
5
178
100
AcDbEntity
8
0
100
AcDbCircle
10
92.509516280858278
20
27.005206348853736
30
0
40
0.99999999999999978
0
CIRCLE
5
179
100
AcDbEntity
8
0
100
AcDbCircle
10
104.17677817043632
20
9.6810902097833207
30
0
40
0.99999999999999978
0
CIRCLE
5
180
100
AcDbEntity
8
0
100
AcDbCircle
10
127.31126231967079
20
-119.5523916277488
30
0
40
1.0000000000000016
0
CIRCLE
5
181
100
AcDbEntity
8
0
100
AcDbCircle
10
89.681089156112094
20
24.176779224107552
30
0
40
0.99999999999999978
0
CIRCLE
5
182
100
AcDbEntity
8
0
100
AcDbCircle
10
107.00520529518251
20
12.509517334529505
30
0
40
0.99999999999999978
0
CIRCLE
5
183
100
AcDbEntity
8
0
100
AcDbCircle
10
130.87104996184286
20
-99.363832690998521
30
0
40
0.99999999999999711
0
ENDSEC
0
SECTION
2
OBJECTS
0
DICTIONARY
5
C
100
AcDbDictionary
3
ACAD_GROUP
350
D
3
ACAD_MLINESTYLE
350
17
0
DICTIONARY
5
D
100
AcDbDictionary
0
DICTIONARY
5
1A
330
C
100
AcDbDictionary
0
DICTIONARY
5
17
100
AcDbDictionary
0
ENDSEC
0
EOF
