M48
;DRILL file {KiCad (5.0.0)} date 12/02/18 19:46:26
;FORMAT={-:-/ absolute / metric / decimal}
FMAT,2
METRIC,TZ
T1C0.400
T2C0.650
T3C0.700
T4C0.762
T5C0.800
T6C0.950
T7C1.000
T8C1.500
T9C2.000
%
G90
G05
M71
T1
X112.522Y-77.978
X114.3Y-57.658
X114.3Y-58.674
X114.3Y-80.772
X115.316Y-58.674
X115.824Y-76.708
X116.84Y-68.834
X116.84Y-76.708
X117.646Y-103.717
X117.78Y-75.909
X117.856Y-97.028
X118.618Y-76.454
X119.888Y-76.454
X120.65Y-58.166
X120.904Y-64.262
X120.904Y-65.278
X121.158Y-55.372
X121.158Y-76.454
X121.92Y-56.388
X121.92Y-58.928
X121.92Y-64.262
X121.92Y-65.278
X122.428Y-76.454
X123.698Y-76.454
X123.952Y-58.42
X123.952Y-75.184
X124.46Y-64.008
X124.968Y-76.454
X126.238Y-76.454
X126.492Y-73.66
X127.259Y-76.449
X127.291Y-62.992
X128.016Y-73.66
X128.021Y-46.731
X128.524Y-76.454
X129.54Y-62.992
X129.54Y-68.072
X129.54Y-70.104
X129.794Y-76.454
X130.048Y-64.008
X130.048Y-73.66
X131.572Y-54.864
X131.572Y-62.484
X132.588Y-55.88
X132.588Y-81.28
X133.101Y-76.703
X133.35Y-79.248
X133.604Y-53.34
X134.112Y-54.356
X134.112Y-65.532
X134.112Y-76.708
X134.615Y-52.827
X134.615Y-80.269
X134.62Y-58.928
X134.62Y-68.072
X134.62Y-70.104
X135.07Y-62.484
X135.07Y-64.516
X135.07Y-73.152
X135.128Y-46.228
X136.144Y-51.816
X137.005Y-85.108
X137.02Y-64.516
X137.745Y-69.088
X137.745Y-70.104
X137.922Y-83.058
X138.176Y-51.816
X138.684Y-83.82
X139.192Y-51.816
X139.192Y-57.185
X139.7Y-55.372
X139.7Y-82.804
X139.954Y-68.072
X140.208Y-51.816
X140.208Y-52.832
X140.208Y-80.264
X141.224Y-35.56
X141.224Y-36.576
X141.224Y-56.388
X141.478Y-69.85
X141.478Y-91.948
X142.24Y-35.56
X142.24Y-36.576
X142.24Y-37.592
X142.24Y-51.816
X142.24Y-52.832
X143.218Y-66.087
X143.256Y-35.56
X143.256Y-36.576
X143.256Y-37.592
X143.764Y-64.516
X144.78Y-60.452
X145.288Y-75.692
X145.743Y-88.175
X145.796Y-53.848
X145.796Y-85.344
X145.796Y-86.868
X145.801Y-52.827
X146.304Y-81.788
X146.866Y-82.75
X147.48Y-80.866
X147.828Y-60.706
X148.082Y-37.084
X148.082Y-38.1
X148.844Y-60.706
X148.844Y-61.722
X149.098Y-37.084
X149.606Y-86.106
X150.114Y-42.164
X150.114Y-43.18
X150.622Y-86.106
X151.13Y-42.164
X151.13Y-43.18
X151.384Y-64.008
X151.417Y-68.547
X151.638Y-86.106
X151.638Y-91.186
X151.638Y-92.202
X152.146Y-42.164
X152.146Y-43.18
X152.4Y-64.008
X152.4Y-75.184
X152.4Y-101.092
X152.443Y-68.554
X152.654Y-86.106
X152.654Y-91.186
X152.654Y-92.202
X152.908Y-77.216
X152.908Y-96.012
X152.908Y-102.108
X153.416Y-97.028
X153.67Y-91.186
X153.67Y-92.202
X153.924Y-84.328
X154.432Y-62.484
X154.686Y-56.896
X154.686Y-57.912
X154.686Y-58.928
X155.448Y-94.996
X155.485Y-96.477
X155.702Y-56.896
X155.702Y-57.912
X155.702Y-58.928
X155.702Y-70.866
X156.718Y-70.866
X156.718Y-71.882
X157.734Y-70.866
X157.734Y-71.882
X157.734Y-72.898
X157.993Y-93.477
X158.242Y-68.834
X158.787Y-88.392
X159.004Y-84.328
X159.512Y-99.06
X159.512Y-102.735
X160.528Y-79.756
X161.544Y-58.928
X162.052Y-105.156
X162.537Y-91.463
X162.56Y-88.9
X163.068Y-67.056
X164.079Y-86.355
X164.084Y-67.564
X164.084Y-78.232
X164.809Y-79.248
X165.1Y-70.104
X165.1Y-75.692
X165.1Y-80.264
X166.116Y-74.168
X167.132Y-55.372
X167.233Y-54.255
X167.64Y-84.545
X167.64Y-87.884
X167.64Y-90.932
X168.656Y-88.175
X169.672Y-87.884
X170.18Y-89.625
X170.18Y-104.648
X170.688Y-65.024
X170.688Y-105.664
X172.217Y-53.335
X172.974Y-71.628
X172.974Y-72.644
X173.228Y-81.389
X173.228Y-83.82
X173.228Y-104.14
X173.736Y-55.88
X173.736Y-79.756
X173.99Y-71.628
X173.99Y-72.644
X174.244Y-105.664
X175.006Y-71.628
X175.006Y-72.644
X175.26Y-80.264
X175.26Y-90.424
X175.768Y-105.664
X176.276Y-76.2
X176.784Y-78.74
X178.308Y-84.328
X178.816Y-90.424
X179.832Y-80.264
X180.34Y-90.424
X181.864Y-85.852
X195.834Y-92.71
X195.834Y-93.726
X196.85Y-92.71
X196.85Y-93.726
X197.866Y-92.71
X197.866Y-93.726
X198.882Y-92.71
X198.882Y-93.726
X199.898Y-92.71
X199.898Y-93.726
X200.914Y-92.71
X200.914Y-93.726
X201.93Y-92.71
X201.93Y-93.726
X202.946Y-92.71
X202.946Y-93.726
X213.614Y-64.008
X213.614Y-65.024
X213.614Y-66.04
X213.614Y-67.056
X213.614Y-68.072
X213.614Y-69.088
X214.63Y-64.008
X214.63Y-65.024
X214.63Y-66.04
X214.63Y-67.056
X214.63Y-68.072
X214.63Y-69.088
X214.884Y-81.28
X215.646Y-64.008
X215.646Y-65.024
X215.9Y-94.996
X216.662Y-64.008
X216.662Y-65.024
X216.662Y-73.152
X216.662Y-74.168
X216.662Y-75.184
X216.662Y-76.2
X216.662Y-77.216
X217.678Y-64.008
X217.678Y-65.024
X217.678Y-73.152
X217.678Y-74.168
X217.678Y-75.184
X217.678Y-76.2
X217.678Y-77.216
X218.694Y-64.008
X218.694Y-65.024
X218.694Y-76.2
X218.694Y-77.216
X219.71Y-64.008
X219.71Y-65.024
X219.71Y-76.2
X219.71Y-77.216
X220.726Y-64.008
X220.726Y-65.024
X220.726Y-76.2
X220.726Y-77.216
X221.742Y-75.184
X221.742Y-76.2
X221.742Y-77.216
X222.504Y-68.072
X223.012Y-65.532
X226.06Y-92.202
X230.053Y-85.909
T2
X172.21Y-66.04
X173.48Y-66.04
X174.75Y-66.04
X176.02Y-66.04
X177.29Y-66.04
X145.415Y-66.04
X146.685Y-66.04
X147.955Y-66.04
X149.225Y-66.04
X150.495Y-66.04
T3
X119.126Y-105.918
X119.126Y-107.188
X119.38Y-67.056
X119.38Y-68.326
X119.38Y-69.596
X119.38Y-70.866
X119.38Y-72.136
X120.396Y-105.918
X120.396Y-107.188
X120.65Y-67.056
X120.65Y-68.326
X120.65Y-69.596
X120.65Y-70.866
X120.65Y-72.136
X121.92Y-67.056
X121.92Y-68.326
X121.92Y-69.596
X121.92Y-70.866
X121.92Y-72.136
X123.19Y-67.056
X123.19Y-68.326
X123.19Y-69.596
X123.19Y-70.866
X123.19Y-72.136
X124.46Y-67.056
X124.46Y-68.326
X124.46Y-69.596
X124.46Y-70.866
X124.46Y-72.136
X126.492Y-111.252
X127.762Y-111.252
X135.128Y-106.68
X135.128Y-108.204
X151.384Y-54.864
X152.908Y-57.912
X154.432Y-51.816
X162.052Y-96.52
X162.052Y-98.044
X163.576Y-96.52
X163.576Y-98.044
X167.64Y-108.204
X213.868Y-92.456
X234.188Y-53.848
T4
X193.04Y-60.96
X193.04Y-83.82
X195.58Y-60.96
X195.58Y-83.82
X198.12Y-60.96
X198.12Y-83.82
X200.66Y-60.96
X200.66Y-83.82
X203.2Y-60.96
X203.2Y-83.82
X205.74Y-60.96
X205.74Y-83.82
X208.28Y-60.96
X208.28Y-83.82
X210.82Y-60.96
X210.82Y-83.82
X213.36Y-60.96
X213.36Y-83.82
X215.9Y-60.96
X215.9Y-83.82
X218.44Y-60.96
X218.44Y-83.82
X220.98Y-60.96
X220.98Y-83.82
X223.52Y-60.96
X223.52Y-83.82
X226.06Y-60.96
X226.06Y-83.82
X228.6Y-60.96
X228.6Y-83.82
X231.14Y-60.96
X231.14Y-83.82
T5
X184.15Y-60.96
X184.15Y-63.5
X184.15Y-66.04
X157.48Y-56.896
X157.48Y-59.436
X157.48Y-61.976
T6
X181.61Y-96.56
X181.61Y-99.06
X181.61Y-101.56
X173.99Y-96.56
X173.99Y-99.06
X173.99Y-101.56
X180.34Y-38.18
X180.34Y-40.68
X180.34Y-43.18
X189.23Y-96.56
X189.23Y-99.06
X189.23Y-101.56
X187.96Y-38.22
X187.96Y-40.72
X187.96Y-43.22
X166.37Y-96.56
X166.37Y-99.06
X166.37Y-101.56
X172.72Y-38.22
X172.72Y-40.72
X172.72Y-43.22
X165.1Y-38.22
X165.1Y-40.72
X165.1Y-43.22
T7
X160.02Y-68.58
X160.02Y-71.12
X160.02Y-73.66
X160.02Y-76.2
X162.56Y-68.58
X162.56Y-71.12
X162.56Y-73.66
X162.56Y-76.2
X223.52Y-96.52
X226.06Y-96.52
X228.6Y-96.52
X219.71Y-55.88
X222.25Y-55.88
X224.79Y-55.88
X227.33Y-55.88
X229.87Y-55.88
X232.41Y-55.88
X234.95Y-55.88
X237.49Y-55.88
X124.46Y-53.34
X124.46Y-55.88
X127.Y-53.34
X127.Y-55.88
X129.54Y-53.34
X129.54Y-55.88
X193.04Y-88.9
X195.58Y-88.9
X198.12Y-88.9
X200.66Y-88.9
X203.2Y-88.9
X205.74Y-88.9
X208.28Y-88.9
X210.82Y-88.9
X213.36Y-88.9
X215.9Y-88.9
X218.44Y-88.9
X220.98Y-88.9
X223.52Y-88.9
X109.22Y-86.36
X111.76Y-86.36
X114.3Y-86.36
X116.84Y-86.36
X119.38Y-86.36
X121.92Y-86.36
X124.46Y-86.36
X127.Y-86.36
X129.54Y-86.36
X132.08Y-86.36
X134.62Y-86.36
X185.42Y-55.88
X187.96Y-55.88
X190.5Y-55.88
X193.04Y-55.88
X195.58Y-55.88
X198.12Y-55.88
X200.66Y-55.88
X203.2Y-55.88
X205.74Y-55.88
X208.28Y-55.88
X210.82Y-55.88
X213.36Y-55.88
X111.76Y-55.88
X114.3Y-55.88
X116.84Y-55.88
X119.38Y-55.88
X109.22Y-88.9
X111.76Y-88.9
X114.3Y-88.9
X116.84Y-88.9
X119.38Y-88.9
X121.92Y-88.9
X124.46Y-88.9
X127.Y-88.9
X129.54Y-88.9
X132.08Y-88.9
X134.62Y-88.9
X109.22Y-83.82
X111.76Y-83.82
X114.3Y-83.82
X116.84Y-83.82
X119.38Y-83.82
X121.92Y-83.82
X124.46Y-83.82
X127.Y-83.82
X129.54Y-83.82
X132.08Y-83.82
X134.62Y-83.82
X168.91Y-79.375
X168.91Y-81.915
X171.45Y-79.375
X171.45Y-81.915
X228.6Y-88.9
X228.6Y-91.44
X231.14Y-88.9
X231.14Y-91.44
X233.68Y-88.9
X233.68Y-91.44
T8
X110.744Y-47.752
X119.38Y-49.784
X126.492Y-50.491
X133.604Y-49.276
X144.272Y-50.8
X155.956Y-65.532
X170.688Y-56.896
X178.816Y-62.484
T9
X108.712Y-94.996
X108.585Y-100.965
T0
M30
