G04 #@! TF.GenerationSoftware,KiCad,Pcbnew,(5.0.0)*
G04 #@! TF.CreationDate,2018-12-02T19:46:23+01:00*
G04 #@! TF.ProjectId,Nightmare V2,4E696768746D6172652056322E6B6963,rev?*
G04 #@! TF.SameCoordinates,Original*
G04 #@! TF.FileFunction,Paste,Bot*
G04 #@! TF.FilePolarity,Positive*
%FSLAX46Y46*%
G04 Gerber Fmt 4.6, Leading zero omitted, Abs format (unit mm)*
G04 Created by KiCad (PCBNEW (5.0.0)) date 12/02/18 19:46:23*
%MOMM*%
%LPD*%
G01*
G04 APERTURE LIST*
%ADD10C,0.100000*%
%ADD11C,0.950000*%
%ADD12R,0.500000X0.800000*%
%ADD13R,0.400000X0.800000*%
G04 APERTURE END LIST*
D10*
G04 #@! TO.C,C1*
G36*
X139960779Y-85836144D02*
X139983834Y-85839563D01*
X140006443Y-85845227D01*
X140028387Y-85853079D01*
X140049457Y-85863044D01*
X140069448Y-85875026D01*
X140088168Y-85888910D01*
X140105438Y-85904562D01*
X140121090Y-85921832D01*
X140134974Y-85940552D01*
X140146956Y-85960543D01*
X140156921Y-85981613D01*
X140164773Y-86003557D01*
X140170437Y-86026166D01*
X140173856Y-86049221D01*
X140175000Y-86072500D01*
X140175000Y-86647500D01*
X140173856Y-86670779D01*
X140170437Y-86693834D01*
X140164773Y-86716443D01*
X140156921Y-86738387D01*
X140146956Y-86759457D01*
X140134974Y-86779448D01*
X140121090Y-86798168D01*
X140105438Y-86815438D01*
X140088168Y-86831090D01*
X140069448Y-86844974D01*
X140049457Y-86856956D01*
X140028387Y-86866921D01*
X140006443Y-86874773D01*
X139983834Y-86880437D01*
X139960779Y-86883856D01*
X139937500Y-86885000D01*
X139462500Y-86885000D01*
X139439221Y-86883856D01*
X139416166Y-86880437D01*
X139393557Y-86874773D01*
X139371613Y-86866921D01*
X139350543Y-86856956D01*
X139330552Y-86844974D01*
X139311832Y-86831090D01*
X139294562Y-86815438D01*
X139278910Y-86798168D01*
X139265026Y-86779448D01*
X139253044Y-86759457D01*
X139243079Y-86738387D01*
X139235227Y-86716443D01*
X139229563Y-86693834D01*
X139226144Y-86670779D01*
X139225000Y-86647500D01*
X139225000Y-86072500D01*
X139226144Y-86049221D01*
X139229563Y-86026166D01*
X139235227Y-86003557D01*
X139243079Y-85981613D01*
X139253044Y-85960543D01*
X139265026Y-85940552D01*
X139278910Y-85921832D01*
X139294562Y-85904562D01*
X139311832Y-85888910D01*
X139330552Y-85875026D01*
X139350543Y-85863044D01*
X139371613Y-85853079D01*
X139393557Y-85845227D01*
X139416166Y-85839563D01*
X139439221Y-85836144D01*
X139462500Y-85835000D01*
X139937500Y-85835000D01*
X139960779Y-85836144D01*
X139960779Y-85836144D01*
G37*
D11*
X139700000Y-86360000D03*
D10*
G36*
X139960779Y-87586144D02*
X139983834Y-87589563D01*
X140006443Y-87595227D01*
X140028387Y-87603079D01*
X140049457Y-87613044D01*
X140069448Y-87625026D01*
X140088168Y-87638910D01*
X140105438Y-87654562D01*
X140121090Y-87671832D01*
X140134974Y-87690552D01*
X140146956Y-87710543D01*
X140156921Y-87731613D01*
X140164773Y-87753557D01*
X140170437Y-87776166D01*
X140173856Y-87799221D01*
X140175000Y-87822500D01*
X140175000Y-88397500D01*
X140173856Y-88420779D01*
X140170437Y-88443834D01*
X140164773Y-88466443D01*
X140156921Y-88488387D01*
X140146956Y-88509457D01*
X140134974Y-88529448D01*
X140121090Y-88548168D01*
X140105438Y-88565438D01*
X140088168Y-88581090D01*
X140069448Y-88594974D01*
X140049457Y-88606956D01*
X140028387Y-88616921D01*
X140006443Y-88624773D01*
X139983834Y-88630437D01*
X139960779Y-88633856D01*
X139937500Y-88635000D01*
X139462500Y-88635000D01*
X139439221Y-88633856D01*
X139416166Y-88630437D01*
X139393557Y-88624773D01*
X139371613Y-88616921D01*
X139350543Y-88606956D01*
X139330552Y-88594974D01*
X139311832Y-88581090D01*
X139294562Y-88565438D01*
X139278910Y-88548168D01*
X139265026Y-88529448D01*
X139253044Y-88509457D01*
X139243079Y-88488387D01*
X139235227Y-88466443D01*
X139229563Y-88443834D01*
X139226144Y-88420779D01*
X139225000Y-88397500D01*
X139225000Y-87822500D01*
X139226144Y-87799221D01*
X139229563Y-87776166D01*
X139235227Y-87753557D01*
X139243079Y-87731613D01*
X139253044Y-87710543D01*
X139265026Y-87690552D01*
X139278910Y-87671832D01*
X139294562Y-87654562D01*
X139311832Y-87638910D01*
X139330552Y-87625026D01*
X139350543Y-87613044D01*
X139371613Y-87603079D01*
X139393557Y-87595227D01*
X139416166Y-87589563D01*
X139439221Y-87586144D01*
X139462500Y-87585000D01*
X139937500Y-87585000D01*
X139960779Y-87586144D01*
X139960779Y-87586144D01*
G37*
D11*
X139700000Y-88110000D03*
G04 #@! TD*
D10*
G04 #@! TO.C,C2*
G36*
X137420779Y-87586144D02*
X137443834Y-87589563D01*
X137466443Y-87595227D01*
X137488387Y-87603079D01*
X137509457Y-87613044D01*
X137529448Y-87625026D01*
X137548168Y-87638910D01*
X137565438Y-87654562D01*
X137581090Y-87671832D01*
X137594974Y-87690552D01*
X137606956Y-87710543D01*
X137616921Y-87731613D01*
X137624773Y-87753557D01*
X137630437Y-87776166D01*
X137633856Y-87799221D01*
X137635000Y-87822500D01*
X137635000Y-88397500D01*
X137633856Y-88420779D01*
X137630437Y-88443834D01*
X137624773Y-88466443D01*
X137616921Y-88488387D01*
X137606956Y-88509457D01*
X137594974Y-88529448D01*
X137581090Y-88548168D01*
X137565438Y-88565438D01*
X137548168Y-88581090D01*
X137529448Y-88594974D01*
X137509457Y-88606956D01*
X137488387Y-88616921D01*
X137466443Y-88624773D01*
X137443834Y-88630437D01*
X137420779Y-88633856D01*
X137397500Y-88635000D01*
X136922500Y-88635000D01*
X136899221Y-88633856D01*
X136876166Y-88630437D01*
X136853557Y-88624773D01*
X136831613Y-88616921D01*
X136810543Y-88606956D01*
X136790552Y-88594974D01*
X136771832Y-88581090D01*
X136754562Y-88565438D01*
X136738910Y-88548168D01*
X136725026Y-88529448D01*
X136713044Y-88509457D01*
X136703079Y-88488387D01*
X136695227Y-88466443D01*
X136689563Y-88443834D01*
X136686144Y-88420779D01*
X136685000Y-88397500D01*
X136685000Y-87822500D01*
X136686144Y-87799221D01*
X136689563Y-87776166D01*
X136695227Y-87753557D01*
X136703079Y-87731613D01*
X136713044Y-87710543D01*
X136725026Y-87690552D01*
X136738910Y-87671832D01*
X136754562Y-87654562D01*
X136771832Y-87638910D01*
X136790552Y-87625026D01*
X136810543Y-87613044D01*
X136831613Y-87603079D01*
X136853557Y-87595227D01*
X136876166Y-87589563D01*
X136899221Y-87586144D01*
X136922500Y-87585000D01*
X137397500Y-87585000D01*
X137420779Y-87586144D01*
X137420779Y-87586144D01*
G37*
D11*
X137160000Y-88110000D03*
D10*
G36*
X137420779Y-85836144D02*
X137443834Y-85839563D01*
X137466443Y-85845227D01*
X137488387Y-85853079D01*
X137509457Y-85863044D01*
X137529448Y-85875026D01*
X137548168Y-85888910D01*
X137565438Y-85904562D01*
X137581090Y-85921832D01*
X137594974Y-85940552D01*
X137606956Y-85960543D01*
X137616921Y-85981613D01*
X137624773Y-86003557D01*
X137630437Y-86026166D01*
X137633856Y-86049221D01*
X137635000Y-86072500D01*
X137635000Y-86647500D01*
X137633856Y-86670779D01*
X137630437Y-86693834D01*
X137624773Y-86716443D01*
X137616921Y-86738387D01*
X137606956Y-86759457D01*
X137594974Y-86779448D01*
X137581090Y-86798168D01*
X137565438Y-86815438D01*
X137548168Y-86831090D01*
X137529448Y-86844974D01*
X137509457Y-86856956D01*
X137488387Y-86866921D01*
X137466443Y-86874773D01*
X137443834Y-86880437D01*
X137420779Y-86883856D01*
X137397500Y-86885000D01*
X136922500Y-86885000D01*
X136899221Y-86883856D01*
X136876166Y-86880437D01*
X136853557Y-86874773D01*
X136831613Y-86866921D01*
X136810543Y-86856956D01*
X136790552Y-86844974D01*
X136771832Y-86831090D01*
X136754562Y-86815438D01*
X136738910Y-86798168D01*
X136725026Y-86779448D01*
X136713044Y-86759457D01*
X136703079Y-86738387D01*
X136695227Y-86716443D01*
X136689563Y-86693834D01*
X136686144Y-86670779D01*
X136685000Y-86647500D01*
X136685000Y-86072500D01*
X136686144Y-86049221D01*
X136689563Y-86026166D01*
X136695227Y-86003557D01*
X136703079Y-85981613D01*
X136713044Y-85960543D01*
X136725026Y-85940552D01*
X136738910Y-85921832D01*
X136754562Y-85904562D01*
X136771832Y-85888910D01*
X136790552Y-85875026D01*
X136810543Y-85863044D01*
X136831613Y-85853079D01*
X136853557Y-85845227D01*
X136876166Y-85839563D01*
X136899221Y-85836144D01*
X136922500Y-85835000D01*
X137397500Y-85835000D01*
X137420779Y-85836144D01*
X137420779Y-85836144D01*
G37*
D11*
X137160000Y-86360000D03*
G04 #@! TD*
D10*
G04 #@! TO.C,C11*
G36*
X115993779Y-70900144D02*
X116016834Y-70903563D01*
X116039443Y-70909227D01*
X116061387Y-70917079D01*
X116082457Y-70927044D01*
X116102448Y-70939026D01*
X116121168Y-70952910D01*
X116138438Y-70968562D01*
X116154090Y-70985832D01*
X116167974Y-71004552D01*
X116179956Y-71024543D01*
X116189921Y-71045613D01*
X116197773Y-71067557D01*
X116203437Y-71090166D01*
X116206856Y-71113221D01*
X116208000Y-71136500D01*
X116208000Y-71611500D01*
X116206856Y-71634779D01*
X116203437Y-71657834D01*
X116197773Y-71680443D01*
X116189921Y-71702387D01*
X116179956Y-71723457D01*
X116167974Y-71743448D01*
X116154090Y-71762168D01*
X116138438Y-71779438D01*
X116121168Y-71795090D01*
X116102448Y-71808974D01*
X116082457Y-71820956D01*
X116061387Y-71830921D01*
X116039443Y-71838773D01*
X116016834Y-71844437D01*
X115993779Y-71847856D01*
X115970500Y-71849000D01*
X115395500Y-71849000D01*
X115372221Y-71847856D01*
X115349166Y-71844437D01*
X115326557Y-71838773D01*
X115304613Y-71830921D01*
X115283543Y-71820956D01*
X115263552Y-71808974D01*
X115244832Y-71795090D01*
X115227562Y-71779438D01*
X115211910Y-71762168D01*
X115198026Y-71743448D01*
X115186044Y-71723457D01*
X115176079Y-71702387D01*
X115168227Y-71680443D01*
X115162563Y-71657834D01*
X115159144Y-71634779D01*
X115158000Y-71611500D01*
X115158000Y-71136500D01*
X115159144Y-71113221D01*
X115162563Y-71090166D01*
X115168227Y-71067557D01*
X115176079Y-71045613D01*
X115186044Y-71024543D01*
X115198026Y-71004552D01*
X115211910Y-70985832D01*
X115227562Y-70968562D01*
X115244832Y-70952910D01*
X115263552Y-70939026D01*
X115283543Y-70927044D01*
X115304613Y-70917079D01*
X115326557Y-70909227D01*
X115349166Y-70903563D01*
X115372221Y-70900144D01*
X115395500Y-70899000D01*
X115970500Y-70899000D01*
X115993779Y-70900144D01*
X115993779Y-70900144D01*
G37*
D11*
X115683000Y-71374000D03*
D10*
G36*
X114243779Y-70900144D02*
X114266834Y-70903563D01*
X114289443Y-70909227D01*
X114311387Y-70917079D01*
X114332457Y-70927044D01*
X114352448Y-70939026D01*
X114371168Y-70952910D01*
X114388438Y-70968562D01*
X114404090Y-70985832D01*
X114417974Y-71004552D01*
X114429956Y-71024543D01*
X114439921Y-71045613D01*
X114447773Y-71067557D01*
X114453437Y-71090166D01*
X114456856Y-71113221D01*
X114458000Y-71136500D01*
X114458000Y-71611500D01*
X114456856Y-71634779D01*
X114453437Y-71657834D01*
X114447773Y-71680443D01*
X114439921Y-71702387D01*
X114429956Y-71723457D01*
X114417974Y-71743448D01*
X114404090Y-71762168D01*
X114388438Y-71779438D01*
X114371168Y-71795090D01*
X114352448Y-71808974D01*
X114332457Y-71820956D01*
X114311387Y-71830921D01*
X114289443Y-71838773D01*
X114266834Y-71844437D01*
X114243779Y-71847856D01*
X114220500Y-71849000D01*
X113645500Y-71849000D01*
X113622221Y-71847856D01*
X113599166Y-71844437D01*
X113576557Y-71838773D01*
X113554613Y-71830921D01*
X113533543Y-71820956D01*
X113513552Y-71808974D01*
X113494832Y-71795090D01*
X113477562Y-71779438D01*
X113461910Y-71762168D01*
X113448026Y-71743448D01*
X113436044Y-71723457D01*
X113426079Y-71702387D01*
X113418227Y-71680443D01*
X113412563Y-71657834D01*
X113409144Y-71634779D01*
X113408000Y-71611500D01*
X113408000Y-71136500D01*
X113409144Y-71113221D01*
X113412563Y-71090166D01*
X113418227Y-71067557D01*
X113426079Y-71045613D01*
X113436044Y-71024543D01*
X113448026Y-71004552D01*
X113461910Y-70985832D01*
X113477562Y-70968562D01*
X113494832Y-70952910D01*
X113513552Y-70939026D01*
X113533543Y-70927044D01*
X113554613Y-70917079D01*
X113576557Y-70909227D01*
X113599166Y-70903563D01*
X113622221Y-70900144D01*
X113645500Y-70899000D01*
X114220500Y-70899000D01*
X114243779Y-70900144D01*
X114243779Y-70900144D01*
G37*
D11*
X113933000Y-71374000D03*
G04 #@! TD*
D10*
G04 #@! TO.C,C5*
G36*
X115993779Y-74964144D02*
X116016834Y-74967563D01*
X116039443Y-74973227D01*
X116061387Y-74981079D01*
X116082457Y-74991044D01*
X116102448Y-75003026D01*
X116121168Y-75016910D01*
X116138438Y-75032562D01*
X116154090Y-75049832D01*
X116167974Y-75068552D01*
X116179956Y-75088543D01*
X116189921Y-75109613D01*
X116197773Y-75131557D01*
X116203437Y-75154166D01*
X116206856Y-75177221D01*
X116208000Y-75200500D01*
X116208000Y-75675500D01*
X116206856Y-75698779D01*
X116203437Y-75721834D01*
X116197773Y-75744443D01*
X116189921Y-75766387D01*
X116179956Y-75787457D01*
X116167974Y-75807448D01*
X116154090Y-75826168D01*
X116138438Y-75843438D01*
X116121168Y-75859090D01*
X116102448Y-75872974D01*
X116082457Y-75884956D01*
X116061387Y-75894921D01*
X116039443Y-75902773D01*
X116016834Y-75908437D01*
X115993779Y-75911856D01*
X115970500Y-75913000D01*
X115395500Y-75913000D01*
X115372221Y-75911856D01*
X115349166Y-75908437D01*
X115326557Y-75902773D01*
X115304613Y-75894921D01*
X115283543Y-75884956D01*
X115263552Y-75872974D01*
X115244832Y-75859090D01*
X115227562Y-75843438D01*
X115211910Y-75826168D01*
X115198026Y-75807448D01*
X115186044Y-75787457D01*
X115176079Y-75766387D01*
X115168227Y-75744443D01*
X115162563Y-75721834D01*
X115159144Y-75698779D01*
X115158000Y-75675500D01*
X115158000Y-75200500D01*
X115159144Y-75177221D01*
X115162563Y-75154166D01*
X115168227Y-75131557D01*
X115176079Y-75109613D01*
X115186044Y-75088543D01*
X115198026Y-75068552D01*
X115211910Y-75049832D01*
X115227562Y-75032562D01*
X115244832Y-75016910D01*
X115263552Y-75003026D01*
X115283543Y-74991044D01*
X115304613Y-74981079D01*
X115326557Y-74973227D01*
X115349166Y-74967563D01*
X115372221Y-74964144D01*
X115395500Y-74963000D01*
X115970500Y-74963000D01*
X115993779Y-74964144D01*
X115993779Y-74964144D01*
G37*
D11*
X115683000Y-75438000D03*
D10*
G36*
X114243779Y-74964144D02*
X114266834Y-74967563D01*
X114289443Y-74973227D01*
X114311387Y-74981079D01*
X114332457Y-74991044D01*
X114352448Y-75003026D01*
X114371168Y-75016910D01*
X114388438Y-75032562D01*
X114404090Y-75049832D01*
X114417974Y-75068552D01*
X114429956Y-75088543D01*
X114439921Y-75109613D01*
X114447773Y-75131557D01*
X114453437Y-75154166D01*
X114456856Y-75177221D01*
X114458000Y-75200500D01*
X114458000Y-75675500D01*
X114456856Y-75698779D01*
X114453437Y-75721834D01*
X114447773Y-75744443D01*
X114439921Y-75766387D01*
X114429956Y-75787457D01*
X114417974Y-75807448D01*
X114404090Y-75826168D01*
X114388438Y-75843438D01*
X114371168Y-75859090D01*
X114352448Y-75872974D01*
X114332457Y-75884956D01*
X114311387Y-75894921D01*
X114289443Y-75902773D01*
X114266834Y-75908437D01*
X114243779Y-75911856D01*
X114220500Y-75913000D01*
X113645500Y-75913000D01*
X113622221Y-75911856D01*
X113599166Y-75908437D01*
X113576557Y-75902773D01*
X113554613Y-75894921D01*
X113533543Y-75884956D01*
X113513552Y-75872974D01*
X113494832Y-75859090D01*
X113477562Y-75843438D01*
X113461910Y-75826168D01*
X113448026Y-75807448D01*
X113436044Y-75787457D01*
X113426079Y-75766387D01*
X113418227Y-75744443D01*
X113412563Y-75721834D01*
X113409144Y-75698779D01*
X113408000Y-75675500D01*
X113408000Y-75200500D01*
X113409144Y-75177221D01*
X113412563Y-75154166D01*
X113418227Y-75131557D01*
X113426079Y-75109613D01*
X113436044Y-75088543D01*
X113448026Y-75068552D01*
X113461910Y-75049832D01*
X113477562Y-75032562D01*
X113494832Y-75016910D01*
X113513552Y-75003026D01*
X113533543Y-74991044D01*
X113554613Y-74981079D01*
X113576557Y-74973227D01*
X113599166Y-74967563D01*
X113622221Y-74964144D01*
X113645500Y-74963000D01*
X114220500Y-74963000D01*
X114243779Y-74964144D01*
X114243779Y-74964144D01*
G37*
D11*
X113933000Y-75438000D03*
G04 #@! TD*
D10*
G04 #@! TO.C,C6*
G36*
X114243779Y-72932144D02*
X114266834Y-72935563D01*
X114289443Y-72941227D01*
X114311387Y-72949079D01*
X114332457Y-72959044D01*
X114352448Y-72971026D01*
X114371168Y-72984910D01*
X114388438Y-73000562D01*
X114404090Y-73017832D01*
X114417974Y-73036552D01*
X114429956Y-73056543D01*
X114439921Y-73077613D01*
X114447773Y-73099557D01*
X114453437Y-73122166D01*
X114456856Y-73145221D01*
X114458000Y-73168500D01*
X114458000Y-73643500D01*
X114456856Y-73666779D01*
X114453437Y-73689834D01*
X114447773Y-73712443D01*
X114439921Y-73734387D01*
X114429956Y-73755457D01*
X114417974Y-73775448D01*
X114404090Y-73794168D01*
X114388438Y-73811438D01*
X114371168Y-73827090D01*
X114352448Y-73840974D01*
X114332457Y-73852956D01*
X114311387Y-73862921D01*
X114289443Y-73870773D01*
X114266834Y-73876437D01*
X114243779Y-73879856D01*
X114220500Y-73881000D01*
X113645500Y-73881000D01*
X113622221Y-73879856D01*
X113599166Y-73876437D01*
X113576557Y-73870773D01*
X113554613Y-73862921D01*
X113533543Y-73852956D01*
X113513552Y-73840974D01*
X113494832Y-73827090D01*
X113477562Y-73811438D01*
X113461910Y-73794168D01*
X113448026Y-73775448D01*
X113436044Y-73755457D01*
X113426079Y-73734387D01*
X113418227Y-73712443D01*
X113412563Y-73689834D01*
X113409144Y-73666779D01*
X113408000Y-73643500D01*
X113408000Y-73168500D01*
X113409144Y-73145221D01*
X113412563Y-73122166D01*
X113418227Y-73099557D01*
X113426079Y-73077613D01*
X113436044Y-73056543D01*
X113448026Y-73036552D01*
X113461910Y-73017832D01*
X113477562Y-73000562D01*
X113494832Y-72984910D01*
X113513552Y-72971026D01*
X113533543Y-72959044D01*
X113554613Y-72949079D01*
X113576557Y-72941227D01*
X113599166Y-72935563D01*
X113622221Y-72932144D01*
X113645500Y-72931000D01*
X114220500Y-72931000D01*
X114243779Y-72932144D01*
X114243779Y-72932144D01*
G37*
D11*
X113933000Y-73406000D03*
D10*
G36*
X115993779Y-72932144D02*
X116016834Y-72935563D01*
X116039443Y-72941227D01*
X116061387Y-72949079D01*
X116082457Y-72959044D01*
X116102448Y-72971026D01*
X116121168Y-72984910D01*
X116138438Y-73000562D01*
X116154090Y-73017832D01*
X116167974Y-73036552D01*
X116179956Y-73056543D01*
X116189921Y-73077613D01*
X116197773Y-73099557D01*
X116203437Y-73122166D01*
X116206856Y-73145221D01*
X116208000Y-73168500D01*
X116208000Y-73643500D01*
X116206856Y-73666779D01*
X116203437Y-73689834D01*
X116197773Y-73712443D01*
X116189921Y-73734387D01*
X116179956Y-73755457D01*
X116167974Y-73775448D01*
X116154090Y-73794168D01*
X116138438Y-73811438D01*
X116121168Y-73827090D01*
X116102448Y-73840974D01*
X116082457Y-73852956D01*
X116061387Y-73862921D01*
X116039443Y-73870773D01*
X116016834Y-73876437D01*
X115993779Y-73879856D01*
X115970500Y-73881000D01*
X115395500Y-73881000D01*
X115372221Y-73879856D01*
X115349166Y-73876437D01*
X115326557Y-73870773D01*
X115304613Y-73862921D01*
X115283543Y-73852956D01*
X115263552Y-73840974D01*
X115244832Y-73827090D01*
X115227562Y-73811438D01*
X115211910Y-73794168D01*
X115198026Y-73775448D01*
X115186044Y-73755457D01*
X115176079Y-73734387D01*
X115168227Y-73712443D01*
X115162563Y-73689834D01*
X115159144Y-73666779D01*
X115158000Y-73643500D01*
X115158000Y-73168500D01*
X115159144Y-73145221D01*
X115162563Y-73122166D01*
X115168227Y-73099557D01*
X115176079Y-73077613D01*
X115186044Y-73056543D01*
X115198026Y-73036552D01*
X115211910Y-73017832D01*
X115227562Y-73000562D01*
X115244832Y-72984910D01*
X115263552Y-72971026D01*
X115283543Y-72959044D01*
X115304613Y-72949079D01*
X115326557Y-72941227D01*
X115349166Y-72935563D01*
X115372221Y-72932144D01*
X115395500Y-72931000D01*
X115970500Y-72931000D01*
X115993779Y-72932144D01*
X115993779Y-72932144D01*
G37*
D11*
X115683000Y-73406000D03*
G04 #@! TD*
D10*
G04 #@! TO.C,C7*
G36*
X109480779Y-80615144D02*
X109503834Y-80618563D01*
X109526443Y-80624227D01*
X109548387Y-80632079D01*
X109569457Y-80642044D01*
X109589448Y-80654026D01*
X109608168Y-80667910D01*
X109625438Y-80683562D01*
X109641090Y-80700832D01*
X109654974Y-80719552D01*
X109666956Y-80739543D01*
X109676921Y-80760613D01*
X109684773Y-80782557D01*
X109690437Y-80805166D01*
X109693856Y-80828221D01*
X109695000Y-80851500D01*
X109695000Y-81426500D01*
X109693856Y-81449779D01*
X109690437Y-81472834D01*
X109684773Y-81495443D01*
X109676921Y-81517387D01*
X109666956Y-81538457D01*
X109654974Y-81558448D01*
X109641090Y-81577168D01*
X109625438Y-81594438D01*
X109608168Y-81610090D01*
X109589448Y-81623974D01*
X109569457Y-81635956D01*
X109548387Y-81645921D01*
X109526443Y-81653773D01*
X109503834Y-81659437D01*
X109480779Y-81662856D01*
X109457500Y-81664000D01*
X108982500Y-81664000D01*
X108959221Y-81662856D01*
X108936166Y-81659437D01*
X108913557Y-81653773D01*
X108891613Y-81645921D01*
X108870543Y-81635956D01*
X108850552Y-81623974D01*
X108831832Y-81610090D01*
X108814562Y-81594438D01*
X108798910Y-81577168D01*
X108785026Y-81558448D01*
X108773044Y-81538457D01*
X108763079Y-81517387D01*
X108755227Y-81495443D01*
X108749563Y-81472834D01*
X108746144Y-81449779D01*
X108745000Y-81426500D01*
X108745000Y-80851500D01*
X108746144Y-80828221D01*
X108749563Y-80805166D01*
X108755227Y-80782557D01*
X108763079Y-80760613D01*
X108773044Y-80739543D01*
X108785026Y-80719552D01*
X108798910Y-80700832D01*
X108814562Y-80683562D01*
X108831832Y-80667910D01*
X108850552Y-80654026D01*
X108870543Y-80642044D01*
X108891613Y-80632079D01*
X108913557Y-80624227D01*
X108936166Y-80618563D01*
X108959221Y-80615144D01*
X108982500Y-80614000D01*
X109457500Y-80614000D01*
X109480779Y-80615144D01*
X109480779Y-80615144D01*
G37*
D11*
X109220000Y-81139000D03*
D10*
G36*
X109480779Y-78865144D02*
X109503834Y-78868563D01*
X109526443Y-78874227D01*
X109548387Y-78882079D01*
X109569457Y-78892044D01*
X109589448Y-78904026D01*
X109608168Y-78917910D01*
X109625438Y-78933562D01*
X109641090Y-78950832D01*
X109654974Y-78969552D01*
X109666956Y-78989543D01*
X109676921Y-79010613D01*
X109684773Y-79032557D01*
X109690437Y-79055166D01*
X109693856Y-79078221D01*
X109695000Y-79101500D01*
X109695000Y-79676500D01*
X109693856Y-79699779D01*
X109690437Y-79722834D01*
X109684773Y-79745443D01*
X109676921Y-79767387D01*
X109666956Y-79788457D01*
X109654974Y-79808448D01*
X109641090Y-79827168D01*
X109625438Y-79844438D01*
X109608168Y-79860090D01*
X109589448Y-79873974D01*
X109569457Y-79885956D01*
X109548387Y-79895921D01*
X109526443Y-79903773D01*
X109503834Y-79909437D01*
X109480779Y-79912856D01*
X109457500Y-79914000D01*
X108982500Y-79914000D01*
X108959221Y-79912856D01*
X108936166Y-79909437D01*
X108913557Y-79903773D01*
X108891613Y-79895921D01*
X108870543Y-79885956D01*
X108850552Y-79873974D01*
X108831832Y-79860090D01*
X108814562Y-79844438D01*
X108798910Y-79827168D01*
X108785026Y-79808448D01*
X108773044Y-79788457D01*
X108763079Y-79767387D01*
X108755227Y-79745443D01*
X108749563Y-79722834D01*
X108746144Y-79699779D01*
X108745000Y-79676500D01*
X108745000Y-79101500D01*
X108746144Y-79078221D01*
X108749563Y-79055166D01*
X108755227Y-79032557D01*
X108763079Y-79010613D01*
X108773044Y-78989543D01*
X108785026Y-78969552D01*
X108798910Y-78950832D01*
X108814562Y-78933562D01*
X108831832Y-78917910D01*
X108850552Y-78904026D01*
X108870543Y-78892044D01*
X108891613Y-78882079D01*
X108913557Y-78874227D01*
X108936166Y-78868563D01*
X108959221Y-78865144D01*
X108982500Y-78864000D01*
X109457500Y-78864000D01*
X109480779Y-78865144D01*
X109480779Y-78865144D01*
G37*
D11*
X109220000Y-79389000D03*
G04 #@! TD*
D10*
G04 #@! TO.C,C10*
G36*
X111512779Y-80615144D02*
X111535834Y-80618563D01*
X111558443Y-80624227D01*
X111580387Y-80632079D01*
X111601457Y-80642044D01*
X111621448Y-80654026D01*
X111640168Y-80667910D01*
X111657438Y-80683562D01*
X111673090Y-80700832D01*
X111686974Y-80719552D01*
X111698956Y-80739543D01*
X111708921Y-80760613D01*
X111716773Y-80782557D01*
X111722437Y-80805166D01*
X111725856Y-80828221D01*
X111727000Y-80851500D01*
X111727000Y-81426500D01*
X111725856Y-81449779D01*
X111722437Y-81472834D01*
X111716773Y-81495443D01*
X111708921Y-81517387D01*
X111698956Y-81538457D01*
X111686974Y-81558448D01*
X111673090Y-81577168D01*
X111657438Y-81594438D01*
X111640168Y-81610090D01*
X111621448Y-81623974D01*
X111601457Y-81635956D01*
X111580387Y-81645921D01*
X111558443Y-81653773D01*
X111535834Y-81659437D01*
X111512779Y-81662856D01*
X111489500Y-81664000D01*
X111014500Y-81664000D01*
X110991221Y-81662856D01*
X110968166Y-81659437D01*
X110945557Y-81653773D01*
X110923613Y-81645921D01*
X110902543Y-81635956D01*
X110882552Y-81623974D01*
X110863832Y-81610090D01*
X110846562Y-81594438D01*
X110830910Y-81577168D01*
X110817026Y-81558448D01*
X110805044Y-81538457D01*
X110795079Y-81517387D01*
X110787227Y-81495443D01*
X110781563Y-81472834D01*
X110778144Y-81449779D01*
X110777000Y-81426500D01*
X110777000Y-80851500D01*
X110778144Y-80828221D01*
X110781563Y-80805166D01*
X110787227Y-80782557D01*
X110795079Y-80760613D01*
X110805044Y-80739543D01*
X110817026Y-80719552D01*
X110830910Y-80700832D01*
X110846562Y-80683562D01*
X110863832Y-80667910D01*
X110882552Y-80654026D01*
X110902543Y-80642044D01*
X110923613Y-80632079D01*
X110945557Y-80624227D01*
X110968166Y-80618563D01*
X110991221Y-80615144D01*
X111014500Y-80614000D01*
X111489500Y-80614000D01*
X111512779Y-80615144D01*
X111512779Y-80615144D01*
G37*
D11*
X111252000Y-81139000D03*
D10*
G36*
X111512779Y-78865144D02*
X111535834Y-78868563D01*
X111558443Y-78874227D01*
X111580387Y-78882079D01*
X111601457Y-78892044D01*
X111621448Y-78904026D01*
X111640168Y-78917910D01*
X111657438Y-78933562D01*
X111673090Y-78950832D01*
X111686974Y-78969552D01*
X111698956Y-78989543D01*
X111708921Y-79010613D01*
X111716773Y-79032557D01*
X111722437Y-79055166D01*
X111725856Y-79078221D01*
X111727000Y-79101500D01*
X111727000Y-79676500D01*
X111725856Y-79699779D01*
X111722437Y-79722834D01*
X111716773Y-79745443D01*
X111708921Y-79767387D01*
X111698956Y-79788457D01*
X111686974Y-79808448D01*
X111673090Y-79827168D01*
X111657438Y-79844438D01*
X111640168Y-79860090D01*
X111621448Y-79873974D01*
X111601457Y-79885956D01*
X111580387Y-79895921D01*
X111558443Y-79903773D01*
X111535834Y-79909437D01*
X111512779Y-79912856D01*
X111489500Y-79914000D01*
X111014500Y-79914000D01*
X110991221Y-79912856D01*
X110968166Y-79909437D01*
X110945557Y-79903773D01*
X110923613Y-79895921D01*
X110902543Y-79885956D01*
X110882552Y-79873974D01*
X110863832Y-79860090D01*
X110846562Y-79844438D01*
X110830910Y-79827168D01*
X110817026Y-79808448D01*
X110805044Y-79788457D01*
X110795079Y-79767387D01*
X110787227Y-79745443D01*
X110781563Y-79722834D01*
X110778144Y-79699779D01*
X110777000Y-79676500D01*
X110777000Y-79101500D01*
X110778144Y-79078221D01*
X110781563Y-79055166D01*
X110787227Y-79032557D01*
X110795079Y-79010613D01*
X110805044Y-78989543D01*
X110817026Y-78969552D01*
X110830910Y-78950832D01*
X110846562Y-78933562D01*
X110863832Y-78917910D01*
X110882552Y-78904026D01*
X110902543Y-78892044D01*
X110923613Y-78882079D01*
X110945557Y-78874227D01*
X110968166Y-78868563D01*
X110991221Y-78865144D01*
X111014500Y-78864000D01*
X111489500Y-78864000D01*
X111512779Y-78865144D01*
X111512779Y-78865144D01*
G37*
D11*
X111252000Y-79389000D03*
G04 #@! TD*
D12*
G04 #@! TO.C,RN2*
X123260000Y-79110000D03*
D13*
X124860000Y-79110000D03*
X124060000Y-79110000D03*
D12*
X125660000Y-79110000D03*
D13*
X124060000Y-80910000D03*
D12*
X123260000Y-80910000D03*
D13*
X124860000Y-80910000D03*
D12*
X125660000Y-80910000D03*
G04 #@! TD*
G04 #@! TO.C,RN3*
X130740000Y-80910000D03*
D13*
X129940000Y-80910000D03*
D12*
X128340000Y-80910000D03*
D13*
X129140000Y-80910000D03*
D12*
X130740000Y-79110000D03*
D13*
X129140000Y-79110000D03*
X129940000Y-79110000D03*
D12*
X128340000Y-79110000D03*
G04 #@! TD*
G04 #@! TO.C,RN1*
X118180000Y-79110000D03*
D13*
X119780000Y-79110000D03*
X118980000Y-79110000D03*
D12*
X120580000Y-79110000D03*
D13*
X118980000Y-80910000D03*
D12*
X118180000Y-80910000D03*
D13*
X119780000Y-80910000D03*
D12*
X120580000Y-80910000D03*
G04 #@! TD*
M02*
