G04 #@! TF.GenerationSoftware,KiCad,Pcbnew,(5.0.0)*
G04 #@! TF.CreationDate,2018-12-02T19:46:23+01:00*
G04 #@! TF.ProjectId,Nightmare V2,4E696768746D6172652056322E6B6963,rev?*
G04 #@! TF.SameCoordinates,Original*
G04 #@! TF.FileFunction,Soldermask,Bot*
G04 #@! TF.FilePolarity,Negative*
%FSLAX46Y46*%
G04 Gerber Fmt 4.6, Leading zero omitted, Abs format (unit mm)*
G04 Created by KiCad (PCBNEW (5.0.0)) date 12/02/18 19:46:23*
%MOMM*%
%LPD*%
G01*
G04 APERTURE LIST*
%ADD10O,2.100000X2.100000*%
%ADD11R,2.100000X2.100000*%
%ADD12C,1.840000*%
%ADD13R,4.400000X4.400000*%
%ADD14C,3.600000*%
%ADD15C,0.100000*%
%ADD16C,1.350000*%
%ADD17O,2.350000X2.100000*%
%ADD18R,2.350000X2.100000*%
%ADD19O,1.400000X1.400000*%
%ADD20R,1.400000X1.400000*%
%ADD21C,1.400000*%
%ADD22R,0.900000X1.200000*%
%ADD23R,0.800000X1.200000*%
%ADD24C,1.924000*%
G04 APERTURE END LIST*
D10*
G04 #@! TO.C,J19*
X228600000Y-91440000D03*
X228600000Y-88900000D03*
X231140000Y-91440000D03*
X231140000Y-88900000D03*
X233680000Y-91440000D03*
D11*
X233680000Y-88900000D03*
G04 #@! TD*
D12*
G04 #@! TO.C,RV2*
X157480000Y-61976000D03*
X157480000Y-59436000D03*
X157480000Y-56896000D03*
G04 #@! TD*
D13*
G04 #@! TO.C,J24*
X108585000Y-100965000D03*
G04 #@! TD*
G04 #@! TO.C,J25*
X108712000Y-94996000D03*
G04 #@! TD*
D11*
G04 #@! TO.C,J22*
X168910000Y-79375000D03*
D10*
X171450000Y-79375000D03*
X168910000Y-81915000D03*
X171450000Y-81915000D03*
G04 #@! TD*
D14*
G04 #@! TO.C,MH1*
X109220000Y-38100000D03*
G04 #@! TD*
G04 #@! TO.C,MH2*
X236220000Y-38100000D03*
G04 #@! TD*
G04 #@! TO.C,MH3*
X236220000Y-111760000D03*
G04 #@! TD*
G04 #@! TO.C,MH4*
X109220000Y-111760000D03*
G04 #@! TD*
D11*
G04 #@! TO.C,J18*
X111760000Y-55880000D03*
D10*
X114300000Y-55880000D03*
X116840000Y-55880000D03*
X119380000Y-55880000D03*
G04 #@! TD*
D15*
G04 #@! TO.C,C1*
G36*
X140070581Y-85636625D02*
X140103343Y-85641485D01*
X140135471Y-85649533D01*
X140166656Y-85660691D01*
X140196596Y-85674852D01*
X140225005Y-85691879D01*
X140251608Y-85711609D01*
X140276149Y-85733851D01*
X140298391Y-85758392D01*
X140318121Y-85784995D01*
X140335148Y-85813404D01*
X140349309Y-85843344D01*
X140360467Y-85874529D01*
X140368515Y-85906657D01*
X140373375Y-85939419D01*
X140375000Y-85972500D01*
X140375000Y-86747500D01*
X140373375Y-86780581D01*
X140368515Y-86813343D01*
X140360467Y-86845471D01*
X140349309Y-86876656D01*
X140335148Y-86906596D01*
X140318121Y-86935005D01*
X140298391Y-86961608D01*
X140276149Y-86986149D01*
X140251608Y-87008391D01*
X140225005Y-87028121D01*
X140196596Y-87045148D01*
X140166656Y-87059309D01*
X140135471Y-87070467D01*
X140103343Y-87078515D01*
X140070581Y-87083375D01*
X140037500Y-87085000D01*
X139362500Y-87085000D01*
X139329419Y-87083375D01*
X139296657Y-87078515D01*
X139264529Y-87070467D01*
X139233344Y-87059309D01*
X139203404Y-87045148D01*
X139174995Y-87028121D01*
X139148392Y-87008391D01*
X139123851Y-86986149D01*
X139101609Y-86961608D01*
X139081879Y-86935005D01*
X139064852Y-86906596D01*
X139050691Y-86876656D01*
X139039533Y-86845471D01*
X139031485Y-86813343D01*
X139026625Y-86780581D01*
X139025000Y-86747500D01*
X139025000Y-85972500D01*
X139026625Y-85939419D01*
X139031485Y-85906657D01*
X139039533Y-85874529D01*
X139050691Y-85843344D01*
X139064852Y-85813404D01*
X139081879Y-85784995D01*
X139101609Y-85758392D01*
X139123851Y-85733851D01*
X139148392Y-85711609D01*
X139174995Y-85691879D01*
X139203404Y-85674852D01*
X139233344Y-85660691D01*
X139264529Y-85649533D01*
X139296657Y-85641485D01*
X139329419Y-85636625D01*
X139362500Y-85635000D01*
X140037500Y-85635000D01*
X140070581Y-85636625D01*
X140070581Y-85636625D01*
G37*
D16*
X139700000Y-86360000D03*
D15*
G36*
X140070581Y-87386625D02*
X140103343Y-87391485D01*
X140135471Y-87399533D01*
X140166656Y-87410691D01*
X140196596Y-87424852D01*
X140225005Y-87441879D01*
X140251608Y-87461609D01*
X140276149Y-87483851D01*
X140298391Y-87508392D01*
X140318121Y-87534995D01*
X140335148Y-87563404D01*
X140349309Y-87593344D01*
X140360467Y-87624529D01*
X140368515Y-87656657D01*
X140373375Y-87689419D01*
X140375000Y-87722500D01*
X140375000Y-88497500D01*
X140373375Y-88530581D01*
X140368515Y-88563343D01*
X140360467Y-88595471D01*
X140349309Y-88626656D01*
X140335148Y-88656596D01*
X140318121Y-88685005D01*
X140298391Y-88711608D01*
X140276149Y-88736149D01*
X140251608Y-88758391D01*
X140225005Y-88778121D01*
X140196596Y-88795148D01*
X140166656Y-88809309D01*
X140135471Y-88820467D01*
X140103343Y-88828515D01*
X140070581Y-88833375D01*
X140037500Y-88835000D01*
X139362500Y-88835000D01*
X139329419Y-88833375D01*
X139296657Y-88828515D01*
X139264529Y-88820467D01*
X139233344Y-88809309D01*
X139203404Y-88795148D01*
X139174995Y-88778121D01*
X139148392Y-88758391D01*
X139123851Y-88736149D01*
X139101609Y-88711608D01*
X139081879Y-88685005D01*
X139064852Y-88656596D01*
X139050691Y-88626656D01*
X139039533Y-88595471D01*
X139031485Y-88563343D01*
X139026625Y-88530581D01*
X139025000Y-88497500D01*
X139025000Y-87722500D01*
X139026625Y-87689419D01*
X139031485Y-87656657D01*
X139039533Y-87624529D01*
X139050691Y-87593344D01*
X139064852Y-87563404D01*
X139081879Y-87534995D01*
X139101609Y-87508392D01*
X139123851Y-87483851D01*
X139148392Y-87461609D01*
X139174995Y-87441879D01*
X139203404Y-87424852D01*
X139233344Y-87410691D01*
X139264529Y-87399533D01*
X139296657Y-87391485D01*
X139329419Y-87386625D01*
X139362500Y-87385000D01*
X140037500Y-87385000D01*
X140070581Y-87386625D01*
X140070581Y-87386625D01*
G37*
D16*
X139700000Y-88110000D03*
G04 #@! TD*
D15*
G04 #@! TO.C,C2*
G36*
X137530581Y-87386625D02*
X137563343Y-87391485D01*
X137595471Y-87399533D01*
X137626656Y-87410691D01*
X137656596Y-87424852D01*
X137685005Y-87441879D01*
X137711608Y-87461609D01*
X137736149Y-87483851D01*
X137758391Y-87508392D01*
X137778121Y-87534995D01*
X137795148Y-87563404D01*
X137809309Y-87593344D01*
X137820467Y-87624529D01*
X137828515Y-87656657D01*
X137833375Y-87689419D01*
X137835000Y-87722500D01*
X137835000Y-88497500D01*
X137833375Y-88530581D01*
X137828515Y-88563343D01*
X137820467Y-88595471D01*
X137809309Y-88626656D01*
X137795148Y-88656596D01*
X137778121Y-88685005D01*
X137758391Y-88711608D01*
X137736149Y-88736149D01*
X137711608Y-88758391D01*
X137685005Y-88778121D01*
X137656596Y-88795148D01*
X137626656Y-88809309D01*
X137595471Y-88820467D01*
X137563343Y-88828515D01*
X137530581Y-88833375D01*
X137497500Y-88835000D01*
X136822500Y-88835000D01*
X136789419Y-88833375D01*
X136756657Y-88828515D01*
X136724529Y-88820467D01*
X136693344Y-88809309D01*
X136663404Y-88795148D01*
X136634995Y-88778121D01*
X136608392Y-88758391D01*
X136583851Y-88736149D01*
X136561609Y-88711608D01*
X136541879Y-88685005D01*
X136524852Y-88656596D01*
X136510691Y-88626656D01*
X136499533Y-88595471D01*
X136491485Y-88563343D01*
X136486625Y-88530581D01*
X136485000Y-88497500D01*
X136485000Y-87722500D01*
X136486625Y-87689419D01*
X136491485Y-87656657D01*
X136499533Y-87624529D01*
X136510691Y-87593344D01*
X136524852Y-87563404D01*
X136541879Y-87534995D01*
X136561609Y-87508392D01*
X136583851Y-87483851D01*
X136608392Y-87461609D01*
X136634995Y-87441879D01*
X136663404Y-87424852D01*
X136693344Y-87410691D01*
X136724529Y-87399533D01*
X136756657Y-87391485D01*
X136789419Y-87386625D01*
X136822500Y-87385000D01*
X137497500Y-87385000D01*
X137530581Y-87386625D01*
X137530581Y-87386625D01*
G37*
D16*
X137160000Y-88110000D03*
D15*
G36*
X137530581Y-85636625D02*
X137563343Y-85641485D01*
X137595471Y-85649533D01*
X137626656Y-85660691D01*
X137656596Y-85674852D01*
X137685005Y-85691879D01*
X137711608Y-85711609D01*
X137736149Y-85733851D01*
X137758391Y-85758392D01*
X137778121Y-85784995D01*
X137795148Y-85813404D01*
X137809309Y-85843344D01*
X137820467Y-85874529D01*
X137828515Y-85906657D01*
X137833375Y-85939419D01*
X137835000Y-85972500D01*
X137835000Y-86747500D01*
X137833375Y-86780581D01*
X137828515Y-86813343D01*
X137820467Y-86845471D01*
X137809309Y-86876656D01*
X137795148Y-86906596D01*
X137778121Y-86935005D01*
X137758391Y-86961608D01*
X137736149Y-86986149D01*
X137711608Y-87008391D01*
X137685005Y-87028121D01*
X137656596Y-87045148D01*
X137626656Y-87059309D01*
X137595471Y-87070467D01*
X137563343Y-87078515D01*
X137530581Y-87083375D01*
X137497500Y-87085000D01*
X136822500Y-87085000D01*
X136789419Y-87083375D01*
X136756657Y-87078515D01*
X136724529Y-87070467D01*
X136693344Y-87059309D01*
X136663404Y-87045148D01*
X136634995Y-87028121D01*
X136608392Y-87008391D01*
X136583851Y-86986149D01*
X136561609Y-86961608D01*
X136541879Y-86935005D01*
X136524852Y-86906596D01*
X136510691Y-86876656D01*
X136499533Y-86845471D01*
X136491485Y-86813343D01*
X136486625Y-86780581D01*
X136485000Y-86747500D01*
X136485000Y-85972500D01*
X136486625Y-85939419D01*
X136491485Y-85906657D01*
X136499533Y-85874529D01*
X136510691Y-85843344D01*
X136524852Y-85813404D01*
X136541879Y-85784995D01*
X136561609Y-85758392D01*
X136583851Y-85733851D01*
X136608392Y-85711609D01*
X136634995Y-85691879D01*
X136663404Y-85674852D01*
X136693344Y-85660691D01*
X136724529Y-85649533D01*
X136756657Y-85641485D01*
X136789419Y-85636625D01*
X136822500Y-85635000D01*
X137497500Y-85635000D01*
X137530581Y-85636625D01*
X137530581Y-85636625D01*
G37*
D16*
X137160000Y-86360000D03*
G04 #@! TD*
D15*
G04 #@! TO.C,C11*
G36*
X116103581Y-70700625D02*
X116136343Y-70705485D01*
X116168471Y-70713533D01*
X116199656Y-70724691D01*
X116229596Y-70738852D01*
X116258005Y-70755879D01*
X116284608Y-70775609D01*
X116309149Y-70797851D01*
X116331391Y-70822392D01*
X116351121Y-70848995D01*
X116368148Y-70877404D01*
X116382309Y-70907344D01*
X116393467Y-70938529D01*
X116401515Y-70970657D01*
X116406375Y-71003419D01*
X116408000Y-71036500D01*
X116408000Y-71711500D01*
X116406375Y-71744581D01*
X116401515Y-71777343D01*
X116393467Y-71809471D01*
X116382309Y-71840656D01*
X116368148Y-71870596D01*
X116351121Y-71899005D01*
X116331391Y-71925608D01*
X116309149Y-71950149D01*
X116284608Y-71972391D01*
X116258005Y-71992121D01*
X116229596Y-72009148D01*
X116199656Y-72023309D01*
X116168471Y-72034467D01*
X116136343Y-72042515D01*
X116103581Y-72047375D01*
X116070500Y-72049000D01*
X115295500Y-72049000D01*
X115262419Y-72047375D01*
X115229657Y-72042515D01*
X115197529Y-72034467D01*
X115166344Y-72023309D01*
X115136404Y-72009148D01*
X115107995Y-71992121D01*
X115081392Y-71972391D01*
X115056851Y-71950149D01*
X115034609Y-71925608D01*
X115014879Y-71899005D01*
X114997852Y-71870596D01*
X114983691Y-71840656D01*
X114972533Y-71809471D01*
X114964485Y-71777343D01*
X114959625Y-71744581D01*
X114958000Y-71711500D01*
X114958000Y-71036500D01*
X114959625Y-71003419D01*
X114964485Y-70970657D01*
X114972533Y-70938529D01*
X114983691Y-70907344D01*
X114997852Y-70877404D01*
X115014879Y-70848995D01*
X115034609Y-70822392D01*
X115056851Y-70797851D01*
X115081392Y-70775609D01*
X115107995Y-70755879D01*
X115136404Y-70738852D01*
X115166344Y-70724691D01*
X115197529Y-70713533D01*
X115229657Y-70705485D01*
X115262419Y-70700625D01*
X115295500Y-70699000D01*
X116070500Y-70699000D01*
X116103581Y-70700625D01*
X116103581Y-70700625D01*
G37*
D16*
X115683000Y-71374000D03*
D15*
G36*
X114353581Y-70700625D02*
X114386343Y-70705485D01*
X114418471Y-70713533D01*
X114449656Y-70724691D01*
X114479596Y-70738852D01*
X114508005Y-70755879D01*
X114534608Y-70775609D01*
X114559149Y-70797851D01*
X114581391Y-70822392D01*
X114601121Y-70848995D01*
X114618148Y-70877404D01*
X114632309Y-70907344D01*
X114643467Y-70938529D01*
X114651515Y-70970657D01*
X114656375Y-71003419D01*
X114658000Y-71036500D01*
X114658000Y-71711500D01*
X114656375Y-71744581D01*
X114651515Y-71777343D01*
X114643467Y-71809471D01*
X114632309Y-71840656D01*
X114618148Y-71870596D01*
X114601121Y-71899005D01*
X114581391Y-71925608D01*
X114559149Y-71950149D01*
X114534608Y-71972391D01*
X114508005Y-71992121D01*
X114479596Y-72009148D01*
X114449656Y-72023309D01*
X114418471Y-72034467D01*
X114386343Y-72042515D01*
X114353581Y-72047375D01*
X114320500Y-72049000D01*
X113545500Y-72049000D01*
X113512419Y-72047375D01*
X113479657Y-72042515D01*
X113447529Y-72034467D01*
X113416344Y-72023309D01*
X113386404Y-72009148D01*
X113357995Y-71992121D01*
X113331392Y-71972391D01*
X113306851Y-71950149D01*
X113284609Y-71925608D01*
X113264879Y-71899005D01*
X113247852Y-71870596D01*
X113233691Y-71840656D01*
X113222533Y-71809471D01*
X113214485Y-71777343D01*
X113209625Y-71744581D01*
X113208000Y-71711500D01*
X113208000Y-71036500D01*
X113209625Y-71003419D01*
X113214485Y-70970657D01*
X113222533Y-70938529D01*
X113233691Y-70907344D01*
X113247852Y-70877404D01*
X113264879Y-70848995D01*
X113284609Y-70822392D01*
X113306851Y-70797851D01*
X113331392Y-70775609D01*
X113357995Y-70755879D01*
X113386404Y-70738852D01*
X113416344Y-70724691D01*
X113447529Y-70713533D01*
X113479657Y-70705485D01*
X113512419Y-70700625D01*
X113545500Y-70699000D01*
X114320500Y-70699000D01*
X114353581Y-70700625D01*
X114353581Y-70700625D01*
G37*
D16*
X113933000Y-71374000D03*
G04 #@! TD*
D15*
G04 #@! TO.C,C5*
G36*
X116103581Y-74764625D02*
X116136343Y-74769485D01*
X116168471Y-74777533D01*
X116199656Y-74788691D01*
X116229596Y-74802852D01*
X116258005Y-74819879D01*
X116284608Y-74839609D01*
X116309149Y-74861851D01*
X116331391Y-74886392D01*
X116351121Y-74912995D01*
X116368148Y-74941404D01*
X116382309Y-74971344D01*
X116393467Y-75002529D01*
X116401515Y-75034657D01*
X116406375Y-75067419D01*
X116408000Y-75100500D01*
X116408000Y-75775500D01*
X116406375Y-75808581D01*
X116401515Y-75841343D01*
X116393467Y-75873471D01*
X116382309Y-75904656D01*
X116368148Y-75934596D01*
X116351121Y-75963005D01*
X116331391Y-75989608D01*
X116309149Y-76014149D01*
X116284608Y-76036391D01*
X116258005Y-76056121D01*
X116229596Y-76073148D01*
X116199656Y-76087309D01*
X116168471Y-76098467D01*
X116136343Y-76106515D01*
X116103581Y-76111375D01*
X116070500Y-76113000D01*
X115295500Y-76113000D01*
X115262419Y-76111375D01*
X115229657Y-76106515D01*
X115197529Y-76098467D01*
X115166344Y-76087309D01*
X115136404Y-76073148D01*
X115107995Y-76056121D01*
X115081392Y-76036391D01*
X115056851Y-76014149D01*
X115034609Y-75989608D01*
X115014879Y-75963005D01*
X114997852Y-75934596D01*
X114983691Y-75904656D01*
X114972533Y-75873471D01*
X114964485Y-75841343D01*
X114959625Y-75808581D01*
X114958000Y-75775500D01*
X114958000Y-75100500D01*
X114959625Y-75067419D01*
X114964485Y-75034657D01*
X114972533Y-75002529D01*
X114983691Y-74971344D01*
X114997852Y-74941404D01*
X115014879Y-74912995D01*
X115034609Y-74886392D01*
X115056851Y-74861851D01*
X115081392Y-74839609D01*
X115107995Y-74819879D01*
X115136404Y-74802852D01*
X115166344Y-74788691D01*
X115197529Y-74777533D01*
X115229657Y-74769485D01*
X115262419Y-74764625D01*
X115295500Y-74763000D01*
X116070500Y-74763000D01*
X116103581Y-74764625D01*
X116103581Y-74764625D01*
G37*
D16*
X115683000Y-75438000D03*
D15*
G36*
X114353581Y-74764625D02*
X114386343Y-74769485D01*
X114418471Y-74777533D01*
X114449656Y-74788691D01*
X114479596Y-74802852D01*
X114508005Y-74819879D01*
X114534608Y-74839609D01*
X114559149Y-74861851D01*
X114581391Y-74886392D01*
X114601121Y-74912995D01*
X114618148Y-74941404D01*
X114632309Y-74971344D01*
X114643467Y-75002529D01*
X114651515Y-75034657D01*
X114656375Y-75067419D01*
X114658000Y-75100500D01*
X114658000Y-75775500D01*
X114656375Y-75808581D01*
X114651515Y-75841343D01*
X114643467Y-75873471D01*
X114632309Y-75904656D01*
X114618148Y-75934596D01*
X114601121Y-75963005D01*
X114581391Y-75989608D01*
X114559149Y-76014149D01*
X114534608Y-76036391D01*
X114508005Y-76056121D01*
X114479596Y-76073148D01*
X114449656Y-76087309D01*
X114418471Y-76098467D01*
X114386343Y-76106515D01*
X114353581Y-76111375D01*
X114320500Y-76113000D01*
X113545500Y-76113000D01*
X113512419Y-76111375D01*
X113479657Y-76106515D01*
X113447529Y-76098467D01*
X113416344Y-76087309D01*
X113386404Y-76073148D01*
X113357995Y-76056121D01*
X113331392Y-76036391D01*
X113306851Y-76014149D01*
X113284609Y-75989608D01*
X113264879Y-75963005D01*
X113247852Y-75934596D01*
X113233691Y-75904656D01*
X113222533Y-75873471D01*
X113214485Y-75841343D01*
X113209625Y-75808581D01*
X113208000Y-75775500D01*
X113208000Y-75100500D01*
X113209625Y-75067419D01*
X113214485Y-75034657D01*
X113222533Y-75002529D01*
X113233691Y-74971344D01*
X113247852Y-74941404D01*
X113264879Y-74912995D01*
X113284609Y-74886392D01*
X113306851Y-74861851D01*
X113331392Y-74839609D01*
X113357995Y-74819879D01*
X113386404Y-74802852D01*
X113416344Y-74788691D01*
X113447529Y-74777533D01*
X113479657Y-74769485D01*
X113512419Y-74764625D01*
X113545500Y-74763000D01*
X114320500Y-74763000D01*
X114353581Y-74764625D01*
X114353581Y-74764625D01*
G37*
D16*
X113933000Y-75438000D03*
G04 #@! TD*
D15*
G04 #@! TO.C,C6*
G36*
X114353581Y-72732625D02*
X114386343Y-72737485D01*
X114418471Y-72745533D01*
X114449656Y-72756691D01*
X114479596Y-72770852D01*
X114508005Y-72787879D01*
X114534608Y-72807609D01*
X114559149Y-72829851D01*
X114581391Y-72854392D01*
X114601121Y-72880995D01*
X114618148Y-72909404D01*
X114632309Y-72939344D01*
X114643467Y-72970529D01*
X114651515Y-73002657D01*
X114656375Y-73035419D01*
X114658000Y-73068500D01*
X114658000Y-73743500D01*
X114656375Y-73776581D01*
X114651515Y-73809343D01*
X114643467Y-73841471D01*
X114632309Y-73872656D01*
X114618148Y-73902596D01*
X114601121Y-73931005D01*
X114581391Y-73957608D01*
X114559149Y-73982149D01*
X114534608Y-74004391D01*
X114508005Y-74024121D01*
X114479596Y-74041148D01*
X114449656Y-74055309D01*
X114418471Y-74066467D01*
X114386343Y-74074515D01*
X114353581Y-74079375D01*
X114320500Y-74081000D01*
X113545500Y-74081000D01*
X113512419Y-74079375D01*
X113479657Y-74074515D01*
X113447529Y-74066467D01*
X113416344Y-74055309D01*
X113386404Y-74041148D01*
X113357995Y-74024121D01*
X113331392Y-74004391D01*
X113306851Y-73982149D01*
X113284609Y-73957608D01*
X113264879Y-73931005D01*
X113247852Y-73902596D01*
X113233691Y-73872656D01*
X113222533Y-73841471D01*
X113214485Y-73809343D01*
X113209625Y-73776581D01*
X113208000Y-73743500D01*
X113208000Y-73068500D01*
X113209625Y-73035419D01*
X113214485Y-73002657D01*
X113222533Y-72970529D01*
X113233691Y-72939344D01*
X113247852Y-72909404D01*
X113264879Y-72880995D01*
X113284609Y-72854392D01*
X113306851Y-72829851D01*
X113331392Y-72807609D01*
X113357995Y-72787879D01*
X113386404Y-72770852D01*
X113416344Y-72756691D01*
X113447529Y-72745533D01*
X113479657Y-72737485D01*
X113512419Y-72732625D01*
X113545500Y-72731000D01*
X114320500Y-72731000D01*
X114353581Y-72732625D01*
X114353581Y-72732625D01*
G37*
D16*
X113933000Y-73406000D03*
D15*
G36*
X116103581Y-72732625D02*
X116136343Y-72737485D01*
X116168471Y-72745533D01*
X116199656Y-72756691D01*
X116229596Y-72770852D01*
X116258005Y-72787879D01*
X116284608Y-72807609D01*
X116309149Y-72829851D01*
X116331391Y-72854392D01*
X116351121Y-72880995D01*
X116368148Y-72909404D01*
X116382309Y-72939344D01*
X116393467Y-72970529D01*
X116401515Y-73002657D01*
X116406375Y-73035419D01*
X116408000Y-73068500D01*
X116408000Y-73743500D01*
X116406375Y-73776581D01*
X116401515Y-73809343D01*
X116393467Y-73841471D01*
X116382309Y-73872656D01*
X116368148Y-73902596D01*
X116351121Y-73931005D01*
X116331391Y-73957608D01*
X116309149Y-73982149D01*
X116284608Y-74004391D01*
X116258005Y-74024121D01*
X116229596Y-74041148D01*
X116199656Y-74055309D01*
X116168471Y-74066467D01*
X116136343Y-74074515D01*
X116103581Y-74079375D01*
X116070500Y-74081000D01*
X115295500Y-74081000D01*
X115262419Y-74079375D01*
X115229657Y-74074515D01*
X115197529Y-74066467D01*
X115166344Y-74055309D01*
X115136404Y-74041148D01*
X115107995Y-74024121D01*
X115081392Y-74004391D01*
X115056851Y-73982149D01*
X115034609Y-73957608D01*
X115014879Y-73931005D01*
X114997852Y-73902596D01*
X114983691Y-73872656D01*
X114972533Y-73841471D01*
X114964485Y-73809343D01*
X114959625Y-73776581D01*
X114958000Y-73743500D01*
X114958000Y-73068500D01*
X114959625Y-73035419D01*
X114964485Y-73002657D01*
X114972533Y-72970529D01*
X114983691Y-72939344D01*
X114997852Y-72909404D01*
X115014879Y-72880995D01*
X115034609Y-72854392D01*
X115056851Y-72829851D01*
X115081392Y-72807609D01*
X115107995Y-72787879D01*
X115136404Y-72770852D01*
X115166344Y-72756691D01*
X115197529Y-72745533D01*
X115229657Y-72737485D01*
X115262419Y-72732625D01*
X115295500Y-72731000D01*
X116070500Y-72731000D01*
X116103581Y-72732625D01*
X116103581Y-72732625D01*
G37*
D16*
X115683000Y-73406000D03*
G04 #@! TD*
D15*
G04 #@! TO.C,C7*
G36*
X109590581Y-80415625D02*
X109623343Y-80420485D01*
X109655471Y-80428533D01*
X109686656Y-80439691D01*
X109716596Y-80453852D01*
X109745005Y-80470879D01*
X109771608Y-80490609D01*
X109796149Y-80512851D01*
X109818391Y-80537392D01*
X109838121Y-80563995D01*
X109855148Y-80592404D01*
X109869309Y-80622344D01*
X109880467Y-80653529D01*
X109888515Y-80685657D01*
X109893375Y-80718419D01*
X109895000Y-80751500D01*
X109895000Y-81526500D01*
X109893375Y-81559581D01*
X109888515Y-81592343D01*
X109880467Y-81624471D01*
X109869309Y-81655656D01*
X109855148Y-81685596D01*
X109838121Y-81714005D01*
X109818391Y-81740608D01*
X109796149Y-81765149D01*
X109771608Y-81787391D01*
X109745005Y-81807121D01*
X109716596Y-81824148D01*
X109686656Y-81838309D01*
X109655471Y-81849467D01*
X109623343Y-81857515D01*
X109590581Y-81862375D01*
X109557500Y-81864000D01*
X108882500Y-81864000D01*
X108849419Y-81862375D01*
X108816657Y-81857515D01*
X108784529Y-81849467D01*
X108753344Y-81838309D01*
X108723404Y-81824148D01*
X108694995Y-81807121D01*
X108668392Y-81787391D01*
X108643851Y-81765149D01*
X108621609Y-81740608D01*
X108601879Y-81714005D01*
X108584852Y-81685596D01*
X108570691Y-81655656D01*
X108559533Y-81624471D01*
X108551485Y-81592343D01*
X108546625Y-81559581D01*
X108545000Y-81526500D01*
X108545000Y-80751500D01*
X108546625Y-80718419D01*
X108551485Y-80685657D01*
X108559533Y-80653529D01*
X108570691Y-80622344D01*
X108584852Y-80592404D01*
X108601879Y-80563995D01*
X108621609Y-80537392D01*
X108643851Y-80512851D01*
X108668392Y-80490609D01*
X108694995Y-80470879D01*
X108723404Y-80453852D01*
X108753344Y-80439691D01*
X108784529Y-80428533D01*
X108816657Y-80420485D01*
X108849419Y-80415625D01*
X108882500Y-80414000D01*
X109557500Y-80414000D01*
X109590581Y-80415625D01*
X109590581Y-80415625D01*
G37*
D16*
X109220000Y-81139000D03*
D15*
G36*
X109590581Y-78665625D02*
X109623343Y-78670485D01*
X109655471Y-78678533D01*
X109686656Y-78689691D01*
X109716596Y-78703852D01*
X109745005Y-78720879D01*
X109771608Y-78740609D01*
X109796149Y-78762851D01*
X109818391Y-78787392D01*
X109838121Y-78813995D01*
X109855148Y-78842404D01*
X109869309Y-78872344D01*
X109880467Y-78903529D01*
X109888515Y-78935657D01*
X109893375Y-78968419D01*
X109895000Y-79001500D01*
X109895000Y-79776500D01*
X109893375Y-79809581D01*
X109888515Y-79842343D01*
X109880467Y-79874471D01*
X109869309Y-79905656D01*
X109855148Y-79935596D01*
X109838121Y-79964005D01*
X109818391Y-79990608D01*
X109796149Y-80015149D01*
X109771608Y-80037391D01*
X109745005Y-80057121D01*
X109716596Y-80074148D01*
X109686656Y-80088309D01*
X109655471Y-80099467D01*
X109623343Y-80107515D01*
X109590581Y-80112375D01*
X109557500Y-80114000D01*
X108882500Y-80114000D01*
X108849419Y-80112375D01*
X108816657Y-80107515D01*
X108784529Y-80099467D01*
X108753344Y-80088309D01*
X108723404Y-80074148D01*
X108694995Y-80057121D01*
X108668392Y-80037391D01*
X108643851Y-80015149D01*
X108621609Y-79990608D01*
X108601879Y-79964005D01*
X108584852Y-79935596D01*
X108570691Y-79905656D01*
X108559533Y-79874471D01*
X108551485Y-79842343D01*
X108546625Y-79809581D01*
X108545000Y-79776500D01*
X108545000Y-79001500D01*
X108546625Y-78968419D01*
X108551485Y-78935657D01*
X108559533Y-78903529D01*
X108570691Y-78872344D01*
X108584852Y-78842404D01*
X108601879Y-78813995D01*
X108621609Y-78787392D01*
X108643851Y-78762851D01*
X108668392Y-78740609D01*
X108694995Y-78720879D01*
X108723404Y-78703852D01*
X108753344Y-78689691D01*
X108784529Y-78678533D01*
X108816657Y-78670485D01*
X108849419Y-78665625D01*
X108882500Y-78664000D01*
X109557500Y-78664000D01*
X109590581Y-78665625D01*
X109590581Y-78665625D01*
G37*
D16*
X109220000Y-79389000D03*
G04 #@! TD*
D15*
G04 #@! TO.C,C10*
G36*
X111622581Y-80415625D02*
X111655343Y-80420485D01*
X111687471Y-80428533D01*
X111718656Y-80439691D01*
X111748596Y-80453852D01*
X111777005Y-80470879D01*
X111803608Y-80490609D01*
X111828149Y-80512851D01*
X111850391Y-80537392D01*
X111870121Y-80563995D01*
X111887148Y-80592404D01*
X111901309Y-80622344D01*
X111912467Y-80653529D01*
X111920515Y-80685657D01*
X111925375Y-80718419D01*
X111927000Y-80751500D01*
X111927000Y-81526500D01*
X111925375Y-81559581D01*
X111920515Y-81592343D01*
X111912467Y-81624471D01*
X111901309Y-81655656D01*
X111887148Y-81685596D01*
X111870121Y-81714005D01*
X111850391Y-81740608D01*
X111828149Y-81765149D01*
X111803608Y-81787391D01*
X111777005Y-81807121D01*
X111748596Y-81824148D01*
X111718656Y-81838309D01*
X111687471Y-81849467D01*
X111655343Y-81857515D01*
X111622581Y-81862375D01*
X111589500Y-81864000D01*
X110914500Y-81864000D01*
X110881419Y-81862375D01*
X110848657Y-81857515D01*
X110816529Y-81849467D01*
X110785344Y-81838309D01*
X110755404Y-81824148D01*
X110726995Y-81807121D01*
X110700392Y-81787391D01*
X110675851Y-81765149D01*
X110653609Y-81740608D01*
X110633879Y-81714005D01*
X110616852Y-81685596D01*
X110602691Y-81655656D01*
X110591533Y-81624471D01*
X110583485Y-81592343D01*
X110578625Y-81559581D01*
X110577000Y-81526500D01*
X110577000Y-80751500D01*
X110578625Y-80718419D01*
X110583485Y-80685657D01*
X110591533Y-80653529D01*
X110602691Y-80622344D01*
X110616852Y-80592404D01*
X110633879Y-80563995D01*
X110653609Y-80537392D01*
X110675851Y-80512851D01*
X110700392Y-80490609D01*
X110726995Y-80470879D01*
X110755404Y-80453852D01*
X110785344Y-80439691D01*
X110816529Y-80428533D01*
X110848657Y-80420485D01*
X110881419Y-80415625D01*
X110914500Y-80414000D01*
X111589500Y-80414000D01*
X111622581Y-80415625D01*
X111622581Y-80415625D01*
G37*
D16*
X111252000Y-81139000D03*
D15*
G36*
X111622581Y-78665625D02*
X111655343Y-78670485D01*
X111687471Y-78678533D01*
X111718656Y-78689691D01*
X111748596Y-78703852D01*
X111777005Y-78720879D01*
X111803608Y-78740609D01*
X111828149Y-78762851D01*
X111850391Y-78787392D01*
X111870121Y-78813995D01*
X111887148Y-78842404D01*
X111901309Y-78872344D01*
X111912467Y-78903529D01*
X111920515Y-78935657D01*
X111925375Y-78968419D01*
X111927000Y-79001500D01*
X111927000Y-79776500D01*
X111925375Y-79809581D01*
X111920515Y-79842343D01*
X111912467Y-79874471D01*
X111901309Y-79905656D01*
X111887148Y-79935596D01*
X111870121Y-79964005D01*
X111850391Y-79990608D01*
X111828149Y-80015149D01*
X111803608Y-80037391D01*
X111777005Y-80057121D01*
X111748596Y-80074148D01*
X111718656Y-80088309D01*
X111687471Y-80099467D01*
X111655343Y-80107515D01*
X111622581Y-80112375D01*
X111589500Y-80114000D01*
X110914500Y-80114000D01*
X110881419Y-80112375D01*
X110848657Y-80107515D01*
X110816529Y-80099467D01*
X110785344Y-80088309D01*
X110755404Y-80074148D01*
X110726995Y-80057121D01*
X110700392Y-80037391D01*
X110675851Y-80015149D01*
X110653609Y-79990608D01*
X110633879Y-79964005D01*
X110616852Y-79935596D01*
X110602691Y-79905656D01*
X110591533Y-79874471D01*
X110583485Y-79842343D01*
X110578625Y-79809581D01*
X110577000Y-79776500D01*
X110577000Y-79001500D01*
X110578625Y-78968419D01*
X110583485Y-78935657D01*
X110591533Y-78903529D01*
X110602691Y-78872344D01*
X110616852Y-78842404D01*
X110633879Y-78813995D01*
X110653609Y-78787392D01*
X110675851Y-78762851D01*
X110700392Y-78740609D01*
X110726995Y-78720879D01*
X110755404Y-78703852D01*
X110785344Y-78689691D01*
X110816529Y-78678533D01*
X110848657Y-78670485D01*
X110881419Y-78665625D01*
X110914500Y-78664000D01*
X111589500Y-78664000D01*
X111622581Y-78665625D01*
X111622581Y-78665625D01*
G37*
D16*
X111252000Y-79389000D03*
G04 #@! TD*
D17*
G04 #@! TO.C,J1*
X180340000Y-38180000D03*
X180340000Y-40680000D03*
D18*
X180340000Y-43180000D03*
G04 #@! TD*
D17*
G04 #@! TO.C,J2*
X181610000Y-96560000D03*
X181610000Y-99060000D03*
D18*
X181610000Y-101560000D03*
G04 #@! TD*
D17*
G04 #@! TO.C,J6*
X165100000Y-38220000D03*
X165100000Y-40720000D03*
D18*
X165100000Y-43220000D03*
G04 #@! TD*
D17*
G04 #@! TO.C,J7*
X173990000Y-96560000D03*
X173990000Y-99060000D03*
D18*
X173990000Y-101560000D03*
G04 #@! TD*
D17*
G04 #@! TO.C,J8*
X172720000Y-38220000D03*
X172720000Y-40720000D03*
D18*
X172720000Y-43220000D03*
G04 #@! TD*
G04 #@! TO.C,J10*
X187960000Y-43220000D03*
D17*
X187960000Y-40720000D03*
X187960000Y-38220000D03*
G04 #@! TD*
D18*
G04 #@! TO.C,J11*
X166370000Y-101560000D03*
D17*
X166370000Y-99060000D03*
X166370000Y-96560000D03*
G04 #@! TD*
D18*
G04 #@! TO.C,J9*
X189230000Y-101560000D03*
D17*
X189230000Y-99060000D03*
X189230000Y-96560000D03*
G04 #@! TD*
D19*
G04 #@! TO.C,U7*
X145415000Y-66040000D03*
X146685000Y-66040000D03*
X147955000Y-66040000D03*
X149225000Y-66040000D03*
D20*
X150495000Y-66040000D03*
G04 #@! TD*
G04 #@! TO.C,U5*
X177290000Y-66040000D03*
D19*
X176020000Y-66040000D03*
X174750000Y-66040000D03*
X173480000Y-66040000D03*
X172210000Y-66040000D03*
G04 #@! TD*
D11*
G04 #@! TO.C,J21*
X228600000Y-96520000D03*
D10*
X226060000Y-96520000D03*
X223520000Y-96520000D03*
G04 #@! TD*
D11*
G04 #@! TO.C,J16*
X237490000Y-55880000D03*
D10*
X234950000Y-55880000D03*
X232410000Y-55880000D03*
X229870000Y-55880000D03*
X227330000Y-55880000D03*
X224790000Y-55880000D03*
X222250000Y-55880000D03*
X219710000Y-55880000D03*
G04 #@! TD*
D11*
G04 #@! TO.C,J3*
X109220000Y-83820000D03*
D10*
X111760000Y-83820000D03*
X114300000Y-83820000D03*
X116840000Y-83820000D03*
X119380000Y-83820000D03*
X121920000Y-83820000D03*
X124460000Y-83820000D03*
X127000000Y-83820000D03*
X129540000Y-83820000D03*
X132080000Y-83820000D03*
X134620000Y-83820000D03*
G04 #@! TD*
G04 #@! TO.C,J4*
X134620000Y-86360000D03*
X132080000Y-86360000D03*
X129540000Y-86360000D03*
X127000000Y-86360000D03*
X124460000Y-86360000D03*
X121920000Y-86360000D03*
X119380000Y-86360000D03*
X116840000Y-86360000D03*
X114300000Y-86360000D03*
X111760000Y-86360000D03*
D11*
X109220000Y-86360000D03*
G04 #@! TD*
G04 #@! TO.C,J5*
X109220000Y-88900000D03*
D10*
X111760000Y-88900000D03*
X114300000Y-88900000D03*
X116840000Y-88900000D03*
X119380000Y-88900000D03*
X121920000Y-88900000D03*
X124460000Y-88900000D03*
X127000000Y-88900000D03*
X129540000Y-88900000D03*
X132080000Y-88900000D03*
X134620000Y-88900000D03*
G04 #@! TD*
D11*
G04 #@! TO.C,J13*
X185420000Y-55880000D03*
D10*
X187960000Y-55880000D03*
X190500000Y-55880000D03*
X193040000Y-55880000D03*
X195580000Y-55880000D03*
X198120000Y-55880000D03*
X200660000Y-55880000D03*
X203200000Y-55880000D03*
X205740000Y-55880000D03*
X208280000Y-55880000D03*
X210820000Y-55880000D03*
X213360000Y-55880000D03*
G04 #@! TD*
D11*
G04 #@! TO.C,J14*
X193040000Y-88900000D03*
D10*
X195580000Y-88900000D03*
X198120000Y-88900000D03*
X200660000Y-88900000D03*
X203200000Y-88900000D03*
X205740000Y-88900000D03*
X208280000Y-88900000D03*
X210820000Y-88900000D03*
X213360000Y-88900000D03*
X215900000Y-88900000D03*
X218440000Y-88900000D03*
X220980000Y-88900000D03*
X223520000Y-88900000D03*
G04 #@! TD*
D11*
G04 #@! TO.C,J17*
X124460000Y-55880000D03*
D10*
X124460000Y-53340000D03*
X127000000Y-55880000D03*
X127000000Y-53340000D03*
X129540000Y-55880000D03*
X129540000Y-53340000D03*
G04 #@! TD*
D11*
G04 #@! TO.C,J15*
X162560000Y-76200000D03*
D10*
X160020000Y-76200000D03*
X162560000Y-73660000D03*
X160020000Y-73660000D03*
X162560000Y-71120000D03*
X160020000Y-71120000D03*
X162560000Y-68580000D03*
X160020000Y-68580000D03*
G04 #@! TD*
D21*
G04 #@! TO.C,J20*
X176190000Y-110490000D03*
X171790000Y-110490000D03*
G04 #@! TD*
D12*
G04 #@! TO.C,RV1*
X184150000Y-60960000D03*
X184150000Y-63500000D03*
X184150000Y-66040000D03*
G04 #@! TD*
D22*
G04 #@! TO.C,RN2*
X123260000Y-79110000D03*
D23*
X124860000Y-79110000D03*
X124060000Y-79110000D03*
D22*
X125660000Y-79110000D03*
D23*
X124060000Y-80910000D03*
D22*
X123260000Y-80910000D03*
D23*
X124860000Y-80910000D03*
D22*
X125660000Y-80910000D03*
G04 #@! TD*
G04 #@! TO.C,RN3*
X130740000Y-80910000D03*
D23*
X129940000Y-80910000D03*
D22*
X128340000Y-80910000D03*
D23*
X129140000Y-80910000D03*
D22*
X130740000Y-79110000D03*
D23*
X129140000Y-79110000D03*
X129940000Y-79110000D03*
D22*
X128340000Y-79110000D03*
G04 #@! TD*
G04 #@! TO.C,RN1*
X118180000Y-79110000D03*
D23*
X119780000Y-79110000D03*
X118980000Y-79110000D03*
D22*
X120580000Y-79110000D03*
D23*
X118980000Y-80910000D03*
D22*
X118180000Y-80910000D03*
D23*
X119780000Y-80910000D03*
D22*
X120580000Y-80910000D03*
G04 #@! TD*
D24*
G04 #@! TO.C,U4*
X193040000Y-83820000D03*
X195580000Y-83820000D03*
X198120000Y-83820000D03*
X200660000Y-83820000D03*
X203200000Y-83820000D03*
X205740000Y-83820000D03*
X208280000Y-83820000D03*
X210820000Y-83820000D03*
X213360000Y-83820000D03*
X215900000Y-83820000D03*
X218440000Y-83820000D03*
X220980000Y-83820000D03*
X223520000Y-83820000D03*
X226060000Y-83820000D03*
X228600000Y-83820000D03*
X231140000Y-83820000D03*
X231140000Y-60960000D03*
X228600000Y-60960000D03*
X226060000Y-60960000D03*
X223520000Y-60960000D03*
X220980000Y-60960000D03*
X218440000Y-60960000D03*
X215900000Y-60960000D03*
X213360000Y-60960000D03*
X210820000Y-60960000D03*
X208280000Y-60960000D03*
X205740000Y-60960000D03*
X203200000Y-60960000D03*
X200660000Y-60960000D03*
X198120000Y-60960000D03*
X195580000Y-60960000D03*
X193040000Y-60960000D03*
G04 #@! TD*
M02*
